<svg width="45" height="45" viewBox="0 0 45 45" fill="none" xmlns="http://www.w3.org/2000/svg">
<path d="M18.75 35.625C18.3119 35.6259 17.8873 35.4733 17.55 35.1937C17.3601 35.0363 17.2032 34.843 17.0882 34.6249C16.9731 34.4067 16.9023 34.168 16.8796 33.9224C16.857 33.6769 16.883 33.4292 16.9562 33.1937C17.0294 32.9582 17.1484 32.7395 17.3063 32.55L25.7063 22.5L17.6063 12.4312C17.4505 12.2395 17.3342 12.0188 17.264 11.7819C17.1938 11.545 17.1712 11.2966 17.1973 11.0509C17.2234 10.8052 17.2979 10.5671 17.4163 10.3503C17.5348 10.1335 17.6949 9.94223 17.8875 9.7875C18.0815 9.6168 18.3087 9.48805 18.5548 9.40932C18.8009 9.33059 19.0607 9.30358 19.3177 9.32999C19.5748 9.3564 19.8236 9.43566 20.0485 9.56279C20.2735 9.68992 20.4698 9.86217 20.625 10.0687L29.6813 21.3187C29.957 21.6542 30.1078 22.0751 30.1078 22.5094C30.1078 22.9437 29.957 23.3645 29.6813 23.7L20.3063 34.95C20.1182 35.1769 19.8792 35.3563 19.6088 35.4735C19.3384 35.5908 19.0442 35.6427 18.75 35.625Z" fill="#DA0000"/>
</svg>
