<svg width="45" height="45" viewBox="0 0 45 45" fill="none" xmlns="http://www.w3.org/2000/svg">
<path d="M26.25 9.375C26.6881 9.37414 27.1127 9.52672 27.45 9.80625C27.6399 9.96365 27.7968 10.157 27.9118 10.3751C28.0269 10.5933 28.0977 10.832 28.1204 11.0775C28.143 11.3231 28.117 11.5708 28.0438 11.8063C27.9706 12.0418 27.8516 12.2605 27.6937 12.45L19.2937 22.5L27.3937 32.5687C27.5495 32.7605 27.6658 32.9812 27.736 33.2181C27.8062 33.455 27.8288 33.7034 27.8027 33.9491C27.7766 34.1948 27.7021 34.4329 27.5837 34.6497C27.4652 34.8665 27.3051 35.0578 27.1125 35.2125C26.9185 35.3832 26.6913 35.5119 26.4452 35.5907C26.1991 35.6694 25.9393 35.6964 25.6823 35.67C25.4252 35.6436 25.1764 35.5643 24.9515 35.4372C24.7265 35.3101 24.5302 35.1378 24.375 34.9312L15.3188 23.6812C15.043 23.3457 14.8922 22.9249 14.8922 22.4906C14.8922 22.0563 15.043 21.6355 15.3188 21.3L24.6937 10.05C24.8818 9.82309 25.1208 9.64372 25.3912 9.52644C25.6616 9.40916 25.9558 9.35728 26.25 9.375Z" fill="#DA0000"/>
</svg>
