<svg xmlns="http://www.w3.org/2000/svg" width="46.242" height="35.569" viewBox="0 0 46.242 35.569"><g transform="translate(0.25 -60.462)"><g transform="translate(0 60.712)"><g transform="translate(0 0)"><path d="M43.455,60.758H11.435a.762.762,0,0,0,0,1.525H43.455a.762.762,0,0,1,.762.762V93.54a.762.762,0,0,1-.762.762H2.287a.762.762,0,0,1-.762-.762V63.045a.762.762,0,0,1,.762-.762H5.337a.762.762,0,1,0,0-1.525H2.287A2.287,2.287,0,0,0,0,63.045V93.54a2.287,2.287,0,0,0,2.287,2.287H43.455a2.287,2.287,0,0,0,2.287-2.287V63.045A2.287,2.287,0,0,0,43.455,60.758Z" transform="translate(0 -60.758)" fill="#da0000" stroke="#da0000" stroke-width="0.5"/><path d="M34.31,95.162a.762.762,0,0,0,.094,1.074L51.992,111.01a3.046,3.046,0,0,0,3.923,0L73.5,96.236a.762.762,0,0,0-.98-1.168L54.934,109.843a1.525,1.525,0,0,1-1.962,0L35.384,95.068a.762.762,0,0,0-1.074.094Z" transform="translate(-31.082 -91.84)" fill="#da0000" stroke="#da0000" stroke-width="0.5"/><path d="M44.89,274.2,34.217,285.64a.762.762,0,1,0,1.115,1.04L46,275.245a.762.762,0,1,0-1.115-1.04Z" transform="translate(-30.963 -254.903)" fill="#da0000" stroke="#da0000" stroke-width="0.5"/><path d="M341.579,274.3a.762.762,0,0,0-.037,1.077l10.673,11.435a.762.762,0,0,0,1.115-1.04l-10.673-11.435A.762.762,0,0,0,341.579,274.3Z" transform="translate(-310.842 -255.035)" fill="#da0000" stroke="#da0000" stroke-width="0.5"/></g></g></g></svg>