<svg width="228" height="356" viewBox="0 0 228 356" fill="none" xmlns="http://www.w3.org/2000/svg">
<path d="M99.0391 355.438C102.267 355.442 105.377 354.22 107.739 352.02C133.639 328.12 189.963 270.427 189.963 220.704V206.004C189.963 141.435 147.439 64.537 94.979 34.248C80.573 25.934 66.923 21.998 54.691 21.998C22.38 21.998 0 49.488 0 96.325V111.025C0 164.512 65.166 302.469 87.543 348.262C88.5897 350.42 90.2244 352.238 92.2589 353.507C94.2934 354.777 96.6449 355.446 99.043 355.438H99.0391ZM142.467 171.348C142.467 192.835 131.767 205.253 116.182 205.253C109.802 205.253 102.594 203.167 94.974 198.767C68.747 183.626 47.4871 146.794 47.4871 116.511C47.4871 95.025 58.187 82.606 73.767 82.606C78.0403 82.6653 82.2704 83.4701 86.267 84.984C89.2817 86.0961 92.193 87.4711 94.967 89.093C121.2 104.235 142.46 141.061 142.46 171.348H142.467Z" fill="url(#paint0_linear)"/>
<path d="M105.751 353.361L140.975 333.438C140.975 333.438 227.786 263.272 227.786 198.699V184.004C227.786 119.431 185.262 42.5375 132.802 12.2485C118.41 3.94046 104.768 0.00446256 92.544 0.00446256C82.8386 -0.127332 73.318 2.66284 65.219 8.01246L65.213 8.00346L30.995 27.6615C38.2343 23.8131 46.3238 21.8433 54.522 21.9325C66.755 21.9325 80.404 25.8685 94.81 34.1825C132.386 55.8765 164.86 101.482 180.268 149.342C180.278 149.34 180.288 149.34 180.298 149.342V149.426C186.381 168.357 189.798 187.638 189.798 205.932V220.632C189.798 270.355 133.474 328.044 107.574 351.948C107.01 352.471 106.401 352.942 105.754 353.356L105.751 353.361ZM116.018 205.185C129.118 205.185 138.756 196.418 141.506 180.869C138.492 179.755 135.581 178.38 132.806 176.761C106.575 161.624 85.314 124.793 85.314 94.5055C85.2986 91.2922 85.5636 88.0837 86.106 84.9165C82.1094 83.4025 77.8793 82.5977 73.606 82.5385C58.023 82.5385 47.326 94.9575 47.326 116.443C47.326 146.726 68.586 183.558 94.813 198.699C102.433 203.099 109.641 205.185 116.021 205.185H116.018Z" fill="url(#paint1_linear)"/>
<defs>
<linearGradient id="paint0_linear" x1="94.9815" y1="21.998" x2="94.9815" y2="355.438" gradientUnits="userSpaceOnUse">
<stop offset="0.0104167" stop-color="#FC2323"/>
<stop offset="0.359375" stop-color="#DA0000"/>
<stop offset="0.796875" stop-color="#880000"/>
</linearGradient>
<linearGradient id="paint1_linear" x1="129.39" y1="0" x2="129.39" y2="353.361" gradientUnits="userSpaceOnUse">
<stop stop-color="#DA0000"/>
<stop offset="0.421875" stop-color="#880000"/>
</linearGradient>
</defs>
</svg>
