<svg xmlns="http://www.w3.org/2000/svg" width="35.28" height="45.562" viewBox="0 0 35.28 45.562"><g transform="translate(-108.767)"><g transform="translate(108.767)"><g transform="translate(0)"><path d="M126.407,0a17.64,17.64,0,0,0-13.7,28.757q.028.044.061.086L125.462,45.1a1.2,1.2,0,0,0,1.89,0L140.1,28.757l.013-.017A17.64,17.64,0,0,0,126.407,0Zm11.821,27.262c-.015.019-.03.038-.044.057l-11.778,15.1L114.748,27.478a1.2,1.2,0,0,0-.1-.137,15.242,15.242,0,1,1,23.577-.08Z" transform="translate(-108.767)" fill="#da0000"/></g></g><g transform="translate(115.616 7.11)"><g transform="translate(0)"><path d="M187.024,67.024a1.2,1.2,0,0,0-2.3.679,8.393,8.393,0,1,1-5.659-5.664,1.2,1.2,0,1,0,.681-2.3,10.791,10.791,0,1,0,7.278,7.285Z" transform="translate(-165.884 -59.293)" fill="#da0000"/></g></g><g transform="translate(131.99 9.92)"><path d="M304.5,83.1l-.021-.021a1.2,1.2,0,0,0-1.7,1.7l.021.021a1.2,1.2,0,0,0,1.7-1.7Z" transform="translate(-302.436 -82.73)" fill="#da0000"/></g></g></svg>