<svg xmlns="http://www.w3.org/2000/svg" width="40.797" height="36.678" viewBox="0 0 40.797 36.678"><g transform="translate(713.95 -1642.522)"><path d="M14.1,146.379c-2.878,0-5.225,2.8-5.225,6.255s2.347,6.255,5.225,6.255,5.225-2.8,5.225-6.255S16.99,146.379,14.1,146.379Zm0,14.368c-3.9,0-7.062-3.642-7.062-8.113S10.2,144.51,14.1,144.51s7.062,3.642,7.062,8.124S18,160.747,14.1,160.747Z" transform="translate(-714.619 1498.012)" fill="#fff"/><path d="M3.344,178.163H25.283l.457-6.871a5.137,5.137,0,0,0-3.111-4.587,24.507,24.507,0,0,0-16.651,0,5.155,5.155,0,0,0-3.1,4.587l.457,6.871Zm22.8,1.858H2.484a.927.927,0,0,1-.913-.871l-.52-7.741a7.034,7.034,0,0,1,4.311-6.467,26.26,26.26,0,0,1,17.9,0,6.985,6.985,0,0,1,4.311,6.467l-.52,7.741A.927.927,0,0,1,26.144,180.021Z" transform="translate(-714.99 1499.18)" fill="#fff"/><path d="M29.217,150.859c-2.357,0-4.28,2.3-4.28,5.15s1.922,5.15,4.28,5.15,4.28-2.315,4.28-5.15S31.574,150.859,29.217,150.859Zm0,12.17c-3.377,0-6.117-3.143-6.117-7.019s2.75-7.019,6.117-7.019,6.117,3.143,6.117,7.019-2.74,7.019-6.117,7.019Z" transform="translate(-713.624 1498.29)" fill="#fff"/><path d="M39.186,178.468H25.254a.935.935,0,0,1,0-1.869H38.337l.382-5.681a4.243,4.243,0,0,0-2.538-3.738,20.592,20.592,0,0,0-13.391-.212.93.93,0,0,1-.563-1.773,22.419,22.419,0,0,1,14.58.234,6.085,6.085,0,0,1,3.749,5.618L40.11,177.6a.927.927,0,0,1-.913.871Z" transform="translate(-713.718 1499.225)" fill="#fff"/></g></svg>