<svg xmlns="http://www.w3.org/2000/svg" width="36.861" height="37.392" viewBox="0 0 36.861 37.392"><path d="M36.48,467.422H1.251A.814.814,0,0,1,.44,466.6V430.851a.812.812,0,1,1,1.623,0v34.93H36.489a.821.821,0,0,1,0,1.642Z" transform="translate(-0.44 -430.03)" fill="#fff"/><path d="M1.822,466.821a.779.779,0,0,1-.532-.205.823.823,0,0,1-.065-1.156l8.777-10a.8.8,0,0,1,.961-.187l2.714,1.371,6.1-15.5a.805.805,0,0,1,1.007-.476l3.563,1.2,11.416-11.248a.791.791,0,0,1,1.138.019.822.822,0,0,1-.019,1.157L25.121,443.4a.805.805,0,0,1-.821.187l-3.311-1.119-6.137,15.614a.82.82,0,0,1-.466.466.776.776,0,0,1-.644-.028L10.8,457.028,2.438,466.56a.782.782,0,0,1-.606.271Z" transform="translate(-0.479 -430.054)" fill="#fff"/><path d="M38.182,443.5a.814.814,0,0,1-.811-.821v-11H26.532a.821.821,0,0,1,0-1.642h11.65a.82.82,0,0,1,.811.821v11.817A.814.814,0,0,1,38.182,443.5Z" transform="translate(-2.142 -430.031)" fill="#fff"/><path d="M9.461,469.666a.814.814,0,0,1-.811-.821V465.3a.807.807,0,1,1,1.614,0v3.544A.812.812,0,0,1,9.461,469.666Z" transform="translate(-0.993 -432.348)" fill="#fff"/><path d="M16.851,469.666a.814.814,0,0,1-.811-.821V465.3a.812.812,0,1,1,1.623,0v3.544A.814.814,0,0,1,16.851,469.666Z" transform="translate(-1.49 -432.348)" fill="#fff"/><path d="M24.241,469.666a.814.814,0,0,1-.811-.821V465.3a.812.812,0,1,1,1.623,0v3.544A.814.814,0,0,1,24.241,469.666Z" transform="translate(-1.987 -432.348)" fill="#fff"/><path d="M31.631,469.666a.814.814,0,0,1-.811-.821V465.3a.807.807,0,1,1,1.614,0v3.544A.812.812,0,0,1,31.631,469.666Z" transform="translate(-2.484 -432.348)" fill="#fff"/><path d="M39.021,469.666a.814.814,0,0,1-.811-.821V465.3a.812.812,0,1,1,1.623,0v3.544A.814.814,0,0,1,39.021,469.666Z" transform="translate(-2.982 -432.348)" fill="#fff"/><path d="M4.82,431.672h-3.5a.806.806,0,0,1-.8-.821.818.818,0,0,1,.8-.821h3.5a.821.821,0,0,1,0,1.642Z" transform="translate(-0.446 -430.03)" fill="#fff"/><path d="M4.82,439.171h-3.5a.806.806,0,0,1-.8-.821.818.818,0,0,1,.8-.821h3.5a.821.821,0,0,1,0,1.642Z" transform="translate(-0.446 -430.535)" fill="#fff"/><path d="M4.82,446.671h-3.5a.821.821,0,0,1,0-1.642h3.5a.821.821,0,0,1,0,1.642Z" transform="translate(-0.446 -431.039)" fill="#fff"/><path d="M4.82,454.172h-3.5a.806.806,0,0,1-.8-.821.818.818,0,0,1,.8-.821h3.5a.821.821,0,0,1,0,1.642Z" transform="translate(-0.446 -431.544)" fill="#fff"/><path d="M4.82,461.661h-3.5a.821.821,0,0,1,0-1.642h3.5a.821.821,0,0,1,0,1.642Z" transform="translate(-0.446 -432.048)" fill="#fff"/></svg>