<svg xmlns="http://www.w3.org/2000/svg" width="39.218" height="36.37" viewBox="0 0 39.218 36.37"><g transform="translate(-1067 -1643.457)"><path d="M35.985,1.683H.827a.847.847,0,0,1,0-1.693H35.985a.84.84,0,0,1,.837.846A.84.84,0,0,1,35.985,1.683Z" transform="translate(1067.01 1643.467)" fill="#fff"/><path d="M6.858,23.483H.827a.847.847,0,0,1,0-1.693H6.858a.847.847,0,0,1,0,1.693Z" transform="translate(1067.01 1642.637)" fill="#fff"/><path d="M10.466,34.383H.827a.847.847,0,0,1,0-1.693h9.639a.847.847,0,0,1,0,1.693Z" transform="translate(1067.01 1642.222)" fill="#fff"/><path d="M10.466,12.583H.827A.832.832,0,0,1,0,11.736a.844.844,0,0,1,.827-.846h9.639a.847.847,0,0,1,0,1.693Z" transform="translate(1067.01 1643.052)" fill="#fff"/><path d="M25.728,19.173a3.348,3.348,0,1,0,3.3,3.348A3.328,3.328,0,0,0,25.728,19.173Zm0,8.388a5.036,5.036,0,1,1,4.964-5.031A5.009,5.009,0,0,1,25.728,27.561Zm-4.646,2.857a1.92,1.92,0,0,1,.875.2l.856.356A2.122,2.122,0,0,1,24.141,32.9v2.059l3.155.019c.01,0,.029-.01.029-.019V32.9A2.126,2.126,0,0,1,28.7,30.956l.856-.366a2.214,2.214,0,0,1,2.28.414l1.433,1.453,2.251-2.251-1.433-1.481a2.147,2.147,0,0,1-.375-2.366l.356-.875a2.086,2.086,0,0,1,1.895-1.347h2.03l.019-3.2L35.963,20.9a2.088,2.088,0,0,1-1.914-1.4l-.356-.875a2.132,2.132,0,0,1,.4-2.309l1.433-1.453-2.212-2.28-1.472,1.453a2.137,2.137,0,0,1-2.328.385l-.866-.366a2.114,2.114,0,0,1-1.318-1.924V10.073l-3.165-.019-.019,2.078a2.141,2.141,0,0,1-1.376,1.943l-.856.366a2.211,2.211,0,0,1-2.28-.414l-1.433-1.453-2.251,2.251,1.433,1.481a2.147,2.147,0,0,1,.375,2.366l-.346.866a2.071,2.071,0,0,1-1.895,1.347h-2.03l-.019,3.2,2.049.019a2.1,2.1,0,0,1,1.914,1.4l.356.875a2.132,2.132,0,0,1-.4,2.309l-1.433,1.453,2.212,2.28,1.472-1.453a2.067,2.067,0,0,1,1.453-.587ZM27.3,36.67H24.16a1.7,1.7,0,0,1-1.683-1.712V32.9a.465.465,0,0,0-.25-.346L21.082,32.1a.5.5,0,0,0-.279.087L19.37,33.65a1.713,1.713,0,0,1-2.386,0L14.762,31.4a1.731,1.731,0,0,1,0-2.414L16.2,27.532a.481.481,0,0,0,.067-.414l-.394-.991a.489.489,0,0,0-.356-.3h-2.03a1.706,1.706,0,0,1-1.693-1.712V20.933a1.706,1.706,0,0,1,1.693-1.712h2.03a.461.461,0,0,0,.337-.24L16.244,18a.489.489,0,0,0-.038-.471l-1.433-1.453a1.743,1.743,0,0,1,0-2.424L16.984,11.4a1.713,1.713,0,0,1,2.386,0L20.8,12.863a.453.453,0,0,0,.279.087c.019-.01.164-.038.183-.048l.914-.385a.467.467,0,0,0,.3-.366V10.092A1.7,1.7,0,0,1,24.16,8.38H27.3a1.706,1.706,0,0,1,1.693,1.712v2.059a.444.444,0,0,0,.24.337l1.145.452a.43.43,0,0,0,.279-.087L32.087,11.4a1.713,1.713,0,0,1,2.386,0l2.212,2.261a1.743,1.743,0,0,1,0,2.424l-1.433,1.453a.486.486,0,0,0-.067.414l.4.991a.469.469,0,0,0,.356.3h2.03a1.7,1.7,0,0,1,1.683,1.712v3.184a1.7,1.7,0,0,1-1.683,1.712h-2.03a.449.449,0,0,0-.337.25l-.394.981a.489.489,0,0,0,.038.471L36.685,29a1.731,1.731,0,0,1,0,2.414l-2.212,2.251a1.713,1.713,0,0,1-2.386,0l-1.433-1.462a.425.425,0,0,0-.279-.1c-.019.01-.164.038-.183.048l-.914.385a.482.482,0,0,0-.3.366v2.059a1.706,1.706,0,0,1-1.693,1.712Z" transform="translate(1066.561 1643.148)" fill="#fff"/></g></svg>