<svg width="673" height="603" viewBox="0 0 673 603" fill="none" xmlns="http://www.w3.org/2000/svg">
<path d="M85.4471 332.263L90.8675 314.228L27 351.109L43.9747 360.889H95.6898L85.4471 332.263Z" fill="#920000" fill-opacity="0.2"/>
<path d="M262.487 264.595L241.963 252.655L241.809 112.498L262.333 124.438L262.487 264.595Z" fill="#920000"/>
<path d="M262.333 124.438L241.809 112.498L265.747 98.6677L286.271 110.608L262.333 124.438Z" fill="#DA0000"/>
<path d="M268.772 100.442V120.715L286.268 110.607L268.772 100.442Z" fill="#D52626"/>
<path d="M286.27 110.608L286.425 250.765L262.486 264.596L262.332 124.438L286.27 110.608Z" fill="#D80000"/>
<path d="M234.689 280.645L214.146 268.705L214.088 146.622L234.631 158.562L234.689 280.645Z" fill="#920000"/>
<path d="M234.631 158.562L214.088 146.621L238.026 132.81L258.569 144.75L234.631 158.562Z" fill="#DA0000"/>
<path opacity="0.95" d="M258.57 144.75L258.628 266.814L234.69 280.645L234.632 158.562L258.57 144.75Z" fill="#D80000"/>
<path d="M206.874 296.694L186.658 284.773L186.369 178.044L206.912 189.984L206.874 296.694Z" fill="#920000"/>
<path d="M210.327 164.213L230.87 176.153L206.912 189.984L186.369 178.044L210.327 164.213Z" fill="#DA0000"/>
<path opacity="0.95" d="M230.87 176.153L230.832 282.863L206.874 296.693L206.913 189.984L230.87 176.153Z" fill="#D80000"/>
<path d="M179.078 312.743L158.535 300.822L158.651 208.502L179.175 220.442L179.078 312.743Z" fill="#920000"/>
<path d="M179.174 220.442L158.65 208.502L182.589 194.671L203.132 206.612L179.174 220.442Z" fill="#DA0000"/>
<path opacity="0.95" d="M203.132 206.612L203.036 298.912L179.078 312.742L179.175 220.442L203.132 206.612Z" fill="#D80000"/>
<path d="M151.281 328.791L130.738 316.87L130.545 239.809L151.088 251.749L151.281 328.791Z" fill="#920000"/>
<path d="M151.091 251.749L130.548 239.809L154.505 225.978L175.049 237.918L151.091 251.749Z" fill="#DA0000"/>
<path opacity="0.95" d="M175.046 237.918L175.239 314.96L151.282 328.791L151.089 251.749L175.046 237.918Z" fill="#D80000"/>
<path d="M123.484 344.84L102.94 332.919V269.784L123.484 281.725V344.84Z" fill="#920000"/>
<path d="M123.484 281.725L102.94 269.784L126.898 255.973L147.422 267.894L123.484 281.725Z" fill="#DA0000"/>
<path opacity="0.95" d="M147.423 267.894L147.442 331.028L123.484 344.84V281.725L147.423 267.894Z" fill="#D80000"/>
<path d="M95.6888 360.889L75.1455 348.968L75.2034 300.069L95.7467 312.009L95.6888 360.889Z" fill="#920000"/>
<path d="M95.7474 312.009L75.2041 300.069L99.1616 286.239L119.705 298.179L95.7474 312.009Z" fill="#DA0000"/>
<path opacity="0.95" d="M119.705 298.179L119.647 347.078L95.6895 360.889L95.7473 312.009L119.705 298.179Z" fill="#D80000"/>
<path d="M519.675 311.74L479.302 335.06L536.071 367.814H553.721L519.675 311.74Z" fill="#920000" fill-opacity="0.2"/>
<path d="M553.413 350.627L494.657 316.696L553.413 282.766L612.169 316.696L553.413 350.627Z" fill="#A50A0A"/>
<path d="M593.149 305.72C590.005 307.997 586.147 309.559 582.964 311.527C576.386 315.597 569.654 319.223 562.845 322.907C559.469 324.74 556.325 326.997 552.95 328.829C549.574 330.662 545.87 331.781 542.495 333.574C539.505 335.175 537.132 337.548 534.74 339.863L553.393 350.626L612.149 316.696L593.149 305.72Z" fill="#A50A0A"/>
<path d="M553.412 368.103L494.656 334.173V316.697L553.412 350.627V368.103Z" fill="#F31414"/>
<path d="M612.168 334.173L553.412 368.103V350.627L612.168 316.697V334.173Z" fill="#F31414"/>
<path d="M612.438 314.671C564.446 295.98 559.218 269.129 559.218 269.129L500.521 303.02C500.521 303.02 505.555 329.968 553.547 348.678L612.438 314.671Z" fill="#FC2323"/>
<path d="M564.716 352.421C560.916 354.523 557.174 356.684 553.393 358.825C549.381 356.529 545.388 354.234 541.356 351.996C537.248 349.701 533.12 347.463 528.953 345.264C532.927 347.772 536.939 350.222 540.99 352.633C545.041 355.044 549.091 357.397 553.161 359.77L553.412 359.905L553.644 359.77C557.463 357.532 561.302 355.314 565.082 353.038C568.882 350.781 572.644 348.447 576.405 346.094C572.47 348.158 568.593 350.26 564.716 352.421Z" fill="#A50A0A"/>
<path opacity="0.5" d="M585.936 336.603C592.012 333.748 603.354 327.036 607.501 324.142C602.91 326.322 591.414 332.803 585.936 336.603Z" fill="#A50A0A"/>
<path opacity="0.4" d="M578.005 350.067C580.821 348.736 586.087 345.631 588.016 344.28C585.894 345.283 580.551 348.292 578.005 350.067Z" fill="#BA8206"/>
<path d="M520.253 337.606C515.334 335.292 506.172 329.871 502.815 327.537C506.519 329.293 515.817 334.52 520.253 337.606Z" fill="#A50A0A"/>
<path d="M562.845 307.361C562.556 307.187 562.324 307.283 562.324 307.592V310.447L526.542 289.788V286.933C526.542 286.644 526.311 286.277 526.022 286.104C525.732 285.93 525.501 286.026 525.501 286.335V289.19L489.719 268.531V265.676C489.719 265.387 489.487 265.02 489.198 264.847C488.909 264.673 488.677 264.769 488.677 265.078V267.933L452.895 247.274V244.419C452.895 244.13 452.664 243.763 452.374 243.59C452.085 243.416 451.854 243.512 451.854 243.821V246.676L416.072 226.017V223.162C416.072 222.873 415.84 222.506 415.551 222.333C415.261 222.159 415.03 222.255 415.03 222.564V225.419L379.248 204.76V201.905C379.248 201.616 379.017 201.249 378.727 201.076C378.438 200.902 378.206 200.998 378.206 201.307V204.162L347.42 186.396L342.424 183.503V180.648V157.385L345.626 159.237C345.916 159.41 346.147 159.314 346.147 159.005C346.147 158.716 345.916 158.349 345.626 158.176L342.424 156.324V130.283L345.626 132.135C345.916 132.309 346.147 132.212 346.147 131.903C346.147 131.614 345.916 131.248 345.626 131.074L342.424 129.222V103.162L345.626 105.014C345.916 105.188 346.147 105.091 346.147 104.782C346.147 104.493 345.916 104.127 345.626 103.953L342.424 102.101V76.0411L345.626 77.8929C345.916 78.0665 346.147 77.9701 346.147 77.6615C346.147 77.3721 345.916 77.0056 345.626 76.832L342.424 74.9802V48.9201L345.626 50.7719C345.916 50.9455 346.147 50.8491 346.147 50.5405C346.147 50.2511 345.916 49.8846 345.626 49.711L338.316 45.4866C338.026 45.313 337.795 45.4095 337.795 45.7181C337.795 46.0074 338.026 46.3739 338.316 46.5475L341.383 48.3222V74.3822L338.316 72.6076C338.026 72.434 337.795 72.5305 337.795 72.8391C337.795 73.1284 338.026 73.4949 338.316 73.6685L341.383 75.4432V101.503L338.316 99.7286C338.026 99.555 337.795 99.6515 337.795 99.9601C337.795 100.249 338.026 100.616 338.316 100.79L341.383 102.564V128.624L338.316 126.85C338.026 126.676 337.795 126.772 337.795 127.081C337.795 127.37 338.026 127.737 338.316 127.911L341.383 129.685V155.745L338.316 153.971C338.026 153.797 337.795 153.893 337.795 154.202C337.795 154.491 338.026 154.858 338.316 155.032L341.383 156.806V180.011V183.406C341.383 183.696 341.614 184.062 341.904 184.236L347.42 187.419L378.206 205.184V208.213C378.206 208.502 378.438 208.868 378.727 209.042C379.017 209.216 379.248 209.119 379.248 208.811V205.782L415.03 226.441V229.47C415.03 229.759 415.261 230.125 415.551 230.299C415.84 230.473 416.072 230.376 416.072 230.068V227.039L451.854 247.698V250.727C451.854 251.016 452.085 251.382 452.374 251.556C452.664 251.73 452.895 251.633 452.895 251.325V248.296L488.677 268.955V271.984C488.677 272.273 488.909 272.639 489.198 272.813C489.487 272.987 489.719 272.89 489.719 272.582V269.553L525.501 290.212V293.241C525.501 293.53 525.732 293.896 526.022 294.07C526.311 294.244 526.542 294.147 526.542 293.839V290.81L562.324 311.469V314.498C562.324 314.787 562.556 315.153 562.845 315.327C563.135 315.501 563.366 315.404 563.366 315.096V308.151C563.385 307.901 563.135 307.534 562.845 307.361Z" fill="#DA0000"/>
<path d="M333.031 180.918C333.031 181.227 332.954 181.458 332.838 181.632C332.742 181.786 332.607 181.902 332.394 181.94C332.182 181.979 331.912 181.921 331.546 181.709C331.179 181.497 330.89 181.227 330.678 180.956C330.465 180.686 330.33 180.416 330.234 180.146C330.118 179.838 330.06 179.529 330.041 179.201V174.726C330.06 174.437 330.118 174.186 330.234 174.012C330.33 173.858 330.465 173.723 330.678 173.704C330.89 173.665 331.179 173.723 331.546 173.954C331.912 174.167 332.201 174.437 332.394 174.707C332.607 174.977 332.742 175.266 332.838 175.536C332.954 175.845 333.012 176.153 333.031 176.462V180.918ZM331.912 175.787C331.912 175.575 331.874 175.42 331.758 175.228C331.7 175.15 331.623 175.073 331.526 175.015C331.333 174.9 331.237 174.996 331.198 175.112C331.16 175.17 331.16 175.266 331.16 175.363V179.838C331.16 180.05 331.218 180.223 331.314 180.397C331.372 180.474 331.43 180.551 331.526 180.609C331.719 180.725 331.816 180.648 331.854 180.513C331.893 180.455 331.893 180.378 331.893 180.262V175.787H331.912Z" fill="#DA0000"/>
<path d="M331.989 151.154C331.989 150.826 331.873 150.537 331.642 150.402C331.526 150.325 331.41 150.364 331.333 150.421C331.256 150.499 331.217 150.614 331.217 150.711L330.272 150.171V146.158L332.973 147.721V148.82L331.236 147.817V149.399C331.352 149.38 331.487 149.38 331.642 149.418C331.719 149.438 331.796 149.476 331.873 149.515C332.452 149.843 332.76 150.364 332.934 150.826C333.108 151.289 333.127 151.695 333.127 151.81V153.508C333.127 153.874 333.108 154.337 332.915 154.627C332.722 154.935 332.355 155.032 331.68 154.646C330.986 154.241 330.638 153.72 330.446 153.161C330.253 152.601 330.233 152.022 330.233 151.521L331.352 152.157V152.466C331.352 152.852 331.371 153.122 331.429 153.296C331.487 153.488 331.564 153.604 331.699 153.681C331.815 153.739 331.912 153.72 331.95 153.604C332.008 153.488 332.027 153.238 332.027 152.852V151.154H331.989Z" fill="#DA0000"/>
<path d="M327.437 119.057V118.343C327.899 118.517 328.189 118.44 328.382 118.343C328.478 118.285 328.575 118.189 328.632 118.093L329.308 118.478V126.078L328.189 125.442V119.481L327.437 119.057Z" fill="#DA0000"/>
<path d="M333.031 126.676C333.031 126.985 332.954 127.216 332.838 127.39C332.742 127.544 332.607 127.66 332.394 127.699C332.182 127.737 331.912 127.679 331.546 127.467C331.179 127.255 330.89 126.985 330.678 126.715C330.465 126.445 330.33 126.175 330.234 125.905C330.118 125.596 330.06 125.287 330.041 124.959V120.484C330.06 120.195 330.118 119.944 330.234 119.771C330.33 119.616 330.465 119.481 330.678 119.462C330.89 119.423 331.179 119.481 331.546 119.713C331.912 119.925 332.201 120.195 332.394 120.465C332.607 120.735 332.742 121.024 332.838 121.294C332.954 121.603 333.012 121.912 333.031 122.22V126.676ZM331.912 121.565C331.912 121.352 331.874 121.198 331.758 121.005C331.7 120.928 331.623 120.851 331.526 120.793C331.333 120.677 331.237 120.774 331.198 120.889C331.16 120.947 331.16 121.044 331.16 121.14V125.615C331.16 125.827 331.218 126.001 331.314 126.175C331.372 126.252 331.43 126.329 331.526 126.387C331.719 126.503 331.816 126.425 331.854 126.29C331.893 126.233 331.893 126.155 331.893 126.04V121.565H331.912Z" fill="#DA0000"/>
<path d="M327.531 91.9935V91.2798C327.994 91.4534 328.284 91.3763 328.476 91.2798C328.573 91.2219 328.669 91.1255 328.727 91.0291L329.402 91.4148V99.0149L328.284 98.3783V92.4179L327.531 91.9935Z" fill="#DA0000"/>
<path d="M331.987 96.9315C331.987 96.6036 331.871 96.3143 331.64 96.1792C331.524 96.1021 331.408 96.1407 331.331 96.1985C331.254 96.2757 331.215 96.3914 331.215 96.4879L330.27 95.9478V91.9355L332.971 93.498V94.5975L331.235 93.5944V95.1762C331.35 95.1569 331.485 95.1569 331.64 95.1955C331.717 95.2148 331.794 95.2533 331.871 95.2919C332.45 95.6198 332.758 96.1406 332.932 96.6036C333.106 97.0665 333.125 97.4716 333.125 97.5874V99.2848C333.125 99.6513 333.106 100.114 332.913 100.404C332.72 100.712 332.353 100.809 331.678 100.423C330.984 100.018 330.637 99.497 330.444 98.9376C330.251 98.3782 330.231 97.7995 330.231 97.298L331.35 97.9346V98.2432C331.35 98.629 331.37 98.899 331.427 99.0726C331.485 99.2655 331.562 99.3813 331.697 99.4584C331.813 99.5163 331.91 99.497 331.948 99.3813C332.006 99.2655 332.025 99.0148 332.025 98.629V96.9315H331.987Z" fill="#DA0000"/>
<path d="M326.336 64.95V64.4292C326.336 63.9276 326.414 63.4647 326.626 63.2332C326.838 63.0018 327.224 62.9825 327.822 63.3297C328.381 63.6576 328.767 64.1013 328.998 64.5642C329.23 65.0271 329.307 65.5673 329.307 66.0881C329.307 66.8597 329.018 67.6119 328.651 68.2678C328.285 68.9236 327.841 69.4444 327.552 69.7724L329.326 70.7947V71.8942L326.298 70.1389V69.0201C326.645 68.6922 326.954 68.3257 327.224 67.9592C327.455 67.6312 327.687 67.2647 327.86 66.8211C328.034 66.3967 328.169 65.953 328.188 65.4901C328.188 65.2779 328.169 65.0464 328.13 64.8343C328.073 64.6221 327.995 64.4485 327.822 64.352C327.667 64.2556 327.571 64.3134 327.513 64.4485C327.455 64.6028 327.436 64.815 327.436 65.0657V65.5865L326.336 64.95Z" fill="#DA0000"/>
<path d="M333.031 72.4536C333.031 72.7622 332.954 72.9937 332.838 73.1673C332.742 73.3216 332.607 73.4373 332.394 73.4759C332.182 73.5145 331.912 73.4566 331.546 73.2444C331.179 73.0322 330.89 72.7622 330.678 72.4921C330.465 72.2221 330.33 71.952 330.234 71.682C330.118 71.3733 330.06 71.0647 330.041 70.7368V66.2616C330.06 65.9723 330.118 65.7215 330.234 65.5479C330.33 65.3936 330.465 65.2586 330.678 65.2393C330.89 65.2007 331.179 65.2586 331.546 65.4901C331.912 65.7022 332.201 65.9723 332.394 66.2423C332.607 66.5124 332.742 66.8017 332.838 67.0718C332.954 67.3804 333.012 67.689 333.031 67.9977V72.4536ZM331.912 67.3226C331.912 67.1104 331.874 66.9561 331.758 66.7632C331.7 66.686 331.623 66.6088 331.526 66.551C331.333 66.4352 331.237 66.5317 331.198 66.6474C331.16 66.7053 331.16 66.8017 331.16 66.8982V71.3733C331.16 71.5855 331.218 71.7591 331.314 71.9327C331.372 72.0099 331.43 72.0871 331.526 72.1449C331.719 72.2607 331.816 72.1835 331.854 72.0485C331.893 71.9906 331.893 71.9134 331.893 71.7977V67.3226H331.912Z" fill="#DA0000"/>
<path d="M326.43 37.8865V37.3657C326.43 36.8642 326.507 36.4012 326.72 36.1698C326.932 35.9383 327.318 35.919 327.915 36.2662C328.475 36.5941 328.861 37.0378 329.092 37.5007C329.324 37.9637 329.401 38.5038 329.401 39.0246C329.401 39.7962 329.111 40.5485 328.745 41.2043C328.378 41.8602 327.935 42.381 327.645 42.7089L329.42 43.7312V44.8307L326.392 43.0754V41.9759C326.739 41.648 327.047 41.2815 327.317 40.915C327.549 40.587 327.78 40.2205 327.954 39.7769C328.128 39.3525 328.263 38.9089 328.282 38.4459C328.282 38.2337 328.263 38.0023 328.224 37.7901C328.166 37.5779 328.089 37.4043 327.915 37.3078C327.761 37.2114 327.665 37.2693 327.607 37.4043C327.549 37.5586 327.53 37.7708 327.53 38.0215V38.5424L326.43 37.8865Z" fill="#DA0000"/>
<path d="M331.987 42.6893C331.987 42.3614 331.871 42.0721 331.64 41.937C331.524 41.8599 331.408 41.8985 331.331 41.9563C331.254 42.0335 331.215 42.1492 331.215 42.2457L330.27 41.7056V37.6934L332.971 39.2558V40.3553L331.235 39.3523V40.934C331.35 40.9147 331.485 40.9147 331.64 40.9533C331.717 40.9726 331.794 41.0112 331.871 41.0497C332.45 41.3777 332.758 41.8985 332.932 42.3614C333.106 42.8244 333.125 43.2294 333.125 43.3452V45.0427C333.125 45.4092 333.106 45.8721 332.913 46.1614C332.72 46.4701 332.353 46.5665 331.678 46.1807C330.984 45.7757 330.637 45.2548 330.444 44.6954C330.251 44.136 330.231 43.5574 330.231 43.0558L331.35 43.6924V44.001C331.35 44.3868 331.37 44.6569 331.427 44.8305C331.485 45.0234 331.562 45.1391 331.697 45.2163C331.813 45.2741 331.91 45.2548 331.948 45.1391C332.006 45.0234 332.025 44.7726 332.025 44.3868V42.6893H331.987Z" fill="#DA0000"/>
<g opacity="0.5">
<g opacity="0.5">
<g opacity="0.5">
<g opacity="0.5">
<path opacity="0.5" d="M360.229 189.406C360.151 189.367 360.074 189.29 359.997 189.213C359.727 188.943 359.631 188.557 359.746 188.364L396.589 133.717C396.724 133.524 397.033 133.601 397.303 133.871C397.573 134.141 397.669 134.527 397.554 134.72L360.711 189.367C360.614 189.521 360.422 189.521 360.229 189.406Z" fill="#DA0000"/>
</g>
<g opacity="0.5">
<path opacity="0.5" d="M433.913 221.099C433.72 220.983 433.546 220.79 433.45 220.559L396.607 134.219C396.472 133.872 396.549 133.602 396.8 133.621C397.07 133.64 397.378 133.891 397.513 134.238L434.356 220.578C434.491 220.925 434.414 221.195 434.163 221.176C434.086 221.176 433.99 221.156 433.913 221.099Z" fill="#DA0000"/>
</g>
<g opacity="0.5">
<path opacity="0.5" d="M433.913 221.099C433.74 221.002 433.547 220.79 433.45 220.578C433.296 220.25 433.392 219.96 433.643 219.96L470.486 219.536C470.737 219.536 471.065 219.806 471.2 220.134C471.354 220.462 471.258 220.751 471.007 220.751L434.164 221.176C434.087 221.195 434.01 221.156 433.913 221.099Z" fill="#DA0000"/>
</g>
<g opacity="0.5">
<path opacity="0.5" d="M470.757 220.674C470.661 220.616 470.584 220.558 470.506 220.462C470.256 220.173 470.159 219.806 470.314 219.633L507.156 175.826C507.311 175.653 507.619 175.768 507.87 176.038C508.121 176.328 508.217 176.694 508.063 176.868L471.22 220.674C471.104 220.79 470.931 220.79 470.757 220.674Z" fill="#DA0000"/>
</g>
<g opacity="0.5">
<path opacity="0.5" d="M507.579 176.868C507.425 176.791 507.29 176.636 507.174 176.463C506.982 176.135 507.001 175.807 507.213 175.749L544.056 164.484C544.268 164.426 544.615 164.638 544.808 164.966C545.001 165.294 544.982 165.622 544.77 165.68L507.927 176.945C507.83 176.964 507.715 176.945 507.579 176.868Z" fill="#DA0000"/>
</g>
</g>
</g>
<g opacity="0.5">
<g opacity="0.5">
<g opacity="0.5">
<path opacity="0.5" d="M360.227 173.145C360.073 173.068 359.938 172.913 359.822 172.74C359.629 172.412 359.648 172.084 359.86 172.026L396.703 160.761C396.935 160.703 397.263 160.915 397.456 161.243C397.649 161.571 397.629 161.899 397.417 161.957L360.574 173.222C360.478 173.241 360.362 173.222 360.227 173.145Z" fill="#DA0000"/>
</g>
<g opacity="0.5">
<path opacity="0.5" d="M397.07 161.88C396.973 161.822 396.858 161.726 396.78 161.61C396.549 161.301 396.472 160.935 396.645 160.8L433.488 127.834C433.643 127.68 433.99 127.815 434.221 128.123C434.453 128.432 434.53 128.799 434.356 128.934L397.513 161.899C397.398 161.977 397.243 161.977 397.07 161.88Z" fill="#DA0000"/>
</g>
<g opacity="0.5">
<path opacity="0.5" d="M470.756 188.133C470.621 188.056 470.486 187.921 470.371 187.747L433.528 128.509C433.316 128.181 433.335 127.853 433.547 127.776C433.759 127.699 434.087 127.892 434.299 128.22L471.142 187.458C471.335 187.786 471.335 188.114 471.123 188.191C471.007 188.249 470.872 188.21 470.756 188.133Z" fill="#DA0000"/>
</g>
<g opacity="0.5">
<path opacity="0.5" d="M507.578 220.25C507.52 220.231 507.482 220.192 507.424 220.134L470.581 188.017C470.292 187.766 470.137 187.381 470.234 187.149C470.311 186.918 470.62 186.937 470.89 187.168L507.733 219.285C508.022 219.536 508.176 219.922 508.099 220.153C508.022 220.366 507.81 220.385 507.578 220.25Z" fill="#DA0000"/>
</g>
<g opacity="0.5">
<path opacity="0.5" d="M544.424 284.908C544.27 284.831 544.135 284.677 544.019 284.484L507.176 219.825C506.983 219.498 507.022 219.17 507.234 219.112C507.465 219.054 507.793 219.266 507.986 219.594L544.829 284.252C545.022 284.58 544.983 284.908 544.771 284.966C544.675 285.005 544.559 284.985 544.424 284.908Z" fill="#DA0000"/>
</g>
</g>
</g>
<g opacity="0.5">
<g opacity="0.5">
<g opacity="0.5">
<path opacity="0.5" d="M360.228 163.269C359.997 163.134 359.804 162.883 359.727 162.613C359.63 162.285 359.785 162.073 360.074 162.15L396.917 171.602C397.206 171.679 397.496 171.988 397.573 172.315C397.669 172.643 397.515 172.856 397.226 172.778L360.383 163.327C360.344 163.327 360.286 163.307 360.228 163.269Z" fill="#FC2323"/>
</g>
<g opacity="0.5">
<path opacity="0.5" d="M397.071 172.72C396.955 172.643 396.82 172.547 396.724 172.392C396.492 172.084 396.473 171.737 396.666 171.621L433.509 149.515C433.701 149.399 434.029 149.573 434.261 149.882C434.492 150.19 434.512 150.537 434.319 150.653L397.476 172.759C397.36 172.836 397.225 172.797 397.071 172.72Z" fill="#FC2323"/>
</g>
<g opacity="0.5">
<path opacity="0.5" d="M433.913 150.595C433.797 150.518 433.662 150.422 433.565 150.267C433.334 149.959 433.315 149.612 433.507 149.496L470.35 127.371C470.543 127.255 470.871 127.429 471.103 127.737C471.334 128.046 471.353 128.393 471.161 128.509L434.318 150.634C434.202 150.711 434.067 150.692 433.913 150.595Z" fill="#FC2323"/>
</g>
<g opacity="0.5">
<path opacity="0.5" d="M507.58 258.211C507.368 258.076 507.156 257.826 507.079 257.575L470.236 127.853C470.139 127.525 470.294 127.313 470.564 127.371C470.834 127.448 471.142 127.757 471.239 128.085L508.082 257.806C508.178 258.134 508.024 258.346 507.754 258.289C507.696 258.269 507.638 258.25 507.58 258.211Z" fill="#FC2323"/>
</g>
<g opacity="0.5">
<path opacity="0.5" d="M544.423 295.749C544.345 295.71 544.288 295.652 544.21 295.575L507.367 258.038C507.097 257.768 506.982 257.382 507.097 257.189C507.213 256.996 507.522 257.054 507.792 257.324L544.635 294.861C544.905 295.131 545.021 295.517 544.905 295.71C544.828 295.864 544.635 295.864 544.423 295.749Z" fill="#FC2323"/>
</g>
</g>
</g>
<g opacity="0.5">
<g opacity="0.5">
<path opacity="0.5" d="M360.228 151.444C360.151 151.406 360.054 151.328 359.977 151.251C359.726 150.962 359.61 150.595 359.746 150.403L396.588 101.176C396.723 101.002 397.051 101.079 397.302 101.369C397.553 101.658 397.669 102.025 397.534 102.217L360.691 151.444C360.614 151.56 360.421 151.56 360.228 151.444Z" fill="#940000"/>
</g>
<g opacity="0.5">
<path opacity="0.5" d="M433.914 156.035C433.798 155.958 433.663 155.842 433.567 155.707L396.724 101.909C396.512 101.581 396.492 101.253 396.685 101.137C396.878 101.041 397.206 101.214 397.437 101.523L434.28 155.321C434.492 155.649 434.512 155.977 434.319 156.093C434.203 156.131 434.049 156.112 433.914 156.035Z" fill="#940000"/>
</g>
<g opacity="0.5">
<path opacity="0.5" d="M470.756 205.223C470.641 205.165 470.525 205.049 470.429 204.934L431.753 152.987C431.522 152.678 431.483 152.312 431.657 152.196C431.83 152.061 432.158 152.215 432.39 152.524L471.065 204.471C471.297 204.779 471.335 205.146 471.162 205.261C471.065 205.339 470.911 205.319 470.756 205.223Z" fill="#940000"/>
</g>
<g opacity="0.5">
<path opacity="0.5" d="M470.756 205.223C470.621 205.146 470.467 204.992 470.371 204.818C470.178 204.49 470.197 204.162 470.409 204.085L507.252 192.01C507.464 191.952 507.812 192.145 508.004 192.473C508.197 192.801 508.178 193.129 507.966 193.206L471.123 205.281C471.007 205.32 470.872 205.3 470.756 205.223Z" fill="#940000"/>
</g>
<g opacity="0.5">
<path opacity="0.5" d="M507.58 193.148C507.387 193.032 507.194 192.82 507.098 192.569C506.963 192.241 507.078 191.971 507.348 192.01L544.191 195.269C544.461 195.308 544.77 195.578 544.905 195.925C545.04 196.253 544.924 196.523 544.654 196.485L507.811 193.225C507.753 193.225 507.676 193.186 507.58 193.148Z" fill="#940000"/>
</g>
</g>
<g opacity="0.5">
<g opacity="0.5">
<g opacity="0.5">
<path opacity="0.5" d="M397.071 205.261C396.917 205.184 396.782 205.03 396.666 204.837L359.823 140.179C359.63 139.851 359.669 139.523 359.881 139.465C360.113 139.407 360.441 139.619 360.634 139.947L397.476 204.606C397.669 204.934 397.631 205.261 397.419 205.319C397.322 205.358 397.187 205.319 397.071 205.261Z" fill="#940000"/>
</g>
<g opacity="0.5">
<path opacity="0.5" d="M397.072 205.262C396.917 205.184 396.782 205.03 396.667 204.856C396.474 204.529 396.493 204.201 396.705 204.143L433.548 192.878C433.78 192.82 434.107 193.032 434.3 193.36C434.493 193.688 434.474 194.016 434.262 194.074L397.419 205.339C397.322 205.358 397.187 205.319 397.072 205.262Z" fill="#940000"/>
</g>
<g opacity="0.5">
<path opacity="0.5" d="M470.757 236.954C470.661 236.896 470.584 236.819 470.487 236.723L433.644 193.765C433.394 193.476 433.316 193.109 433.451 192.936C433.606 192.781 433.934 192.878 434.165 193.167L471.008 236.125C471.259 236.414 471.336 236.781 471.201 236.954C471.105 237.07 470.931 237.051 470.757 236.954Z" fill="#940000"/>
</g>
<g opacity="0.5">
<path opacity="0.5" d="M470.756 236.954C470.621 236.877 470.486 236.761 470.389 236.587C470.177 236.259 470.177 235.931 470.37 235.835L521.68 212.282C521.892 212.186 522.22 212.379 522.432 212.707C522.644 213.035 522.644 213.363 522.451 213.459L471.141 237.012C471.026 237.05 470.891 237.031 470.756 236.954Z" fill="#940000"/>
</g>
<g opacity="0.5">
<path opacity="0.5" d="M522.182 212.939C522.124 212.9 522.067 212.862 522.009 212.804C521.739 212.553 521.604 212.167 521.7 211.955L543.941 164.619C544.037 164.407 544.346 164.445 544.616 164.696C544.886 164.947 545.021 165.333 544.925 165.545L522.684 212.881C522.607 213.055 522.394 213.074 522.182 212.939Z" fill="#940000"/>
</g>
</g>
</g>
</g>
<path d="M360.227 185.722C361.982 186.725 363.39 188.963 363.39 190.718C363.39 192.473 361.982 193.071 360.227 192.049C358.472 191.046 357.063 188.808 357.063 187.053C357.063 185.317 358.491 184.719 360.227 185.722Z" fill="#DA0000"/>
<path d="M397.069 131.075C398.824 132.078 400.232 134.315 400.232 136.071C400.232 137.826 398.824 138.424 397.069 137.402C395.313 136.399 393.905 134.161 393.905 132.406C393.905 130.65 395.313 130.053 397.069 131.075Z" fill="#DA0000"/>
<path d="M433.913 217.414C435.669 218.417 437.077 220.655 437.077 222.41C437.077 224.166 435.669 224.764 433.913 223.741C432.158 222.738 430.75 220.501 430.75 218.745C430.75 217.009 432.158 216.411 433.913 217.414Z" fill="#DA0000"/>
<path d="M470.755 216.99C472.511 217.993 473.919 220.231 473.919 221.986C473.919 223.742 472.511 224.34 470.755 223.317C469 222.314 467.592 220.077 467.592 218.321C467.592 216.585 469 215.987 470.755 216.99Z" fill="#DA0000"/>
<path d="M507.597 173.184C509.353 174.187 510.761 176.424 510.761 178.18C510.761 179.935 509.353 180.533 507.597 179.511C505.842 178.508 504.434 176.27 504.434 174.515C504.414 172.779 505.842 172.181 507.597 173.184Z" fill="#DA0000"/>
<path d="M544.423 161.919C546.179 162.922 547.587 165.159 547.587 166.915C547.587 168.67 546.179 169.268 544.423 168.246C542.668 167.242 541.26 165.005 541.26 163.25C541.26 161.494 542.687 160.896 544.423 161.919Z" fill="#DA0000"/>
<path d="M360.227 169.461C361.982 170.464 363.39 172.701 363.39 174.457C363.39 176.212 361.982 176.81 360.227 175.788C358.472 174.784 357.063 172.547 357.063 170.792C357.063 169.036 358.491 168.438 360.227 169.461Z" fill="#DA0000"/>
<path d="M397.069 158.176C398.824 159.179 400.232 161.417 400.232 163.172C400.232 164.928 398.824 165.526 397.069 164.503C395.313 163.5 393.905 161.263 393.905 159.507C393.905 157.771 395.313 157.173 397.069 158.176Z" fill="#DA0000"/>
<path d="M433.913 125.23C435.669 126.233 437.077 128.471 437.077 130.226C437.077 131.981 435.669 132.579 433.913 131.557C432.158 130.554 430.75 128.316 430.75 126.561C430.75 124.806 432.158 124.208 433.913 125.23Z" fill="#DA0000"/>
<path d="M470.755 184.449C472.511 185.452 473.919 187.689 473.919 189.444C473.919 191.2 472.511 191.798 470.755 190.775C469 189.772 467.592 187.535 467.592 185.78C467.592 184.043 469 183.445 470.755 184.449Z" fill="#DA0000"/>
<path d="M507.597 216.566C509.353 217.569 510.761 219.806 510.761 221.562C510.761 223.317 509.353 223.915 507.597 222.893C505.842 221.89 504.434 219.652 504.434 217.897C504.414 216.161 505.842 215.563 507.597 216.566Z" fill="#DA0000"/>
<path d="M544.423 281.224C546.179 282.227 547.587 284.465 547.587 286.22C547.587 287.975 546.179 288.573 544.423 287.551C542.668 286.548 541.26 284.31 541.26 282.555C541.26 280.8 542.687 280.202 544.423 281.224Z" fill="#DA0000"/>
<path d="M360.227 158.832C361.982 159.835 363.39 162.073 363.39 163.828C363.39 165.584 361.982 166.182 360.227 165.159C358.472 164.156 357.063 161.919 357.063 160.163C357.063 158.427 358.491 157.829 360.227 158.832Z" fill="#FC2323"/>
<path d="M397.069 169.036C398.824 170.039 400.232 172.277 400.232 174.032C400.232 175.788 398.824 176.386 397.069 175.363C395.313 174.36 393.905 172.123 393.905 170.367C393.905 168.612 395.313 168.014 397.069 169.036Z" fill="#FC2323"/>
<path d="M470.755 124.805C472.511 125.808 473.919 128.046 473.919 129.801C473.919 131.557 472.511 132.155 470.755 131.132C469 130.129 467.592 127.892 467.592 126.136C467.592 124.381 469 123.783 470.755 124.805Z" fill="#FC2323"/>
<path d="M507.598 254.527C509.353 255.53 510.762 257.768 510.762 259.523C510.762 261.278 509.353 261.876 507.598 260.854C505.843 259.851 504.435 257.613 504.435 255.858C504.435 254.103 505.843 253.524 507.598 254.527Z" fill="#FC2323"/>
<path d="M544.423 292.064C546.179 293.068 547.587 295.305 547.587 297.06C547.587 298.816 546.179 299.414 544.423 298.391C542.668 297.388 541.26 295.151 541.26 293.395C541.26 291.659 542.687 291.061 544.423 292.064Z" fill="#FC2323"/>
<path d="M360.227 147.76C361.982 148.763 363.39 151 363.39 152.756C363.39 154.511 361.982 155.109 360.227 154.087C358.472 153.084 357.063 150.846 357.063 149.091C357.063 147.355 358.491 146.757 360.227 147.76Z" fill="#940000"/>
<path d="M397.069 98.533C398.824 99.5361 400.232 101.774 400.232 103.529C400.232 105.284 398.824 105.882 397.069 104.86C395.313 103.857 393.905 101.619 393.905 99.864C393.905 98.1279 395.313 97.5107 397.069 98.533Z" fill="#940000"/>
<path d="M431.618 149.264C433.373 150.267 434.781 152.505 434.781 154.26C434.781 156.016 433.373 156.614 431.618 155.591C429.862 154.588 428.454 152.351 428.454 150.595C428.454 148.84 429.881 148.242 431.618 149.264Z" fill="#940000"/>
<path d="M470.755 200.748C472.511 201.751 473.919 203.988 473.919 205.744C473.919 207.499 472.511 208.097 470.755 207.075C469 206.072 467.592 203.834 467.592 202.079C467.592 200.343 469 199.745 470.755 200.748Z" fill="#940000"/>
<path d="M507.597 189.444C509.353 190.447 510.761 192.685 510.761 194.44C510.761 196.196 509.353 196.794 507.597 195.771C505.842 194.768 504.434 192.531 504.434 190.775C504.414 189.039 505.842 188.441 507.597 189.444Z" fill="#940000"/>
<path d="M544.423 192.666C546.179 193.669 547.587 195.906 547.587 197.662C547.587 199.417 546.179 200.015 544.423 198.993C542.668 197.989 541.26 195.752 541.26 193.997C541.26 192.26 542.687 191.663 544.423 192.666Z" fill="#940000"/>
<path d="M360.227 136.919C361.982 137.922 363.39 140.159 363.39 141.915C363.39 143.67 361.982 144.268 360.227 143.246C358.472 142.243 357.063 140.005 357.063 138.25C357.063 136.494 358.491 135.896 360.227 136.919Z" fill="#940000"/>
<path d="M397.07 201.558C398.825 202.561 400.233 204.799 400.233 206.554C400.233 208.309 398.825 208.907 397.07 207.885C395.314 206.882 393.906 204.644 393.906 202.889C393.906 201.153 395.314 200.555 397.07 201.558Z" fill="#940000"/>
<path d="M433.913 190.293C435.669 191.297 437.077 193.534 437.077 195.289C437.077 197.045 435.669 197.643 433.913 196.62C432.158 195.617 430.75 193.38 430.75 191.624C430.75 189.888 432.158 189.29 433.913 190.293Z" fill="#940000"/>
<path d="M470.755 233.251C472.511 234.254 473.919 236.491 473.919 238.247C473.919 240.002 472.511 240.6 470.755 239.578C469 238.575 467.592 236.337 467.592 234.582C467.592 232.846 469 232.248 470.755 233.251Z" fill="#940000"/>
<path d="M521.835 208.714C523.591 209.717 524.999 211.955 524.999 213.71C524.999 215.466 523.591 216.064 521.835 215.041C520.08 214.038 518.672 211.801 518.672 210.045C518.672 208.309 520.08 207.711 521.835 208.714Z" fill="#940000"/>
<path d="M544.422 161.918C546.178 162.921 547.586 165.159 547.586 166.914C547.586 168.67 546.178 169.268 544.422 168.245C542.667 167.242 541.259 165.005 541.259 163.249C541.259 161.494 542.686 160.896 544.422 161.918Z" fill="#940000"/>
<path d="M583.601 253.543C583.601 255.53 582 256.205 580.014 255.067C578.027 253.929 576.426 251.383 576.426 249.396C576.426 247.409 578.027 246.734 580.014 247.872C582 249.029 583.601 251.556 583.601 253.543Z" fill="#940000"/>
<path d="M583.601 285.93C583.601 287.917 582 288.592 580.014 287.454C578.027 286.316 576.426 283.77 576.426 281.783C576.426 279.796 578.027 279.121 580.014 280.259C581.981 281.397 583.601 283.943 583.601 285.93Z" fill="#DA0000"/>
<path d="M583.601 318.24C583.601 320.227 582 320.902 580.014 319.764C578.027 318.626 576.426 316.08 576.426 314.093C576.426 312.106 578.027 311.431 580.014 312.569C581.981 313.727 583.601 316.253 583.601 318.24Z" fill="#DA0000"/>
<path d="M583.6 188.788C583.6 190.775 581.999 191.45 580.013 190.312C578.026 189.174 576.425 186.628 576.425 184.641C576.425 182.654 578.026 181.979 580.013 183.117C581.999 184.274 583.6 186.801 583.6 188.788Z" fill="#DA0000"/>
<path d="M583.6 221.098C583.6 223.085 581.999 223.76 580.013 222.622C578.026 221.484 576.425 218.938 576.425 216.951C576.425 214.964 578.026 214.289 580.013 215.427C581.999 216.584 583.6 219.131 583.6 221.098Z" fill="#940000"/>
<path d="M166.811 476.259L154.717 469.276C153.019 468.292 150.261 468.292 148.564 469.276L126.786 481.853C125.088 482.836 125.088 484.418 126.786 485.402L138.88 492.385L136.296 493.87C135.254 494.468 135.254 495.452 136.296 496.03L236.774 554.034C238.163 554.825 240.42 554.825 241.809 554.034L243.468 553.069C244.452 552.491 245.937 552.317 247.249 552.606L266.037 556.754L274.447 561.615L276.318 560.534L285.442 565.8C286.078 566.167 286.869 565.935 287.236 565.299L290.823 558.798L285.075 555.481L286.753 554.516L278.343 549.655L271.168 538.814C270.666 538.062 270.975 537.194 271.978 536.635L273.637 535.67C275.025 534.879 275.025 533.568 273.637 532.758L173.158 474.754C172.116 474.156 170.438 474.156 169.396 474.754L166.811 476.259Z" fill="#920000" fill-opacity="0.2"/>
<path opacity="0.2" d="M184.615 435.79L172.521 428.807C170.823 427.823 168.065 427.823 166.367 428.807L144.59 441.384C142.892 442.367 142.892 443.949 144.59 444.933L156.684 451.916L154.099 453.401C153.058 453.999 153.058 454.983 154.099 455.561L254.578 513.565C255.967 514.356 258.224 514.356 259.613 513.565L261.272 512.6C262.255 512.022 263.741 511.848 265.052 512.137L283.84 516.285L292.25 521.146L294.122 520.065L303.245 525.331C303.882 525.698 304.673 525.466 305.039 524.83L308.627 518.329L302.879 515.012L304.557 514.047L296.147 509.186L288.971 498.345C288.47 497.593 288.778 496.725 289.781 496.166L291.44 495.201C292.829 494.41 292.829 493.099 291.44 492.289L190.961 434.285C189.92 433.687 188.242 433.687 187.2 434.285L184.615 435.79Z" fill="#920000"/>
<path opacity="0.2" d="M521.005 523.132C521.718 523.248 522.278 523.441 522.721 523.691L411.537 459.245C411.093 458.994 410.534 458.801 409.82 458.686C407.312 458.3 403.474 458.956 399.172 460.287L371.28 444.122C372.283 443.582 373.363 443.1 374.347 442.521C426.737 412.082 426.448 362.547 373.749 332.127C346.281 316.272 309.939 308.768 274.003 309.424C238.047 308.749 201.764 316.272 174.469 332.147C122.098 362.586 122.388 412.102 175.086 442.54C202.555 458.396 238.896 465.919 274.852 465.244C298.288 465.688 321.802 462.563 342.924 456.005L374.289 474.194C373.074 475.39 372.09 476.548 371.531 477.551C370.508 479.383 370.605 480.83 371.974 481.621L483.159 546.067C483.583 546.318 484.162 546.511 484.875 546.626C490.72 547.533 503.509 543.039 513.501 536.557C518.478 533.317 521.815 530.192 523.165 527.781C524.515 525.331 523.917 523.595 521.005 523.132ZM274.832 463.836C242.387 463.219 210.232 455.85 185.445 441.537C133.672 411.639 133.402 362.991 184.828 333.092C209.46 318.779 241.539 311.391 273.964 310.793C306.409 311.411 338.565 318.798 363.352 333.092C415.125 362.991 415.414 411.619 363.969 441.537C339.336 455.85 307.258 463.238 274.832 463.836Z" fill="#920000"/>
<path d="M154.948 355.468L107.033 383.11L355.52 526.585H382.487L154.948 355.468Z" fill="#920000" fill-opacity="0.2"/>
<path d="M383.143 526.585L129.004 379.85L129.023 355.796L383.143 405.833V526.585Z" fill="#DFA5A5"/>
<path d="M562.784 422.866L383.142 526.585V405.833L562.784 398.735V422.866Z" fill="#F3CCCC"/>
<path d="M562.786 398.735L383.104 502.473L129.023 355.796L308.705 252.038L562.786 398.735Z" fill="#F3CCCC"/>
<path d="M318.081 343.721L314.513 344.261L316.326 345.302L282.897 364.611L284.653 365.614L318.081 346.325L319.74 347.27L320.686 345.225L321.65 343.161L318.081 343.721Z" fill="#FC2323"/>
<path d="M307.276 371.941L308.221 369.877L310.034 370.919L343.463 351.629L345.218 352.632L311.79 371.941L313.449 372.886L309.88 373.446L306.312 373.986L307.276 371.941Z" fill="#DA0000"/>
<path d="M262.179 386.968L263.143 389.032L264.956 387.971L291.518 403.306L293.254 402.303L266.712 386.968L268.351 386.003L264.783 385.463L261.233 384.904L262.179 386.968Z" fill="#DA0000"/>
<path d="M362.986 331.838L359.417 331.279L361.231 330.237L334.669 314.902L336.424 313.88L362.986 329.215L364.645 328.27L365.59 330.314L366.554 332.378L362.986 331.838Z" fill="#FC2323"/>
<path d="M288.277 366.521L230.428 399.93L203.191 384.209L261.041 350.8L288.277 366.521Z" fill="#FC2323"/>
<path d="M385.786 310.234L327.917 343.643L300.681 327.903L358.53 294.513L385.786 310.234Z" fill="#FC2323"/>
<path d="M268.1 354.87L261.041 350.8L203.191 384.209L210.251 388.279L268.1 354.87Z" fill="#DA0000"/>
<path d="M365.59 298.583L358.53 294.513L300.681 327.903L307.741 331.992L365.59 298.583Z" fill="#DA0000"/>
<path d="M327.531 389.186L269.682 422.595L242.445 406.874L300.294 373.465L327.531 389.186Z" fill="#FC2323"/>
<path d="M425.04 332.899L367.171 366.309L339.935 350.568L397.784 317.178L425.04 332.899Z" fill="#FC2323"/>
<path d="M307.354 377.535L300.294 373.465L242.445 406.874L249.505 410.944L307.354 377.535Z" fill="#DA0000"/>
<path d="M404.844 321.248L397.784 317.178L339.935 350.568L346.995 354.658L404.844 321.248Z" fill="#DA0000"/>
<path d="M317.711 449.099L316.728 449.658L309.957 445.742L310.922 445.183L317.711 449.099Z" fill="#F34141"/>
<path d="M326.294 454.056L325.31 454.616L318.521 450.7L319.504 450.141L326.294 454.056Z" fill="#F34141"/>
<path d="M334.859 458.994L333.894 459.573L327.104 455.657L328.088 455.079L334.859 458.994Z" fill="#F34141"/>
<path d="M343.442 463.952L342.458 464.511L335.688 460.595L336.652 460.036L343.442 463.952Z" fill="#F34141"/>
<path d="M352.028 468.909L351.044 469.469L344.254 465.553L345.238 464.994L352.028 468.909Z" fill="#F34141"/>
<path d="M360.591 473.847L359.608 474.426L352.837 470.51L353.821 469.932L360.591 473.847Z" fill="#F34141"/>
<path d="M383.623 409.941L318.926 447.286L314.065 444.489L378.743 407.125L383.623 409.941Z" fill="#E54444"/>
<path d="M385.245 418.911L327.511 452.243L322.631 449.427L380.384 416.095L385.245 418.911Z" fill="#FC2323"/>
<path d="M362.365 442.02L336.074 457.2L331.213 454.384L357.504 439.203L362.365 442.02Z" fill="#FC2323"/>
<path d="M390.779 435.519L344.658 462.139L339.797 459.342L385.899 432.703L390.779 435.519Z" fill="#FB9999"/>
<path d="M396.432 442.155L353.243 467.096L348.362 464.28L391.551 439.358L396.432 442.155Z" fill="#F25A5A"/>
<path d="M396.278 452.147L361.807 472.053L356.946 469.237L391.417 449.33L396.278 452.147Z" fill="#FC2323"/>
<path d="M366.129 437.004C366.959 437.486 366.959 438.277 366.129 438.76C365.3 439.242 363.93 439.242 363.101 438.76C362.271 438.277 362.271 437.486 363.101 437.004C363.93 436.522 365.28 436.522 366.129 437.004Z" fill="#FC2323"/>
<path d="M394.695 430.446C395.525 430.928 395.525 431.719 394.695 432.201C393.866 432.684 392.496 432.684 391.667 432.201C390.838 431.719 390.838 430.928 391.667 430.446C392.496 429.964 393.847 429.964 394.695 430.446Z" fill="#CC6666"/>
<path d="M400.444 437.178C401.274 437.66 401.274 438.451 400.444 438.933C399.615 439.416 398.245 439.416 397.416 438.933C396.587 438.451 396.587 437.66 397.416 437.178C398.245 436.696 399.615 436.696 400.444 437.178Z" fill="#F25A5A"/>
<path d="M387.077 405.177C387.907 405.659 387.907 406.45 387.077 406.932C386.248 407.414 384.878 407.414 384.049 406.932C383.219 406.45 383.219 405.659 384.049 405.177C384.878 404.694 386.248 404.694 387.077 405.177Z" fill="#E54444"/>
<path d="M400.078 447.266C400.908 447.749 400.908 448.54 400.078 449.022C399.249 449.504 397.879 449.504 397.05 449.022C396.22 448.54 396.22 447.749 397.05 447.266C397.879 446.784 399.23 446.784 400.078 447.266Z" fill="#FC2323"/>
<path d="M387.442 415.998C388.624 415.998 389.583 415.445 389.583 414.764C389.583 414.082 388.624 413.529 387.442 413.529C386.259 413.529 385.301 414.082 385.301 414.764C385.301 415.445 386.259 415.998 387.442 415.998Z" fill="#FC2323"/>
<path d="M183.785 368.218L182.126 369.182L161.66 357.358L163.338 356.413L183.785 368.218Z" fill="#F34141"/>
<path d="M185.54 367.196L183.746 368.238L165.44 357.667L167.234 356.625L185.54 367.196Z" fill="#DA0000"/>
<path d="M190.442 364.361L188.783 365.325L169.397 354.137L171.056 353.173L190.442 364.361Z" fill="#F34141"/>
<path d="M192.196 363.358L190.402 364.399L169.357 352.247L171.151 351.205L192.196 363.358Z" fill="#DA0000"/>
<path d="M197.132 360.503L195.454 361.467L170.995 347.347L172.654 346.383L197.132 360.503Z" fill="#F34141"/>
<path d="M198.869 359.5L197.094 360.542L184.575 353.308L186.369 352.286L198.869 359.5Z" fill="#DA0000"/>
<path d="M203.788 356.664L202.129 357.629L179.58 344.608L181.258 343.644L203.788 356.664Z" fill="#F34141"/>
<path d="M205.543 355.661L203.749 356.684L183.109 344.782L184.903 343.74L205.543 355.661Z" fill="#DA0000"/>
<path d="M223.81 345.11L222.132 346.074L199.178 332.822L200.856 331.858L223.81 345.11Z" fill="#F34141"/>
<path d="M225.546 344.106L223.771 345.129L209.323 336.796L211.117 335.773L225.546 344.106Z" fill="#DA0000"/>
<path d="M230.466 341.252L228.807 342.216L210.27 331.511L211.928 330.546L230.466 341.252Z" fill="#F34141"/>
<path d="M232.222 340.249L230.428 341.271L214.996 332.36L216.771 331.337L232.222 340.249Z" fill="#DA0000"/>
<path d="M237.14 337.413L235.481 338.358L206.933 321.885L208.592 320.921L237.14 337.413Z" fill="#F34141"/>
<path d="M238.896 336.391L237.102 337.433L212.064 322.965L213.858 321.943L238.896 336.391Z" fill="#DA0000"/>
<path d="M243.814 333.555L242.155 334.52L216.269 319.57L217.947 318.606L243.814 333.555Z" fill="#F34141"/>
<path d="M245.567 332.552L243.774 333.575L221.186 320.535L222.96 319.493L245.567 332.552Z" fill="#DA0000"/>
<path d="M250.488 329.698L248.829 330.662L230.215 319.918L231.893 318.954L250.488 329.698Z" fill="#F34141"/>
<path d="M252.243 328.694L250.449 329.717L229.347 317.545L231.121 316.503L252.243 328.694Z" fill="#DA0000"/>
<path d="M210.463 352.806L208.785 353.771L200.722 349.122L202.4 348.158L210.463 352.806Z" fill="#F34141"/>
<path d="M212.2 351.803L210.425 352.845L196.286 344.666L198.061 343.644L212.2 351.803Z" fill="#DA0000"/>
<path d="M217.116 348.967L215.458 349.932L207.395 345.283L209.053 344.319L217.116 348.967Z" fill="#F34141"/>
<path d="M218.871 347.964L217.077 348.986L211.252 345.61L213.027 344.588L218.871 347.964Z" fill="#DA0000"/>
<path d="M255.465 328.444L181.258 371.286L179.734 370.418L253.96 327.576L255.465 328.444Z" fill="#F34141"/>
<path d="M265.766 320.882L264.088 321.846L252.861 315.365L254.54 314.4L265.766 320.882Z" fill="#F34141"/>
<path d="M267.502 319.878L265.727 320.901L256.642 315.654L258.416 314.632L267.502 319.878Z" fill="#DA0000"/>
<path d="M272.42 317.043L270.742 318.007L266.498 315.557L268.176 314.593L272.42 317.043Z" fill="#F34141"/>
<path d="M274.156 316.04L272.382 317.062L266.46 313.648L268.254 312.626L274.156 316.04Z" fill="#DA0000"/>
<path d="M279.094 313.185L277.435 314.149L264.453 306.646L266.112 305.681L279.094 313.185Z" fill="#F34141"/>
<path d="M280.849 312.182L279.055 313.204L272.747 309.559L274.541 308.536L280.849 312.182Z" fill="#DA0000"/>
<path d="M285.768 309.327L284.089 310.292L279.614 307.707L281.273 306.742L285.768 309.327Z" fill="#F34141"/>
<path d="M287.506 308.324L285.731 309.366L278.382 305.122L280.176 304.081L287.506 308.324Z" fill="#DA0000"/>
<path d="M305.772 297.773L304.113 298.737L280.406 285.061L282.084 284.097L305.772 297.773Z" fill="#F34141"/>
<path d="M307.528 296.77L305.734 297.811L284.265 285.408L286.039 284.366L307.528 296.77Z" fill="#DA0000"/>
<path d="M312.448 293.933L310.789 294.898L280.64 277.498L282.318 276.534L312.448 293.933Z" fill="#F34141"/>
<path d="M314.204 292.912L312.41 293.954L283.707 277.384L285.501 276.342L314.204 292.912Z" fill="#DA0000"/>
<path d="M319.121 290.076L317.462 291.041L295.337 278.271L297.015 277.307L319.121 290.076Z" fill="#F34141"/>
<path d="M320.875 289.073L319.081 290.095L299.753 278.946L301.528 277.905L320.875 289.073Z" fill="#DA0000"/>
<path d="M325.796 286.219L324.118 287.183L307.027 277.307L308.706 276.362L325.796 286.219Z" fill="#F34141"/>
<path d="M327.532 285.216L325.757 286.238L311.927 278.271L313.721 277.23L327.532 285.216Z" fill="#DA0000"/>
<path d="M332.468 282.379L330.79 283.344L322.303 278.425L323.981 277.46L332.468 282.379Z" fill="#F34141"/>
<path d="M334.206 281.358L332.431 282.399L324.928 278.059L326.722 277.037L334.206 281.358Z" fill="#DA0000"/>
<path d="M292.426 305.489L290.767 306.453L276.628 298.294L278.306 297.329L292.426 305.489Z" fill="#F34141"/>
<path d="M294.18 304.486L292.386 305.508L275.99 296.037L277.784 295.014L294.18 304.486Z" fill="#DA0000"/>
<path d="M299.099 301.631L297.42 302.595L283.821 294.745L285.48 293.78L299.099 301.631Z" fill="#F34141"/>
<path d="M300.836 300.628L299.061 301.669L287.661 295.091L289.455 294.05L300.836 300.628Z" fill="#DA0000"/>
<path d="M337.447 281.107L263.221 323.968L261.717 323.081L335.943 280.239L337.447 281.107Z" fill="#F34141"/>
<path d="M459.316 362.585C435.551 361.023 414.082 370.88 411.382 384.614C408.681 398.348 425.752 410.732 449.536 412.294C473.301 413.857 494.77 404 497.47 390.266C500.171 376.532 483.081 364.148 459.316 362.585ZM478.567 389.012C477.043 396.708 465.006 402.244 451.677 401.376C438.348 400.508 428.761 393.545 430.285 385.848C431.809 378.152 443.846 372.616 457.175 373.484C470.504 374.371 480.091 381.315 478.567 389.012Z" fill="#DA0000"/>
<path d="M494.385 390.052C496.892 377.301 481.037 365.805 458.969 364.358C436.902 362.911 416.976 372.074 414.449 384.805C411.942 397.555 427.798 409.052 449.865 410.498C471.951 411.964 491.877 402.802 494.385 390.052ZM422.493 385.345C424.499 375.16 440.413 367.849 458.043 369.007C475.674 370.164 488.347 379.346 486.341 389.531C484.335 399.716 468.421 407.026 450.791 405.869C433.16 404.712 420.487 395.511 422.493 385.345Z" fill="#DA0000"/>
<path d="M456.345 369.008C456.345 368.989 461.804 369.356 463.579 369.664L466.028 365.208C463.752 364.823 457.136 364.07 456.114 363.993C450.732 363.974 443.846 364.591 439.158 365.941L442.322 370.243C446.083 369.356 452.121 369.008 456.345 369.008Z" fill="#FC2323"/>
<path d="M423.998 382.029L424.249 381.527C427.258 376.743 433.488 372.519 441.32 370.493L438.156 366.192C428.242 368.738 420.545 372.866 416.051 379.579C416.051 379.579 413.91 383.514 414.527 384.478L422.571 384.999C422.841 383.88 423.4 383.07 423.998 382.029Z" fill="#F25A5A"/>
<path d="M486.283 385.404L494.384 384.883C493.381 379.598 489.273 374.795 483.042 371.13L481.499 370.262C477.41 368.102 472.549 366.423 467.109 365.382L464.659 369.838C468.922 370.667 472.742 371.979 475.963 373.657L478.316 375.181C478.316 375.181 484.624 379.039 486.283 385.404Z" fill="#97CC66"/>
<path d="M461.593 410.287L460.089 405.639C457.099 405.947 453.936 406.063 450.772 405.851C440.259 405.157 431.521 401.627 426.602 396.708L424.943 394.779C422.841 391.982 421.896 388.857 422.436 385.636L414.392 385.115C413.659 389.358 414.952 393.448 417.826 397.055L418.096 398.193L419.523 398.965C425.676 405.137 436.652 409.612 449.865 410.48C453.878 410.77 457.813 410.673 461.593 410.287Z" fill="#76262F"/>
<path d="M495.349 390.131C497.914 377.11 481.653 365.305 459.085 363.82C436.516 362.334 416.069 371.728 413.504 384.768C410.938 397.789 427.199 409.594 449.768 411.079C472.336 412.545 492.783 403.151 495.349 390.131ZM414.449 384.807C416.956 372.056 436.882 362.913 458.969 364.36C481.036 365.807 496.892 377.322 494.384 390.053C491.877 402.804 471.951 411.947 449.864 410.5C427.797 409.054 411.941 397.557 414.449 384.807Z" fill="#DA0000"/>
<path d="M486.34 389.532C488.346 379.347 475.673 370.166 458.043 369.008C440.412 367.851 424.498 375.162 422.492 385.346C420.486 395.531 433.159 404.713 450.79 405.87C468.42 407.028 484.334 399.717 486.34 389.532ZM423.457 385.404C425.405 375.547 440.875 368.429 457.946 369.568C475.017 370.706 487.324 379.617 485.395 389.474C483.447 399.331 467.977 406.449 450.905 405.311C433.815 404.192 421.508 395.261 423.457 385.404Z" fill="#DA0000"/>
<path d="M494.307 390.053C494.596 388.568 494.635 387.063 494.481 385.597L486.514 386.041C486.668 387.237 486.649 388.414 486.437 389.552C484.894 397.422 474.632 403.903 461.303 405.601L462.692 410.114C479.435 408.07 492.359 399.91 494.307 390.053Z" fill="#FC2323"/>
<path d="M251.087 348.022L195.997 379.83L188.165 375.316L243.256 343.489L251.087 348.022Z" fill="#DA0000"/>
<path d="M201.088 376.898L195.996 379.83L188.164 375.317L193.256 372.365L201.088 376.898Z" fill="#F25A5A"/>
<path d="M301.337 319.011L246.246 350.819L238.396 346.305L293.486 314.497L301.337 319.011Z" fill="#DA0000"/>
<path d="M251.337 347.887L246.244 350.819L238.394 346.305L243.486 343.354L251.337 347.887Z" fill="#97CC66"/>
<path d="M351.586 290.018L296.476 321.826L288.645 317.293L343.735 285.485L351.586 290.018Z" fill="#DA0000"/>
<path d="M301.587 318.875L296.475 321.826L288.644 317.293L293.736 314.342L301.587 318.875Z" fill="#44BFE5"/>
<path d="M372.976 482.74C374.361 482.74 375.484 482.092 375.484 481.293C375.484 480.494 374.361 479.846 372.976 479.846C371.591 479.846 370.469 480.494 370.469 481.293C370.469 482.092 371.591 482.74 372.976 482.74Z" fill="#F34141"/>
<path d="M381.619 487.735C383.004 487.735 384.127 487.088 384.127 486.289C384.127 485.49 383.004 484.842 381.619 484.842C380.234 484.842 379.111 485.49 379.111 486.289C379.111 487.088 380.234 487.735 381.619 487.735Z" fill="#F34141"/>
<path d="M460.28 430.909C461.264 431.468 461.264 432.394 460.28 432.953C459.296 433.513 457.715 433.513 456.731 432.953C455.747 432.394 455.747 431.468 456.731 430.909C457.695 430.349 459.296 430.349 460.28 430.909Z" fill="#F34141"/>
<path d="M467.148 438.374C468.533 438.374 469.656 437.726 469.656 436.927C469.656 436.128 468.533 435.48 467.148 435.48C465.763 435.48 464.641 436.128 464.641 436.927C464.641 437.726 465.763 438.374 467.148 438.374Z" fill="#F34141"/>
<path d="M420.891 455.792L426.042 452.821L425.366 452.436L420.216 455.406L420.891 455.792ZM397.937 469.044L409.453 462.389L408.778 462.003L397.262 468.658L397.937 469.044ZM410.359 461.868L419.965 456.313L419.29 455.927L409.684 461.482L410.359 461.868ZM397.03 469.565L396.355 469.179L380.036 478.611L380.711 478.997L397.03 469.565ZM426.929 452.301L434.24 448.076L433.564 447.69L426.254 451.915L426.929 452.301ZM378.146 477.416L383.528 474.31L382.852 473.924L377.471 477.03L378.146 477.416ZM425.27 449.446L425.945 449.832L432.349 446.128L431.674 445.742L425.27 449.446ZM413.446 457.046L425.039 450.352L424.363 449.967L412.77 456.66L413.446 457.046ZM407.389 460.537L412.539 457.567L411.864 457.181L406.714 460.151L407.389 460.537ZM400.078 464.742L406.482 461.039L405.807 460.653L399.403 464.357L400.078 464.742ZM384.454 473.77L399.191 465.263L398.516 464.877L383.778 473.384L384.454 473.77Z" fill="#F34141"/>
<path d="M415.278 464.607L415.953 464.993L425.559 459.438L424.884 459.052L415.278 464.607ZM415.027 465.514L414.352 465.128L402.836 471.783L403.511 472.169L415.027 465.514ZM417.091 466.614L417.766 466.999L424.171 463.315L423.495 462.929L417.091 466.614ZM424.383 462.408L425.058 462.794L430.208 459.824L429.533 459.438L424.383 462.408ZM442.033 452.224L430.44 458.917L431.115 459.303L442.708 452.609L442.033 452.224ZM401.197 476.567L400.522 476.181L388.157 483.318L388.832 483.704L401.197 476.567ZM436.361 452.436L425.791 458.531L426.466 458.917L437.037 452.822L436.361 452.436ZM402.605 472.69L401.93 472.304L385.495 481.794L386.17 482.18L402.605 472.69ZM437.268 451.915L437.943 452.301L444.116 448.732L443.441 448.346L437.268 451.915ZM416.841 467.52L416.165 467.134L401.428 475.641L402.103 476.027L416.841 467.52Z" fill="#F34141"/>
<path d="M483.256 419.567L494.772 412.912L494.097 412.526L482.581 419.181L483.256 419.567ZM495.679 412.391L505.285 406.836L504.61 406.45L495.003 412.005L495.679 412.391ZM482.35 420.087L481.674 419.702L465.356 429.134L466.031 429.52L482.35 420.087ZM463.465 427.938L468.847 424.833L468.172 424.447L462.79 427.552L463.465 427.938ZM510.57 399.949L511.245 400.335L517.649 396.631L516.974 396.246L510.57 399.949ZM498.746 407.569L510.339 400.875L509.664 400.489L498.071 407.183L498.746 407.569ZM492.689 411.06L497.839 408.089L497.164 407.704L492.014 410.674L492.689 411.06ZM485.397 415.265L491.801 411.561L491.126 411.176L484.722 414.879L485.397 415.265ZM469.754 424.293L484.491 415.786L483.816 415.4L469.078 423.907L469.754 424.293Z" fill="#F34141"/>
<path d="M507.888 411.504L508.544 411.889L518.169 406.334L517.494 405.948L507.888 411.504Z" fill="#F34141"/>
<path d="M498.995 419.682L499.67 420.068L506.055 416.365L505.399 415.979L498.995 419.682Z" fill="#F34141"/>
<path d="M506.981 412.024L495.465 418.679L496.121 419.065L507.636 412.41L506.981 412.024Z" fill="#F34141"/>
<path d="M516.24 409.729L506.306 415.458L506.962 415.844L516.915 410.115L516.24 409.729Z" fill="#F34141"/>
<path d="M495.213 419.585L494.557 419.2L471.333 432.606L471.989 432.992L495.213 419.585Z" fill="#F34141"/>
<path d="M518.4 405.427L519.076 405.813L524.206 402.843L523.551 402.457L518.4 405.427Z" fill="#F34141"/>
<path d="M483.12 429.616L482.465 429.231L474.112 434.053L474.787 434.439L483.12 429.616Z" fill="#F34141"/>
<path d="M498.087 420.203L483.35 428.71L484.025 429.095L498.762 420.589L498.087 420.203Z" fill="#F34141"/>
<path d="M524.457 401.936L525.113 402.322L529.472 399.795L528.816 399.409L524.457 401.936Z" fill="#F34141"/>
<path d="M351.565 414.918L350.619 414.378L372.127 401.955L373.072 402.496L351.565 414.918ZM345.855 418.216L344.91 417.676L348.903 415.381L349.848 415.921L345.855 418.216ZM320.759 432.722L319.814 432.182L343.193 418.679L344.138 419.22L320.759 432.722ZM304.035 442.386L303.09 441.846L318.078 433.185L319.023 433.725L304.035 442.386ZM355.5 405.389L377.007 392.967L377.953 393.507L356.445 405.929L355.5 405.389ZM378.724 391.983L387.848 386.717L388.793 387.257L379.669 392.523L378.724 391.983ZM350.716 409.228L349.771 408.687L353.764 406.392L354.709 406.932L350.716 409.228ZM325.62 423.733L324.675 423.193L348.054 409.691L348.999 410.231L325.62 423.733ZM298.673 439.281L297.728 438.74L322.939 424.177L323.884 424.717L298.673 439.281ZM436.13 353.925L435.184 353.385L447.838 346.074L448.784 346.614L436.13 353.925ZM418.904 363.878L417.959 363.338L433.448 354.388L434.394 354.928L418.904 363.878ZM408.391 369.935L407.446 369.395L416.223 364.322L417.168 364.862L408.391 369.935ZM391.339 379.773L390.394 379.232L405.71 370.398L406.655 370.938L391.339 379.773ZM375.715 388.8L374.77 388.26L388.678 380.235L389.623 380.776L375.715 388.8ZM357.255 399.467L356.31 398.927L373.034 389.263L373.979 389.803L357.255 399.467ZM339.007 409.999L338.062 409.459L354.574 399.93L355.519 400.47L339.007 409.999ZM316.053 423.251L315.107 422.711L336.326 410.462L337.271 411.002L316.053 423.251ZM293.484 436.291L292.539 435.751L313.391 423.714L314.336 424.254L293.484 436.291ZM408.912 363.647L407.967 363.106L442.649 343.084L443.595 343.624L408.912 363.647ZM391.687 373.581L390.742 373.041L406.231 364.09L407.176 364.63L391.687 373.581ZM373.111 384.306L372.166 383.765L389.005 374.044L389.951 374.584L373.111 384.306ZM364.122 389.494L363.177 388.954L370.43 384.769L371.375 385.309L364.122 389.494ZM353.281 395.764L352.336 395.223L361.46 389.957L362.405 390.498L353.281 395.764ZM330.038 409.17L329.092 408.63L350.6 396.207L351.545 396.747L330.038 409.17ZM324.328 412.468L323.383 411.928L327.376 409.633L328.321 410.173L324.328 412.468ZM299.213 426.974L298.268 426.434L321.647 412.931L322.592 413.471L299.213 426.974ZM288.276 433.282L287.331 432.741L296.532 427.418L297.477 427.958L288.276 433.282ZM433.969 343.161L433.024 342.621L437.422 340.075L438.367 340.615L433.969 343.161ZM425.617 347.984L424.672 347.443L431.307 343.605L432.252 344.145L425.617 347.984ZM408.391 357.937L407.446 357.397L422.936 348.446L423.881 348.987L408.391 357.937ZM389.816 368.662L388.87 368.122L405.71 358.4L406.655 358.94L389.816 368.662ZM380.827 373.851L379.882 373.311L387.134 369.125L388.08 369.665L380.827 373.851ZM365.202 382.859L364.257 382.319L378.165 374.294L379.11 374.834L365.202 382.859ZM346.742 393.526L345.797 392.986L362.521 383.322L363.466 383.862L346.742 393.526ZM328.494 404.058L327.549 403.518L344.061 393.989L345.006 394.529L328.494 404.058ZM305.54 417.31L304.595 416.77L325.813 404.521L326.758 405.061L305.54 417.31ZM283.087 430.272L282.142 429.732L302.878 417.754L303.823 418.294L283.087 430.272ZM404.302 354.291L403.357 353.751L432.252 337.066L433.198 337.606L404.302 354.291ZM387.077 364.245L386.131 363.704L401.621 354.754L402.566 355.294L387.077 364.245ZM368.501 374.969L367.556 374.429L384.395 364.707L385.34 365.248L368.501 374.969ZM359.512 380.158L358.567 379.618L365.82 375.432L366.765 375.973L359.512 380.158ZM348.652 386.408L347.707 385.868L356.831 380.602L357.776 381.142L348.652 386.408ZM325.427 399.834L324.482 399.294L345.99 386.871L346.935 387.411L325.427 399.834ZM319.718 403.132L318.772 402.592L322.765 400.297L323.711 400.837L319.718 403.132ZM294.603 417.618L293.658 417.078L317.036 403.576L317.982 404.116L294.603 417.618ZM277.879 427.283L276.934 426.742L291.922 418.081L292.867 418.622L277.879 427.283Z" fill="#F34141"/>
<path d="M307.045 309.578L298.751 314.362L297.863 313.861L306.158 309.077L307.045 309.578Z" fill="#E1E9F4"/>
<path d="M311.848 306.801L308.395 308.788L307.508 308.286L310.961 306.299L311.848 306.801Z" fill="#E1E9F4"/>
<path d="M307.044 313.938L302.511 316.542L301.624 316.04L306.157 313.417L307.044 313.938Z" fill="#E1E9F4"/>
<path d="M318.599 307.264L308.414 313.147L307.508 312.626L317.712 306.743L318.599 307.264Z" fill="#E1E9F4"/>
<path d="M325.583 303.232L319.969 306.473L319.082 305.952L324.695 302.711L325.583 303.232Z" fill="#E1E9F4"/>
<path d="M257.26 338.319L248.965 343.103L248.078 342.601L256.373 337.798L257.26 338.319Z" fill="#E1E9F4"/>
<path d="M262.081 335.542L258.629 337.529L257.741 337.027L261.194 335.021L262.081 335.542Z" fill="#E1E9F4"/>
<path d="M257.279 342.659L252.746 345.283L251.858 344.762L256.391 342.158L257.279 342.659Z" fill="#E1E9F4"/>
<path d="M268.833 336.005L258.629 341.888L257.741 341.367L267.926 335.484L268.833 336.005Z" fill="#E1E9F4"/>
<path d="M275.817 331.954L270.184 335.214L269.297 334.693L274.929 331.452L275.817 331.954Z" fill="#E1E9F4"/>
<path d="M207.493 367.061L199.199 371.845L198.312 371.343L206.606 366.54L207.493 367.061Z" fill="#E1E9F4"/>
<path d="M212.296 364.283L208.843 366.27L207.956 365.769L211.409 363.762L212.296 364.283Z" fill="#E1E9F4"/>
<path d="M207.493 371.401L202.96 374.025L202.072 373.504L206.605 370.9L207.493 371.401Z" fill="#E1E9F4"/>
<path d="M219.048 364.746L208.863 370.63L207.956 370.109L218.16 364.226L219.048 364.746Z" fill="#E1E9F4"/>
<path d="M226.031 360.695L220.418 363.955L219.53 363.434L225.144 360.194L226.031 360.695Z" fill="#E1E9F4"/>
<path d="M366.243 307.784L369.252 306.048L368.5 305.605L365.491 307.341L366.243 307.784ZM340.164 322.83L353.262 315.269L352.509 314.825L339.412 322.387L340.164 322.83ZM354.284 314.69L365.202 308.382L364.449 307.939L353.532 314.246L354.284 314.69ZM339.142 323.428L338.389 322.985L319.833 333.69L320.585 334.134L339.142 323.428ZM317.692 332.34L323.807 328.81L323.054 328.366L316.939 331.896L317.692 332.34ZM357.775 309.193L366.224 304.312L365.472 303.869L357.023 308.749L357.775 309.193ZM350.908 313.166L356.753 309.791L356.001 309.347L350.156 312.723L350.908 313.166ZM342.614 317.95L349.886 313.745L349.134 313.301L341.861 317.506L342.614 317.95ZM324.848 328.212L341.591 318.548L340.839 318.104L324.096 327.768L324.848 328.212Z" fill="#E1E9F4"/>
<path d="M371.414 307.379L372.167 307.823L365.107 311.893L364.354 311.449L371.414 307.379ZM354.247 320.766L354.999 321.21L362.271 317.005L361.519 316.561L354.247 320.766ZM363.313 312.066L350.215 319.628L350.968 320.072L364.065 312.51L363.313 312.066ZM369.273 312.086L362.541 315.963L363.294 316.407L370.026 312.529L369.273 312.086ZM349.964 320.65L349.212 320.207L322.824 335.445L323.577 335.889L349.964 320.65ZM336.211 332.05L335.459 331.607L325.988 337.085L326.74 337.529L336.211 332.05ZM353.224 321.364L336.481 331.028L337.233 331.472L353.977 321.808L353.224 321.364Z" fill="#E1E9F4"/>
<path d="M283.164 401.917L304.363 389.668L303.611 389.224L282.412 401.473L283.164 401.917ZM282.142 402.515L281.389 402.071L262.833 412.777L263.585 413.221L282.142 402.515ZM260.692 411.446L266.807 407.916L266.054 407.472L259.939 411.002L260.692 411.446ZM293.908 392.253L299.753 388.877L299.001 388.434L293.156 391.809L293.908 392.253ZM285.614 397.056L292.886 392.851L292.134 392.407L284.861 396.612L285.614 397.056ZM267.848 407.318L284.591 397.654L283.839 397.21L267.096 406.874L267.848 407.318Z" fill="#E1E9F4"/>
<path d="M291.748 403.036L292.501 403.479L301.374 398.368L300.621 397.924L291.748 403.036ZM301.528 393.931L293.234 398.715L293.986 399.159L302.28 394.375L301.528 393.931ZM292.964 399.737L292.211 399.294L265.823 414.532L266.576 414.976L292.964 399.737ZM279.21 411.157L278.458 410.713L268.987 416.191L269.739 416.635L279.21 411.157ZM290.726 403.634L279.48 410.115L280.232 410.559L291.478 404.077L290.726 403.634Z" fill="#E1E9F4"/>
<path d="M391.225 335.195L391.978 335.638L402.201 329.736L401.449 329.292L391.225 335.195ZM390.955 336.236L390.203 335.793L376.411 343.759L377.163 344.203L390.955 336.236ZM383.857 342.93L384.609 343.373L391.881 339.168L391.129 338.725L383.857 342.93ZM392.151 338.127L392.904 338.57L407.486 330.16L406.734 329.716L392.151 338.127ZM374.54 349.179L373.788 348.736L359.726 356.857L360.478 357.3L374.54 349.179ZM405.287 327.074L402.471 328.694L403.223 329.138L406.04 327.517L405.287 327.074ZM376.141 344.781L375.389 344.338L356.697 355.121L357.45 355.564L376.141 344.781ZM383.587 343.952L382.835 343.508L374.81 348.138L375.562 348.582L383.587 343.952Z" fill="#E1E9F4"/>
<path d="M385.997 349.392L399.094 341.83L398.342 341.387L385.244 348.948L385.997 349.392ZM400.117 341.252L410.051 335.503L409.298 335.06L399.364 340.789L400.117 341.252ZM384.974 349.99L384.222 349.546L365.666 360.252L366.418 360.695L384.974 349.99ZM363.505 358.901L369.62 355.371L368.868 354.928L362.753 358.458L363.505 358.901ZM403.608 335.754L412.057 330.874L411.305 330.43L402.856 335.31L403.608 335.754ZM396.741 339.728L402.586 336.352L401.833 335.908L395.989 339.284L396.741 339.728ZM388.446 344.511L395.719 340.306L394.966 339.863L387.694 344.068L388.446 344.511ZM370.662 354.773L387.405 345.109L386.653 344.666L369.909 354.33L370.662 354.773Z" fill="#E1E9F4"/>
<path d="M253.787 368.372L254.539 368.816L264.763 362.913L264.01 362.47L253.787 368.372ZM253.517 369.394L252.765 368.951L238.973 376.917L239.725 377.361L253.517 369.394ZM246.418 376.088L247.171 376.532L254.443 372.326L253.69 371.883L246.418 376.088ZM254.713 371.304L255.465 371.748L270.048 363.338L269.296 362.894L254.713 371.304ZM237.102 382.338L236.349 381.894L222.287 390.015L223.04 390.459L237.102 382.338ZM267.849 360.251L265.033 361.872L265.785 362.315L268.601 360.695L267.849 360.251ZM238.703 377.959L237.95 377.515L219.259 388.298L220.011 388.742L238.703 377.959ZM246.129 377.13L245.377 376.686L237.352 381.315L238.105 381.759L246.129 377.13Z" fill="#E1E9F4"/>
<path d="M248.558 382.569L261.656 375.008L260.904 374.564L247.806 382.125L248.558 382.569ZM262.678 374.41L272.612 368.681L271.86 368.237L261.926 373.966L262.678 374.41ZM247.536 383.148L246.784 382.704L228.227 393.41L228.979 393.853L247.536 383.148ZM226.067 392.079L232.182 388.549L231.429 388.105L225.314 391.635L226.067 392.079ZM266.17 368.931L274.618 364.051L273.866 363.607L265.417 368.488L266.17 368.931ZM259.302 372.886L265.147 369.51L264.395 369.066L258.55 372.442L259.302 372.886ZM250.989 377.689L258.261 373.484L257.509 373.04L250.236 377.245L250.989 377.689ZM233.223 387.951L249.966 378.287L249.214 377.843L232.471 387.507L233.223 387.951Z" fill="#E1E9F4"/>
<path opacity="0.2" d="M421.722 440.11L456.366 460.19V484.302L417.266 506.871L417.228 482.778L382.159 462.447C380.79 461.656 380.693 460.21 381.716 458.377C382.275 457.374 383.259 456.217 384.474 455.021L353.109 436.831C332.103 443.351 308.744 446.456 285.442 446.071L282.896 444.605C283.609 444.624 284.304 444.682 285.018 444.701C317.443 444.084 349.541 436.715 374.154 422.402C425.619 392.504 425.31 343.856 373.537 313.957C348.75 299.644 316.594 292.276 284.15 291.658C262.719 292.063 241.501 295.478 222.423 301.843L234.691 294.764C250.644 291.504 267.406 289.961 284.15 290.269C320.086 289.594 356.446 297.117 383.895 312.973C436.594 343.412 436.884 392.928 384.493 423.367C383.51 423.946 382.449 424.408 381.426 424.968L409.319 441.132C413.621 439.801 417.44 439.146 419.967 439.531C420.7 439.666 421.278 439.859 421.722 440.11ZM153.328 341.753C148.641 349.392 146.095 357.358 145.632 365.383L156.762 371.806C155.508 357.281 161.333 342.602 174.238 329.659L153.328 341.753Z" fill="#920000"/>
<path d="M470.697 279.468L470.639 300.551C470.697 280.452 457.445 260.313 430.942 245.017C378.281 214.617 292.848 214.597 240.497 245.017C214.495 260.12 201.493 279.931 201.436 299.78L201.493 278.696C201.551 258.847 214.552 239.037 240.555 223.933C292.906 193.514 378.32 193.533 431 223.933C457.523 239.23 470.755 259.368 470.697 279.468Z" fill="url(#paint0_linear)"/>
<path d="M570.617 289.941L347.901 418.544L124.047 289.286L346.763 160.702L570.617 289.941Z" fill="#F3CCCC"/>
<path d="M459.086 251.826L452.797 252.79L455.999 254.642L396.974 288.707L400.079 290.501L459.086 256.436L462.018 258.114L463.696 254.488L465.393 250.842L459.086 251.826Z" fill="#FC2323"/>
<path d="M440.029 301.65L441.707 298.024L444.909 299.856L503.935 265.791L507.021 267.585L448.015 301.65L450.927 303.348L444.639 304.312L438.351 305.296L440.029 301.65Z" fill="#DA0000"/>
<path d="M360.401 328.193L362.098 331.819L365.3 329.967L412.193 357.05L415.279 355.256L368.387 328.193L371.319 326.495L365.011 325.531L358.723 324.547L360.401 328.193Z" fill="#DA0000"/>
<path d="M538.384 230.839L532.096 229.874L535.278 228.023L488.386 200.94L491.491 199.146L538.384 226.229L541.297 224.55L542.994 228.177L544.672 231.823L538.384 230.839Z" fill="#FC2323"/>
<path d="M406.484 292.102L304.346 351.089L256.238 323.313L358.395 264.325L406.484 292.102Z" fill="#FC2323"/>
<path d="M578.643 192.723L476.486 251.691L428.378 223.914L530.535 164.946L578.643 192.723Z" fill="#FC2323"/>
<path d="M370.856 271.54L358.395 264.325L256.238 323.313L268.699 330.508L370.856 271.54Z" fill="#BF0000"/>
<path d="M542.996 172.141L530.535 164.946L428.378 223.914L440.858 231.128L542.996 172.141Z" fill="#BF0000"/>
<path d="M475.81 332.127L373.653 391.095L325.545 363.318L427.702 304.35L475.81 332.127Z" fill="#FC2323"/>
<path d="M647.95 232.729L545.793 291.716L497.685 263.939L599.842 204.952L647.95 232.729Z" fill="#FC2323"/>
<path d="M440.163 311.545L427.702 304.35L325.545 363.318L338.025 370.533L440.163 311.545Z" fill="#BF0000"/>
<path d="M612.322 212.166L599.842 204.952L497.685 263.939L510.165 271.134L612.322 212.166Z" fill="#BF0000"/>
<path d="M221.999 295.073L219.047 296.77L182.938 275.938L185.889 274.221L221.999 295.073Z" fill="#F34141"/>
<path d="M225.084 293.298L221.921 295.111L189.592 276.458L192.755 274.626L225.084 293.298Z" fill="#940000"/>
<path d="M233.745 288.283L230.794 290L196.574 270.228L199.526 268.531L233.745 288.283Z" fill="#F34141"/>
<path d="M236.832 286.508L233.668 288.341L196.517 266.872L199.661 265.059L236.832 286.508Z" fill="#940000"/>
<path d="M245.552 281.474L242.6 283.171L199.411 258.249L202.343 256.532L245.552 281.474Z" fill="#F34141"/>
<path d="M248.618 279.699L245.474 281.512L223.388 268.762L226.532 266.948L248.618 279.699Z" fill="#940000"/>
<path d="M257.299 274.684L254.367 276.381L214.573 253.407L217.505 251.71L257.299 274.684Z" fill="#F34141"/>
<path d="M260.387 272.91L257.243 274.723L220.805 253.697L223.968 251.884L260.387 272.91Z" fill="#940000"/>
<path d="M292.637 254.276L289.705 255.993L249.178 232.594L252.11 230.878L292.637 254.276Z" fill="#F34141"/>
<path d="M295.723 252.501L292.579 254.334L267.078 239.616L270.242 237.783L295.723 252.501Z" fill="#940000"/>
<path d="M304.424 247.486L301.473 249.183L268.738 230.28L271.69 228.582L304.424 247.486Z" fill="#F34141"/>
<path d="M307.51 245.711L304.347 247.525L277.071 231.784L280.235 229.952L307.51 245.711Z" fill="#940000"/>
<path d="M316.207 240.677L313.256 242.374L262.853 213.267L265.785 211.569L316.207 240.677Z" fill="#F34141"/>
<path d="M319.294 238.902L316.13 240.716L271.919 215.196L275.082 213.382L319.294 238.902Z" fill="#940000"/>
<path d="M327.976 233.887L325.044 235.584L279.366 209.215L282.298 207.499L327.976 233.887Z" fill="#F34141"/>
<path d="M331.063 232.093L327.919 233.926L288.009 210.894L291.172 209.062L331.063 232.093Z" fill="#940000"/>
<path d="M339.76 227.078L336.809 228.775L303.959 209.813L306.91 208.116L339.76 227.078Z" fill="#F34141"/>
<path d="M342.848 225.303L339.704 227.116L302.417 205.608L305.58 203.776L342.848 225.303Z" fill="#940000"/>
<path d="M269.085 267.894L266.134 269.592L251.898 261.374L254.85 259.677L269.085 267.894Z" fill="#F34141"/>
<path d="M272.171 266.1L269.007 267.933L244.047 253.524L247.21 251.691L272.171 266.1Z" fill="#940000"/>
<path d="M280.85 261.104L277.899 262.802L263.663 254.584L266.614 252.867L280.85 261.104Z" fill="#F34141"/>
<path d="M283.938 259.31L280.774 261.142L270.474 255.182L273.618 253.369L283.938 259.31Z" fill="#940000"/>
<path d="M348.557 224.859L217.524 300.512L214.843 298.969L345.895 223.316L348.557 224.859Z" fill="#F34141"/>
<path d="M366.727 211.511L363.776 213.208L343.946 201.77L346.898 200.072L366.727 211.511Z" fill="#F34141"/>
<path d="M369.813 209.736L366.65 211.549L350.62 202.29L353.764 200.458L369.813 209.736Z" fill="#940000"/>
<path d="M378.476 204.721L375.544 206.418L368.04 202.098L370.991 200.4L378.476 204.721Z" fill="#F34141"/>
<path d="M381.56 202.946L378.416 204.759L367.98 198.741L371.125 196.928L381.56 202.946Z" fill="#940000"/>
<path d="M390.281 197.912L387.33 199.609L364.414 186.377L367.365 184.679L390.281 197.912Z" fill="#F34141"/>
<path d="M393.367 196.138L390.203 197.951L379.073 191.528L382.237 189.695L393.367 196.138Z" fill="#940000"/>
<path d="M402.047 191.121L399.096 192.819L391.188 188.247L394.139 186.55L402.047 191.121Z" fill="#F34141"/>
<path d="M405.134 189.347L401.97 191.16L389.008 183.676L392.171 181.862L405.134 189.347Z" fill="#940000"/>
<path d="M437.384 170.714L434.433 172.411L392.594 148.261L395.526 146.563L437.384 170.714Z" fill="#F34141"/>
<path d="M440.469 168.939L437.306 170.752L399.383 148.859L402.546 147.045L440.469 168.939Z" fill="#940000"/>
<path d="M449.171 163.923L446.22 165.62L393.02 134.892L395.952 133.195L449.171 163.923Z" fill="#F34141"/>
<path d="M452.258 162.13L449.094 163.962L398.421 134.7L401.565 132.867L452.258 162.13Z" fill="#940000"/>
<path d="M460.937 157.114L458.005 158.812L418.963 136.281L421.895 134.584L460.937 157.114Z" fill="#F34141"/>
<path d="M464.025 155.34L460.881 157.153L426.738 137.458L429.902 135.626L464.025 155.34Z" fill="#940000"/>
<path d="M472.723 150.324L469.772 152.022L439.584 134.584L442.535 132.887L472.723 150.324Z" fill="#F34141"/>
<path d="M475.811 148.53L472.647 150.363L448.246 136.262L451.41 134.449L475.811 148.53Z" fill="#940000"/>
<path d="M484.509 143.515L481.557 145.212L466.569 136.551L469.501 134.854L484.509 143.515Z" fill="#F34141"/>
<path d="M487.596 141.74L484.433 143.554L471.2 135.915L474.344 134.083L487.596 141.74Z" fill="#940000"/>
<path d="M413.814 184.332L410.882 186.029L385.922 171.62L388.873 169.923L413.814 184.332Z" fill="#F34141"/>
<path d="M416.898 182.538L413.754 184.37L384.801 167.646L387.964 165.833L416.898 182.538Z" fill="#940000"/>
<path d="M425.578 177.522L422.646 179.22L398.611 165.351L401.543 163.653L425.578 177.522Z" fill="#F34141"/>
<path d="M428.663 175.748L425.519 177.561L405.4 165.968L408.564 164.135L428.663 175.748Z" fill="#940000"/>
<path d="M493.286 141.297L362.253 216.95L359.591 215.407L490.624 139.754L493.286 141.297Z" fill="#F34141"/>
<path d="M340.823 259.426L243.546 315.597L229.696 307.611L326.992 251.44L340.823 259.426Z" fill="#DA0000"/>
<path d="M252.554 310.408L243.546 315.597L229.696 307.611L238.705 302.403L252.554 310.408Z" fill="#F25A5A"/>
<path d="M429.537 208.212L332.26 264.383L318.41 256.397L415.687 200.226L429.537 208.212Z" fill="#DA0000"/>
<path d="M341.267 259.194L332.259 264.383L318.409 256.397L327.417 251.189L341.267 259.194Z" fill="#CC6666"/>
<path d="M518.249 156.998L420.972 213.169L407.122 205.164L504.399 149.012L518.249 156.998Z" fill="#DA0000"/>
<path d="M429.98 207.98L420.972 213.169L407.122 205.164L416.13 199.975L429.98 207.98Z" fill="#E54444"/>
<path d="M439.623 191.546L424.982 200.014L423.4 199.108L438.041 190.659L439.623 191.546Z" fill="#E1E9F4"/>
<path d="M448.11 186.647L442.015 190.177L440.452 189.27L446.528 185.74L448.11 186.647Z" fill="#E1E9F4"/>
<path d="M439.623 199.223L431.618 203.853L430.056 202.946L438.061 198.336L439.623 199.223Z" fill="#E1E9F4"/>
<path d="M460.031 187.456L442.034 197.853L440.452 196.947L458.449 186.55L460.031 187.456Z" fill="#E1E9F4"/>
<path d="M472.357 180.339L462.442 186.068L460.86 185.161L470.794 179.432L472.357 180.339Z" fill="#E1E9F4"/>
<path d="M351.72 242.297L337.079 250.746L335.517 249.839L350.157 241.39L351.72 242.297Z" fill="#E1E9F4"/>
<path d="M360.226 237.397L354.131 240.908L352.549 240.001L358.644 236.49L360.226 237.397Z" fill="#E1E9F4"/>
<path d="M351.739 249.974L343.734 254.603L342.172 253.697L350.177 249.067L351.739 249.974Z" fill="#E1E9F4"/>
<path d="M372.128 238.207L354.131 248.585L352.568 247.679L370.565 237.301L372.128 238.207Z" fill="#E1E9F4"/>
<path d="M384.473 231.07L374.558 236.799L372.977 235.893L382.911 230.164L384.473 231.07Z" fill="#E1E9F4"/>
<path d="M263.838 293.047L249.197 301.496L247.635 300.59L262.275 292.141L263.838 293.047Z" fill="#E1E9F4"/>
<path d="M272.325 288.148L266.249 291.658L264.667 290.752L270.762 287.241L272.325 288.148Z" fill="#E1E9F4"/>
<path d="M263.858 300.724L255.853 305.335L254.29 304.428L262.276 299.818L263.858 300.724Z" fill="#E1E9F4"/>
<path d="M284.246 288.938L266.249 299.335L264.687 298.429L282.684 288.032L284.246 288.938Z" fill="#E1E9F4"/>
<path d="M296.591 281.821L286.657 287.55L285.095 286.643L295.01 280.914L296.591 281.821Z" fill="#E1E9F4"/>
<path d="M544.153 188.382L549.458 185.315L548.127 184.544L542.822 187.611L544.153 188.382ZM498.109 214.944L521.218 201.596L519.887 200.824L496.778 214.172L498.109 214.944ZM523.031 200.554L542.321 189.424L540.99 188.652L521.7 199.783L523.031 200.554ZM496.296 216.005L494.965 215.233L462.211 234.137L463.542 234.909L496.296 216.005ZM458.411 231.745L469.233 225.495L467.902 224.724L457.1 230.974L458.411 231.745ZM529.204 190.871L544.134 182.248L542.803 181.477L527.873 190.099L529.204 190.871ZM517.071 197.873L527.39 191.912L526.059 191.141L515.74 197.101L517.071 197.873ZM502.411 206.341L515.257 198.934L513.926 198.162L501.099 205.569L502.411 206.341ZM471.046 224.454L500.617 207.383L499.286 206.611L469.715 223.682L471.046 224.454Z" fill="#E1E9F4"/>
<path d="M553.278 187.688L554.609 188.46L542.129 195.655L540.798 194.883L553.278 187.688ZM522.974 211.298L524.305 212.07L537.133 204.663L535.802 203.891L522.974 211.298ZM538.984 195.925L515.876 209.273L517.207 210.044L540.315 196.696L538.984 195.925ZM549.497 195.982L537.634 202.83L538.965 203.602L550.828 196.754L549.497 195.982ZM515.393 211.105L514.062 210.334L467.459 237.243L468.79 238.014L515.393 211.105ZM491.127 231.244L489.796 230.472L473.072 240.136L474.403 240.908L491.127 231.244ZM521.161 212.34L491.59 229.411L492.921 230.183L522.492 213.112L521.161 212.34Z" fill="#E1E9F4"/>
<path d="M397.476 354.6L434.917 332.977L433.586 332.205L396.145 353.829L397.476 354.6ZM395.663 355.642L394.332 354.87L361.578 373.793L362.909 374.565L395.663 355.642ZM357.778 371.401L368.6 365.152L367.269 364.38L356.447 370.63L357.778 371.401ZM416.438 337.529L426.757 331.569L425.426 330.797L415.107 336.758L416.438 337.529ZM401.778 345.997L414.624 338.59L413.293 337.818L400.466 345.226L401.778 345.997ZM370.394 364.11L399.964 347.039L398.633 346.267L369.063 363.338L370.394 364.11Z" fill="#E1E9F4"/>
<path d="M412.617 356.568L413.948 357.339L429.611 348.293L428.28 347.521L412.617 356.568ZM429.862 340.48L415.222 348.929L416.552 349.701L431.193 341.252L429.862 340.48ZM414.759 350.742L413.428 349.971L366.824 376.88L368.155 377.651L414.759 350.742ZM390.473 370.9L389.142 370.128L372.418 379.792L373.749 380.564L390.473 370.9ZM410.804 357.61L390.955 369.067L392.286 369.839L412.135 358.381L410.804 357.61Z" fill="#E1E9F4"/>
<path d="M588.248 236.78L589.579 237.552L607.634 227.135L606.303 226.364L588.248 236.78ZM587.765 238.613L586.435 237.841L562.072 251.903L563.403 252.675L587.765 238.613ZM575.227 250.437L576.558 251.209L589.386 243.801L588.055 243.03L575.227 250.437ZM589.887 241.969L591.218 242.741L616.95 227.888L615.619 227.116L589.887 241.969ZM558.773 261.471L557.442 260.699L532.636 275.031L533.967 275.803L558.773 261.471ZM613.073 222.448L608.116 225.303L609.447 226.074L614.404 223.22L613.073 222.448ZM561.609 253.716L560.278 252.945L527.293 271.983L528.624 272.755L561.609 253.716ZM574.745 252.25L573.414 251.479L559.256 259.657L560.587 260.429L574.745 252.25Z" fill="#E1E9F4"/>
<path d="M579.03 261.857L602.138 248.508L600.807 247.737L577.699 261.085L579.03 261.857ZM603.952 247.467L621.505 237.34L620.174 236.568L602.621 246.695L603.952 247.467ZM577.216 262.898L575.885 262.127L543.132 281.05L544.463 281.821L577.216 262.898ZM539.332 278.658L550.153 272.408L548.822 271.636L538.001 277.886L539.332 278.658ZM610.124 237.783L625.035 229.18L623.704 228.409L608.793 237.012L610.124 237.783ZM597.991 244.785L608.311 238.825L606.98 238.053L596.66 244.014L597.991 244.785ZM583.331 253.234L596.178 245.827L594.847 245.056L582.02 252.463L583.331 253.234ZM551.947 271.366L581.518 254.295L580.187 253.524L550.616 270.595L551.947 271.366Z" fill="#E1E9F4"/>
<path d="M345.587 295.343L346.918 296.115L364.973 285.698L363.642 284.927L345.587 295.343ZM345.105 297.176L343.774 296.404L319.412 310.466L320.742 311.238L345.105 297.176ZM332.567 309L333.898 309.772L346.725 302.364L345.394 301.593L332.567 309ZM347.208 300.532L348.539 301.303L374.271 286.451L372.94 285.679L347.208 300.532ZM316.113 320.034L314.782 319.262L289.956 333.594L291.287 334.366L316.113 320.034ZM370.413 281.011L365.455 283.866L366.786 284.637L371.744 281.783L370.413 281.011ZM318.929 312.279L317.598 311.508L284.613 330.546L285.944 331.318L318.929 312.279ZM332.085 310.813L330.754 310.042L316.595 318.22L317.926 318.992L332.085 310.813Z" fill="#E1E9F4"/>
<path d="M336.366 320.42L359.475 307.071L358.144 306.3L335.035 319.648L336.366 320.42ZM361.288 306.03L378.842 295.903L377.511 295.131L359.957 305.258L361.288 306.03ZM334.534 321.461L333.203 320.69L300.449 339.593L301.78 340.365L334.534 321.461ZM296.649 337.201L307.471 330.952L306.14 330.18L295.318 336.43L296.649 337.201ZM367.461 296.346L382.372 287.743L381.041 286.972L366.13 295.575L367.461 296.346ZM355.309 303.348L365.628 297.388L364.298 296.616L353.978 302.577L355.309 303.348ZM340.668 311.797L353.515 304.39L352.184 303.619L339.356 311.026L340.668 311.797ZM309.284 329.929L338.855 312.858L337.524 312.087L307.953 329.158L309.284 329.929Z" fill="#E1E9F4"/>
<path d="M240.575 238.883C292.927 208.463 378.341 208.482 431.02 238.883C455.363 252.945 468.5 271.077 470.429 289.537C472.647 267.952 459.53 245.904 431.02 229.431C378.36 199.03 292.927 199.011 240.575 229.431C212.451 245.788 199.547 267.643 201.784 289.093C203.674 270.807 216.56 252.829 240.575 238.883Z" fill="#BF0000"/>
<path d="M473.128 279.468L473.07 300.551C473.013 320.747 459.761 340.924 433.296 356.317C380.018 387.277 293.061 387.277 239.436 356.317C212.45 340.731 198.986 320.246 199.044 299.78L199.102 278.696C199.044 299.162 212.527 319.648 239.494 335.234C293.119 366.193 380.076 366.193 433.353 335.234C459.819 319.841 473.07 299.664 473.128 279.468Z" fill="#940000"/>
<path d="M432.738 222.93C486.363 253.89 486.633 304.254 433.355 335.233C380.078 366.193 293.121 366.193 239.496 335.233C185.871 304.274 185.601 253.909 238.859 222.949C292.156 191.97 379.113 191.97 432.738 222.93ZM241.193 334.249C293.854 364.65 379.306 364.65 431.638 334.249C483.99 303.83 483.681 254.353 431.021 223.933C378.361 193.533 292.928 193.513 240.576 223.933C188.244 254.333 188.533 303.83 241.193 334.249Z" fill="url(#paint1_linear)"/>
<path d="M469.212 362.413C469.714 362.509 470.138 362.664 470.505 362.876L433.7 341.715C433.334 341.503 432.89 341.349 432.408 341.252C428.376 340.481 421.837 344.242 417.806 349.624C415.78 352.324 414.777 354.928 414.777 356.954C414.777 358.478 415.356 359.693 416.513 360.349L453.318 381.509C453.684 381.722 454.109 381.876 454.61 381.972C458.642 382.744 465.181 378.982 469.212 373.601C471.238 370.9 472.241 368.296 472.241 366.271C472.241 364.245 471.238 362.799 469.212 362.413Z" fill="#A50A0A"/>
<path d="M476.503 358.034C475.905 357.687 475.211 357.436 474.439 357.282C467.977 356.086 457.522 362.066 451.06 370.688C447.839 375.009 446.219 379.156 446.219 382.397C446.219 384.847 447.145 386.756 448.977 387.817L572.083 458.436C572.661 458.764 573.356 459.034 574.147 459.188C580.609 460.384 591.063 454.405 597.525 445.782C600.747 441.461 602.367 437.314 602.367 434.074C602.367 431.797 601.576 429.984 599.975 428.885C599.319 428.441 476.503 358.034 476.503 358.034Z" fill="url(#paint2_linear)"/>
<path d="M596.619 432.009C595.231 430.311 590.042 432.24 585.046 436.33C580.05 440.419 577.118 445.106 578.526 446.823C579.915 448.521 585.104 446.592 590.1 442.502C595.096 438.394 598.008 433.706 596.619 432.009Z" fill="#DD1313"/>
<path d="M175.01 455.812L174.99 450.276L154.119 438.027L154.138 443.563C154.138 444.778 154.563 445.646 155.257 446.052L176.128 458.3C175.434 457.876 175.01 457.027 175.01 455.812Z" fill="#6D0505"/>
<path d="M179.795 420.088C179.1 419.683 178.117 419.741 177.036 420.358L157.959 431.372L178.83 443.621L197.907 432.607C198.988 431.99 199.952 431.932 200.666 432.337L179.795 420.088Z" fill="#920000"/>
<path d="M174.99 450.276L154.119 438.027C154.119 435.577 155.836 432.607 157.958 431.372L178.829 443.621C176.707 444.836 174.99 447.826 174.99 450.276Z" fill="#920000"/>
<path d="M197.904 432.607C200.045 431.372 201.781 432.356 201.781 434.806L201.8 440.342C201.8 442.792 200.084 445.781 197.943 447.016L178.865 458.03C176.724 459.265 175.007 458.262 174.988 455.812L174.969 450.276C174.969 447.826 176.686 444.856 178.807 443.621L197.904 432.607Z" fill="#252321"/>
<path d="M285.961 480.638L186.909 423.233C188.144 422.519 189.282 422.442 190.092 422.924L289.143 480.33C288.333 479.848 287.195 479.925 285.961 480.638Z" fill="#373431"/>
<path d="M259.516 507.431L259.497 501.047L160.445 443.641L160.465 450.026C160.465 451.434 160.966 452.418 161.776 452.9L260.828 510.306C260.018 509.823 259.516 508.84 259.516 507.431Z" fill="#1E1B19"/>
<path d="M263.932 493.35L164.881 435.945L186.909 423.233L285.961 480.638L263.932 493.35Z" fill="#2D2B29"/>
<path d="M259.497 501.047L160.445 443.641C160.445 440.806 162.413 437.372 164.882 435.964L263.933 493.369C261.484 494.777 259.497 498.211 259.497 501.047Z" fill="#373431"/>
<path d="M285.961 480.638C288.43 479.211 290.436 480.349 290.436 483.184L290.456 489.569C290.456 492.405 288.469 495.858 286 497.266L263.991 509.978C261.521 511.405 259.535 510.248 259.515 507.412L259.496 501.027C259.496 498.192 261.464 494.758 263.933 493.35L285.961 480.638Z" fill="#252321"/>
<path d="M287.776 484.573C287.178 484.226 286.368 484.284 285.462 484.804L266.693 495.645C264.899 496.667 263.472 499.156 263.472 501.22L263.491 505.849C263.491 506.871 263.857 507.585 264.436 507.932L290.651 513.141C290.573 513.102 291.924 513.507 292.946 512.909L297.556 510.247C299.35 509.225 299.62 501.818 299.62 501.818L287.776 484.573Z" fill="#1E1B19"/>
<path d="M308.611 507.701L295.919 500.255C296.575 499.869 297.173 499.85 297.597 500.082L310.29 507.527C309.865 507.276 309.267 507.315 308.611 507.701Z" fill="#373431"/>
<path d="M301.068 518.117V514.761L288.376 507.315V510.671C288.376 511.404 288.646 511.944 289.07 512.176L301.763 519.622C301.338 519.39 301.068 518.869 301.068 518.117Z" fill="#1E1B19"/>
<path d="M303.402 510.71L290.71 503.264L295.918 500.255L308.611 507.701L303.402 510.71Z" fill="#2D2B29"/>
<path d="M301.068 514.761L288.376 507.315C288.376 505.83 289.418 504.017 290.71 503.265L303.402 510.71C302.091 511.463 301.049 513.276 301.068 514.761Z" fill="#373431"/>
<path d="M308.61 507.701C309.902 506.949 310.963 507.547 310.963 509.032L310.982 512.388C310.982 513.874 309.941 515.706 308.648 516.439L303.421 519.448C302.128 520.2 301.067 519.583 301.067 518.098V514.742C301.067 513.256 302.109 511.443 303.401 510.691L308.61 507.701Z" fill="#252321"/>
<path d="M309.419 509.34L302.957 513.102L302.938 517.616L310.364 521.898C310.788 522.149 311.328 521.936 311.463 521.473L313.064 516.304C313.122 516.111 313.161 515.918 313.161 515.725L313.18 512.292C313.18 511.809 312.929 511.346 312.505 511.115L309.419 509.34Z" fill="#920000"/>
<path d="M205.275 450.334L181.086 436.368L188.551 432.067L212.721 446.013L205.275 450.334Z" fill="#3F474F"/>
<path d="M219.934 454.231L222.828 455.909L222.249 456.237L219.356 454.559L219.934 454.231ZM217.349 456.044L217.928 455.716L215.671 454.404L214.186 453.556L213.607 453.884L215.093 454.732L217.349 456.044ZM213.125 452.938L209.421 450.797L208.843 451.125L212.546 453.266L213.125 452.938ZM216.751 453.054L218.314 453.961L218.893 453.633L216.211 452.09L211.736 449.505L211.158 449.833L216.751 453.054ZM214.649 449.196L218.295 451.299L218.873 450.971L215.228 448.868L214.051 448.193L213.472 448.521L214.649 449.196ZM221.94 453.401L223.117 454.076L223.696 453.748L222.153 452.861L219.954 451.588L219.375 451.916L221.94 453.401ZM232.241 458.687L230.621 457.741L230.042 458.069L231.662 459.015L232.241 458.687ZM229.56 457.124L228.171 456.314L227.592 456.642L228.981 457.452L229.56 457.124ZM229.984 460.018L227.322 458.474L226.743 458.802L229.405 460.345L229.984 460.018ZM223.696 459.034L222.558 458.378L221.979 458.706L223.117 459.362L223.696 459.034ZM224.757 459.651L224.178 459.979L227.129 461.696L227.708 461.368L224.757 459.651Z" fill="#3F474F"/>
<path d="M158.055 495.586L158.035 490.05L137.164 477.801L137.183 483.337C137.183 484.552 137.608 485.42 138.302 485.825L159.173 498.074C158.498 497.669 158.074 496.801 158.055 495.586Z" fill="#E41A1A"/>
<path d="M162.84 459.862C162.145 459.457 161.161 459.515 160.081 460.132L141.004 471.146L161.875 483.395L180.952 472.381C182.033 471.764 182.997 471.706 183.711 472.111L162.84 459.862Z" fill="#FC2323"/>
<path d="M158.055 490.05L137.184 477.801C137.184 475.351 138.9 472.381 141.022 471.146L161.893 483.395C159.752 484.63 158.036 487.6 158.055 490.05Z" fill="#FC2323"/>
<path d="M180.971 472.381C183.112 471.146 184.848 472.13 184.848 474.58L184.868 480.116C184.868 482.566 183.151 485.556 181.01 486.79L161.933 497.804C159.791 499.039 158.075 498.036 158.055 495.586L158.036 490.05C158.036 487.6 159.753 484.63 161.875 483.395L180.971 472.381Z" fill="#252321"/>
<path d="M269.007 520.412L169.955 463.006C171.19 462.292 172.328 462.215 173.138 462.697L272.189 520.103C271.379 519.64 270.26 519.698 269.007 520.412Z" fill="#373431"/>
<path d="M242.581 547.205L242.561 540.82L143.51 483.414L143.529 489.799C143.529 491.207 144.031 492.191 144.841 492.673L243.892 550.079C243.082 549.596 242.581 548.613 242.581 547.205Z" fill="#1E1B19"/>
<path d="M246.997 533.123L147.945 475.718L169.955 463.006L269.006 520.412L246.997 533.123Z" fill="#2D2B29"/>
<path d="M242.561 540.82L143.51 483.414C143.51 480.579 145.477 477.145 147.946 475.737L246.998 533.143C244.529 534.551 242.542 537.984 242.561 540.82Z" fill="#373431"/>
<path d="M269.006 520.411C271.475 518.984 273.481 520.122 273.481 522.958L273.501 529.342C273.501 532.178 271.514 535.631 269.045 537.039L247.035 549.751C244.566 551.178 242.58 550.021 242.56 547.185L242.541 540.8C242.541 537.965 244.509 534.531 246.978 533.123L269.006 520.411Z" fill="#252321"/>
<path d="M270.84 524.347C270.242 524 269.432 524.057 268.525 524.578L249.756 535.419C247.963 536.441 246.535 538.93 246.535 540.994L246.554 545.623C246.554 546.645 246.921 547.359 247.5 547.706L273.714 552.914C273.637 552.876 274.987 553.281 276.009 552.683L280.62 550.021C282.414 548.999 282.684 541.592 282.684 541.592L270.84 524.347Z" fill="#1E1B19"/>
<path d="M291.672 547.475L278.979 540.029C279.635 539.643 280.233 539.624 280.658 539.855L293.35 547.301C292.926 547.07 292.328 547.089 291.672 547.475Z" fill="#373431"/>
<path d="M284.13 557.891L284.11 554.535L271.418 547.089V550.446C271.418 551.179 271.688 551.719 272.112 551.95L284.805 559.396C284.381 559.165 284.13 558.644 284.13 557.891Z" fill="#1E1B19"/>
<path d="M286.444 550.484L273.752 543.038L278.979 540.029L291.672 547.475L286.444 550.484Z" fill="#2D2B29"/>
<path d="M284.11 554.535L271.418 547.089C271.418 545.604 272.46 543.791 273.752 543.039L286.444 550.484C285.152 551.237 284.11 553.05 284.11 554.535Z" fill="#373431"/>
<path d="M291.673 547.475C292.965 546.723 294.026 547.321 294.026 548.806V552.162C294.026 553.648 292.985 555.48 291.692 556.213L286.465 559.222C285.172 559.975 284.111 559.357 284.111 557.872V554.516C284.111 553.03 285.153 551.217 286.445 550.465L291.673 547.475Z" fill="#252321"/>
<path d="M292.482 549.114L286.02 552.876L286.001 557.389L293.427 561.672C293.852 561.922 294.392 561.71 294.527 561.247L296.128 556.078C296.186 555.885 296.224 555.692 296.224 555.499L296.244 552.066C296.244 551.583 295.993 551.12 295.569 550.889L292.482 549.114Z" fill="#FC2323"/>
<path d="M188.32 490.108L164.15 476.142L171.596 471.841L195.785 485.806L188.32 490.108Z" fill="#3F474F"/>
<path d="M202.999 494.004L205.893 495.683L205.314 496.01L202.421 494.332L202.999 494.004ZM200.395 495.818L200.974 495.49L198.717 494.178L197.232 493.31L196.653 493.638L198.138 494.506L200.395 495.818ZM196.171 492.712L192.467 490.571L191.889 490.899L195.592 493.04L196.171 492.712ZM199.797 492.828L201.36 493.734L201.938 493.406L199.257 491.863L194.782 489.278L194.203 489.606L199.797 492.828ZM197.714 488.97L201.36 491.072L201.938 490.744L198.293 488.642L197.116 487.967L196.537 488.295L197.714 488.97ZM204.986 493.175L206.163 493.85L206.742 493.522L205.198 492.635L202.999 491.362L202.421 491.69L204.986 493.175ZM215.306 498.46L213.686 497.515L213.107 497.843L214.727 498.788L215.306 498.46ZM212.625 496.917L211.236 496.107L210.657 496.435L212.046 497.245L212.625 496.917ZM213.049 499.791L210.387 498.248L209.809 498.576L212.471 500.119L213.049 499.791ZM206.761 498.807L205.623 498.152L205.044 498.48L206.182 499.135L206.761 498.807ZM207.822 499.425L207.243 499.753L210.194 501.469L210.773 501.141L207.822 499.425Z" fill="#3F474F"/>
<defs>
<linearGradient id="paint0_linear" x1="201.449" y1="250.839" x2="470.704" y2="250.839" gradientUnits="userSpaceOnUse">
<stop stop-color="#E4E2E2"/>
<stop offset="1" stop-color="#D6D5D4"/>
</linearGradient>
<linearGradient id="paint1_linear" x1="199.094" y1="279.084" x2="473.133" y2="279.084" gradientUnits="userSpaceOnUse">
<stop stop-color="#BF0000"/>
<stop offset="1" stop-color="#940000"/>
</linearGradient>
<linearGradient id="paint2_linear" x1="445.036" y1="408.451" x2="593.351" y2="440.919" gradientUnits="userSpaceOnUse">
<stop stop-color="#FC2323"/>
<stop offset="0.296875" stop-color="#BF0000"/>
<stop offset="0.645833" stop-color="#B10000"/>
<stop offset="1" stop-color="#E81717"/>
</linearGradient>
</defs>
</svg>
