<svg width="673" height="603" viewBox="0 0 673 603" fill="none" xmlns="http://www.w3.org/2000/svg">
<g clip-path="url(#clip0)">
<path d="M423.839 397.721L299.284 325.841L358.234 291.992L482.789 363.873L423.839 397.721ZM303.848 325.841L423.839 395.059L478.225 363.873L358.234 294.654L303.848 325.841Z" fill="#920000"/>
<path d="M358.234 78.0618V219.351L480.508 289.9V148.611L358.234 78.0618ZM372.687 103.353L465.865 157.168V264.609L372.687 210.794V103.353Z" fill="url(#paint0_linear)"/>
<path d="M341.5 87.5698V228.859L463.773 299.408V158.119L341.5 87.5698ZM355.952 112.861L449.131 166.677V274.117L355.952 220.302V112.861Z" fill="url(#paint1_linear)"/>
<path d="M341.5 87.5698L358.234 78.0618L480.507 148.611L463.773 158.309L341.5 87.5698Z" fill="url(#paint2_linear)"/>
<path d="M480.508 148.611L463.773 158.309V299.408L480.508 289.9V148.611Z" fill="url(#paint3_linear)"/>
<path d="M372.686 210.794L355.952 220.492V112.861L372.686 122.559V210.794Z" fill="url(#paint4_linear)"/>
<path d="M372.686 210.794L355.952 220.492L449.131 274.117V254.911L372.686 210.794Z" fill="url(#paint5_linear)"/>
<path opacity="0.5" d="M364.89 215.358V118.186L449.131 166.677V263.088L364.89 215.358Z" fill="#FF5353"/>
<path d="M318.299 101.071V242.36L440.572 312.909V171.62L318.299 101.071ZM332.941 126.362L426.12 180.178V287.618L332.941 233.803V126.362V126.362Z" fill="url(#paint6_linear)"/>
<path d="M301.565 110.579V251.868L423.839 322.418V181.128L301.565 110.579ZM316.208 135.87L409.386 189.686V297.126L316.208 243.311V135.87Z" fill="url(#paint7_linear)"/>
<path d="M301.565 110.579L318.3 101.071L440.573 171.62L423.839 181.318L301.565 110.579Z" fill="url(#paint8_linear)"/>
<path d="M440.573 171.621L423.839 181.319V322.418L440.573 312.91V171.621Z" fill="url(#paint9_linear)"/>
<path d="M332.941 233.803L316.207 243.501V135.87L332.941 145.569V233.803Z" fill="url(#paint10_linear)"/>
<path d="M332.941 233.803L316.207 243.501L409.195 297.126V277.92L332.941 233.803Z" fill="url(#paint11_linear)"/>
<path opacity="0.5" d="M325.146 238.367V141.195L409.196 189.686V286.097L325.146 238.367Z" fill="#FF5353"/>
<path d="M423.839 181.319L301.565 110.579L304.418 109.058L426.691 179.608V320.897L423.839 322.418V181.319Z" fill="#76262F"/>
<path d="M463.772 158.309L341.499 87.5696L344.351 86.0483L466.625 156.598V297.887L463.772 299.408V158.309Z" fill="#76262F"/>
<path d="M316.207 135.87L319.059 137.582V241.79L409.195 293.894V297.126L316.207 243.501V135.87Z" fill="#FF5353"/>
<path opacity="0.5" d="M318.301 101.071L341.5 87.5698L463.773 158.309V299.408L440.574 312.91V171.621L318.301 101.071Z" fill="white"/>
<path opacity="0.5" d="M463.773 158.309L440.574 171.621L318.301 101.071L341.5 87.5698L463.773 158.309Z" fill="white"/>
<path opacity="0.3" d="M239.27 469.874L360.973 399.515L239.27 329.346L117.758 399.515L239.27 469.874Z" fill="#920000"/>
<path d="M239.271 390.768L361.734 320.218V266.022L239.271 336.572V390.768Z" fill="url(#paint12_linear)"/>
<path d="M239.271 336.572L361.734 266.022L239.271 195.283L116.998 266.022L239.271 336.572Z" fill="url(#paint13_linear)"/>
<path opacity="0.8" d="M239.271 319.648L332.449 266.022L239.271 212.207L146.282 266.022L239.271 319.648Z" fill="white"/>
<path d="M116.997 320.218L239.27 390.768V336.572L116.997 266.022V320.218Z" fill="url(#paint14_linear)"/>
<path d="M239.271 303.484L361.734 232.935V178.739L239.271 249.288V303.484Z" fill="url(#paint15_linear)"/>
<path d="M239.271 249.288L361.734 178.739L239.271 108.189L116.998 178.739L239.271 249.288Z" fill="url(#paint16_linear)"/>
<path d="M239.27 246.626L359.261 177.407L361.734 178.739L239.27 249.288L116.997 178.739L119.469 177.407L239.27 246.626Z" fill="#76262F"/>
<path d="M239.27 333.91L359.261 264.501L361.734 266.022L239.27 336.572L116.997 266.022L119.469 264.501L239.27 333.91Z" fill="#76262F"/>
<path d="M239.27 135.192L325.033 184.634L239.27 234.076L153.698 184.634L239.27 135.192Z" fill="white" fill-opacity="0.8"/>
<path d="M239.27 135.192L153.697 184.634L143.429 178.739L239.27 123.402L335.301 178.739L325.032 184.634L239.27 135.192Z" fill="#76262F"/>
<path d="M116.997 232.935L239.27 303.484V249.288L116.997 178.739V232.935Z" fill="url(#paint17_linear)"/>
<path d="M196.675 251.76C196.675 256.134 199.717 261.648 203.711 263.93C207.514 266.212 210.747 264.311 210.747 259.937C210.747 255.563 207.704 250.049 203.711 247.767C199.717 245.485 196.675 247.386 196.675 251.76Z" fill="white" fill-opacity="0.8"/>
<path d="M171.193 237.118C171.193 241.492 174.236 247.006 178.229 249.288C182.033 251.57 185.265 249.669 185.265 245.295C185.265 240.921 182.223 235.407 178.229 233.125C174.426 230.843 171.193 232.744 171.193 237.118Z" fill="white" fill-opacity="0.8"/>
<path d="M145.712 222.476C145.712 226.849 148.755 232.364 152.748 234.646C156.551 236.928 159.784 235.026 159.784 230.652C159.784 226.279 156.741 220.764 152.748 218.482C148.945 216.2 145.712 217.912 145.712 222.476Z" fill="white" fill-opacity="0.8"/>
<path d="M200.288 246.816C199.908 247.577 199.717 248.528 199.717 249.478C199.717 253.852 202.76 259.367 206.753 261.649C208.084 262.409 209.225 262.599 210.176 262.599C209.225 264.881 206.563 265.642 203.711 263.931C199.908 261.649 196.675 256.324 196.675 251.76C196.675 248.718 198.196 247.006 200.288 246.816Z" fill="#B70000"/>
<path d="M174.806 232.174C174.426 232.934 174.236 233.885 174.236 234.836C174.236 239.21 177.279 244.724 181.272 247.006C182.603 247.767 183.744 247.957 184.695 247.957C183.744 250.239 181.082 251 178.229 249.288C174.426 247.006 171.193 241.682 171.193 237.118C171.193 234.075 172.715 232.364 174.806 232.174Z" fill="#B70000"/>
<path d="M149.325 217.531C148.945 218.292 148.754 219.242 148.754 220.193C148.754 224.567 151.797 230.082 155.79 232.364C157.122 233.124 158.263 233.314 159.213 233.314C158.263 235.596 155.6 236.357 152.748 234.645C148.945 232.364 145.712 227.039 145.712 222.475C145.712 219.433 147.233 217.721 149.325 217.531Z" fill="#B70000"/>
<path d="M196.676 339.044C196.676 343.418 199.718 348.932 203.712 351.214C207.515 353.496 210.748 351.594 210.748 347.221C210.748 342.847 207.705 337.332 203.712 335.051C199.718 332.769 196.676 334.48 196.676 339.044Z" fill="white" fill-opacity="0.8"/>
<path d="M171.193 324.402C171.193 328.775 174.236 334.29 178.229 336.572C182.033 338.854 185.265 336.952 185.265 332.578C185.265 328.205 182.223 322.69 178.229 320.408C174.426 318.126 171.193 319.838 171.193 324.402Z" fill="white" fill-opacity="0.8"/>
<path d="M145.712 309.569C145.712 313.943 148.755 319.457 152.748 321.739C156.551 324.021 159.784 322.12 159.784 317.746C159.784 313.372 156.741 307.858 152.748 305.576C148.755 303.294 145.712 305.195 145.712 309.569Z" fill="white"/>
<path d="M200.289 334.1C199.909 334.861 199.718 335.812 199.718 336.762C199.718 341.136 202.761 346.651 206.754 348.933C208.085 349.693 209.226 349.883 210.177 349.883C209.226 352.165 206.564 352.926 203.712 351.215C199.909 348.933 196.676 343.608 196.676 339.044C196.676 336.002 198.197 334.29 200.289 334.1Z" fill="#B70000"/>
<path d="M174.806 319.457C174.426 320.218 174.236 321.169 174.236 322.12C174.236 326.493 177.279 332.008 181.272 334.29C182.603 335.05 183.744 335.241 184.695 335.241C183.744 337.523 181.082 338.283 178.229 336.572C174.426 334.29 171.193 328.965 171.193 324.401C171.193 321.359 172.715 319.647 174.806 319.457Z" fill="#B70000"/>
<path d="M149.325 304.624C148.945 305.385 148.754 306.336 148.754 307.287C148.754 311.66 151.797 317.175 155.79 319.457C157.122 320.217 158.263 320.408 159.213 320.408C158.263 322.69 155.6 323.45 152.748 321.739C148.945 319.457 145.712 314.132 145.712 309.568C145.712 306.526 147.233 304.814 149.325 304.624Z" fill="#A9EBFF"/>
<path d="M239.271 213.348L361.734 142.799V120.55L239.271 191.289V213.348Z" fill="url(#paint18_linear)"/>
<path d="M239.271 191.289L361.734 120.549L239.271 50L116.998 120.549L239.271 191.289Z" fill="url(#paint19_linear)"/>
<path d="M239.27 188.437L359.261 119.218L361.734 120.549L239.27 191.289L116.997 120.549L119.469 119.218L239.27 188.437Z" fill="#76262F"/>
<path d="M116.997 142.799L239.27 213.348V191.289L116.997 120.55V142.799Z" fill="url(#paint20_linear)"/>
<path opacity="0.5" d="M361.734 232.934V266.022L239.271 336.572V303.484L361.734 232.934Z" fill="white"/>
<path opacity="0.5" d="M116.997 232.934V266.022L239.27 336.572V303.484L116.997 232.934Z" fill="white"/>
<path d="M286.241 342.657L314.765 326.113C317.237 324.592 319.328 320.789 319.328 317.366C319.328 313.943 317.237 312.422 314.765 313.943L286.241 330.487C283.769 332.008 281.677 335.811 281.677 339.234C281.677 342.657 283.578 344.178 286.241 342.657Z" fill="white"/>
<path d="M309.82 323.071C312.293 321.549 314.384 317.746 314.384 314.323V314.133L314.765 313.943C317.237 312.422 319.328 313.943 319.328 317.366C319.328 320.789 317.237 324.592 314.765 326.113L286.241 342.657C283.769 344.178 281.677 342.657 281.677 339.424L309.82 323.071Z" fill="#920000"/>
<path d="M260.746 288.222C262.018 285.819 263.714 283.699 265.693 282.568L408.311 202.426C412.127 200.305 415.237 202.85 415.378 208.221L417.922 327.94C418.064 333.453 414.954 339.672 411.138 341.792L292.125 410.203L292.549 443.985L261.17 425.327C259.757 424.196 258.909 422.218 258.909 419.249L258.767 296.279C258.626 293.735 259.474 290.766 260.746 288.222Z" fill="url(#paint21_linear)"/>
<path d="M442.941 219.952L412.976 202.567L411.986 202.001C410.856 201.577 409.583 201.719 408.17 202.567L265.553 282.71C263.574 283.84 261.878 285.819 260.605 288.222L265.129 291.049L290.712 307.021L415.661 235.5L442.941 219.952Z" fill="url(#paint22_linear)"/>
<path d="M441.81 360.167L296.931 443.985C292.974 446.246 289.723 443.561 289.723 437.907L289.157 314.513C289.157 309 292.267 302.781 296.083 300.661L438.418 220.235C442.234 218.115 445.344 220.659 445.485 226.03L448.453 346.174C448.736 351.686 445.627 357.906 441.81 360.167Z" fill="url(#paint23_linear)"/>
<path d="M274.032 428.154L273.608 305.043C273.608 299.53 276.718 293.452 280.534 291.191L423.01 210.907C424.141 210.2 425.272 210.058 426.261 210.2C424.989 209.493 423.575 209.493 421.879 210.483L279.403 290.767C275.587 292.887 272.336 299.106 272.336 304.619L272.76 427.73C272.76 431.547 274.173 434.232 276.435 434.656C274.88 433.808 274.032 431.405 274.032 428.154Z" fill="#76262F"/>
<path d="M340.464 256.844L333.962 252.603C332.407 251.614 330.994 251.19 329.722 251.19H329.156C328.449 251.19 328.025 251.896 328.025 252.745V253.875L346.542 265.748V264.618C346.542 263.628 346.118 262.497 345.411 261.508L344.845 260.801C343.432 259.105 341.877 257.692 340.464 256.844Z" fill="#FC2323"/>
<path d="M336.365 271.544L346.4 265.89L328.308 251.473L318.414 256.985L336.365 271.544Z" fill="#FC2323"/>
<path d="M330.287 262.497L323.785 258.257C322.23 257.267 320.817 256.843 319.545 256.843H318.979C318.273 256.843 317.849 257.55 317.849 258.539V259.67L336.365 271.543V270.412C336.365 269.423 335.941 268.292 335.234 267.303L334.669 266.596C333.255 264.9 331.842 263.486 330.287 262.497Z" fill="url(#paint24_linear)"/>
<path d="M330.287 262.497L323.785 258.257C322.23 257.267 320.817 256.843 319.545 256.843H318.979C318.273 256.843 317.849 257.55 317.849 258.539V259.67L336.365 271.543V270.412C336.365 269.423 335.941 268.292 335.234 267.303L334.669 266.596C333.255 264.9 331.842 263.486 330.287 262.497Z" fill="url(#paint25_linear)"/>
<path d="M325.905 264.9V259.529L326.471 259.953V265.182L325.905 264.9Z" fill="#76262F"/>
<path d="M325.905 259.529L336.223 254.017L336.648 254.441L326.471 259.953L325.905 259.529Z" fill="#76262F"/>
<path d="M385.693 231.26L379.191 227.02C377.637 226.03 376.223 225.606 374.951 225.606H374.386C373.679 225.606 373.255 226.313 373.255 227.161V228.292L391.771 240.165V239.034C391.771 238.045 391.347 236.914 390.64 235.925L390.075 235.218C388.662 233.663 387.248 232.25 385.693 231.26Z" fill="#FC2323"/>
<path d="M381.878 245.96L391.772 240.306L373.68 226.03L363.927 231.543L381.878 245.96Z" fill="#FC2323"/>
<path d="M375.8 236.914L369.298 232.674C367.743 231.684 366.33 231.26 365.057 231.26H364.492C363.785 231.26 363.361 231.967 363.361 232.815V233.946L381.878 245.819V244.688C381.878 243.699 381.454 242.568 380.747 241.578L380.181 240.872C378.768 239.317 377.213 237.903 375.8 236.914Z" fill="url(#paint26_linear)"/>
<path d="M375.8 236.914L369.298 232.674C367.743 231.684 366.33 231.26 365.057 231.26H364.492C363.785 231.26 363.361 231.967 363.361 232.815V233.946L381.878 245.819V244.688C381.878 243.699 381.454 242.568 380.747 241.578L380.181 240.872C378.768 239.317 377.213 237.903 375.8 236.914Z" fill="url(#paint27_linear)"/>
<path d="M371.419 239.317L371.277 234.087L371.843 234.37L371.984 239.599L371.419 239.317Z" fill="#76262F"/>
<path d="M371.277 234.087L381.454 228.575L382.02 228.858L371.843 234.37L371.277 234.087Z" fill="#76262F"/>
<path d="M324.634 234.369L324.916 256.702L331.701 252.885L331.418 231.118C331.418 228.009 333.539 224.192 336.083 222.779L365.2 206.524C367.744 205.111 370.006 206.383 370.006 209.634L370.288 231.259L376.932 227.443L376.508 205.252C376.366 198.326 371.702 195.216 365.907 198.467L334.811 215.853C329.298 219.104 324.634 227.302 324.634 234.369Z" fill="#0063AD"/>
<path d="M324.634 234.369L324.916 256.702L331.701 252.885L331.418 231.118C331.418 228.009 333.539 224.192 336.083 222.779L365.2 206.524C367.744 205.111 370.006 206.383 370.006 209.634L370.288 231.259L376.932 227.443L376.508 205.252C376.366 198.326 371.702 195.216 365.907 198.467L334.811 215.853C329.298 219.104 324.634 227.302 324.634 234.369Z" fill="url(#paint28_linear)"/>
<path d="M374.811 206.523L363.786 203.696L328.874 225.888L325.764 242.425L324.916 256.559L331.701 260.941L333.679 243.556L335.376 231.683L342.867 224.05C342.867 224.05 355.871 217.124 356.012 216.841C356.153 216.7 374.811 206.523 374.811 206.523Z" fill="#0063AD"/>
<path d="M374.811 206.523L363.786 203.696L328.874 225.888L325.764 242.425L324.916 256.559L331.701 260.941L333.679 243.556L335.376 231.683L342.867 224.05C342.867 224.05 355.871 217.124 356.012 216.841C356.153 216.7 374.811 206.523 374.811 206.523Z" fill="url(#paint29_linear)"/>
<path d="M377.072 235.5L370.288 231.118L370.005 215.287L376.789 216.842L378.768 217.549L377.072 235.5Z" fill="#DA0303"/>
<path d="M380.324 202.566L372.974 197.902C372.974 197.902 374.528 202.001 374.67 202.001C374.67 202.001 377.073 203.273 377.214 203.273L380.324 202.566Z" fill="#D70303"/>
<path d="M331.56 238.751L331.842 261.083L338.627 257.267L338.344 235.5C338.344 232.39 340.465 228.574 343.009 227.16L372.126 210.906C374.67 209.492 376.932 210.764 376.932 214.015L377.214 235.641L383.858 231.825L383.434 209.634C383.292 202.708 378.628 199.598 372.833 202.849L341.878 220.234C336.083 223.485 331.418 231.683 331.56 238.751Z" fill="#FC2323"/>
<path d="M307.956 454.161C307.249 454.161 306.542 454.02 305.835 453.596C303.998 452.465 302.867 449.921 302.867 446.67L302.302 323.276C302.302 317.622 305.553 311.12 309.652 308.858L451.986 228.433C453.683 227.443 455.52 227.302 456.934 228.15C458.771 229.14 459.902 231.542 459.902 234.793L462.87 354.937C463.011 360.591 459.902 367.093 455.803 369.495L311.065 453.172C309.934 453.879 308.945 454.161 307.956 454.161ZM454.813 228.857C454.107 228.857 453.4 229.14 452.552 229.564L310.217 309.989C306.542 312.109 303.574 318.046 303.574 323.276L304.139 446.67C304.139 449.497 304.987 451.758 306.542 452.607C307.673 453.172 308.945 453.172 310.358 452.324L455.237 368.365C458.912 366.245 461.739 360.167 461.598 354.937L458.63 234.793C458.63 232.108 457.64 230.129 456.227 229.281C455.803 228.998 455.237 228.857 454.813 228.857Z" fill="#76262F"/>
<path opacity="0.4" d="M455.52 368.931L310.641 452.748C306.684 455.01 303.433 452.324 303.433 446.67L302.867 323.276C302.867 317.764 305.977 311.544 309.793 309.424L452.128 228.999C455.944 226.878 459.054 229.423 459.195 234.794L462.163 354.937C462.305 360.45 459.337 366.669 455.52 368.931Z" fill="white"/>
<path d="M371.986 362.711L401.952 345.467C404.637 343.912 406.757 339.813 406.757 336.279C406.757 332.746 404.637 331.05 401.952 332.604L371.986 349.848C369.301 351.403 367.181 355.502 367.181 359.036C367.181 362.711 369.442 364.266 371.986 362.711Z" fill="white" fill-opacity="0.8"/>
<path d="M396.863 342.217C399.549 340.663 401.669 336.564 401.669 333.03V332.889L401.952 332.747C404.637 331.192 406.757 332.889 406.757 336.422C406.757 339.956 404.637 344.055 401.952 345.61L371.986 362.854C369.442 364.409 367.322 362.854 367.181 359.461L396.863 342.217Z" fill="#76262F"/>
<path d="M385.13 366.385C385.13 363.699 386.826 360.59 388.805 359.317L411.844 346.031C412.834 345.466 413.682 345.466 414.388 345.89L439.831 360.59L411.844 383.912L386.543 369.212C385.695 368.929 385.13 367.798 385.13 366.385Z" fill="url(#paint30_linear)"/>
<path d="M414.248 383.771L437.287 370.484C439.266 369.354 440.962 366.103 440.962 363.417C440.962 360.732 439.266 359.46 437.287 360.59L414.248 373.877C412.269 375.007 410.573 378.258 410.573 380.944C410.431 383.771 412.127 384.902 414.248 383.771Z" fill="url(#paint31_linear)"/>
<path d="M434.317 407.799L471.774 386.173V369.494L434.317 391.12V407.799Z" fill="url(#paint32_linear)"/>
<path d="M434.317 407.799L471.774 386.173V369.494L434.317 391.12V407.799Z" fill="url(#paint33_linear)"/>
<path d="M434.319 391.12L471.775 369.494L434.319 347.869L396.862 369.494L434.319 391.12Z" fill="url(#paint34_linear)"/>
<path d="M396.861 386.173L434.318 407.799V391.12L396.861 369.494V386.173Z" fill="url(#paint35_linear)"/>
<path d="M396.861 386.173L434.318 407.799V391.12L396.861 369.494V386.173Z" fill="url(#paint36_linear)"/>
<path d="M434.318 390.413L471.068 369.07L471.774 369.494L434.318 391.12L396.861 369.494L397.568 369.07L434.318 390.413Z" fill="#FF5353"/>
<path d="M441.527 394.088L463.295 381.367L481.669 396.067L483.224 408.788V420.237L533.967 451.616L552.059 462.358L549.233 470.556L536.653 475.503L519.267 470.415L475.309 442.852L471.775 441.863L461.033 433.524L460.326 415.997L458.913 405.255L441.527 394.088Z" fill="white" fill-opacity="0.95"/>
<path d="M535.805 478.472C539.338 478.472 543.013 477.483 546.264 475.645C552.766 471.829 556.724 465.186 556.724 457.694V247.796C556.724 246.242 555.452 244.969 553.897 244.969C552.342 244.969 551.07 246.242 551.07 247.796V457.694C551.07 463.207 548.243 468.012 543.579 470.839C538.914 473.525 533.261 473.525 528.455 470.839L469.09 436.634C465.839 434.655 463.719 431.121 463.719 427.305V414.301C463.719 408.506 460.609 402.994 455.521 400.025L444.92 393.947C443.506 393.099 441.81 393.665 441.103 394.937C440.255 396.35 440.821 398.046 442.093 398.753L452.694 404.831C455.945 406.81 458.065 410.344 458.065 414.16V427.164C458.065 432.959 461.174 438.471 466.263 441.44L525.628 475.645C528.596 477.483 532.13 478.472 535.805 478.472Z" fill="white"/>
<path d="M462.304 382.499C463.152 381.085 464.849 380.661 466.121 381.509L476.722 387.587C481.81 390.555 484.92 395.926 484.92 401.863V414.867C484.92 418.683 487.04 422.217 490.291 424.195L553.613 460.804C555.592 461.935 557.712 462.641 559.833 462.783C559.691 464.62 559.691 466.599 559.55 468.437C556.582 468.154 553.613 467.306 550.786 465.751L487.464 429.001C482.375 426.033 479.266 420.662 479.266 414.725V401.721C479.266 397.905 477.146 394.372 473.895 392.393L463.294 386.315C461.88 385.608 461.456 383.771 462.304 382.499Z" fill="white" fill-opacity="0.95"/>
<path d="M553.613 460.662L490.29 424.053C487.039 422.074 484.919 418.541 484.919 414.724V401.721C484.919 395.926 481.81 390.413 476.721 387.445L466.12 381.367C465.131 380.802 464 380.943 463.011 381.508C463.717 381.367 464.283 381.508 464.99 381.791L475.59 387.869C480.679 390.837 483.789 396.208 483.789 402.145V415.149C483.789 418.965 485.909 422.499 489.16 424.477L552.482 461.086C554.461 462.217 556.581 462.923 558.702 463.065C558.56 464.761 558.56 466.457 558.419 468.153C558.843 468.153 559.126 468.294 559.55 468.294C559.691 466.457 559.691 464.478 559.832 462.641C557.712 462.358 555.592 461.792 553.613 460.662Z" fill="url(#paint37_linear)"/>
<path d="M543.86 476.776L552.482 466.034L553.755 453.313V422.358L553.613 259.528L576.228 263.345V252.744C576.228 251.189 577.501 249.917 579.055 249.917C580.61 249.917 581.882 251.189 581.882 252.744V447.659C581.882 455.15 577.925 461.935 571.423 465.61C570.292 466.316 569.02 466.882 567.748 467.306L543.86 476.776Z" fill="url(#paint38_linear)"/>
<path d="M535.805 478.472C539.338 478.472 543.013 477.483 546.264 475.645C552.766 471.829 556.724 465.186 556.724 457.694V247.796C556.724 246.242 555.452 244.969 553.897 244.969C552.342 244.969 551.07 246.242 551.07 247.796V457.694C551.07 463.207 548.243 468.012 543.579 470.839C538.914 473.525 533.261 473.525 528.455 470.839L469.09 436.634C465.839 434.655 463.719 431.121 463.719 427.305V414.301C463.719 408.506 460.609 402.994 455.521 400.025L444.92 393.947C443.506 393.099 441.81 393.665 441.103 394.937C440.255 396.35 440.821 398.046 442.093 398.753L452.694 404.831C455.945 406.81 458.065 410.344 458.065 414.16V427.164C458.065 432.959 461.174 438.471 466.263 441.44L525.628 475.645C528.596 477.483 532.13 478.472 535.805 478.472Z" fill="url(#paint39_linear)"/>
<path opacity="0.2" d="M426.401 399.885L430.218 402.005V394.372L426.401 392.111V399.885Z" fill="white"/>
<path opacity="0.5" d="M420.042 396.21L423.858 398.33V390.697L420.042 388.436V396.21Z" fill="white"/>
<path opacity="0.5" d="M413.68 392.535L417.496 394.656V387.023L413.68 384.761V392.535Z" fill="white"/>
<path d="M407.32 388.859L411.137 390.98V383.347L407.32 381.085V388.859Z" fill="white" fill-opacity="0.8"/>
<path d="M400.96 385.184L404.776 387.304V379.671L400.96 377.41V385.184Z" fill="white" fill-opacity="0.8"/>
<path d="M666.832 177.126L635.736 159.034C631.071 156.207 624.711 156.631 617.502 160.73C615.241 162.144 612.979 163.698 610.717 165.677L598.279 158.469C591.353 153.663 581.459 153.804 570.434 160.306C556.441 168.363 544.285 184.335 537.783 201.155C535.663 201.155 533.26 201.862 530.716 203.417C521.529 208.646 514.179 221.509 514.179 232.11C514.179 232.392 514.179 232.534 514.179 232.816C511.634 232.958 508.666 233.947 505.698 235.643C493.966 242.428 484.496 258.824 484.496 272.252C484.496 278.895 486.758 283.701 490.574 285.821H490.715L521.387 303.63L528.03 271.404L617.502 219.813C628.951 213.169 638.563 198.893 641.813 185.042L666.832 177.126Z" fill="url(#paint40_linear)"/>
<path d="M485.345 272.956C485.345 259.529 494.815 242.991 506.547 236.348C509.515 234.652 512.483 233.662 515.028 233.521C515.028 233.238 515.028 233.097 515.028 232.814C515.028 222.213 522.378 209.492 531.565 204.121C534.109 202.708 536.512 202.001 538.632 201.86C545.134 185.04 557.29 169.068 571.283 161.011C582.308 154.65 592.344 154.368 599.128 159.173L611.567 166.382C613.687 164.403 615.948 162.848 618.351 161.435C625.418 157.336 631.92 156.912 636.585 159.739L666.55 177.124L666.833 176.983L635.737 158.891C631.072 156.064 624.712 156.488 617.503 160.587C615.241 162 612.98 163.555 610.718 165.534L598.28 158.325C591.354 153.52 581.46 153.661 570.435 160.163C556.442 168.22 544.286 184.192 537.784 201.012C535.664 201.012 533.261 201.718 530.717 203.273C521.53 208.503 514.18 221.365 514.18 231.966C514.18 232.249 514.18 232.39 514.18 232.673C511.635 232.814 508.667 233.804 505.699 235.5C493.967 242.285 484.497 258.681 484.497 272.108C484.497 278.186 486.476 282.568 489.585 284.971C486.9 282.568 485.345 278.469 485.345 272.956Z" fill="white"/>
<path d="M648.316 178.678C644.358 180.94 640.542 184.191 637.149 188.149C632.485 173.025 618.209 168.36 601.248 178.113C587.254 186.17 575.099 202.142 568.597 218.962C566.477 218.962 564.074 219.669 561.53 221.223C552.342 226.453 544.992 239.316 544.992 249.916C544.992 250.199 544.992 250.341 544.992 250.623C542.448 250.765 539.48 251.754 536.511 253.45C524.78 260.235 515.31 276.631 515.31 290.059C515.31 303.486 524.78 308.999 536.511 302.214L648.316 237.619C662.45 229.421 673.899 209.633 673.899 193.378C673.758 177.124 662.309 170.48 648.316 178.678Z" fill="url(#paint41_linear)" fill-opacity="0.95"/>
<path d="M648.316 178.678C644.358 180.94 640.542 184.191 637.149 188.149C632.485 173.025 618.209 168.36 601.248 178.113C587.254 186.17 575.099 202.142 568.597 218.962C566.477 218.962 564.074 219.669 561.53 221.223C552.342 226.453 544.992 239.316 544.992 249.916C544.992 250.199 544.992 250.341 544.992 250.623C542.448 250.765 539.48 251.754 536.511 253.45C524.78 260.235 515.31 276.631 515.31 290.059C515.31 303.486 524.78 308.999 536.511 302.214L648.316 237.619C662.45 229.421 673.899 209.633 673.899 193.378C673.758 177.124 662.309 170.48 648.316 178.678Z" fill="white" fill-opacity="0.8"/>
<path opacity="0.7" d="M638.421 189.845C641.814 186.028 645.63 182.777 649.588 180.375C658.21 175.428 665.842 175.993 670.507 180.94C666.125 174.438 657.786 173.166 648.174 178.678C644.358 180.94 640.824 183.908 637.573 187.583C637.856 188.29 638.139 188.997 638.421 189.845Z" fill="url(#paint42_linear)"/>
<path d="M125.555 552.214L1 480.333L59.9497 446.484L184.505 518.365L125.555 552.214ZM5.56387 480.333L125.555 549.551L179.941 518.365L59.9497 449.147L5.56387 480.333Z" fill="#920000"/>
<path d="M59.9512 232.554V373.843L182.224 444.393V303.103L59.9512 232.554ZM74.4034 257.845L167.582 311.661V419.101L74.4034 365.286V257.845Z" fill="url(#paint43_linear)"/>
<path d="M43.2158 242.062V383.351L165.489 453.901V312.612L43.2158 242.062ZM57.668 267.353L150.847 321.169V428.609L57.668 374.794V267.353Z" fill="url(#paint44_linear)"/>
<path d="M43.2158 242.062L59.9499 232.554L182.223 303.103L165.489 312.802L43.2158 242.062Z" fill="url(#paint45_linear)"/>
<path d="M182.223 303.104L165.489 312.802V453.901L182.223 444.393V303.104Z" fill="url(#paint46_linear)"/>
<path d="M74.4021 365.286L57.668 374.984V267.354L74.4021 277.052V365.286Z" fill="url(#paint47_linear)"/>
<path d="M74.4021 365.286L57.668 374.984L150.847 428.609V409.403L74.4021 365.286Z" fill="url(#paint48_linear)"/>
<path opacity="0.5" d="M66.6055 369.85V272.678L150.847 321.169V417.58L66.6055 369.85Z" fill="#FF5353"/>
<path d="M20.0156 255.563V396.852L142.289 467.402V326.112L20.0156 255.563ZM34.658 280.854L127.837 334.67V442.11L34.658 388.295V280.854V280.854Z" fill="url(#paint49_linear)"/>
<path d="M3.28223 265.071V406.36L125.555 476.91V335.621L3.28223 265.071ZM17.9246 290.362L111.103 344.178V451.618L17.9246 397.803V290.362Z" fill="url(#paint50_linear)"/>
<path d="M3.28223 265.071L20.0163 255.563L142.289 326.112L125.555 335.811L3.28223 265.071Z" fill="url(#paint51_linear)"/>
<path d="M142.29 326.113L125.556 335.811V476.91L142.29 467.402V326.113Z" fill="url(#paint52_linear)"/>
<path d="M34.6579 388.295L17.9238 397.993V290.362L34.6579 300.06V388.295Z" fill="url(#paint53_linear)"/>
<path d="M34.6579 388.295L17.9238 397.993L110.912 451.618V432.412L34.6579 388.295Z" fill="url(#paint54_linear)"/>
<path opacity="0.5" d="M26.8613 392.859V295.687L110.912 344.178V440.589L26.8613 392.859Z" fill="#FF5353"/>
<path d="M125.555 335.811L3.28223 265.072L6.13463 263.55L128.408 334.1V475.389L125.555 476.91V335.811Z" fill="#76262F"/>
<path d="M165.489 312.801L43.2158 242.062L46.0682 240.541L168.341 311.09V452.379L165.489 453.9V312.801Z" fill="#76262F"/>
<path d="M17.9238 290.362L20.7762 292.074V396.282L110.912 448.386V451.618L17.9238 397.993V290.362Z" fill="#FF5353"/>
<path opacity="0.5" d="M20.0166 255.563L43.2162 242.062L165.489 312.802V453.901L142.29 467.402V326.113L20.0166 255.563Z" fill="white"/>
<path opacity="0.5" d="M165.489 312.802L142.29 326.113L20.0166 255.563L43.2162 242.062L165.489 312.802Z" fill="white"/>
</g>
<defs>
<linearGradient id="paint0_linear" x1="513.297" y1="155.637" x2="312.909" y2="216.048" gradientUnits="userSpaceOnUse">
<stop stop-color="#2573BA"/>
<stop offset="1" stop-color="#0063AD"/>
</linearGradient>
<linearGradient id="paint1_linear" x1="498.614" y1="177.797" x2="292.077" y2="211.672" gradientUnits="userSpaceOnUse">
<stop stop-color="#DA0000"/>
<stop offset="1" stop-color="#C40000"/>
</linearGradient>
<linearGradient id="paint2_linear" x1="340.447" y1="118.355" x2="470.779" y2="150.706" gradientUnits="userSpaceOnUse">
<stop stop-color="#FC2323"/>
<stop offset="0.1651" stop-color="#FC2323"/>
<stop offset="0.442708" stop-color="#DA0000"/>
<stop offset="1" stop-color="#D90000"/>
</linearGradient>
<linearGradient id="paint3_linear" x1="463.647" y1="224.329" x2="480.299" y2="224.594" gradientUnits="userSpaceOnUse">
<stop offset="0.196174" stop-color="#DA0000"/>
<stop offset="0.697917" stop-color="#B10000"/>
<stop offset="1" stop-color="#880000"/>
</linearGradient>
<linearGradient id="paint4_linear" x1="372.691" y1="166.767" x2="355.935" y2="166.767" gradientUnits="userSpaceOnUse">
<stop stop-color="#FF5353"/>
<stop offset="1" stop-color="#DA0000"/>
</linearGradient>
<linearGradient id="paint5_linear" x1="449.157" y1="242.508" x2="355.858" y2="242.508" gradientUnits="userSpaceOnUse">
<stop stop-color="#FF5353"/>
<stop offset="1" stop-color="#DA0000"/>
</linearGradient>
<linearGradient id="paint6_linear" x1="473.391" y1="178.644" x2="273.001" y2="239.056" gradientUnits="userSpaceOnUse">
<stop stop-color="#2573BA"/>
<stop offset="1" stop-color="#0063AD"/>
</linearGradient>
<linearGradient id="paint7_linear" x1="300.64" y1="216.946" x2="421.517" y2="226.944" gradientUnits="userSpaceOnUse">
<stop stop-color="#FC2323"/>
<stop offset="0.185757" stop-color="#E80F0F"/>
<stop offset="0.487846" stop-color="#FC2323"/>
<stop offset="0.670141" stop-color="#DA0000"/>
<stop offset="1" stop-color="#B10000"/>
</linearGradient>
<linearGradient id="paint8_linear" x1="300.513" y1="141.364" x2="430.844" y2="173.715" gradientUnits="userSpaceOnUse">
<stop stop-color="#FC2323"/>
<stop offset="0.1651" stop-color="#FC2323"/>
<stop offset="0.442708" stop-color="#DA0000"/>
<stop offset="1" stop-color="#D90000"/>
</linearGradient>
<linearGradient id="paint9_linear" x1="423.712" y1="247.338" x2="440.364" y2="247.603" gradientUnits="userSpaceOnUse">
<stop offset="0.196174" stop-color="#DA0000"/>
<stop offset="0.697917" stop-color="#B10000"/>
<stop offset="1" stop-color="#880000"/>
</linearGradient>
<linearGradient id="paint10_linear" x1="332.946" y1="189.776" x2="316.19" y2="189.776" gradientUnits="userSpaceOnUse">
<stop stop-color="#FF5353"/>
<stop offset="1" stop-color="#DA0000"/>
</linearGradient>
<linearGradient id="paint11_linear" x1="409.222" y1="265.518" x2="316.113" y2="265.518" gradientUnits="userSpaceOnUse">
<stop stop-color="#FF5353"/>
<stop offset="1" stop-color="#DA0000"/>
</linearGradient>
<linearGradient id="paint12_linear" x1="238.343" y1="328.659" x2="357.872" y2="345.473" gradientUnits="userSpaceOnUse">
<stop offset="0.196174" stop-color="#DA0000"/>
<stop offset="0.697917" stop-color="#B10000"/>
<stop offset="1" stop-color="#880000"/>
</linearGradient>
<linearGradient id="paint13_linear" x1="331.032" y1="226.475" x2="158.296" y2="300.586" gradientUnits="userSpaceOnUse">
<stop stop-color="#EF1616"/>
<stop offset="1" stop-color="#E80F0F"/>
</linearGradient>
<linearGradient id="paint14_linear" x1="116.071" y1="328.659" x2="235.422" y2="345.422" gradientUnits="userSpaceOnUse">
<stop stop-color="#FC2323"/>
<stop offset="0.1651" stop-color="#FC2323"/>
<stop offset="0.442708" stop-color="#DA0000"/>
<stop offset="1" stop-color="#D90000"/>
</linearGradient>
<linearGradient id="paint15_linear" x1="238.343" y1="241.375" x2="357.872" y2="258.19" gradientUnits="userSpaceOnUse">
<stop offset="0.196174" stop-color="#DA0000"/>
<stop offset="0.697917" stop-color="#B10000"/>
<stop offset="1" stop-color="#880000"/>
</linearGradient>
<linearGradient id="paint16_linear" x1="331.032" y1="139.339" x2="158.369" y2="213.519" gradientUnits="userSpaceOnUse">
<stop stop-color="#EF1616"/>
<stop offset="1" stop-color="#E80F0F"/>
</linearGradient>
<linearGradient id="paint17_linear" x1="116.071" y1="241.375" x2="235.422" y2="258.139" gradientUnits="userSpaceOnUse">
<stop stop-color="#FC2323"/>
<stop offset="0.1651" stop-color="#FC2323"/>
<stop offset="0.442708" stop-color="#DA0000"/>
<stop offset="1" stop-color="#D90000"/>
</linearGradient>
<linearGradient id="paint18_linear" x1="238.343" y1="167.145" x2="356.029" y2="189.4" gradientUnits="userSpaceOnUse">
<stop offset="0.196174" stop-color="#DA0000"/>
<stop offset="0.697917" stop-color="#B10000"/>
<stop offset="1" stop-color="#880000"/>
</linearGradient>
<linearGradient id="paint19_linear" x1="115.145" y1="120.943" x2="344.607" y2="177.898" gradientUnits="userSpaceOnUse">
<stop stop-color="#FC2323"/>
<stop offset="0.1651" stop-color="#FC2323"/>
<stop offset="0.442708" stop-color="#DA0000"/>
<stop offset="0.697917" stop-color="#B10000"/>
<stop offset="1" stop-color="#880000"/>
</linearGradient>
<linearGradient id="paint20_linear" x1="116.071" y1="167.145" x2="233.587" y2="189.333" gradientUnits="userSpaceOnUse">
<stop stop-color="#FC2323"/>
<stop offset="0.1651" stop-color="#FC2323"/>
<stop offset="0.442708" stop-color="#DA0000"/>
<stop offset="1" stop-color="#D90000"/>
</linearGradient>
<linearGradient id="paint21_linear" x1="258.648" y1="323.018" x2="417.778" y2="323.018" gradientUnits="userSpaceOnUse">
<stop stop-color="#A00000"/>
<stop offset="1" stop-color="#DD0303"/>
</linearGradient>
<linearGradient id="paint22_linear" x1="260.487" y1="254.476" x2="442.771" y2="254.476" gradientUnits="userSpaceOnUse">
<stop stop-color="#A00000"/>
<stop offset="1" stop-color="#DD0303"/>
</linearGradient>
<linearGradient id="paint23_linear" x1="287.951" y1="332.614" x2="444.913" y2="348.518" gradientUnits="userSpaceOnUse">
<stop stop-color="#FC2323"/>
<stop offset="0.1651" stop-color="#FC2323"/>
<stop offset="0.442708" stop-color="#DA0000"/>
<stop offset="1" stop-color="#B10000"/>
</linearGradient>
<linearGradient id="paint24_linear" x1="317.866" y1="264.218" x2="336.374" y2="264.218" gradientUnits="userSpaceOnUse">
<stop stop-color="#0063AD"/>
<stop offset="1" stop-color="#2573BA"/>
</linearGradient>
<linearGradient id="paint25_linear" x1="317.837" y1="264.204" x2="336.348" y2="264.204" gradientUnits="userSpaceOnUse">
<stop stop-color="#A00000"/>
<stop offset="1" stop-color="#DD0303"/>
</linearGradient>
<linearGradient id="paint26_linear" x1="363.341" y1="238.67" x2="381.821" y2="238.67" gradientUnits="userSpaceOnUse">
<stop stop-color="#0063AD"/>
<stop offset="1" stop-color="#2573BA"/>
</linearGradient>
<linearGradient id="paint27_linear" x1="363.349" y1="238.551" x2="381.86" y2="238.551" gradientUnits="userSpaceOnUse">
<stop stop-color="#A00000"/>
<stop offset="1" stop-color="#DD0303"/>
</linearGradient>
<linearGradient id="paint28_linear" x1="324.6" y1="226.984" x2="376.883" y2="226.984" gradientUnits="userSpaceOnUse">
<stop stop-color="#A00000"/>
<stop offset="1" stop-color="#DD0303"/>
</linearGradient>
<linearGradient id="paint29_linear" x1="324.883" y1="232.363" x2="374.764" y2="232.363" gradientUnits="userSpaceOnUse">
<stop stop-color="#A00000"/>
<stop offset="1" stop-color="#DD0303"/>
</linearGradient>
<linearGradient id="paint30_linear" x1="385.094" y1="364.779" x2="439.78" y2="364.779" gradientUnits="userSpaceOnUse">
<stop stop-color="#A00000"/>
<stop offset="1" stop-color="#DD0303"/>
</linearGradient>
<linearGradient id="paint31_linear" x1="436.69" y1="355.752" x2="404.647" y2="379.369" gradientUnits="userSpaceOnUse">
<stop stop-color="#2573BA"/>
<stop offset="1" stop-color="#0063AD"/>
</linearGradient>
<linearGradient id="paint32_linear" x1="475.129" y1="373.477" x2="428.118" y2="405.886" gradientUnits="userSpaceOnUse">
<stop stop-color="#3A9BD5"/>
<stop offset="1" stop-color="#2573BA"/>
</linearGradient>
<linearGradient id="paint33_linear" x1="434.034" y1="388.727" x2="470.598" y2="393.851" gradientUnits="userSpaceOnUse">
<stop offset="0.196174" stop-color="#DA0000"/>
<stop offset="0.697917" stop-color="#B10000"/>
<stop offset="1" stop-color="#880000"/>
</linearGradient>
<linearGradient id="paint34_linear" x1="396.295" y1="369.586" x2="466.533" y2="387.018" gradientUnits="userSpaceOnUse">
<stop stop-color="#FC2323"/>
<stop offset="0.1651" stop-color="#FC2323"/>
<stop offset="0.442708" stop-color="#DA0000"/>
<stop offset="1" stop-color="#B10000"/>
</linearGradient>
<linearGradient id="paint35_linear" x1="439.161" y1="381.573" x2="388.981" y2="396.701" gradientUnits="userSpaceOnUse">
<stop stop-color="#2573BA"/>
<stop offset="1" stop-color="#0063AD"/>
</linearGradient>
<linearGradient id="paint36_linear" x1="396.837" y1="388.676" x2="434.283" y2="388.676" gradientUnits="userSpaceOnUse">
<stop stop-color="#A00000"/>
<stop offset="1" stop-color="#DD0303"/>
</linearGradient>
<linearGradient id="paint37_linear" x1="559.86" y1="424.724" x2="462.913" y2="424.724" gradientUnits="userSpaceOnUse">
<stop stop-color="#FF5353"/>
<stop offset="1" stop-color="#DA0000"/>
</linearGradient>
<linearGradient id="paint38_linear" x1="581.893" y1="363.536" x2="543.822" y2="363.536" gradientUnits="userSpaceOnUse">
<stop stop-color="#FF5353"/>
<stop offset="1" stop-color="#DA0000"/>
</linearGradient>
<linearGradient id="paint39_linear" x1="556.757" y1="361.916" x2="440.583" y2="361.916" gradientUnits="userSpaceOnUse">
<stop stop-color="#FF5353"/>
<stop offset="1" stop-color="#DA0000"/>
</linearGradient>
<linearGradient id="paint40_linear" x1="666.883" y1="229.497" x2="484.312" y2="229.497" gradientUnits="userSpaceOnUse">
<stop stop-color="#FF5353"/>
<stop offset="1" stop-color="#DA0000"/>
</linearGradient>
<linearGradient id="paint41_linear" x1="515.248" y1="271.08" x2="673.8" y2="271.08" gradientUnits="userSpaceOnUse">
<stop stop-color="white"/>
<stop offset="1" stop-color="white"/>
</linearGradient>
<linearGradient id="paint42_linear" x1="670.516" y1="182.538" x2="637.54" y2="182.538" gradientUnits="userSpaceOnUse">
<stop stop-color="#FF5353"/>
<stop offset="1" stop-color="#DA0000"/>
</linearGradient>
<linearGradient id="paint43_linear" x1="215.014" y1="310.129" x2="14.6253" y2="370.541" gradientUnits="userSpaceOnUse">
<stop stop-color="#2573BA"/>
<stop offset="1" stop-color="#0063AD"/>
</linearGradient>
<linearGradient id="paint44_linear" x1="200.33" y1="332.289" x2="-6.20705" y2="366.165" gradientUnits="userSpaceOnUse">
<stop stop-color="#DA0000"/>
<stop offset="1" stop-color="#C40000"/>
</linearGradient>
<linearGradient id="paint45_linear" x1="42.1633" y1="272.848" x2="172.494" y2="305.198" gradientUnits="userSpaceOnUse">
<stop stop-color="#FC2323"/>
<stop offset="0.1651" stop-color="#FC2323"/>
<stop offset="0.442708" stop-color="#DA0000"/>
<stop offset="1" stop-color="#D90000"/>
</linearGradient>
<linearGradient id="paint46_linear" x1="165.363" y1="378.821" x2="182.015" y2="379.086" gradientUnits="userSpaceOnUse">
<stop offset="0.196174" stop-color="#DA0000"/>
<stop offset="0.697917" stop-color="#B10000"/>
<stop offset="1" stop-color="#880000"/>
</linearGradient>
<linearGradient id="paint47_linear" x1="74.4068" y1="321.259" x2="57.6511" y2="321.259" gradientUnits="userSpaceOnUse">
<stop stop-color="#FF5353"/>
<stop offset="1" stop-color="#DA0000"/>
</linearGradient>
<linearGradient id="paint48_linear" x1="150.873" y1="397.001" x2="57.574" y2="397.001" gradientUnits="userSpaceOnUse">
<stop stop-color="#FF5353"/>
<stop offset="1" stop-color="#DA0000"/>
</linearGradient>
<linearGradient id="paint49_linear" x1="175.107" y1="333.137" x2="-25.2817" y2="393.548" gradientUnits="userSpaceOnUse">
<stop stop-color="#2573BA"/>
<stop offset="1" stop-color="#0063AD"/>
</linearGradient>
<linearGradient id="paint50_linear" x1="2.35638" y1="371.438" x2="123.234" y2="381.436" gradientUnits="userSpaceOnUse">
<stop stop-color="#FC2323"/>
<stop offset="0.185757" stop-color="#E80F0F"/>
<stop offset="0.487846" stop-color="#FC2323"/>
<stop offset="0.670141" stop-color="#DA0000"/>
<stop offset="1" stop-color="#B10000"/>
</linearGradient>
<linearGradient id="paint51_linear" x1="2.22967" y1="295.857" x2="132.561" y2="328.207" gradientUnits="userSpaceOnUse">
<stop stop-color="#FC2323"/>
<stop offset="0.1651" stop-color="#FC2323"/>
<stop offset="0.442708" stop-color="#DA0000"/>
<stop offset="1" stop-color="#D90000"/>
</linearGradient>
<linearGradient id="paint52_linear" x1="125.429" y1="401.83" x2="142.081" y2="402.095" gradientUnits="userSpaceOnUse">
<stop offset="0.196174" stop-color="#DA0000"/>
<stop offset="0.697917" stop-color="#B10000"/>
<stop offset="1" stop-color="#880000"/>
</linearGradient>
<linearGradient id="paint53_linear" x1="34.6627" y1="344.268" x2="17.907" y2="344.268" gradientUnits="userSpaceOnUse">
<stop stop-color="#FF5353"/>
<stop offset="1" stop-color="#DA0000"/>
</linearGradient>
<linearGradient id="paint54_linear" x1="110.939" y1="420.01" x2="17.8301" y2="420.01" gradientUnits="userSpaceOnUse">
<stop stop-color="#FF5353"/>
<stop offset="1" stop-color="#DA0000"/>
</linearGradient>
<clipPath id="clip0">
<rect width="673" height="603" fill="white"/>
</clipPath>
</defs>
</svg>
