<svg width="673" height="603" viewBox="0 0 673 603" fill="none" xmlns="http://www.w3.org/2000/svg">
<path opacity="0.3" d="M481.73 449.779L581.343 392.557C585.093 390.455 584.624 386.718 580.405 384.382L474.933 323.422C470.714 321.087 464.386 320.62 460.636 322.722L361.023 379.944C357.273 382.046 357.742 385.783 361.961 388.119L467.433 449.079C471.652 451.648 477.98 451.881 481.73 449.779Z" fill="#920000"/>
<path d="M358.446 342.107L464.855 280.914C469.074 278.578 472.355 272.038 472.355 266.666V12.5507C472.355 6.94523 469.074 4.60961 464.855 6.94523L358.446 68.1385C354.227 70.4742 350.945 77.0139 350.945 82.3858V336.268C350.945 341.873 354.461 344.443 358.446 342.107Z" fill="url(#paint0_linear)"/>
<path d="M358.445 68.1386L464.854 6.94532C466.729 5.77751 468.37 5.7775 469.776 6.47819L591.421 76.3133L585.796 97.3339L474.933 411.942L353.757 342.341L353.523 342.107C352.117 341.173 350.945 339.071 350.945 336.034V82.3859C350.945 76.7804 354.46 70.4742 358.445 68.1386Z" fill="url(#paint1_linear)"/>
<path d="M358.445 68.1386L464.854 6.94532C466.729 5.77751 468.37 5.7775 469.776 6.47819L584.752 72.4845C588.684 74.7419 590.605 79.3622 589.433 83.7421L585.796 97.3339L556.167 181.366C555.624 182.906 554.551 184.203 553.139 185.023V185.023C551.012 186.26 548.387 186.265 546.254 185.038L360.133 77.9173C356.291 75.706 354.567 70.2857 358.445 68.1386V68.1386Z" fill="url(#paint2_linear)"/>
<path d="M480.09 411.942L586.5 350.748C590.719 348.413 594 341.873 594 336.501V82.3854C594 76.7799 590.719 74.4443 586.5 76.7799L480.09 137.973C475.871 140.309 472.59 146.849 472.59 152.221V406.103C472.59 411.708 475.871 414.277 480.09 411.942Z" fill="url(#paint3_linear)"/>
<path d="M486.652 396.527L579.702 343.041C583.218 340.939 586.265 335.334 586.265 330.662V94.7646C586.265 89.8598 583.218 87.7577 579.702 89.8598L486.652 143.346C483.136 145.448 480.089 151.053 480.089 155.724V391.622C480.089 396.527 483.136 398.629 486.652 396.527Z" fill="url(#paint4_linear)"/>
<path d="M486.652 396.527L579.702 343.041C583.218 340.939 586.265 335.334 586.265 330.662V94.7646C586.265 89.8598 583.218 87.7577 579.702 89.8598L486.652 143.346C483.136 145.448 480.089 151.053 480.089 155.724V391.622C480.089 396.527 483.136 398.629 486.652 396.527Z" fill="url(#paint5_linear)"/>
<path d="M486.652 396.527L579.702 343.041C583.218 340.939 586.265 335.334 586.265 330.662V94.7646C586.265 89.8598 583.218 87.7577 579.702 89.8598L486.652 143.346C483.136 145.448 480.089 151.053 480.089 155.724V391.622C480.089 396.527 483.136 398.629 486.652 396.527Z" fill="#790505"/>
<path d="M483.605 394.892L576.655 341.406C580.171 339.304 583.218 333.699 583.218 329.027V93.1295C583.218 91.4946 582.983 90.0932 582.28 89.1589C584.624 89.1589 586.265 91.261 586.265 94.7644V330.662C586.265 335.567 583.218 341.173 579.702 343.041L486.652 396.527C484.308 397.928 482.199 397.461 481.027 395.593C481.965 395.593 482.668 395.359 483.605 394.892Z" fill="url(#paint6_linear)"/>
<g opacity="0.7">
<path opacity="0.7" d="M486.653 288.388L521.342 268.535L576.422 300.3L480.091 355.654V300.767C480.091 295.862 483.138 290.256 486.653 288.388Z" fill="#FE3535" fill-opacity="0.71"/>
<path opacity="0.7" d="M486.653 240.041L521.342 220.188L576.422 251.952L480.091 307.306V252.419C480.091 247.515 483.138 242.143 486.653 240.041Z" fill="#FE3535" fill-opacity="0.71"/>
<path opacity="0.7" d="M486.653 191.693L521.342 171.84L576.422 203.605L480.091 258.959V204.072C480.091 199.167 483.138 193.795 486.653 191.693Z" fill="#FE3535" fill-opacity="0.71"/>
<path opacity="0.7" d="M486.653 143.345L521.342 123.493L576.422 155.257L480.091 210.611V155.724C480.091 151.053 483.138 145.448 486.653 143.345Z" fill="#FE3535" fill-opacity="0.71"/>
<path opacity="0.7" d="M486.653 143.346L563.296 99.2026L576.422 106.677L480.091 162.031V155.491C480.091 151.053 483.138 145.448 486.653 143.346Z" fill="#FE3535" fill-opacity="0.71"/>
</g>
<path opacity="0.8" d="M480.091 162.264L576.422 106.676V137.273L480.091 192.861V162.264Z" fill="url(#paint7_radial)"/>
<path opacity="0.8" d="M480.091 210.611L576.422 155.024V185.62L480.091 241.208V210.611Z" fill="url(#paint8_radial)"/>
<path opacity="0.8" d="M480.091 258.959L576.422 203.371V233.968L480.091 289.556V258.959Z" fill="url(#paint9_radial)"/>
<path opacity="0.8" d="M480.091 307.307L576.422 251.719V282.315L480.091 337.67V307.307Z" fill="url(#paint10_radial)"/>
<path opacity="0.8" d="M480.091 355.654L576.422 300.066V330.663L480.091 386.017V355.654Z" fill="url(#paint11_radial)"/>
<path d="M488.761 181.883L561.42 140.075C563.529 138.908 565.17 135.638 565.17 133.069V124.894C565.17 122.091 563.529 120.923 561.42 122.091L488.761 163.899C486.652 165.067 485.011 168.336 485.011 170.906V179.08C485.011 181.883 486.652 183.051 488.761 181.883Z" fill="url(#paint12_linear)" fill-opacity="0.8"/>
<path d="M557.67 138.675C559.779 137.507 561.42 134.237 561.42 131.668V123.493C561.42 123.026 561.42 122.559 561.185 122.325C563.295 121.157 564.936 122.325 564.936 125.128V133.303C564.936 136.105 563.295 139.142 561.185 140.31L488.527 182.117C486.886 183.051 485.48 182.351 485.011 180.482L557.67 138.675Z" fill="#920000"/>
<path d="M511.498 159.461L555.093 134.236C555.796 133.769 556.499 132.602 556.499 131.667C556.499 130.733 556.03 130.266 555.093 130.733L511.498 155.958C510.795 156.425 510.091 157.593 510.091 158.527C510.091 159.461 510.795 159.928 511.498 159.461Z" fill="url(#paint13_linear)"/>
<path d="M488.761 229.997L561.42 188.19C563.529 187.022 565.17 183.752 565.17 181.183V173.008C565.17 170.205 563.529 169.038 561.42 170.205L488.761 212.013C486.652 213.181 485.011 216.451 485.011 219.02V227.195C485.011 229.764 486.652 231.165 488.761 229.997Z" fill="url(#paint14_linear)"/>
<path d="M488.761 229.997L561.42 188.19C563.529 187.022 565.17 183.752 565.17 181.183V173.008C565.17 170.205 563.529 169.038 561.42 170.205L488.761 212.013C486.652 213.181 485.011 216.451 485.011 219.02V227.195C485.011 229.764 486.652 231.165 488.761 229.997Z" fill="url(#paint15_linear)"/>
<path d="M557.67 186.555C559.779 185.387 561.42 182.117 561.42 179.548V171.373C561.42 170.906 561.42 170.439 561.185 170.205C563.295 169.038 564.936 170.205 564.936 173.008V181.183C564.936 183.986 563.295 187.022 561.185 188.19L488.527 229.997C486.886 230.932 485.48 230.231 485.011 228.362L557.67 186.555Z" fill="#920000"/>
<path d="M511.498 207.575L555.093 182.35C555.796 181.883 556.499 180.715 556.499 179.781C556.499 178.847 556.03 178.38 555.093 178.847L511.498 204.072C510.795 204.539 510.091 205.706 510.091 206.641C510.091 207.575 510.795 207.809 511.498 207.575Z" fill="url(#paint16_linear)"/>
<path d="M488.761 278.345L561.42 236.537C563.529 235.369 565.17 232.099 565.17 229.53V221.355C565.17 218.553 563.529 217.385 561.42 218.553L488.761 260.36C486.652 261.528 485.011 264.798 485.011 267.367V275.542C485.011 278.344 486.652 279.512 488.761 278.345Z" fill="url(#paint17_linear)"/>
<path d="M557.67 235.136C559.779 233.968 561.42 230.698 561.42 228.129V219.954C561.42 219.487 561.42 219.02 561.185 218.786C563.295 217.618 564.936 218.786 564.936 221.589V229.764C564.936 232.566 563.295 235.603 561.185 236.77L488.527 278.578C486.886 279.512 485.48 278.812 485.011 276.943L557.67 235.136Z" fill="#920000"/>
<path d="M511.498 255.923L555.093 230.698C555.796 230.231 556.499 229.063 556.499 228.129C556.499 227.195 556.03 226.727 555.093 227.194L511.498 252.419C510.795 252.886 510.091 254.054 510.091 254.988C510.091 255.923 510.795 256.39 511.498 255.923Z" fill="url(#paint18_linear)"/>
<path d="M488.761 327.393L561.42 285.585C563.529 284.418 565.17 281.148 565.17 278.579V270.404C565.17 267.601 563.529 266.433 561.42 267.601L488.761 309.409C486.652 310.577 485.011 313.846 485.011 316.416V324.59C485.011 327.16 486.652 328.561 488.761 327.393Z" fill="url(#paint19_linear)"/>
<path d="M488.761 327.393L561.42 285.585C563.529 284.418 565.17 281.148 565.17 278.579V270.404C565.17 267.601 563.529 266.433 561.42 267.601L488.761 309.409C486.652 310.577 485.011 313.846 485.011 316.416V324.59C485.011 327.16 486.652 328.561 488.761 327.393Z" fill="url(#paint20_linear)"/>
<path d="M557.67 283.95C559.779 282.782 561.42 279.512 561.42 276.943V268.768C561.42 268.301 561.42 267.834 561.185 267.601C563.295 266.433 564.936 267.601 564.936 270.403V278.578C564.936 281.381 563.295 284.417 561.185 285.585L488.527 327.393C486.886 328.327 485.48 327.626 485.011 325.758L557.67 283.95Z" fill="#920000"/>
<path d="M511.498 304.971L555.093 279.746C555.796 279.279 556.499 278.111 556.499 277.177C556.499 276.243 556.03 275.775 555.093 276.243L511.498 301.467C510.795 301.934 510.091 303.102 510.091 304.036C510.091 304.971 510.795 305.438 511.498 304.971Z" fill="url(#paint21_linear)"/>
<path d="M488.761 375.273L561.42 333.465C563.529 332.298 565.17 329.028 565.17 326.458V318.284C565.17 315.481 563.529 314.313 561.42 315.481L488.761 357.289C486.652 358.456 485.011 361.726 485.011 364.296V372.47C485.011 375.273 486.652 376.441 488.761 375.273Z" fill="url(#paint22_linear)"/>
<path d="M488.761 375.273L561.42 333.465C563.529 332.298 565.17 329.028 565.17 326.458V318.284C565.17 315.481 563.529 314.313 561.42 315.481L488.761 357.289C486.652 358.456 485.011 361.726 485.011 364.296V372.47C485.011 375.273 486.652 376.441 488.761 375.273Z" fill="url(#paint23_linear)"/>
<path d="M557.67 332.064C559.779 330.896 561.42 327.626 561.42 325.057V316.649C561.42 316.181 561.42 315.714 561.185 315.481C563.295 314.313 564.936 315.481 564.936 318.284V326.458C564.936 329.261 563.295 332.297 561.185 333.465L488.527 375.273C486.886 376.207 485.48 375.506 485.011 373.638L557.67 332.064Z" fill="#920000"/>
<path d="M511.498 352.851L555.093 327.626C555.796 327.159 556.499 325.991 556.499 325.057C556.499 324.123 556.03 323.656 555.093 324.123L511.498 349.347C510.795 349.815 510.091 350.982 510.091 351.917C510.091 352.851 510.795 353.318 511.498 352.851Z" fill="url(#paint24_linear)"/>
<path d="M576.422 106.676L568.922 111.114V141.711L576.422 137.273V106.676Z" fill="#920000"/>
<path d="M576.422 155.024L568.922 159.461V190.058L576.422 185.62V155.024Z" fill="#920000"/>
<path d="M576.422 203.371L568.922 207.809V238.405L576.422 233.968V203.371Z" fill="#920000"/>
<path d="M576.422 251.719L568.922 256.156V286.753L576.422 282.315V251.719Z" fill="#920000"/>
<path d="M576.422 300.066L568.922 304.504V335.1L576.422 330.663V300.066Z" fill="#920000"/>
<path d="M502.825 162.497C502.825 163.432 503.528 163.899 504.466 163.432C505.403 162.964 506.106 161.797 506.106 160.862C506.106 159.928 505.403 159.461 504.466 159.928C503.528 160.395 502.825 161.563 502.825 162.497Z" fill="#DA0000"/>
<path d="M502.825 162.497C502.825 163.432 503.528 163.899 504.466 163.432C505.403 162.964 506.106 161.797 506.106 160.862C506.106 159.928 505.403 159.461 504.466 159.928C503.528 160.395 502.825 161.563 502.825 162.497Z" fill="#DA0000"/>
<path d="M496.262 166.235C496.262 167.169 496.965 167.636 497.902 167.169C498.84 166.702 499.543 165.534 499.543 164.6C499.543 163.665 498.84 163.198 497.902 163.665C496.965 164.133 496.262 165.3 496.262 166.235Z" fill="white" fill-opacity="0.8"/>
<path d="M489.7 169.972C489.7 170.906 490.403 171.373 491.341 170.906C492.278 170.439 492.981 169.271 492.981 168.337C492.981 167.403 492.278 166.936 491.341 167.403C490.403 167.87 489.7 169.038 489.7 169.972Z" fill="#DA0000"/>
<path d="M489.7 169.972C489.7 170.906 490.403 171.373 491.341 170.906C492.278 170.439 492.981 169.271 492.981 168.337C492.981 167.403 492.278 166.936 491.341 167.403C490.403 167.87 489.7 169.038 489.7 169.972Z" fill="#DA0000"/>
<path d="M502.825 210.845C502.825 211.779 503.528 212.247 504.466 211.779C505.403 211.312 506.106 210.145 506.106 209.21C506.106 208.276 505.403 207.809 504.466 208.276C503.528 208.51 502.825 209.911 502.825 210.845Z" fill="white" fill-opacity="0.8"/>
<path d="M496.262 214.582C496.262 215.516 496.965 215.983 497.902 215.516C498.84 215.049 499.543 213.881 499.543 212.947C499.543 212.013 498.84 211.545 497.902 212.013C496.965 212.48 496.262 213.648 496.262 214.582Z" fill="#DA0000"/>
<path d="M496.262 214.582C496.262 215.516 496.965 215.983 497.902 215.516C498.84 215.049 499.543 213.881 499.543 212.947C499.543 212.013 498.84 211.545 497.902 212.013C496.965 212.48 496.262 213.648 496.262 214.582Z" fill="#DA0000"/>
<path d="M489.7 218.319C489.7 219.253 490.403 219.72 491.341 219.253C492.278 218.786 492.981 217.618 492.981 216.684C492.981 215.75 492.278 215.283 491.341 215.75C490.403 216.217 489.7 217.385 489.7 218.319Z" fill="white" fill-opacity="0.8"/>
<path d="M502.825 259.426C502.825 260.36 503.528 260.827 504.466 260.36C505.403 259.893 506.106 258.725 506.106 257.791C506.106 256.857 505.403 256.389 504.466 256.857C503.528 257.324 502.825 258.492 502.825 259.426Z" fill="white" fill-opacity="0.8"/>
<path d="M496.262 263.163C496.262 264.097 496.965 264.564 497.902 264.097C498.84 263.63 499.543 262.462 499.543 261.528C499.543 260.594 498.84 260.127 497.902 260.594C496.965 261.061 496.262 262.229 496.262 263.163Z" fill="#DA0000"/>
<path d="M496.262 263.163C496.262 264.097 496.965 264.564 497.902 264.097C498.84 263.63 499.543 262.462 499.543 261.528C499.543 260.594 498.84 260.127 497.902 260.594C496.965 261.061 496.262 262.229 496.262 263.163Z" fill="#DA0000"/>
<path d="M489.7 266.9C489.7 267.834 490.403 268.302 491.341 267.834C492.278 267.367 492.981 266.199 492.981 265.265C492.981 264.331 492.278 263.864 491.341 264.331C490.403 264.798 489.7 265.966 489.7 266.9Z" fill="#DA0000"/>
<path d="M489.7 266.9C489.7 267.834 490.403 268.302 491.341 267.834C492.278 267.367 492.981 266.199 492.981 265.265C492.981 264.331 492.278 263.864 491.341 264.331C490.403 264.798 489.7 265.966 489.7 266.9Z" fill="#DA0000"/>
<path d="M502.825 307.54C502.825 308.474 503.528 308.941 504.466 308.474C505.403 308.007 506.106 306.839 506.106 305.905C506.106 304.971 505.403 304.504 504.466 304.971C503.528 305.438 502.825 306.372 502.825 307.54Z" fill="#DA0000"/>
<path d="M496.262 311.277C496.262 312.211 496.965 312.678 497.902 312.211C498.84 311.744 499.543 310.576 499.543 309.642C499.543 308.708 498.84 308.241 497.902 308.708C496.965 309.175 496.262 310.109 496.262 311.277Z" fill="white" fill-opacity="0.8"/>
<path d="M489.7 315.014C489.7 315.948 490.403 316.415 491.341 315.948C492.278 315.481 492.981 314.313 492.981 313.379C492.981 312.445 492.278 311.977 491.341 312.444C490.403 312.912 489.7 313.846 489.7 315.014Z" fill="white" fill-opacity="0.8"/>
<path d="M502.825 356.121C502.825 357.055 503.528 357.522 504.466 357.055C505.403 356.588 506.106 355.42 506.106 354.486C506.106 353.551 505.403 353.084 504.466 353.551C503.528 353.785 502.825 355.186 502.825 356.121Z" fill="white" fill-opacity="0.8"/>
<path d="M496.262 359.857C496.262 360.792 496.965 361.259 497.902 360.792C498.84 360.325 499.543 359.157 499.543 358.222C499.543 357.288 498.84 356.821 497.902 357.288C496.965 357.522 496.262 358.923 496.262 359.857Z" fill="#DA0000"/>
<path d="M496.262 359.857C496.262 360.792 496.965 361.259 497.902 360.792C498.84 360.325 499.543 359.157 499.543 358.222C499.543 357.288 498.84 356.821 497.902 357.288C496.965 357.522 496.262 358.923 496.262 359.857Z" fill="#DA0000"/>
<path d="M490.254 364.446C489.694 364.124 489.712 363.047 490.294 362.042C490.877 361.037 491.804 360.483 492.364 360.806C492.925 361.128 492.907 362.205 492.324 363.21C491.741 364.215 490.815 364.769 490.254 364.446Z" fill="#DA0000"/>
<path d="M490.254 364.446C489.694 364.124 489.712 363.047 490.294 362.042C490.877 361.037 491.804 360.483 492.364 360.806C492.925 361.128 492.907 362.205 492.324 363.21C491.741 364.215 490.815 364.769 490.254 364.446Z" fill="#DA0000"/>
<path opacity="0.4" d="M456.418 377.608V161.33L365.243 108.778V325.057L456.418 377.608ZM454.777 162.264V374.338L367.118 323.889V111.814L454.777 162.264Z" fill="#5B0606"/>
<path opacity="0.4" d="M388.915 206.174L429.697 229.53C432.51 231.165 434.619 229.53 434.619 225.793V203.371C434.619 199.634 432.51 195.43 429.697 194.028L388.915 170.672C386.102 169.037 383.993 170.672 383.993 174.409V196.831C383.993 200.335 386.102 204.539 388.915 206.174Z" fill="#920000"/>
<path opacity="0.4" d="M387.978 169.972C387.744 170.672 387.509 171.373 387.509 172.307V194.729C387.509 198.466 389.619 202.671 392.431 204.072L433.214 227.428C433.448 227.662 433.917 227.662 434.151 227.895C433.448 229.764 431.573 230.464 429.464 229.297L388.681 205.94C385.869 204.305 383.759 200.101 383.759 196.598V174.176C383.994 171.14 385.634 169.271 387.978 169.972Z" fill="#3E0303"/>
<path d="M396.417 192.627C395.714 192.16 395.011 192.627 395.011 193.328V198.466C395.011 199.401 395.714 200.335 396.417 200.802C397.12 201.269 397.823 200.802 397.823 200.101V194.963C397.589 194.029 397.12 193.094 396.417 192.627Z" fill="#E85B5B"/>
<path d="M402.043 196.598C401.34 196.131 400.637 196.598 400.637 197.298V201.736C400.637 202.67 401.34 203.605 402.043 204.072C402.746 204.539 403.449 204.072 403.449 203.371V198.933C403.449 197.999 402.98 197.065 402.043 196.598Z" fill="#DA0000"/>
<path d="M407.901 194.963C407.198 194.496 406.495 194.963 406.495 195.663V205.239C406.495 206.174 407.198 207.108 407.901 207.575C408.604 208.042 409.308 207.575 409.308 206.874V197.298C409.308 196.364 408.839 195.43 407.901 194.963Z" fill="#E85B5B"/>
<path d="M413.761 192.861C413.058 192.394 412.354 192.861 412.354 193.562V208.51C412.354 209.444 413.058 210.378 413.761 210.845C414.464 211.313 415.167 210.845 415.167 210.145V195.197C415.167 194.262 414.464 193.328 413.761 192.861Z" fill="#E85B5B"/>
<path d="M419.62 197.765C418.917 197.298 418.214 197.765 418.214 198.466V211.779C418.214 212.713 418.917 213.648 419.62 214.115C420.323 214.582 421.026 214.115 421.026 213.414V200.101C421.026 199.167 420.323 198.233 419.62 197.765Z" fill="#DA0000"/>
<path d="M425.48 207.342C424.777 206.875 424.074 207.342 424.074 208.043V215.283C424.074 216.217 424.777 217.151 425.48 217.619C426.184 218.086 426.887 217.619 426.887 216.918V209.677C426.887 208.743 426.184 207.575 425.48 207.342Z" fill="#E85B5B"/>
<path d="M397.589 190.058C397.589 190.992 396.886 191.226 396.183 190.759C395.479 190.292 394.776 189.358 394.776 188.423C394.776 187.489 395.479 187.255 396.183 187.723C397.12 188.19 397.589 189.124 397.589 190.058Z" fill="#E85B5B"/>
<path d="M397.589 185.153C397.589 186.087 396.886 186.321 396.183 185.854C395.479 185.387 394.776 184.452 394.776 183.518C394.776 182.584 395.479 182.35 396.183 182.818C397.12 183.285 397.589 184.452 397.589 185.153Z" fill="#DA0000"/>
<path opacity="0.1" d="M87.5003 418.482L193.91 357.288C198.129 354.953 201.41 348.413 201.41 343.041V88.9255C201.41 83.32 198.129 80.9844 193.91 83.32L87.5003 144.513C83.2814 146.849 80 153.389 80 158.761V412.643C80 418.482 83.2814 421.051 87.5003 418.482Z" fill="url(#paint25_linear)"/>
<path opacity="0.2" d="M111.64 431.328L218.05 370.134C222.268 367.799 225.55 361.259 225.55 355.887V101.771C225.55 96.1659 222.268 93.8303 218.05 96.1659L111.64 157.359C107.421 159.695 104.14 166.235 104.14 171.606V425.489C104.14 431.094 107.421 433.663 111.64 431.328Z" fill="url(#paint26_linear)"/>
<path opacity="0.4" d="M135.783 444.174L242.192 382.98C246.411 380.645 249.692 374.105 249.692 368.733V114.617C249.692 109.012 246.411 106.676 242.192 109.012L135.783 170.205C131.564 172.541 128.282 179.081 128.282 184.452V438.335C128.282 443.94 131.564 446.509 135.783 444.174Z" fill="url(#paint27_linear)"/>
<path opacity="0.3" d="M287.889 559.957L387.501 502.735C391.251 500.633 390.782 496.896 386.564 494.56L281.092 433.6C276.873 431.265 270.544 430.797 266.794 432.9L167.182 490.122C163.432 492.224 163.9 495.961 168.119 498.297L273.591 559.257C277.81 561.826 284.138 562.059 287.889 559.957Z" fill="#920000"/>
<path d="M164.604 452.285L271.013 391.092C275.232 388.756 278.514 382.217 278.514 376.845V122.729C278.514 117.123 275.232 114.788 271.013 117.123L164.604 178.317C160.385 180.652 157.104 187.192 157.104 192.564V446.446C157.104 452.052 160.619 454.621 164.604 452.285Z" fill="url(#paint28_linear)"/>
<path d="M164.603 178.317L271.013 117.124C272.888 115.956 274.528 115.956 275.935 116.656L397.579 186.492L391.954 207.512L281.091 522.12L159.915 452.519L159.681 452.285C158.275 451.351 157.103 449.249 157.103 446.213V192.564C157.103 186.959 160.619 180.652 164.603 178.317Z" fill="url(#paint29_linear)"/>
<path d="M164.603 178.317L271.013 117.124C272.888 115.956 274.528 115.956 275.935 116.656L390.91 182.663C394.842 184.92 396.763 189.54 395.591 193.92L391.954 207.512L362.326 291.544C361.782 293.084 360.709 294.381 359.297 295.202V295.202C357.17 296.438 354.545 296.444 352.413 295.216L166.292 188.095C162.45 185.884 160.725 180.464 164.603 178.317V178.317Z" fill="url(#paint30_linear)"/>
<path d="M286.248 522.12L392.658 460.927C396.877 458.591 400.158 452.052 400.158 446.68V192.564C400.158 186.958 396.877 184.623 392.658 186.958L286.248 248.152C282.029 250.487 278.748 257.027 278.748 262.399V516.281C278.748 521.887 282.029 524.456 286.248 522.12Z" fill="url(#paint31_linear)"/>
<path d="M292.81 506.705L385.86 453.219C389.376 451.117 392.423 445.512 392.423 440.841V204.943C392.423 200.038 389.376 197.936 385.86 200.038L292.81 253.524C289.295 255.626 286.248 261.231 286.248 265.903V501.8C286.248 506.705 289.295 508.807 292.81 506.705Z" fill="url(#paint32_linear)"/>
<path d="M292.81 506.705L385.86 453.219C389.376 451.117 392.423 445.512 392.423 440.841V204.943C392.423 200.038 389.376 197.936 385.86 200.038L292.81 253.524C289.295 255.626 286.248 261.231 286.248 265.903V501.8C286.248 506.705 289.295 508.807 292.81 506.705Z" fill="url(#paint33_linear)"/>
<path d="M292.81 506.705L385.86 453.219C389.376 451.117 392.423 445.512 392.423 440.841V204.943C392.423 200.038 389.376 197.936 385.86 200.038L292.81 253.524C289.295 255.626 286.248 261.231 286.248 265.903V501.8C286.248 506.705 289.295 508.807 292.81 506.705Z" fill="#790505"/>
<path d="M289.763 505.07L382.813 451.585C386.329 449.483 389.376 443.877 389.376 439.206V203.308C389.376 201.673 389.141 200.272 388.438 199.337C390.782 199.337 392.423 201.439 392.423 204.943V440.841C392.423 445.746 389.376 451.351 385.86 453.219L292.81 506.705C290.467 508.107 288.357 507.639 287.185 505.771C288.123 505.771 288.826 505.537 289.763 505.07Z" fill="url(#paint34_linear)"/>
<g opacity="0.7">
<path opacity="0.7" d="M292.813 398.566L327.501 378.713L382.581 410.478L286.25 465.832V410.945C286.25 406.04 289.297 400.434 292.813 398.566Z" fill="#FE3535" fill-opacity="0.71"/>
<path opacity="0.7" d="M292.813 350.219L327.501 330.366L382.581 362.13L286.25 417.485V362.598C286.25 357.693 289.297 352.321 292.813 350.219Z" fill="#FE3535" fill-opacity="0.71"/>
<path opacity="0.7" d="M292.813 301.872L327.501 282.019L382.581 313.783L286.25 369.138V314.25C286.25 309.346 289.297 303.974 292.813 301.872Z" fill="#FE3535" fill-opacity="0.71"/>
<path opacity="0.7" d="M292.813 253.524L327.501 233.671L382.581 265.435L286.25 320.79V265.902C286.25 261.231 289.297 255.626 292.813 253.524Z" fill="#FE3535" fill-opacity="0.71"/>
<path opacity="0.7" d="M292.813 253.524L369.456 209.381L382.581 216.855L286.25 272.209V265.669C286.25 261.232 289.297 255.626 292.813 253.524Z" fill="#FE3535" fill-opacity="0.71"/>
</g>
<path opacity="0.8" d="M286.25 272.442L382.581 216.854V247.451L286.25 303.039V272.442Z" fill="url(#paint35_radial)"/>
<path opacity="0.8" d="M286.25 320.789L382.581 265.202V295.798L286.25 351.386V320.789Z" fill="url(#paint36_radial)"/>
<path opacity="0.8" d="M286.25 369.137L382.581 313.55V344.146L286.25 399.734V369.137Z" fill="url(#paint37_radial)"/>
<path opacity="0.8" d="M286.25 417.485L382.581 361.897V392.494L286.25 447.848V417.485Z" fill="url(#paint38_radial)"/>
<path opacity="0.8" d="M286.25 465.832L382.581 410.244V440.841L286.25 496.195V465.832Z" fill="url(#paint39_radial)"/>
<path d="M294.919 292.061L367.578 250.254C369.687 249.086 371.328 245.816 371.328 243.247V235.072C371.328 232.269 369.687 231.102 367.578 232.269L294.919 274.077C292.81 275.245 291.169 278.515 291.169 281.084V289.259C291.169 292.061 292.81 293.229 294.919 292.061Z" fill="url(#paint40_linear)" fill-opacity="0.8"/>
<path d="M363.828 248.853C365.937 247.685 367.578 244.415 367.578 241.846V233.671C367.578 233.204 367.578 232.737 367.344 232.503C369.453 231.335 371.094 232.503 371.094 235.306V243.481C371.094 246.283 369.453 249.32 367.344 250.488L294.685 292.295C293.044 293.229 291.638 292.529 291.169 290.66L363.828 248.853Z" fill="#920000"/>
<path d="M317.655 269.639L361.25 244.414C361.953 243.947 362.656 242.78 362.656 241.845C362.656 240.911 362.187 240.444 361.25 240.911L317.655 266.136C316.952 266.603 316.249 267.771 316.249 268.705C316.249 269.639 316.952 270.106 317.655 269.639Z" fill="url(#paint41_linear)"/>
<path d="M294.919 340.176L367.578 298.368C369.687 297.2 371.328 293.93 371.328 291.361V283.187C371.328 280.384 369.687 279.216 367.578 280.384L294.919 322.191C292.81 323.359 291.169 326.629 291.169 329.198V337.373C291.169 339.942 292.81 341.344 294.919 340.176Z" fill="url(#paint42_linear)"/>
<path d="M294.919 340.176L367.578 298.368C369.687 297.2 371.328 293.93 371.328 291.361V283.187C371.328 280.384 369.687 279.216 367.578 280.384L294.919 322.191C292.81 323.359 291.169 326.629 291.169 329.198V337.373C291.169 339.942 292.81 341.344 294.919 340.176Z" fill="url(#paint43_linear)"/>
<path d="M363.828 296.733C365.937 295.565 367.578 292.295 367.578 289.726V281.551C367.578 281.084 367.578 280.617 367.344 280.384C369.453 279.216 371.094 280.384 371.094 283.186V291.361C371.094 294.164 369.453 297.2 367.344 298.368L294.685 340.176C293.044 341.11 291.638 340.409 291.169 338.541L363.828 296.733Z" fill="#920000"/>
<path d="M317.655 317.753L361.25 292.528C361.953 292.061 362.656 290.894 362.656 289.959C362.656 289.025 362.187 288.558 361.25 289.025L317.655 314.25C316.952 314.717 316.249 315.885 316.249 316.819C316.249 317.753 316.952 317.987 317.655 317.753Z" fill="url(#paint44_linear)"/>
<path d="M294.919 388.523L367.578 346.715C369.687 345.548 371.328 342.278 371.328 339.708V331.534C371.328 328.731 369.687 327.563 367.578 328.731L294.919 370.539C292.81 371.706 291.169 374.976 291.169 377.546V385.72C291.169 388.523 292.81 389.691 294.919 388.523Z" fill="url(#paint45_linear)"/>
<path d="M363.828 345.314C365.937 344.146 367.578 340.876 367.578 338.307V330.132C367.578 329.665 367.578 329.198 367.344 328.965C369.453 327.797 371.094 328.965 371.094 331.767V339.942C371.094 342.745 369.453 345.781 367.344 346.949L294.685 388.757C293.044 389.691 291.638 388.99 291.169 387.122L363.828 345.314Z" fill="#920000"/>
<path d="M317.655 366.101L361.25 340.876C361.953 340.409 362.656 339.241 362.656 338.307C362.656 337.373 362.187 336.906 361.25 337.373L317.655 362.598C316.952 363.065 316.249 364.233 316.249 365.167C316.249 366.101 316.952 366.568 317.655 366.101Z" fill="url(#paint46_linear)"/>
<path d="M294.919 437.572L367.578 395.764C369.687 394.596 371.328 391.326 371.328 388.757V380.582C371.328 377.78 369.687 376.612 367.578 377.78L294.919 419.587C292.81 420.755 291.169 424.025 291.169 426.594V434.769C291.169 437.338 292.81 438.739 294.919 437.572Z" fill="url(#paint47_linear)"/>
<path d="M294.919 437.572L367.578 395.764C369.687 394.596 371.328 391.326 371.328 388.757V380.582C371.328 377.78 369.687 376.612 367.578 377.78L294.919 419.587C292.81 420.755 291.169 424.025 291.169 426.594V434.769C291.169 437.338 292.81 438.739 294.919 437.572Z" fill="url(#paint48_linear)"/>
<path d="M363.828 394.128C365.937 392.96 367.578 389.691 367.578 387.121V378.947C367.578 378.48 367.578 378.012 367.344 377.779C369.453 376.611 371.094 377.779 371.094 380.582V388.756C371.094 391.559 369.453 394.595 367.344 395.763L294.685 437.571C293.044 438.505 291.638 437.804 291.169 435.936L363.828 394.128Z" fill="#920000"/>
<path d="M317.655 415.149L361.25 389.924C361.953 389.457 362.656 388.289 362.656 387.355C362.656 386.421 362.187 385.954 361.25 386.421L317.655 411.646C316.952 412.113 316.249 413.28 316.249 414.215C316.249 415.149 316.952 415.616 317.655 415.149Z" fill="url(#paint49_linear)"/>
<path d="M294.919 485.451L367.578 443.644C369.687 442.476 371.328 439.206 371.328 436.637V428.462C371.328 425.659 369.687 424.491 367.578 425.659L294.919 467.467C292.81 468.635 291.169 471.905 291.169 474.474V482.648C291.169 485.451 292.81 486.619 294.919 485.451Z" fill="url(#paint50_linear)"/>
<path d="M294.919 485.451L367.578 443.644C369.687 442.476 371.328 439.206 371.328 436.637V428.462C371.328 425.659 369.687 424.491 367.578 425.659L294.919 467.467C292.81 468.635 291.169 471.905 291.169 474.474V482.648C291.169 485.451 292.81 486.619 294.919 485.451Z" fill="url(#paint51_linear)"/>
<path d="M363.828 442.242C365.937 441.074 367.578 437.804 367.578 435.235V426.827C367.578 426.36 367.578 425.893 367.344 425.659C369.453 424.491 371.094 425.659 371.094 428.462V436.636C371.094 439.439 369.453 442.476 367.344 443.643L294.685 485.451C293.044 486.385 291.638 485.684 291.169 483.816L363.828 442.242Z" fill="#920000"/>
<path d="M317.655 463.029L361.25 437.804C361.953 437.337 362.656 436.169 362.656 435.235C362.656 434.301 362.187 433.834 361.25 434.301L317.655 459.526C316.952 459.993 316.249 461.161 316.249 462.095C316.249 463.029 316.952 463.496 317.655 463.029Z" fill="url(#paint52_linear)"/>
<path d="M382.581 216.854L375.081 221.292V251.889L382.581 247.451V216.854Z" fill="#920000"/>
<path d="M382.581 265.202L375.081 269.64V300.236L382.581 295.799V265.202Z" fill="#920000"/>
<path d="M382.581 313.549L375.081 317.986V348.583L382.581 344.145V313.549Z" fill="#920000"/>
<path d="M382.581 361.897L375.081 366.335V396.932L382.581 392.494V361.897Z" fill="#920000"/>
<path d="M382.581 410.244L375.081 414.682V445.278L382.581 440.841V410.244Z" fill="#920000"/>
<path d="M308.983 272.676C308.983 273.61 309.686 274.077 310.624 273.61C311.562 273.143 312.265 271.975 312.265 271.041C312.265 270.106 311.562 269.639 310.624 270.106C309.686 270.573 308.983 271.741 308.983 272.676Z" fill="#DA0000"/>
<path d="M308.983 272.676C308.983 273.61 309.686 274.077 310.624 273.61C311.562 273.143 312.265 271.975 312.265 271.041C312.265 270.106 311.562 269.639 310.624 270.106C309.686 270.573 308.983 271.741 308.983 272.676Z" fill="#DA0000"/>
<path d="M302.42 276.413C302.42 277.347 303.123 277.814 304.06 277.347C304.998 276.88 305.701 275.712 305.701 274.778C305.701 273.844 304.998 273.377 304.06 273.844C303.123 274.311 302.42 275.479 302.42 276.413Z" fill="white" fill-opacity="0.8"/>
<path d="M295.858 280.15C295.858 281.084 296.561 281.552 297.499 281.084C298.437 280.617 299.14 279.449 299.14 278.515C299.14 277.581 298.437 277.114 297.499 277.581C296.561 278.048 295.858 279.216 295.858 280.15Z" fill="#DA0000"/>
<path d="M295.858 280.15C295.858 281.084 296.561 281.552 297.499 281.084C298.437 280.617 299.14 279.449 299.14 278.515C299.14 277.581 298.437 277.114 297.499 277.581C296.561 278.048 295.858 279.216 295.858 280.15Z" fill="#DA0000"/>
<path d="M308.983 321.024C308.983 321.958 309.686 322.425 310.624 321.958C311.562 321.491 312.265 320.323 312.265 319.389C312.265 318.454 311.562 317.987 310.624 318.454C309.686 318.688 308.983 320.089 308.983 321.024Z" fill="white" fill-opacity="0.8"/>
<path d="M302.42 324.76C302.42 325.694 303.123 326.161 304.06 325.694C304.998 325.227 305.701 324.059 305.701 323.125C305.701 322.191 304.998 321.724 304.06 322.191C303.123 322.658 302.42 323.826 302.42 324.76Z" fill="#DA0000"/>
<path d="M302.42 324.76C302.42 325.694 303.123 326.161 304.06 325.694C304.998 325.227 305.701 324.059 305.701 323.125C305.701 322.191 304.998 321.724 304.06 322.191C303.123 322.658 302.42 323.826 302.42 324.76Z" fill="#DA0000"/>
<path d="M295.858 328.497C295.858 329.432 296.561 329.899 297.499 329.432C298.437 328.964 299.14 327.797 299.14 326.862C299.14 325.928 298.437 325.461 297.499 325.928C296.561 326.395 295.858 327.563 295.858 328.497Z" fill="white" fill-opacity="0.8"/>
<path d="M308.983 369.604C308.983 370.538 309.686 371.005 310.624 370.538C311.562 370.071 312.265 368.903 312.265 367.969C312.265 367.035 311.562 366.568 310.624 367.035C309.686 367.502 308.983 368.67 308.983 369.604Z" fill="white" fill-opacity="0.8"/>
<path d="M302.42 373.341C302.42 374.275 303.123 374.742 304.06 374.275C304.998 373.808 305.701 372.64 305.701 371.706C305.701 370.772 304.998 370.305 304.06 370.772C303.123 371.239 302.42 372.407 302.42 373.341Z" fill="#DA0000"/>
<path d="M302.42 373.341C302.42 374.275 303.123 374.742 304.06 374.275C304.998 373.808 305.701 372.64 305.701 371.706C305.701 370.772 304.998 370.305 304.06 370.772C303.123 371.239 302.42 372.407 302.42 373.341Z" fill="#DA0000"/>
<path d="M295.858 377.078C295.858 378.012 296.561 378.479 297.499 378.012C298.437 377.545 299.14 376.377 299.14 375.443C299.14 374.509 298.437 374.042 297.499 374.509C296.561 374.976 295.858 376.144 295.858 377.078Z" fill="#DA0000"/>
<path d="M295.858 377.078C295.858 378.012 296.561 378.479 297.499 378.012C298.437 377.545 299.14 376.377 299.14 375.443C299.14 374.509 298.437 374.042 297.499 374.509C296.561 374.976 295.858 376.144 295.858 377.078Z" fill="#DA0000"/>
<path d="M308.983 417.718C308.983 418.652 309.686 419.119 310.624 418.652C311.562 418.185 312.265 417.017 312.265 416.083C312.265 415.149 311.562 414.682 310.624 415.149C309.686 415.616 308.983 416.55 308.983 417.718Z" fill="#DA0000"/>
<path d="M302.42 421.455C302.42 422.389 303.123 422.856 304.06 422.389C304.998 421.922 305.701 420.754 305.701 419.82C305.701 418.886 304.998 418.419 304.06 418.886C303.123 419.353 302.42 420.287 302.42 421.455Z" fill="white" fill-opacity="0.8"/>
<path d="M295.858 425.192C295.858 426.126 296.561 426.593 297.499 426.126C298.437 425.659 299.14 424.491 299.14 423.557C299.14 422.623 298.437 422.156 297.499 422.623C296.561 423.09 295.858 424.024 295.858 425.192Z" fill="white" fill-opacity="0.8"/>
<path d="M308.983 466.299C308.983 467.233 309.686 467.7 310.624 467.233C311.562 466.766 312.265 465.598 312.265 464.664C312.265 463.73 311.562 463.263 310.624 463.73C309.686 463.963 308.983 465.365 308.983 466.299Z" fill="white" fill-opacity="0.8"/>
<path d="M302.42 470.036C302.42 470.97 303.123 471.437 304.06 470.97C304.998 470.503 305.701 469.335 305.701 468.401C305.701 467.466 304.998 466.999 304.06 467.466C303.123 467.7 302.42 469.101 302.42 470.036Z" fill="#DA0000"/>
<path d="M302.42 470.036C302.42 470.97 303.123 471.437 304.06 470.97C304.998 470.503 305.701 469.335 305.701 468.401C305.701 467.466 304.998 466.999 304.06 467.466C303.123 467.7 302.42 469.101 302.42 470.036Z" fill="#DA0000"/>
<path d="M296.412 474.625C295.852 474.302 295.87 473.226 296.452 472.22C297.035 471.215 297.962 470.661 298.522 470.984C299.083 471.306 299.065 472.383 298.482 473.388C297.9 474.394 296.973 474.947 296.412 474.625Z" fill="#DA0000"/>
<path d="M296.412 474.625C295.852 474.302 295.87 473.226 296.452 472.22C297.035 471.215 297.962 470.661 298.522 470.984C299.083 471.306 299.065 472.383 298.482 473.388C297.9 474.394 296.973 474.947 296.412 474.625Z" fill="#DA0000"/>
<path opacity="0.4" d="M262.576 487.787V271.508L171.401 218.957V435.235L262.576 487.787ZM260.935 272.442V484.517L173.276 434.067V221.993L260.935 272.442Z" fill="#5B0606"/>
<path opacity="0.4" d="M195.073 316.352L235.855 339.708C238.668 341.343 240.777 339.708 240.777 335.971V313.549C240.777 309.812 238.668 305.608 235.855 304.207L195.073 280.85C192.26 279.216 190.151 280.85 190.151 284.587V307.009C190.151 310.513 192.26 314.717 195.073 316.352Z" fill="#920000"/>
<path opacity="0.4" d="M194.136 280.15C193.902 280.85 193.667 281.551 193.667 282.485V304.907C193.667 308.644 195.777 312.848 198.589 314.25L239.372 337.606C239.606 337.84 240.075 337.84 240.31 338.073C239.606 339.942 237.731 340.642 235.622 339.475L194.839 316.118C192.027 314.483 189.917 310.279 189.917 306.776V284.354C190.152 281.318 191.792 279.449 194.136 280.15Z" fill="#3E0303"/>
<path d="M202.573 302.806C201.87 302.339 201.167 302.806 201.167 303.506V308.645C201.167 309.579 201.87 310.513 202.573 310.98C203.276 311.448 203.979 310.98 203.979 310.28V305.141C203.745 304.207 203.276 303.273 202.573 302.806Z" fill="#E85B5B"/>
<path d="M208.199 306.776C207.496 306.309 206.793 306.776 206.793 307.477V311.915C206.793 312.849 207.496 313.783 208.199 314.25C208.902 314.717 209.605 314.25 209.605 313.549V309.112C209.605 308.178 209.137 307.243 208.199 306.776Z" fill="#DA0000"/>
<path d="M214.058 305.141C213.354 304.674 212.651 305.141 212.651 305.842V315.418C212.651 316.352 213.354 317.287 214.058 317.754C214.761 318.221 215.464 317.754 215.464 317.053V307.477C215.464 306.543 214.995 305.609 214.058 305.141Z" fill="#E85B5B"/>
<path d="M219.917 303.04C219.214 302.573 218.511 303.04 218.511 303.741V318.688C218.511 319.623 219.214 320.557 219.917 321.024C220.62 321.491 221.323 321.024 221.323 320.323V305.375C221.323 304.441 220.62 303.507 219.917 303.04Z" fill="#E85B5B"/>
<path d="M225.776 307.944C225.073 307.477 224.37 307.944 224.37 308.645V321.958C224.37 322.892 225.073 323.826 225.776 324.293C226.479 324.761 227.183 324.293 227.183 323.593V310.28C227.183 309.346 226.479 308.411 225.776 307.944Z" fill="#DA0000"/>
<path d="M231.636 317.52C230.933 317.053 230.229 317.52 230.229 318.221V325.461C230.229 326.396 230.933 327.33 231.636 327.797C232.339 328.264 233.042 327.797 233.042 327.096V319.856C233.042 318.922 232.339 317.754 231.636 317.52Z" fill="#E85B5B"/>
<path d="M203.745 300.237C203.745 301.171 203.042 301.404 202.339 300.937C201.636 300.47 200.933 299.536 200.933 298.602C200.933 297.667 201.636 297.434 202.339 297.901C203.276 298.368 203.745 299.302 203.745 300.237Z" fill="#E85B5B"/>
<path d="M203.745 295.332C203.745 296.266 203.042 296.499 202.339 296.032C201.636 295.565 200.933 294.631 200.933 293.697C200.933 292.762 201.636 292.529 202.339 292.996C203.276 293.463 203.745 294.631 203.745 295.332Z" fill="#DA0000"/>
<path d="M271.96 588.982C275.007 588.982 278.054 588.281 280.866 586.646L460.872 482.01C462.747 481.076 463.685 479.208 463.685 477.106C463.685 475.003 462.747 473.135 460.872 472.201L441.653 460.523C437.668 458.187 435.324 453.749 435.324 449.312V415.212C435.324 410.54 437.903 406.103 441.887 403.533L462.044 391.155C462.513 390.921 462.747 389.987 462.513 389.52C462.278 389.053 461.341 388.819 460.872 389.053L440.715 401.431C436.027 404.234 432.981 409.606 432.981 415.212V449.312C432.981 454.683 435.793 459.822 440.481 462.625L459.7 474.303C460.638 475.003 461.341 475.938 461.341 477.339C461.341 478.507 460.638 479.675 459.7 480.142L279.694 584.778C274.772 587.58 268.678 587.58 263.991 584.778L247.35 574.734C243.365 572.399 241.021 567.961 241.021 563.524V522.183C241.021 517.512 243.365 513.074 247.35 510.505L266.1 498.593C266.569 498.36 266.803 497.425 266.569 496.958C266.335 496.491 265.397 496.258 264.928 496.491L246.178 508.403C241.49 511.439 238.677 516.344 238.677 521.949V562.823C238.677 568.195 241.49 573.333 246.178 576.136L262.819 586.179C265.632 588.048 268.913 588.982 271.96 588.982Z" fill="url(#paint53_linear)"/>
<path d="M409.415 568.664L403.842 556.728L383.231 553.367L393.57 547.574L414.181 550.934L419.754 562.637L409.415 568.664Z" fill="url(#paint54_linear)"/>
<path d="M392.967 577.934L387.16 566.23L366.783 562.871L377.123 556.844L397.734 560.204L403.306 572.141L392.967 577.934Z" fill="url(#paint55_linear)"/>
<path d="M376.517 587.438L370.71 575.501L350.334 572.141L360.672 566.348L381.049 569.707L386.857 581.411L376.517 587.438Z" fill="url(#paint56_linear)"/>
<path d="M360.07 596.708L354.262 585.005L333.886 581.645L344.225 575.618L364.602 578.977L370.408 590.915L360.07 596.708Z" fill="url(#paint57_linear)"/>
<defs>
<linearGradient id="paint0_linear" x1="411.766" y1="311.382" x2="293.361" y2="105.583" gradientUnits="userSpaceOnUse">
<stop stop-color="#920000"/>
<stop offset="1" stop-color="#DA0000"/>
</linearGradient>
<linearGradient id="paint1_linear" x1="593.242" y1="209.83" x2="355.596" y2="230.002" gradientUnits="userSpaceOnUse">
<stop stop-color="#FC2323"/>
<stop offset="0.1651" stop-color="#FC2323"/>
<stop offset="0.442708" stop-color="#DA0000"/>
<stop offset="0.697917" stop-color="#B10000"/>
<stop offset="1" stop-color="#880000"/>
</linearGradient>
<linearGradient id="paint2_linear" x1="593.224" y1="96.8937" x2="364.332" y2="140.04" gradientUnits="userSpaceOnUse">
<stop stop-color="#FC2323"/>
<stop offset="0.223958" stop-color="#DA0000"/>
<stop offset="0.546875" stop-color="#B10000"/>
<stop offset="1" stop-color="#880000"/>
</linearGradient>
<linearGradient id="paint3_linear" x1="594.919" y1="245.054" x2="474.395" y2="251.278" gradientUnits="userSpaceOnUse">
<stop stop-color="#FF2F2F"/>
<stop offset="0.166667" stop-color="#DA0000"/>
<stop offset="0.369792" stop-color="#B10000"/>
<stop offset="1" stop-color="#880000"/>
</linearGradient>
<linearGradient id="paint4_linear" x1="590.494" y1="227.448" x2="493.646" y2="212.407" gradientUnits="userSpaceOnUse">
<stop stop-color="#920000"/>
<stop offset="1" stop-color="#DA0000"/>
</linearGradient>
<linearGradient id="paint5_linear" x1="587.069" y1="243.845" x2="481.644" y2="249.048" gradientUnits="userSpaceOnUse">
<stop stop-color="#950000"/>
<stop offset="0.401042" stop-color="#B10000"/>
<stop offset="1" stop-color="#880000"/>
</linearGradient>
<linearGradient id="paint6_linear" x1="587.062" y1="243.902" x2="482.563" y2="249.015" gradientUnits="userSpaceOnUse">
<stop stop-color="#700303"/>
<stop offset="0.484375" stop-color="#7E0808"/>
<stop offset="1" stop-color="#530707"/>
</linearGradient>
<radialGradient id="paint7_radial" cx="0" cy="0" r="1" gradientUnits="userSpaceOnUse" gradientTransform="translate(626.707 83.9607) rotate(180) scale(216.597 215.839)">
<stop offset="0.463542" stop-color="#E10808"/>
<stop offset="0.625" stop-color="#D40000"/>
<stop offset="1" stop-color="#920000"/>
</radialGradient>
<radialGradient id="paint8_radial" cx="0" cy="0" r="1" gradientUnits="userSpaceOnUse" gradientTransform="translate(626.707 132.308) rotate(180) scale(216.597 215.839)">
<stop offset="0.463542" stop-color="#E10808"/>
<stop offset="0.625" stop-color="#D40000"/>
<stop offset="1" stop-color="#920000"/>
</radialGradient>
<radialGradient id="paint9_radial" cx="0" cy="0" r="1" gradientUnits="userSpaceOnUse" gradientTransform="translate(626.707 180.656) rotate(180) scale(216.597 215.839)">
<stop offset="0.463542" stop-color="#E10808"/>
<stop offset="0.625" stop-color="#D40000"/>
<stop offset="1" stop-color="#920000"/>
</radialGradient>
<radialGradient id="paint10_radial" cx="0" cy="0" r="1" gradientUnits="userSpaceOnUse" gradientTransform="translate(626.707 229.065) rotate(180) scale(216.597 215.254)">
<stop offset="0.463542" stop-color="#E10808"/>
<stop offset="0.625" stop-color="#D40000"/>
<stop offset="1" stop-color="#920000"/>
</radialGradient>
<radialGradient id="paint11_radial" cx="0" cy="0" r="1" gradientUnits="userSpaceOnUse" gradientTransform="translate(626.707 277.412) rotate(180) scale(216.597 215.254)">
<stop offset="0.463542" stop-color="#E10808"/>
<stop offset="0.625" stop-color="#D40000"/>
<stop offset="1" stop-color="#920000"/>
</radialGradient>
<linearGradient id="paint12_linear" x1="459.056" y1="151.77" x2="686.49" y2="152.726" gradientUnits="userSpaceOnUse">
<stop stop-color="#F71E1E"/>
<stop offset="1" stop-color="#FC2323"/>
</linearGradient>
<linearGradient id="paint13_linear" x1="556.421" y1="145.221" x2="510.135" y2="145.221" gradientUnits="userSpaceOnUse">
<stop stop-color="#CE0D0D"/>
<stop offset="1" stop-color="#920000"/>
</linearGradient>
<linearGradient id="paint14_linear" x1="459.056" y1="199.746" x2="686.49" y2="200.702" gradientUnits="userSpaceOnUse">
<stop stop-color="#2D0979"/>
<stop offset="1" stop-color="#5B04F7"/>
</linearGradient>
<linearGradient id="paint15_linear" x1="459.056" y1="199.868" x2="686.49" y2="200.824" gradientUnits="userSpaceOnUse">
<stop stop-color="#F71E1E"/>
<stop offset="1" stop-color="#FC2323"/>
</linearGradient>
<linearGradient id="paint16_linear" x1="556.421" y1="193.285" x2="510.135" y2="193.285" gradientUnits="userSpaceOnUse">
<stop stop-color="#CE0D0D"/>
<stop offset="1" stop-color="#920000"/>
</linearGradient>
<linearGradient id="paint17_linear" x1="459.056" y1="248.231" x2="686.49" y2="249.187" gradientUnits="userSpaceOnUse">
<stop stop-color="#F71E1E"/>
<stop offset="1" stop-color="#FC2323"/>
</linearGradient>
<linearGradient id="paint18_linear" x1="556.421" y1="241.683" x2="510.135" y2="241.683" gradientUnits="userSpaceOnUse">
<stop stop-color="#CE0D0D"/>
<stop offset="1" stop-color="#920000"/>
</linearGradient>
<linearGradient id="paint19_linear" x1="459.056" y1="297.165" x2="686.49" y2="298.121" gradientUnits="userSpaceOnUse">
<stop stop-color="#920000"/>
<stop offset="1" stop-color="#DA0000"/>
</linearGradient>
<linearGradient id="paint20_linear" x1="459.056" y1="297.263" x2="686.49" y2="298.22" gradientUnits="userSpaceOnUse">
<stop stop-color="#F71E1E"/>
<stop offset="1" stop-color="#FC2323"/>
</linearGradient>
<linearGradient id="paint21_linear" x1="556.421" y1="290.731" x2="510.135" y2="290.731" gradientUnits="userSpaceOnUse">
<stop stop-color="#CE0D0D"/>
<stop offset="1" stop-color="#920000"/>
</linearGradient>
<linearGradient id="paint22_linear" x1="459.056" y1="345.129" x2="686.49" y2="346.085" gradientUnits="userSpaceOnUse">
<stop stop-color="#2D0979"/>
<stop offset="1" stop-color="#5B04F7"/>
</linearGradient>
<linearGradient id="paint23_linear" x1="459.056" y1="345.16" x2="686.49" y2="346.116" gradientUnits="userSpaceOnUse">
<stop stop-color="#F71E1E"/>
<stop offset="1" stop-color="#FC2323"/>
</linearGradient>
<linearGradient id="paint24_linear" x1="556.421" y1="338.611" x2="510.135" y2="338.611" gradientUnits="userSpaceOnUse">
<stop stop-color="#CE0D0D"/>
<stop offset="1" stop-color="#920000"/>
</linearGradient>
<linearGradient id="paint25_linear" x1="201.479" y1="250.885" x2="79.9679" y2="250.885" gradientUnits="userSpaceOnUse">
<stop stop-color="#DA0000"/>
<stop offset="1" stop-color="#920000"/>
</linearGradient>
<linearGradient id="paint26_linear" x1="225.619" y1="263.664" x2="104.108" y2="263.664" gradientUnits="userSpaceOnUse">
<stop stop-color="#DA0000"/>
<stop offset="1" stop-color="#920000"/>
</linearGradient>
<linearGradient id="paint27_linear" x1="249.761" y1="276.51" x2="128.25" y2="276.51" gradientUnits="userSpaceOnUse">
<stop stop-color="#DA0000"/>
<stop offset="1" stop-color="#920000"/>
</linearGradient>
<linearGradient id="paint28_linear" x1="217.924" y1="421.56" x2="99.5188" y2="215.761" gradientUnits="userSpaceOnUse">
<stop stop-color="#920000"/>
<stop offset="1" stop-color="#DA0000"/>
</linearGradient>
<linearGradient id="paint29_linear" x1="399.4" y1="320.008" x2="161.754" y2="340.181" gradientUnits="userSpaceOnUse">
<stop stop-color="#FC2323"/>
<stop offset="0.1651" stop-color="#FC2323"/>
<stop offset="0.442708" stop-color="#DA0000"/>
<stop offset="0.697917" stop-color="#B10000"/>
<stop offset="1" stop-color="#880000"/>
</linearGradient>
<linearGradient id="paint30_linear" x1="399.382" y1="207.072" x2="170.49" y2="250.218" gradientUnits="userSpaceOnUse">
<stop stop-color="#FC2323"/>
<stop offset="0.223958" stop-color="#DA0000"/>
<stop offset="0.546875" stop-color="#B10000"/>
<stop offset="1" stop-color="#880000"/>
</linearGradient>
<linearGradient id="paint31_linear" x1="401.078" y1="355.233" x2="280.553" y2="361.456" gradientUnits="userSpaceOnUse">
<stop offset="0.166667" stop-color="#DA0000"/>
<stop offset="0.765625" stop-color="#B10000"/>
<stop offset="1" stop-color="#880000"/>
</linearGradient>
<linearGradient id="paint32_linear" x1="396.652" y1="337.626" x2="299.804" y2="322.586" gradientUnits="userSpaceOnUse">
<stop stop-color="#920000"/>
<stop offset="1" stop-color="#DA0000"/>
</linearGradient>
<linearGradient id="paint33_linear" x1="393.227" y1="354.024" x2="287.802" y2="359.226" gradientUnits="userSpaceOnUse">
<stop stop-color="#950000"/>
<stop offset="0.401042" stop-color="#B10000"/>
<stop offset="1" stop-color="#880000"/>
</linearGradient>
<linearGradient id="paint34_linear" x1="393.22" y1="354.081" x2="288.721" y2="359.194" gradientUnits="userSpaceOnUse">
<stop stop-color="#700303"/>
<stop offset="0.484375" stop-color="#7E0808"/>
<stop offset="1" stop-color="#530707"/>
</linearGradient>
<radialGradient id="paint35_radial" cx="0" cy="0" r="1" gradientUnits="userSpaceOnUse" gradientTransform="translate(432.866 194.139) rotate(180) scale(216.597 215.839)">
<stop offset="0.463542" stop-color="#E10808"/>
<stop offset="0.625" stop-color="#D40000"/>
<stop offset="1" stop-color="#920000"/>
</radialGradient>
<radialGradient id="paint36_radial" cx="0" cy="0" r="1" gradientUnits="userSpaceOnUse" gradientTransform="translate(432.866 242.486) rotate(180) scale(216.597 215.839)">
<stop offset="0.463542" stop-color="#E10808"/>
<stop offset="0.625" stop-color="#D40000"/>
<stop offset="1" stop-color="#920000"/>
</radialGradient>
<radialGradient id="paint37_radial" cx="0" cy="0" r="1" gradientUnits="userSpaceOnUse" gradientTransform="translate(432.866 290.834) rotate(180) scale(216.597 215.839)">
<stop offset="0.463542" stop-color="#E10808"/>
<stop offset="0.625" stop-color="#D40000"/>
<stop offset="1" stop-color="#920000"/>
</radialGradient>
<radialGradient id="paint38_radial" cx="0" cy="0" r="1" gradientUnits="userSpaceOnUse" gradientTransform="translate(432.866 339.243) rotate(180) scale(216.597 215.254)">
<stop offset="0.463542" stop-color="#E10808"/>
<stop offset="0.625" stop-color="#D40000"/>
<stop offset="1" stop-color="#920000"/>
</radialGradient>
<radialGradient id="paint39_radial" cx="0" cy="0" r="1" gradientUnits="userSpaceOnUse" gradientTransform="translate(432.866 387.59) rotate(180) scale(216.597 215.254)">
<stop offset="0.463542" stop-color="#E10808"/>
<stop offset="0.625" stop-color="#D40000"/>
<stop offset="1" stop-color="#920000"/>
</radialGradient>
<linearGradient id="paint40_linear" x1="265.214" y1="261.948" x2="492.649" y2="262.904" gradientUnits="userSpaceOnUse">
<stop stop-color="#F71E1E"/>
<stop offset="1" stop-color="#FC2323"/>
</linearGradient>
<linearGradient id="paint41_linear" x1="362.578" y1="255.399" x2="316.292" y2="255.399" gradientUnits="userSpaceOnUse">
<stop stop-color="#CE0D0D"/>
<stop offset="1" stop-color="#920000"/>
</linearGradient>
<linearGradient id="paint42_linear" x1="265.214" y1="309.924" x2="492.649" y2="310.88" gradientUnits="userSpaceOnUse">
<stop stop-color="#2D0979"/>
<stop offset="1" stop-color="#5B04F7"/>
</linearGradient>
<linearGradient id="paint43_linear" x1="265.214" y1="310.046" x2="492.649" y2="311.003" gradientUnits="userSpaceOnUse">
<stop stop-color="#F71E1E"/>
<stop offset="1" stop-color="#FC2323"/>
</linearGradient>
<linearGradient id="paint44_linear" x1="362.578" y1="303.463" x2="316.292" y2="303.463" gradientUnits="userSpaceOnUse">
<stop stop-color="#CE0D0D"/>
<stop offset="1" stop-color="#920000"/>
</linearGradient>
<linearGradient id="paint45_linear" x1="265.214" y1="358.41" x2="492.649" y2="359.366" gradientUnits="userSpaceOnUse">
<stop stop-color="#F71E1E"/>
<stop offset="1" stop-color="#FC2323"/>
</linearGradient>
<linearGradient id="paint46_linear" x1="362.578" y1="351.861" x2="316.292" y2="351.861" gradientUnits="userSpaceOnUse">
<stop stop-color="#CE0D0D"/>
<stop offset="1" stop-color="#920000"/>
</linearGradient>
<linearGradient id="paint47_linear" x1="265.214" y1="407.344" x2="492.649" y2="408.3" gradientUnits="userSpaceOnUse">
<stop stop-color="#920000"/>
<stop offset="1" stop-color="#DA0000"/>
</linearGradient>
<linearGradient id="paint48_linear" x1="265.214" y1="407.442" x2="492.649" y2="408.399" gradientUnits="userSpaceOnUse">
<stop stop-color="#F71E1E"/>
<stop offset="1" stop-color="#FC2323"/>
</linearGradient>
<linearGradient id="paint49_linear" x1="362.578" y1="400.909" x2="316.292" y2="400.909" gradientUnits="userSpaceOnUse">
<stop stop-color="#CE0D0D"/>
<stop offset="1" stop-color="#920000"/>
</linearGradient>
<linearGradient id="paint50_linear" x1="265.214" y1="455.307" x2="492.649" y2="456.263" gradientUnits="userSpaceOnUse">
<stop stop-color="#2D0979"/>
<stop offset="1" stop-color="#5B04F7"/>
</linearGradient>
<linearGradient id="paint51_linear" x1="265.214" y1="455.338" x2="492.649" y2="456.294" gradientUnits="userSpaceOnUse">
<stop stop-color="#F71E1E"/>
<stop offset="1" stop-color="#FC2323"/>
</linearGradient>
<linearGradient id="paint52_linear" x1="362.578" y1="448.789" x2="316.292" y2="448.789" gradientUnits="userSpaceOnUse">
<stop stop-color="#CE0D0D"/>
<stop offset="1" stop-color="#920000"/>
</linearGradient>
<linearGradient id="paint53_linear" x1="463.812" y1="488.934" x2="238.618" y2="488.934" gradientUnits="userSpaceOnUse">
<stop stop-color="#F2B3B3"/>
<stop offset="1" stop-color="#FF7373"/>
</linearGradient>
<linearGradient id="paint54_linear" x1="383.19" y1="558.042" x2="419.784" y2="558.204" gradientUnits="userSpaceOnUse">
<stop stop-color="#DA0000"/>
<stop offset="1" stop-color="#FF7373"/>
<stop offset="1" stop-color="#DA0000"/>
</linearGradient>
<linearGradient id="paint55_linear" x1="366.743" y1="567.312" x2="403.336" y2="567.474" gradientUnits="userSpaceOnUse">
<stop stop-color="#DA0000"/>
<stop offset="1" stop-color="#FF7373"/>
<stop offset="1" stop-color="#DA0000"/>
</linearGradient>
<linearGradient id="paint56_linear" x1="350.292" y1="576.816" x2="386.886" y2="576.979" gradientUnits="userSpaceOnUse">
<stop stop-color="#DA0000"/>
<stop offset="1" stop-color="#FF7373"/>
<stop offset="1" stop-color="#DA0000"/>
</linearGradient>
<linearGradient id="paint57_linear" x1="333.845" y1="586.086" x2="370.439" y2="586.249" gradientUnits="userSpaceOnUse">
<stop stop-color="#DA0000"/>
<stop offset="1" stop-color="#FF7373"/>
<stop offset="1" stop-color="#DA0000"/>
</linearGradient>
</defs>
</svg>
