<svg width="673" height="603" viewBox="0 0 673 603" fill="none" xmlns="http://www.w3.org/2000/svg">
<path opacity="0.3" d="M632.303 477.025L450.66 582.061C442.44 586.836 430.242 587.366 423.347 583.122L24.7926 352.89C17.6329 348.911 18.6936 341.75 26.6488 336.975L208.292 231.939C216.513 227.164 228.71 226.634 235.605 230.878L633.894 460.845C641.319 465.089 640.524 472.25 632.303 477.025Z" fill="#920000"/>
<path d="M475.236 533.506L634.16 441.678C652.01 431.355 649.859 413.291 629.214 401.248L255.451 185.549C234.806 173.506 203.408 172.216 185.559 182.753L26.6341 274.581C8.78462 284.904 10.9351 302.968 31.5803 315.011L405.128 530.495C425.988 542.538 457.171 543.828 475.236 533.506Z" fill="#770707"/>
<path d="M475.236 530.71L634.161 438.882C642.118 434.151 646.204 428.129 646.204 421.677C646.204 421.032 646.204 408.559 646.204 408.129C645.558 400.602 639.752 404.688 629.214 398.667L255.236 182.753C234.591 170.71 203.193 169.42 185.344 179.957L26.4193 271.785C18.4623 276.301 14.3764 268.344 14.3764 274.796C14.3764 275.441 14.3764 290.28 14.3764 290.71C15.0215 298.237 20.8279 305.979 31.3655 312.215L405.129 527.914C425.989 539.742 457.172 541.032 475.236 530.71Z" fill="url(#paint0_linear)"/>
<path d="M475.236 517.161L634.16 425.333C652.01 415.011 649.859 396.946 629.214 384.903L255.451 169.205C234.806 157.162 203.408 155.871 185.559 166.409L26.6341 258.237C8.78462 268.559 10.9351 286.624 31.5803 298.667L405.128 514.15C425.988 526.193 457.171 527.484 475.236 517.161Z" fill="url(#paint1_linear)"/>
<path d="M634.16 423.613L475.236 515.441C457.386 525.763 425.989 524.473 405.343 512.645L31.3653 296.731C20.3976 290.495 14.5912 282.538 14.3761 274.796C13.946 282.968 19.7524 291.785 31.3653 298.452L405.128 514.151C425.773 526.194 457.171 527.484 475.021 516.946L633.945 425.118C642.332 420.172 646.418 413.505 645.988 406.624C645.773 413.29 641.902 419.097 634.16 423.613Z" fill="url(#paint2_radial)"/>
<path d="M624.913 387.699L250.72 171.57C232.655 161.033 205.128 159.957 189.429 168.99L31.365 260.172C15.6661 269.204 17.6015 285.118 35.666 295.656L409.859 511.785C427.924 522.322 455.451 523.398 471.15 514.366L629.214 423.183C644.913 413.935 642.977 398.237 624.913 387.699Z" fill="url(#paint3_linear)"/>
<path d="M617.601 390.71L245.343 175.656C230.075 166.839 207.279 165.979 193.946 173.506L39.3221 262.753C26.2039 270.28 27.7093 283.613 42.9781 292.43L415.236 507.484C430.505 516.301 453.3 517.161 466.634 509.635L621.257 420.387C634.375 412.86 632.87 399.527 617.601 390.71Z" fill="#7B0303"/>
<path d="M195.236 176.516C207.709 169.42 227.709 169.42 239.967 176.516L616.311 393.936C628.569 401.032 628.569 412.645 616.096 419.742L464.913 507.054C452.44 514.15 432.44 514.15 420.182 507.054L43.8382 289.635C31.5801 282.538 31.5801 270.925 44.0532 263.828L195.236 176.516Z" fill="#920000"/>
<path d="M442.763 509.204C434.806 509.204 427.494 507.484 422.117 504.258L45.7738 286.839C40.8275 284.043 38.0319 280.387 38.0319 276.731C38.0319 273.076 40.8275 269.205 45.7738 266.409L196.741 179.312C202.333 176.086 209.86 174.366 217.817 174.366C225.774 174.366 233.085 176.086 238.462 179.312L614.805 396.731C619.752 399.527 622.547 403.183 622.547 406.839C622.547 410.495 619.752 414.366 614.805 417.161L463.623 504.473C458.031 507.484 450.72 509.204 442.763 509.204Z" fill="url(#paint4_linear)"/>
<path d="M102.117 351.14L84.6981 341.033C82.5475 339.742 80.827 336.516 80.827 333.506C80.827 330.71 82.5475 329.205 84.6981 330.495L102.117 340.602C104.268 341.893 105.988 345.119 105.988 348.129C105.988 351.14 104.268 352.43 102.117 351.14Z" fill="url(#paint5_linear)"/>
<path d="M102.117 351.14L84.6981 341.033C82.5475 339.742 80.827 336.516 80.827 333.506C80.827 330.71 82.5475 329.205 84.6981 330.495L102.117 340.602C104.268 341.893 105.988 345.119 105.988 348.129C105.988 351.14 104.268 352.43 102.117 351.14Z" fill="#920000"/>
<path d="M103.623 350.71C103.408 350.71 102.978 350.495 102.548 350.28L85.1281 340.172C83.1927 339.097 81.6873 336.086 81.6873 333.505C81.6873 332.43 82.1174 331.14 82.9776 331.14C83.1927 331.14 83.6228 331.355 84.0529 331.57L101.472 341.678C103.408 342.753 104.913 345.764 104.913 348.344C104.913 349.204 104.483 350.71 103.623 350.71Z" fill="white" fill-opacity="0.8"/>
<path d="M132.87 368.989L115.451 358.882C113.3 357.591 111.58 354.366 111.58 351.355C111.58 348.559 113.3 347.054 115.451 348.344L132.87 358.452C135.021 359.742 136.741 362.968 136.741 365.978C136.956 368.989 135.021 370.28 132.87 368.989Z" fill="url(#paint6_linear)"/>
<path d="M132.87 368.989L115.451 358.882C113.3 357.591 111.58 354.366 111.58 351.355C111.58 348.559 113.3 347.054 115.451 348.344L132.87 358.452C135.021 359.742 136.741 362.968 136.741 365.978C136.956 368.989 135.021 370.28 132.87 368.989Z" fill="#920000"/>
<path opacity="0.8" d="M134.591 368.559C134.376 368.559 133.946 368.344 133.516 368.129L116.096 358.022C114.161 356.946 112.656 353.936 112.656 351.355C112.656 350.28 113.086 348.99 113.946 348.99C114.161 348.99 114.591 349.205 115.021 349.42L132.44 359.527C134.376 360.602 135.881 363.613 135.881 366.194C135.881 367.269 135.451 368.559 134.591 368.559Z" fill="white"/>
<path d="M284.053 444.473L31.5799 298.022C20.8272 291.785 15.2358 284.043 14.5906 276.516C14.5906 276.301 14.5906 273.29 14.5906 269.85C14.5906 269.85 14.5906 285.549 14.5906 285.979C15.2358 293.505 21.0423 301.247 31.5799 307.484L284.053 444.473Z" fill="#F41C1C"/>
<path d="M569.214 475.441L540.827 491.785C540.827 486.624 544.053 480.602 547.924 478.237L562.333 470.064C565.989 467.914 569.214 470.28 569.214 475.441Z" fill="#DA0000"/>
<path d="M434.172 470.72C432.882 470.72 431.591 470.935 430.301 471.796C427.29 473.516 428.15 475.237 430.301 476.527C430.086 476.742 430.301 477.172 430.731 477.602C430.946 477.817 431.376 477.817 431.806 477.817C432.236 477.817 432.667 477.817 432.882 477.602C433.957 477.817 435.032 478.032 436.107 478.032C436.968 478.032 437.613 478.462 437.613 478.892C437.613 479.753 437.183 480.398 436.538 481.043C435.462 481.903 435.677 483.194 437.183 484.054L439.548 485.344C439.763 485.559 439.978 485.559 440.408 485.559C440.624 485.559 441.054 485.559 441.269 485.344L453.957 478.032C454.387 477.817 454.387 477.387 453.957 476.957L451.591 475.667C450.731 475.237 449.656 475.022 448.581 475.022C447.72 475.022 447.075 475.237 446.43 475.452C445.14 475.882 443.849 476.097 442.559 476.097C441.699 476.097 441.054 475.667 441.054 475.237C441.054 474.591 440.839 473.946 440.408 473.301C440.839 472.871 440.839 472.441 440.408 472.011C439.978 471.796 439.548 471.581 439.118 471.581C438.903 471.581 438.688 471.581 438.688 471.581C437.183 471.366 435.677 470.72 434.172 470.72ZM434.172 469C435.677 469 437.183 469.43 438.688 470.075H438.903C439.548 470.075 440.409 470.29 441.054 470.72C441.699 471.151 442.129 471.796 442.344 472.441C442.344 472.656 442.344 473.086 442.344 473.301C442.559 473.731 442.559 473.946 442.559 474.376C443.634 474.376 444.71 474.161 445.785 473.731C446.645 473.516 447.505 473.301 448.581 473.301C449.871 473.301 451.376 473.731 452.451 474.161L454.817 475.452C455.677 475.882 456.107 476.527 456.107 477.387C456.107 478.247 455.677 478.892 454.817 479.323L442.129 486.634C441.699 486.849 441.054 487.065 440.408 487.065C439.763 487.065 439.118 486.849 438.688 486.634L436.322 485.344C435.032 484.699 434.387 483.624 434.387 482.548C434.172 481.473 434.602 480.398 435.462 479.753C435.462 479.753 435.462 479.753 435.677 479.538C434.817 479.538 433.957 479.323 433.312 479.323C432.882 479.323 432.452 479.538 432.236 479.538C431.591 479.538 430.946 479.323 430.301 479.108C429.656 478.677 429.226 478.032 429.011 477.387C428.15 476.742 427.075 475.452 427.075 473.946C427.075 472.441 428.15 471.366 429.871 470.29C430.946 469.645 432.452 469 434.172 469Z" fill="white" fill-opacity="0.8"/>
<path d="M570.935 399.72L569.215 401.226C568.785 401.226 568.355 401.226 567.925 401.226C567.495 401.226 567.065 401.226 566.419 401.226L564.699 399.72C563.624 399.936 562.763 400.151 561.688 400.366L562.333 402.086C561.903 402.301 561.688 402.516 561.258 402.516C560.828 402.731 560.613 402.946 560.398 403.161L557.387 402.731C556.742 403.376 556.312 403.806 556.097 404.452L558.893 405.312C558.677 405.742 558.677 406.387 558.893 406.817L556.097 407.892C556.312 408.538 556.742 408.968 557.387 409.613L560.613 409.183C560.828 409.398 561.258 409.613 561.473 409.828C561.903 410.043 562.118 410.258 562.548 410.258L561.688 411.978C562.548 412.194 563.624 412.624 564.699 412.624L566.419 411.118C566.85 411.118 567.28 411.118 567.71 411.118C568.14 411.118 568.57 411.118 569.215 411.118L570.935 412.624C572.011 412.409 572.871 412.194 573.946 411.978L573.301 410.258C573.731 410.043 573.946 409.828 574.376 409.828C574.806 409.613 575.022 409.398 575.237 409.183L578.247 409.613C578.893 408.968 579.323 408.538 579.538 407.892L576.742 407.032C576.957 406.602 576.957 405.957 576.742 405.527L579.538 404.452C579.323 403.806 578.893 403.376 578.247 402.731L575.022 403.161C574.807 402.946 574.376 402.731 574.161 402.516C573.731 402.301 573.516 402.086 573.086 402.086L573.946 400.366C572.871 400.151 572.011 399.72 570.935 399.72ZM567.925 408.323C567.065 408.323 565.989 408.108 565.344 407.677C563.839 406.817 564.054 405.527 565.344 404.667C565.989 404.237 567.065 404.022 567.925 404.022C568.785 404.022 569.86 404.237 570.505 404.667C572.011 405.527 571.796 406.817 570.505 407.677C569.645 408.108 568.785 408.323 567.925 408.323ZM570.935 398H571.151C572.226 398.215 573.301 398.43 574.376 398.86C574.806 399.075 575.237 399.29 575.452 399.72C575.667 400.151 575.667 400.581 575.452 401.011L575.237 401.441C575.237 401.441 575.452 401.441 575.452 401.656L577.817 401.226H578.032C578.462 401.226 578.893 401.441 579.323 401.656C579.968 402.301 580.613 403.161 580.828 403.806C581.043 404.237 581.043 404.667 580.828 405.097C580.613 405.527 580.183 405.957 579.753 405.957L579.323 406.172L579.753 406.387C580.183 406.602 580.613 406.817 580.828 407.247C581.043 407.677 581.043 408.108 580.828 408.538C580.398 409.398 579.968 410.043 579.323 410.688C578.893 410.903 578.462 411.118 578.032 411.118H577.817L575.452 410.688C575.452 410.688 575.237 410.688 575.237 410.903L575.452 411.333C575.667 411.763 575.667 412.194 575.452 412.624C575.237 413.054 574.806 413.484 574.376 413.484C573.301 413.914 572.226 414.129 571.151 414.344H570.935C570.505 414.344 570.075 414.129 569.86 413.914L568.785 412.839C568.57 412.839 568.355 412.839 567.925 412.839C567.71 412.839 567.495 412.839 567.28 412.839L566.204 413.914C565.989 414.129 565.559 414.344 565.129 414.344H564.914C563.839 414.129 562.763 413.914 561.688 413.484C561.258 413.269 560.828 413.054 560.613 412.624C560.398 412.194 560.398 411.763 560.613 411.333L560.828 410.903C560.828 410.903 560.613 410.903 560.613 410.688L558.247 411.118H558.032C557.602 411.118 557.172 410.903 556.742 410.688C556.097 410.043 555.452 409.183 555.237 408.538C555.022 408.108 555.022 407.677 555.237 407.247C555.452 406.817 555.882 406.387 556.312 406.387L556.742 406.172L556.312 405.957C555.882 405.742 555.452 405.527 555.237 405.097C555.022 404.667 555.022 404.237 555.237 403.806C555.667 402.946 556.097 402.301 556.742 401.656C557.172 401.441 557.602 401.226 558.032 401.226H558.247L560.613 401.656C560.613 401.656 560.828 401.656 560.828 401.441L560.613 401.011C560.398 400.581 560.398 400.151 560.613 399.72C560.828 399.29 561.258 398.86 561.688 398.86C562.763 398.43 563.839 398.215 564.914 398H565.129C565.559 398 565.989 398.215 566.204 398.43L567.28 399.505C567.495 399.505 567.71 399.505 568.14 399.505C568.355 399.505 568.57 399.505 568.785 399.505L569.86 398.43C570.075 398 570.505 398 570.935 398ZM569.43 406.387C569 406.172 568.355 405.957 567.71 405.957C567.065 405.957 566.419 406.172 565.989 406.387C566.419 406.602 567.065 406.817 567.71 406.817C568.57 406.602 569 406.602 569.43 406.387Z" fill="white" fill-opacity="0.8"/>
<path d="M533.945 425.333L530.075 427.484L537.171 431.57L541.042 429.419L533.945 425.333ZM523.408 425.978L519.537 428.129L531.15 434.796L535.021 432.645L523.408 425.978ZM513.085 426.839L509.214 428.989L525.343 438.236L529.214 436.086L513.085 426.839ZM533.945 423.613C534.161 423.613 534.591 423.613 534.806 423.828L541.902 427.914C542.333 428.129 542.763 428.774 542.763 429.419C542.763 430.064 542.333 430.494 541.902 430.925L538.032 433.075C537.817 433.29 537.386 433.29 537.171 433.29C536.956 433.29 536.956 433.29 536.741 433.29C536.526 433.72 536.311 433.935 535.881 434.365L532.01 436.516C531.795 436.731 531.365 436.731 531.15 436.731C530.935 436.731 530.935 436.731 530.72 436.731C530.505 437.161 530.29 437.376 529.859 437.806L525.989 439.957C525.773 440.172 525.343 440.172 525.128 440.172C524.913 440.172 524.483 440.172 524.268 439.957L508.139 430.71C507.709 430.494 507.279 429.849 507.279 429.204C507.279 428.559 507.709 428.129 508.139 427.699L512.01 425.548C512.225 425.333 512.655 425.333 512.87 425.333C513.085 425.333 513.515 425.333 513.73 425.548L517.816 427.914C518.032 427.484 518.247 427.269 518.677 427.054L522.548 424.903C522.763 424.688 523.193 424.688 523.408 424.688C523.623 424.688 524.053 424.688 524.268 424.903L528.354 427.269C528.569 426.839 528.784 426.624 529.214 426.408L533.085 424.258C533.3 423.613 533.515 423.613 533.945 423.613Z" fill="white" fill-opacity="0.8"/>
<path d="M484.483 445.118C482.977 445.118 481.257 445.548 480.182 446.194C478.461 447.054 478.031 448.559 478.676 449.85C478.031 449.85 477.386 449.634 476.956 449.634C475.451 449.634 473.73 450.065 472.655 450.71C470.289 452 470.289 454.366 472.655 455.656C474.59 456.731 478.246 457.161 481.687 457.161C486.203 457.161 490.504 456.731 490.504 456.731C490.504 456.731 493.3 448.774 488.999 446.409C487.494 445.333 485.988 445.118 484.483 445.118ZM484.483 443.398V445.118V443.398C486.418 443.398 488.354 443.828 489.644 444.688C495.236 447.914 492.01 456.731 492.01 457.161C491.795 457.807 491.15 458.237 490.504 458.237C490.289 458.237 485.988 458.667 481.472 458.667C476.741 458.667 473.515 458.237 471.58 456.946C469.859 455.871 468.999 454.581 468.999 452.86C468.999 451.355 470.074 449.85 471.58 448.774C473.085 447.914 474.806 447.484 476.741 447.484C476.956 446.409 477.816 445.118 479.322 444.258C480.612 443.828 482.547 443.398 484.483 443.398Z" fill="white" fill-opacity="0.8"/>
<g opacity="0.7">
<path opacity="0.02" d="M407.494 456.516C414.161 456.516 419.967 455.011 424.698 452.43L465.343 428.989L505.988 405.548C511.58 402.323 514.806 397.376 514.806 392C514.806 385.978 510.72 379.957 503.838 375.871C497.816 372.43 490.075 370.495 482.548 370.495C475.881 370.495 470.075 372 465.343 374.581L424.698 398.021L383.838 421.462C378.247 424.688 375.021 429.634 375.021 435.011C375.021 441.032 379.107 447.054 385.989 450.925C392.01 454.581 399.752 456.516 407.494 456.516Z" fill="black"/>
<path opacity="0.045455" d="M502.117 376.946C496.311 373.506 488.784 371.785 481.472 371.785C475.881 371.785 470.935 372.86 466.849 374.796C466.204 375.011 465.558 375.441 464.913 375.871L425.343 398.667L422.118 400.602L385.989 421.463C382.978 423.183 380.182 425.764 378.892 428.344C377.817 430.28 377.171 432.215 377.171 434.366C376.956 440.172 380.827 445.979 387.709 450.065C393.515 453.505 401.042 455.226 408.354 455.226C413.945 455.226 418.892 454.151 422.978 452.215C423.623 452 424.268 451.57 424.913 451.14L464.483 428.344L467.709 426.409L503.838 405.549C506.849 403.828 509.644 401.247 510.935 398.667C512.01 396.731 512.655 394.796 512.655 392.645C512.87 386.624 508.999 380.817 502.117 376.946Z" fill="black"/>
<path opacity="0.070909" d="M500.827 377.807C495.236 374.581 487.924 372.645 480.612 372.645C475.236 372.645 470.29 373.721 466.419 375.656C465.774 375.871 465.128 376.301 464.483 376.731L425.989 398.882L422.763 400.817L387.494 421.247C384.913 422.753 381.688 425.548 380.397 427.699C379.322 429.634 378.677 431.57 378.462 433.505C378.032 439.097 381.688 444.903 388.569 448.774C394.161 452 401.473 453.936 408.784 453.936C414.161 453.936 419.107 452.86 422.978 450.925C423.623 450.71 424.268 450.28 424.913 449.85L463.408 427.699L466.634 425.763L501.903 405.333C504.483 403.828 507.709 401.032 508.999 398.882C510.075 396.946 510.72 395.226 510.935 393.075C511.15 387.269 507.709 381.677 500.827 377.807Z" fill="black"/>
<path opacity="0.096364" d="M499.537 378.667C493.945 375.441 486.849 373.72 479.967 373.72C474.806 373.72 470.074 374.796 466.203 376.516C465.773 376.731 464.913 377.161 464.483 377.591L427.064 399.097L423.838 400.817L389.644 420.602C387.279 421.892 383.838 424.903 382.763 426.839C381.687 428.559 380.827 430.495 380.612 432.43C379.967 437.806 383.408 443.398 390.074 447.269C395.666 450.495 402.763 452.215 409.644 452.215C414.806 452.215 419.537 451.14 423.408 449.419C423.838 449.204 424.698 448.774 425.343 448.344L462.763 426.839L465.988 425.118L500.182 405.333C502.547 404.043 505.988 401.032 507.064 399.097C508.139 397.376 508.999 395.441 509.214 393.505C509.644 388.129 506.203 382.538 499.537 378.667Z" fill="black"/>
<path opacity="0.1218" d="M498.247 379.742C492.87 376.731 485.989 375.011 479.107 375.011C474.161 375.011 469.429 376.086 465.558 377.807C465.128 378.022 464.268 378.452 463.838 378.667L427.494 399.742L424.483 401.463L391.15 420.602C388.999 421.893 385.344 424.903 384.268 426.409C383.193 428.129 382.333 429.85 381.903 431.57C381.042 436.731 384.268 442.323 390.935 445.979C396.311 448.989 403.193 450.71 410.075 450.71C415.021 450.71 419.752 449.635 423.623 447.914C424.053 447.699 424.913 447.269 425.343 447.054L461.688 425.979L464.698 424.258L498.032 405.118C500.182 403.828 503.838 400.817 504.913 399.312C505.989 397.592 506.849 395.871 507.279 394.151C507.924 388.774 504.698 383.398 498.247 379.742Z" fill="black"/>
<path opacity="0.1473" d="M496.956 380.602C491.795 377.591 484.913 375.871 478.461 376.086C473.515 376.086 468.999 377.161 465.343 378.882C464.913 379.097 464.053 379.527 463.623 379.742L428.354 400.172L425.343 401.892L393.085 420.602C391.365 421.677 387.279 424.688 386.203 426.193C385.128 427.914 384.053 429.419 383.838 431.14C382.762 436.086 385.773 441.462 392.225 445.118C397.386 448.129 404.268 449.849 410.719 449.634C415.666 449.634 420.182 448.559 423.838 446.839C424.268 446.623 425.128 446.193 425.558 445.978L460.827 425.548L463.838 423.828L496.096 405.118C497.816 404.043 501.902 401.032 502.977 399.527C504.053 397.806 505.128 396.301 505.343 394.581C506.418 389.634 503.407 384.258 496.956 380.602Z" fill="black"/>
<path opacity="0.1727" d="M495.665 381.462C490.504 378.451 484.053 376.946 477.601 376.946C472.87 376.946 468.569 378.021 464.913 379.742C464.698 379.957 463.622 380.387 463.192 380.602L428.999 400.387L426.203 402.107L394.805 420.172C393.3 421.032 388.999 424.258 388.139 425.333C387.063 426.838 385.988 428.344 385.558 430.064C384.268 434.795 387.063 440.172 393.515 443.828C398.676 446.838 405.128 448.344 411.58 448.344C416.311 448.344 420.612 447.269 424.268 445.548C424.483 445.333 425.558 444.903 425.988 444.688L460.182 424.903L462.977 423.183L494.375 405.118C495.881 404.258 500.182 401.032 501.042 399.957C502.117 398.451 503.192 396.946 503.622 395.226C504.698 390.279 501.902 385.118 495.665 381.462Z" fill="black"/>
<path opacity="0.1982" d="M494.375 382.323C489.429 379.527 482.978 378.021 476.956 378.021C472.44 378.021 468.139 379.097 464.698 380.817C464.483 381.032 463.408 381.462 463.193 381.677L430.074 400.817L427.279 402.538L396.956 419.957C395.666 420.602 390.935 424.043 390.29 424.903C389.214 426.409 387.924 427.699 387.494 429.204C385.989 433.72 388.569 438.882 394.806 442.538C399.752 445.333 406.204 446.839 412.225 446.839C416.741 446.839 421.042 445.763 424.483 444.043C424.698 443.828 425.773 443.398 425.988 443.183L459.107 424.043L461.902 422.322L492.225 404.903C493.515 404.258 498.246 400.817 498.892 399.957C499.967 398.452 501.257 397.161 501.687 395.656C503.193 391.14 500.612 385.978 494.375 382.323Z" fill="black"/>
<path opacity="0.2236" d="M493.085 383.398C488.354 380.602 482.118 379.312 476.311 379.312C471.795 379.312 467.709 380.387 464.483 382.108C464.268 382.108 463.193 382.753 462.978 382.968L430.935 401.463L428.139 402.968L398.892 419.957C398.032 420.387 392.655 423.828 392.44 424.473C390.935 425.764 390.075 427.054 389.43 428.559C387.709 432.86 390.29 437.807 396.311 441.462C401.042 444.258 407.279 445.549 413.085 445.549C417.602 445.549 421.688 444.473 424.913 442.753C425.128 442.753 426.204 442.108 426.419 441.893L458.462 423.398L461.257 421.893L490.505 404.903C491.365 404.473 496.741 401.032 496.956 400.387C498.462 399.097 499.322 397.807 499.967 396.301C501.472 391.785 499.107 386.839 493.085 383.398Z" fill="black"/>
<path opacity="0.2491" d="M491.795 384.258C487.064 381.677 481.257 380.172 475.451 380.387C471.15 380.387 467.279 381.462 464.053 382.968C463.838 382.968 462.763 383.613 462.548 383.828L431.365 401.677L428.784 403.183L400.397 419.527C399.752 419.957 394.161 423.398 393.946 423.828C392.44 424.903 391.365 426.193 390.72 427.484C388.784 431.57 391.15 436.516 397.172 439.957C401.903 442.538 407.709 444.043 413.516 443.828C417.817 443.828 421.688 442.753 424.913 441.247C425.129 441.247 426.204 440.602 426.419 440.387L457.387 422.538L459.967 421.032L488.354 404.688C488.999 404.258 494.591 400.817 494.806 400.387C496.311 399.312 497.387 398.021 498.032 396.731C499.967 392.645 497.817 387.699 491.795 384.258Z" fill="black"/>
<path opacity="0.2745" d="M490.504 385.118C485.988 382.538 480.182 381.247 474.805 381.247C470.719 381.247 466.848 382.323 463.838 383.828C463.838 383.828 462.547 384.473 462.547 384.688L432.44 402.108L429.859 403.613L402.547 419.527C402.332 419.742 396.311 423.183 396.096 423.398C394.59 424.473 393.515 425.548 392.87 426.839C390.719 430.71 392.87 435.441 398.676 438.882C403.192 441.462 408.999 442.753 414.375 442.753C418.461 442.753 422.332 441.677 425.343 440.172C425.343 440.172 426.633 439.527 426.633 439.312L456.741 421.892L459.321 420.387L486.633 404.473C486.848 404.258 492.87 400.817 493.085 400.602C494.59 399.527 495.665 398.452 496.311 397.161C498.461 393.29 496.311 388.559 490.504 385.118Z" fill="black"/>
<path opacity="0.3" d="M425.558 438.882L458.247 419.957L490.935 401.033C497.601 397.162 496.741 390.495 488.999 386.194C481.472 381.893 469.859 381.248 463.193 385.119L430.505 404.043L397.816 422.968C391.15 426.839 392.01 433.506 399.752 437.807C407.279 442.108 418.892 442.538 425.558 438.882Z" fill="black"/>
</g>
<path d="M421.258 436.731L502.333 389.849C510.505 385.118 509.429 376.946 499.967 371.355C490.505 365.978 476.311 365.333 467.924 370.064L386.849 416.946C378.677 421.677 379.752 429.849 389.215 435.441C398.892 440.817 413.086 441.462 421.258 436.731Z" fill="url(#paint7_linear)"/>
<path d="M389.429 433.075C398.892 438.451 413.085 439.097 421.472 434.365L502.548 387.484C505.773 385.548 507.709 383.183 507.924 380.602C508.354 384.043 506.634 387.269 502.548 389.634L421.472 436.516C413.3 441.247 398.892 440.602 389.429 435.226C383.838 432 381.257 427.699 381.688 423.828C382.118 427.054 384.698 430.494 389.429 433.075Z" fill="url(#paint8_radial)"/>
<path d="M484.053 246.624C484.698 246.624 485.128 246.194 485.128 245.548V241.247C485.128 240.602 484.698 240.172 484.053 240.172C483.408 240.172 482.977 240.602 482.977 241.247V245.548C482.977 246.194 483.408 246.624 484.053 246.624ZM484.053 238.022C484.698 238.022 485.128 237.591 485.128 236.946V232.645C485.128 232 484.698 231.57 484.053 231.57C483.408 231.57 482.977 232 482.977 232.645V236.946C482.977 237.591 483.408 238.022 484.053 238.022ZM484.053 229.419C484.698 229.419 485.128 228.989 485.128 228.344V224.043C485.128 223.398 484.698 222.968 484.053 222.968C483.408 222.968 482.977 223.398 482.977 224.043V228.344C482.977 228.989 483.408 229.419 484.053 229.419ZM484.053 220.817C484.698 220.817 485.128 220.387 485.128 219.742V215.441C485.128 214.796 484.698 214.366 484.053 214.366C483.408 214.366 482.977 214.796 482.977 215.441V219.742C482.977 220.387 483.408 220.817 484.053 220.817ZM484.053 212.215C484.698 212.215 485.128 211.785 485.128 211.14V206.839C485.128 206.194 484.698 205.764 484.053 205.764C483.408 205.764 482.977 206.194 482.977 206.839V211.14C482.977 211.785 483.408 212.215 484.053 212.215ZM484.053 203.613C484.698 203.613 485.128 203.183 485.128 202.538V198.237C485.128 197.591 484.698 197.161 484.053 197.161C483.408 197.161 482.977 197.591 482.977 198.237V202.538C482.977 203.183 483.408 203.613 484.053 203.613ZM484.053 195.011C484.698 195.011 485.128 194.581 485.128 193.936V189.634C485.128 188.989 484.698 188.559 484.053 188.559C483.408 188.559 482.977 188.989 482.977 189.634V193.936C482.977 194.581 483.408 195.011 484.053 195.011ZM484.053 186.409C484.698 186.409 485.128 185.979 485.128 185.333V181.032C485.128 180.387 484.698 179.957 484.053 179.957C483.408 179.957 482.977 180.387 482.977 181.032V185.333C482.977 185.979 483.408 186.409 484.053 186.409ZM484.053 177.807C484.698 177.807 485.128 177.376 485.128 176.731V172.43C485.128 171.785 484.698 171.355 484.053 171.355C483.408 171.355 482.977 171.785 482.977 172.43V176.731C482.977 177.376 483.408 177.807 484.053 177.807ZM484.053 169.204C484.698 169.204 485.128 168.774 485.128 168.129V163.828C485.128 163.183 484.698 162.753 484.053 162.753C483.408 162.753 482.977 163.183 482.977 163.828V168.129C482.977 168.774 483.408 169.204 484.053 169.204ZM484.053 160.602C484.698 160.602 485.128 160.172 485.128 159.527V155.226C485.128 154.581 484.698 154.151 484.053 154.151C483.408 154.151 482.977 154.581 482.977 155.226V159.527C482.977 160.172 483.408 160.602 484.053 160.602ZM484.053 152C484.698 152 485.128 151.57 485.128 150.925V146.624C485.128 145.979 484.698 145.549 484.053 145.549C483.408 145.549 482.977 145.979 482.977 146.624V150.925C482.977 151.57 483.408 152 484.053 152ZM484.053 143.398C484.698 143.398 485.128 142.968 485.128 142.323V138.022C485.128 137.376 484.698 136.946 484.053 136.946C483.408 136.946 482.977 137.376 482.977 138.022V142.323C482.977 142.968 483.408 143.398 484.053 143.398ZM484.053 134.796C484.698 134.796 485.128 134.366 485.128 133.721V129.42C485.128 128.774 484.698 128.344 484.053 128.344C483.408 128.344 482.977 128.774 482.977 129.42V133.721C482.977 134.366 483.408 134.796 484.053 134.796Z" fill="#FF5353" fill-opacity="0.8"/>
<path d="M219.967 188.775L198.247 201.248C197.387 201.678 195.881 201.678 195.021 201.248C194.161 200.818 194.161 199.957 195.021 199.312L216.741 186.839C217.602 186.409 219.107 186.409 219.967 186.839C221.042 187.484 221.042 188.345 219.967 188.775ZM200.612 202.538L222.333 190.065C223.193 189.635 224.698 189.635 225.559 190.065C226.419 190.495 226.419 191.355 225.559 192L203.838 204.474C202.978 204.904 201.473 204.904 200.612 204.474C199.752 204.043 199.752 203.183 200.612 202.538ZM205.989 205.764L227.709 193.291C228.569 192.861 230.075 192.861 230.935 193.291C231.795 193.721 231.795 194.581 230.935 195.226L209.214 207.699C208.354 208.13 206.849 208.13 205.989 207.699C205.128 207.054 205.128 206.194 205.989 205.764Z" fill="white" fill-opacity="0.8"/>
<g opacity="0.5">
<path opacity="0.02" d="M310.29 453.505L467.279 362.968L165.989 188.129L9.00027 278.667L310.29 453.505Z" fill="black"/>
<path opacity="0.045455" d="M309.645 451.57L464.483 362.323L166.849 189.42L12.0107 278.882L309.645 451.57Z" fill="black"/>
<path opacity="0.070909" d="M309 449.634L461.688 361.462L167.71 190.925L15.0218 279.097L309 449.634Z" fill="black"/>
<path opacity="0.096364" d="M308.57 447.699L458.892 360.817L168.57 192.43L18.2474 279.312L308.57 447.699Z" fill="black"/>
<path opacity="0.1218" d="M307.925 445.763L456.097 360.172L169.645 193.936L21.2585 279.527L307.925 445.763Z" fill="black"/>
<path opacity="0.1473" d="M307.279 443.828L453.301 359.527L170.505 195.226L24.4841 279.742L307.279 443.828Z" fill="black"/>
<path opacity="0.1727" d="M306.634 441.892L450.505 358.882L171.365 196.731L27.4946 279.742L306.634 441.892Z" fill="black"/>
<path opacity="0.1982" d="M305.989 439.957L447.709 358.236L172.226 198.236L30.5056 279.957L305.989 439.957Z" fill="black"/>
<path opacity="0.2236" d="M305.559 438.021L444.914 357.591L173.086 199.742L33.7312 280.172L305.559 438.021Z" fill="black"/>
<path opacity="0.2491" d="M304.914 436.086L442.118 356.731L173.946 201.032L36.7421 280.387L304.914 436.086Z" fill="black"/>
<path opacity="0.2745" d="M304.269 434.15L439.322 356.086L175.022 202.538L39.7528 280.602L304.269 434.15Z" fill="black"/>
<path opacity="0.3" d="M303.623 432.215L436.526 355.44L175.881 204.043L42.9784 280.817L303.623 432.215Z" fill="black"/>
</g>
<path d="M308.355 427.699L459.752 340.172L167.71 170.71L16.097 258.237L308.355 427.699Z" fill="url(#paint9_linear)"/>
<path d="M50.5056 278.237L201.903 190.71L160.828 166.624L9.21534 254.151L50.5056 278.237Z" fill="url(#paint10_linear)"/>
<path d="M303.193 401.677L345.344 377.376C349.43 375.011 349 370.925 344.269 368.129C339.537 365.333 332.441 365.118 328.355 367.484L286.204 391.785C282.118 394.15 282.548 398.236 287.279 401.032C292.011 403.828 299.107 404.043 303.193 401.677Z" fill="url(#paint11_linear)"/>
<path d="M359.323 351.14C355.237 353.506 355.237 357.162 359.323 359.527C363.194 361.893 369.86 361.893 373.731 359.527L413.516 336.516C417.602 334.151 417.602 330.495 413.516 328.129C409.645 325.764 402.978 325.764 399.107 328.129L359.323 351.14ZM358.032 350.28L397.817 327.269C402.548 324.473 410.29 324.473 415.021 327.269C419.753 330.065 419.753 334.366 415.021 337.162L375.237 360.172C370.505 362.968 362.763 362.968 358.032 360.172C353.086 357.592 353.086 353.076 358.032 350.28Z" fill="url(#paint12_linear)"/>
<path d="M98.1612 286.774L122.677 300.968L147.623 286.559L123.107 272.366L98.1612 286.774ZM94.0751 286.774L123.107 270L151.709 286.559L122.677 303.333L94.0751 286.774Z" fill="white" fill-opacity="0.8"/>
<path d="M146.011 253.892L195.688 225.075L193.752 224L144.075 252.602L146.011 253.892Z" fill="white" fill-opacity="0.8"/>
<path d="M251.796 388.774L393.731 306.839L393.086 306.409L251.365 388.344L251.796 388.774Z" fill="white" fill-opacity="0.8"/>
<path d="M151.817 257.118L201.494 228.516L199.559 227.226L149.666 256.043L151.817 257.118Z" fill="white" fill-opacity="0.8"/>
<path d="M173.967 251.096L207.301 231.741L205.365 230.666L171.817 250.021L173.967 251.096Z" fill="white" fill-opacity="0.8"/>
<path d="M144.161 312.774L168.677 326.968L193.623 312.559L169.107 298.366L144.161 312.774ZM140.075 312.774L169.107 296L197.709 312.559L168.677 329.333L140.075 312.774Z" fill="white" fill-opacity="0.8"/>
<path d="M180.613 297.161L230.29 268.344L228.355 267.269L178.677 295.871L180.613 297.161Z" fill="white" fill-opacity="0.8"/>
<path d="M186.419 300.387L236.097 271.785L234.161 270.495L184.484 299.312L186.419 300.387Z" fill="white" fill-opacity="0.8"/>
<path d="M208.57 294.366L242.118 275.011L239.968 273.936L206.634 293.29L208.57 294.366Z" fill="white" fill-opacity="0.8"/>
<path d="M199.162 344.774L223.678 358.968L248.624 344.559L224.108 330.366L199.162 344.774ZM195.076 344.774L224.108 328L252.71 344.559L223.678 361.333L195.076 344.774Z" fill="white" fill-opacity="0.8"/>
<path d="M249.011 316.892L298.688 288.075L296.753 287L247.076 315.602L249.011 316.892Z" fill="white" fill-opacity="0.8"/>
<path d="M254.817 320.118L304.495 291.516L302.559 290.226L252.882 319.043L254.817 320.118Z" fill="white" fill-opacity="0.8"/>
<path d="M276.967 314.097L310.301 294.957L308.365 293.667L275.032 313.021L276.967 314.097Z" fill="white" fill-opacity="0.8"/>
<path d="M239.011 284.43L272.344 265.29L270.409 264L237.075 283.355L239.011 284.43Z" fill="white" fill-opacity="0.8"/>
<path d="M217.129 220.548C220.57 218.613 220.57 215.387 217.129 213.452C213.688 211.516 208.097 211.516 204.656 213.452C201.215 215.387 201.215 218.613 204.656 220.548C208.097 222.699 213.688 222.699 217.129 220.548ZM205.516 213.882C208.527 212.161 213.258 212.161 216.269 213.882C219.28 215.602 219.28 218.398 216.269 220.118C213.258 221.839 208.527 221.839 205.516 220.118C202.506 218.398 202.721 215.602 205.516 213.882Z" fill="white" fill-opacity="0.8"/>
<path d="M209.602 217.752H207.882C207.236 217.752 206.591 217.537 206.591 217.107C206.591 216.677 207.236 216.462 207.882 216.462H209.602V215.387C209.602 214.957 210.247 214.742 210.892 214.742C211.537 214.742 212.183 214.957 212.183 215.387V216.462H213.903C214.548 216.462 215.193 216.677 215.193 217.107C215.193 217.322 214.978 217.537 214.763 217.537C214.548 217.752 214.118 217.752 213.903 217.752H212.183V218.828C212.183 219.043 211.968 219.258 211.753 219.258C211.538 219.473 211.107 219.473 210.892 219.473C210.247 219.473 209.602 219.258 209.602 218.828V217.752Z" fill="white" fill-opacity="0.8"/>
<path d="M274.129 255.548C277.57 253.613 277.57 250.387 274.129 248.452C270.688 246.516 265.097 246.516 261.656 248.452C258.215 250.387 258.215 253.613 261.656 255.548C265.097 257.699 270.688 257.699 274.129 255.548ZM262.517 249.097C265.527 247.376 270.258 247.376 273.269 249.097C276.28 250.817 276.28 253.613 273.269 255.333C270.258 257.054 265.527 257.054 262.517 255.333C259.721 253.398 259.721 250.602 262.517 249.097Z" fill="white" fill-opacity="0.8"/>
<path d="M266.603 252.752H264.882C264.237 252.752 263.592 252.537 263.592 252.107C263.592 251.677 264.237 251.462 264.882 251.462H266.603V250.387C266.603 249.957 267.248 249.742 267.893 249.742C268.538 249.742 269.184 249.957 269.184 250.387V251.462H270.904C271.549 251.462 272.194 251.677 272.194 252.107C272.194 252.322 271.979 252.537 271.764 252.537C271.549 252.537 271.119 252.752 270.904 252.752H269.184V253.828C269.184 254.043 268.968 254.258 268.753 254.258C268.538 254.473 268.108 254.473 267.893 254.473C267.248 254.473 266.603 254.258 266.603 253.828V252.752Z" fill="white" fill-opacity="0.8"/>
<path d="M320.129 284.548C323.57 282.613 323.57 279.387 320.129 277.452C316.688 275.516 311.097 275.516 307.656 277.452C304.215 279.387 304.215 282.613 307.656 284.548C311.097 286.484 316.688 286.484 320.129 284.548ZM308.516 277.882C311.527 276.161 316.258 276.161 319.269 277.882C322.28 279.602 322.28 282.398 319.269 284.118C316.258 285.839 311.527 285.839 308.516 284.118C305.721 282.398 305.721 279.602 308.516 277.882Z" fill="white" fill-opacity="0.8"/>
<path d="M312.602 281.752H310.881C310.236 281.752 309.591 281.537 309.591 281.107C309.591 280.677 310.236 280.462 310.881 280.462H312.602V279.387C312.602 278.957 313.247 278.742 313.892 278.742C314.537 278.742 315.183 278.957 315.183 279.387V280.462H316.903C317.548 280.462 318.193 280.677 318.193 281.107C318.193 281.322 317.978 281.537 317.763 281.537C317.548 281.752 317.118 281.752 316.903 281.752H315.183V282.828C315.183 283.043 314.968 283.258 314.752 283.258C314.537 283.473 314.107 283.473 313.892 283.473C313.247 283.473 312.602 283.258 312.602 282.828V281.752Z" fill="white" fill-opacity="0.8"/>
<path d="M41.9049 250.581L61.0447 239.613L59.1092 237.247C58.8941 237.032 58.8941 236.602 59.3242 236.387L64.9157 233.161C65.3458 232.946 66.2059 232.946 66.6361 233.161C67.0662 233.376 67.0662 233.806 66.6361 234.021L61.6898 236.817L72.8727 250.366C73.0877 250.581 73.0876 251.011 72.6575 251.226L70.9371 252.301C71.1522 252.301 71.1522 252.301 71.3673 252.301C73.0877 252.301 74.3779 253.161 74.3779 254.021C74.3779 255.097 73.0877 255.742 71.3673 255.742C69.6468 255.742 68.3565 254.882 68.3565 254.021V253.806L64.4855 255.957C64.7006 255.957 64.7006 255.957 64.9157 255.957C66.6361 255.957 67.9263 256.817 67.9263 257.677C67.9263 258.753 66.6361 259.398 64.9157 259.398C63.1952 259.398 61.9049 258.538 61.9049 257.677V257.462L61.0447 257.892C60.6146 258.107 59.7543 258.107 59.3242 257.892C58.8941 257.677 58.8941 257.247 59.3242 257.032L70.507 250.581L68.1415 247.785L54.378 255.742C53.5178 256.172 52.2275 256.387 51.3673 255.957L42.55 252.731C40.8296 252.301 40.6146 251.226 41.9049 250.581Z" fill="white" fill-opacity="0.95"/>
<path d="M429.823 403.318L447.065 393.762L445.321 391.701C445.127 391.513 445.127 391.138 445.515 390.951L450.552 388.141C450.939 387.953 451.714 387.953 452.102 388.141C452.489 388.328 452.489 388.703 452.102 388.89L447.646 391.326L457.72 403.13C457.913 403.318 457.913 403.692 457.526 403.88L455.976 404.817C456.17 404.817 456.17 404.817 456.364 404.817C457.913 404.817 459.076 405.566 459.076 406.316C459.076 407.253 457.913 407.815 456.364 407.815C454.814 407.815 453.651 407.065 453.651 406.316V406.128L450.164 408.002C450.358 408.002 450.358 408.002 450.552 408.002C452.102 408.002 453.264 408.752 453.264 409.501C453.264 410.438 452.102 411 450.552 411C449.002 411 447.84 410.251 447.84 409.501V409.314L447.065 409.688C446.677 409.876 445.902 409.876 445.515 409.688C445.127 409.501 445.127 409.126 445.515 408.939L455.589 403.318L453.458 400.882L441.059 407.815C440.284 408.189 439.122 408.377 438.347 408.002L430.404 405.191C428.854 404.817 428.661 403.88 429.823 403.318Z" fill="white" fill-opacity="0.95"/>
<path d="M44.2698 250.796C48.3558 253.161 55.2375 253.161 59.3236 250.796C63.4096 248.43 63.6246 244.559 59.3236 241.979C55.2375 239.613 48.3558 239.613 44.2698 241.979C40.1838 244.344 40.1838 248.43 44.2698 250.796Z" fill="#DA0000"/>
<path d="M54.1167 246.041C54.6505 245.749 54.9174 245.604 54.8322 245.13C54.9534 244.718 54.6617 244.184 54.3096 243.856C53.9575 243.529 53.6054 243.201 53.1927 243.08C52.78 242.959 52.4278 242.632 51.9545 242.717C51.5418 242.596 51.0686 242.681 50.4495 242.499C49.9763 242.584 49.2967 242.609 48.8235 242.694C48.0833 242.925 47.61 243.011 47.2825 243.363C46.955 243.715 46.6276 244.067 46.7733 244.334L48.5698 245.085C48.6304 244.879 48.691 244.673 49.0185 244.32C49.2854 244.175 49.5523 244.029 50.0255 243.944C50.4988 243.858 50.9721 243.773 51.3848 243.894C51.7975 244.016 52.2102 244.137 52.5623 244.464C52.9144 244.792 53.0602 245.059 52.7328 245.411C52.6722 245.617 52.1384 245.909 51.4587 245.933L50.9855 246.018L52.0419 247.001L52.5151 246.916C52.9883 246.83 53.668 246.806 54.0807 246.927C54.4934 247.048 54.9062 247.169 55.2583 247.497C55.6104 247.824 55.5497 248.031 55.4892 248.237C55.4286 248.443 55.1617 248.589 54.6884 248.674C54.2152 248.759 53.742 248.845 53.3293 248.724C52.9166 248.602 52.5039 248.481 51.8848 248.3L51.7277 249.598C51.9341 249.659 52.3468 249.78 52.5532 249.84C52.9658 249.962 53.1722 250.022 53.6455 249.937C54.0582 250.058 54.3251 249.912 54.7983 249.827C55.2716 249.742 55.4779 249.802 55.9512 249.717C56.4245 249.632 56.6914 249.486 56.9584 249.341C57.2253 249.195 57.4921 249.049 57.5527 248.843C57.6132 248.636 57.6738 248.43 57.7344 248.224C57.5886 247.957 57.4428 247.69 57.297 247.423C57.1513 247.156 56.945 247.095 56.5929 246.768C56.3865 246.707 56.0343 246.38 55.828 246.319C55.6216 246.259 55.2089 246.137 55.0025 246.077C54.5293 246.162 54.323 246.102 54.1167 246.041Z" fill="white" fill-opacity="0.95"/>
<path d="M160.677 188.237H153.15C152.505 188.237 152.075 188.022 152.075 187.591C152.075 187.161 152.505 186.946 153.15 186.946H160.677V182.645C160.677 182.215 161.107 182 161.752 182C162.397 182 162.828 182.215 162.828 182.645V186.946H170.354C171 186.946 171.43 187.161 171.43 187.591C171.43 187.806 171.215 188.022 171 188.022C170.785 188.237 170.569 188.237 170.139 188.237H162.612V192.538C162.612 192.753 162.397 192.968 162.182 192.968C161.967 193.183 161.752 193.183 161.322 193.183C160.677 193.183 160.247 192.968 160.247 192.538L160.677 188.237Z" fill="#E6E7E8"/>
<path d="M308.355 425.979L457.387 338.882L459.752 340.172L308.355 427.699L9.64542 254.151L12.011 253.936L308.355 425.979Z" fill="url(#paint13_radial)"/>
<g opacity="0.5">
<path opacity="0.02" d="M167.064 336.302L327.494 243.829L263.838 207.27L103.408 299.743L167.064 336.302Z" fill="black"/>
<path opacity="0.045455" d="M167.71 335.011L325.559 243.828L263.409 208.129L105.559 299.312L167.71 335.011Z" fill="black"/>
<path opacity="0.070909" d="M168.14 333.506L323.408 243.828L262.978 209.205L107.709 298.882L168.14 333.506Z" fill="black"/>
<path opacity="0.096364" d="M168.57 332.216L321.473 243.829L262.548 210.065L109.86 298.452L168.57 332.216Z" fill="black"/>
<path opacity="0.1218" d="M168.999 330.71L319.322 243.829L262.333 211.14L111.795 297.807L168.999 330.71Z" fill="black"/>
<path opacity="0.1473" d="M169.43 329.42L317.387 244.043L261.903 212L113.946 297.377L169.43 329.42Z" fill="black"/>
<path opacity="0.1727" d="M170.075 327.914L315.452 244.044L261.473 212.861L116.097 296.947L170.075 327.914Z" fill="black"/>
<path opacity="0.1982" d="M170.505 326.624L313.301 244.044L261.043 213.936L118.247 296.517L170.505 326.624Z" fill="black"/>
<path opacity="0.2236" d="M170.935 325.119L311.365 244.043L260.613 214.796L120.183 295.871L170.935 325.119Z" fill="black"/>
<path opacity="0.2491" d="M171.366 323.613L309.43 244.044L260.398 215.872L122.334 295.441L171.366 323.613Z" fill="black"/>
<path opacity="0.2745" d="M171.796 322.323L307.279 244.043L259.968 216.732L124.484 295.011L171.796 322.323Z" fill="black"/>
<path opacity="0.3" d="M172.226 320.818L305.344 244.043L259.537 217.807L126.634 294.581L172.226 320.818Z" fill="black"/>
</g>
<path d="M165.344 321.248L314.376 235.226L263.193 205.549L113.946 291.786L165.344 321.248Z" fill="url(#paint14_linear)"/>
<path d="M153.161 284.559L177.247 298.538L201.763 284.344L177.677 270.366L153.161 284.559ZM149.075 284.559L177.677 268L205.849 284.344L177.247 300.903L149.075 284.559Z" fill="white" fill-opacity="0.8"/>
<path d="M204.01 264.462L253.042 236.075L250.892 235L202.075 263.387L204.01 264.462Z" fill="white" fill-opacity="0.8"/>
<path d="M209.602 267.688L258.634 239.516L256.699 238.226L207.667 266.613L209.602 267.688Z" fill="white" fill-opacity="0.8"/>
<path d="M231.537 261.882L264.44 242.742L262.505 241.667L229.387 260.592L231.537 261.882Z" fill="white" fill-opacity="0.8"/>
<path d="M283.913 229.548C287.354 227.613 287.354 224.387 283.913 222.452C280.473 220.516 275.096 220.516 271.655 222.452C268.215 224.387 268.215 227.613 271.655 229.548C275.096 231.484 280.688 231.484 283.913 229.548ZM272.731 223.097C275.526 221.376 280.258 221.376 283.268 223.097C286.064 224.817 286.064 227.398 283.268 229.118C280.473 230.839 275.741 230.839 272.731 229.118C269.72 227.398 269.72 224.602 272.731 223.097Z" fill="white" fill-opacity="0.8"/>
<path d="M276.602 226.752H274.881C274.236 226.752 273.591 226.537 273.591 226.107C273.591 225.677 274.236 225.462 274.881 225.462H276.602V224.387C276.602 223.957 277.247 223.742 277.892 223.742C278.537 223.742 279.183 223.957 279.183 224.387V225.462H280.903C281.548 225.462 282.193 225.677 282.193 226.107C282.193 226.322 281.978 226.537 281.763 226.537C281.548 226.752 281.333 226.752 280.903 226.752H279.183V227.828C279.183 228.043 278.967 228.258 278.752 228.258C278.537 228.473 278.322 228.473 277.892 228.473C277.247 228.473 276.602 228.258 276.602 227.828V226.752Z" fill="white" fill-opacity="0.8"/>
<path d="M197.817 143.183L286.204 194.151L386.419 136.301L298.032 85.3336L197.817 143.183ZM193.516 143.183L298.032 82.7529L390.72 136.301L286.204 196.731L193.516 143.183Z" fill="#FF5353"/>
<path d="M379.752 160.387L405.343 175.226L442.117 153.936L416.526 139.097L379.752 160.387ZM375.236 160.387L416.526 136.516L446.418 153.721L405.128 177.592L375.236 160.387Z" fill="#FF5353"/>
<path d="M335.236 185.978L360.827 200.817L397.601 179.527L372.01 164.688L335.236 185.978ZM330.934 185.978L372.225 162.107L402.117 179.312L360.827 203.183L330.934 185.978Z" fill="#FF5353"/>
<path d="M290.935 211.785L316.526 226.624L353.3 205.333L327.709 190.495L290.935 211.785ZM286.419 211.785L327.709 187.914L357.602 205.118L316.311 228.989L286.419 211.785Z" fill="#FF5353"/>
<path d="M341.688 243.183L471.58 168.344L467.494 165.979L337.817 240.817L341.688 243.183Z" fill="#FF5353"/>
<path d="M353.3 249.85L483.193 175.011L479.107 172.646L349.43 247.484L353.3 249.85Z" fill="#FF5353"/>
<path d="M426.849 221.247L495.021 181.893L490.934 179.527L422.763 218.882L426.849 221.247Z" fill="#FF5353"/>
<path d="M493.24 325.146C493.885 324.501 494.315 323.856 494.315 323.211C494.315 322.781 493.67 322.351 493.025 322.351C492.165 322.351 491.089 322.351 490.229 322.136C489.799 322.351 488.939 322.351 488.294 322.136C487.864 321.921 487.649 321.49 487.864 321.275C485.928 319.985 485.068 318.695 487.864 316.974C490.659 315.469 493.24 315.899 495.175 316.974C495.606 316.759 496.251 316.974 496.681 317.189C497.111 317.404 497.111 318.05 496.681 318.265C497.111 318.695 497.326 319.34 497.326 319.985C497.326 320.415 497.971 320.845 498.616 320.845C499.907 320.845 500.982 320.63 502.057 320.2C503.563 319.77 505.283 319.77 506.573 320.415L508.724 321.706C509.154 321.921 509.154 322.351 508.724 322.566L497.326 329.232C496.896 329.447 496.251 329.447 495.821 329.232L493.67 327.942C492.595 327.082 492.38 326.007 493.24 325.146Z" fill="#FF5353"/>
<path d="M602.806 262.247C602.591 262.032 602.161 261.817 601.946 261.602L599.151 262.032C598.72 261.602 598.29 260.957 598.075 260.527L600.441 259.667C600.226 259.237 600.226 258.806 600.441 258.161L598.075 257.301C598.29 256.871 598.72 256.226 599.151 255.796L601.946 256.226C602.161 256.011 602.376 255.796 602.806 255.581C603.022 255.366 603.452 255.366 603.667 255.151L603.022 253.645C603.882 253.43 604.742 253.215 605.602 253L607.108 254.505C607.968 254.505 608.828 254.505 609.473 254.505L610.978 253C611.839 253.215 612.699 253.43 613.559 253.645L612.914 255.151C613.344 255.366 613.559 255.366 613.774 255.581C613.989 255.796 614.419 256.011 614.634 256.226L617.43 255.796C617.86 256.226 618.29 256.871 618.505 257.301L616.14 258.161C616.355 258.591 616.355 259.022 616.14 259.667L618.505 260.527C618.29 260.957 617.86 261.602 617.43 262.032L614.634 261.602C614.419 261.817 614.204 262.032 613.774 262.247C613.559 262.462 613.129 262.462 612.914 262.677L613.559 264.183C612.699 264.398 611.839 264.613 610.978 264.828L609.473 263.323C608.613 263.323 607.753 263.323 607.108 263.323L605.602 264.828C604.742 264.613 603.882 264.398 603.022 264.183L603.667 262.677C603.452 262.677 603.022 262.462 602.806 262.247ZM610.763 260.312C612.054 259.667 612.054 258.376 610.763 257.731C609.473 257.086 607.538 257.086 606.247 257.731C604.957 258.376 604.957 259.667 606.247 260.312C607.323 261.172 609.473 261.172 610.763 260.312Z" fill="#FF5353"/>
<path d="M581.902 281.032L578.461 282.968L572.225 279.312L575.666 277.376L581.902 281.032ZM576.526 284.043L573.085 285.979L562.763 279.957L566.203 278.022L576.526 284.043ZM556.956 278.667L571.365 287.054L567.924 288.989L553.515 280.602L556.956 278.667Z" fill="#FF5353"/>
<path d="M520.397 299.957C521.903 299.097 524.053 298.882 525.989 299.097C525.343 298.021 525.774 296.731 527.279 295.871C529.429 294.58 532.87 294.58 535.021 295.871C538.892 298.021 536.311 305.118 536.311 305.118C536.311 305.118 524.053 306.623 520.182 304.258C518.247 303.183 518.247 301.247 520.397 299.957Z" fill="#FF5353"/>
<path d="M277.817 39.0969L256.096 51.57C255.236 52.0001 253.731 52.0001 252.871 51.57C252.01 51.1399 252.01 50.2797 252.871 49.6345L274.591 37.1614C275.451 36.7313 276.957 36.7313 277.817 37.1614C278.677 37.8066 278.677 38.6668 277.817 39.0969ZM258.247 53.0754L279.967 40.6023C280.828 40.1722 282.333 40.1722 283.193 40.6023C284.053 41.0324 284.053 41.8926 283.193 42.5378L261.473 55.0109C260.613 55.441 259.107 55.441 258.247 55.0109C257.387 54.3657 257.387 53.5055 258.247 53.0754ZM263.838 56.0861L285.559 43.6131C286.419 43.1829 287.924 43.1829 288.785 43.6131C289.645 44.0432 289.645 44.9034 288.785 45.5485L267.064 58.0216C266.204 58.4517 264.699 58.4517 263.838 58.0216C262.978 57.3765 262.978 56.7313 263.838 56.0861Z" fill="#FF5353"/>
<path d="M502.333 350.709L657.386 261.247C667.494 255.441 667.709 245.763 657.601 239.957L292.655 29.2044C282.548 23.398 265.989 23.398 255.666 29.2044L100.613 118.667C90.505 124.473 90.29 134.151 100.398 139.957L465.343 350.709C475.451 356.731 492.01 356.516 502.333 350.709ZM256.956 30.0647C266.419 24.6883 281.473 24.6883 290.935 30.0647L655.881 240.817C665.128 246.193 665.128 255.011 655.881 260.387L500.827 349.849C491.365 355.226 476.311 355.226 466.849 349.849L101.903 139.097C92.6557 133.72 92.6557 124.903 101.903 119.527L256.956 30.0647Z" fill="#FF5353"/>
<path d="M129.645 129.419C129.645 130.064 130.505 130.71 131.795 130.71C132.871 130.71 133.946 130.064 133.946 129.419C133.946 128.774 133.086 128.129 131.795 128.129C130.505 128.344 129.645 128.774 129.645 129.419Z" fill="#FF5353"/>
<path d="M132.871 119.742C133.086 119.742 133.086 119.742 133.301 119.742V121.033C133.086 121.033 133.086 121.033 132.871 121.033C124.269 121.033 117.172 125.119 117.172 130.065H115.021C115.021 124.473 122.978 119.742 132.871 119.742Z" fill="#FF5353"/>
<path d="M132.655 124.688C132.87 124.688 132.87 124.688 133.085 124.688V125.979C132.87 125.979 132.87 125.979 132.655 125.979C128.569 125.979 125.343 127.914 125.343 130.28H123.193C123.408 127.054 127.494 124.688 132.655 124.688Z" fill="#FF5353"/>
<path d="M132.655 122.323C132.87 122.323 132.87 122.323 133.085 122.323V123.613C132.87 123.613 132.87 123.613 132.655 123.613C126.419 123.613 121.257 126.624 121.042 130.279H118.892C119.107 125.763 125.343 122.323 132.655 122.323Z" fill="#FF5353"/>
<path d="M173.086 107.269L235.667 71.14L231.58 68.7744L169 104.903L173.086 107.269Z" fill="#FF5353"/>
<path d="M465.988 275.871L527.494 240.387C535.451 235.871 535.451 228.344 527.494 223.828C519.537 219.312 506.634 219.312 498.677 223.828L437.171 259.312C429.214 263.828 429.214 271.355 437.171 275.871C445.128 280.387 458.031 280.387 465.988 275.871ZM501.042 224.903C507.709 221.032 518.676 221.032 525.343 224.903C532.01 228.774 532.01 235.011 525.343 238.882L463.838 274.365C457.171 278.236 446.203 278.236 439.537 274.365C432.87 270.494 432.87 264.258 439.537 260.387L501.042 224.903Z" fill="#FF5353"/>
<path d="M241.042 181.893C241.472 181.678 241.688 181.463 241.688 181.032C241.688 180.387 240.827 179.742 239.537 179.742H222.763V170.065C222.763 169.42 221.903 168.774 220.612 168.774C219.537 168.774 218.462 169.42 218.462 170.065V182.108H239.322C240.182 182.108 240.612 182.108 241.042 181.893Z" fill="#FF5353"/>
<path d="M365.129 110.065C365.559 109.85 365.774 109.634 365.774 109.204V97.1614H344.914C343.838 97.1614 342.763 97.8066 342.763 98.4517C342.763 99.0969 343.623 99.742 344.914 99.742H361.688V109.419C361.688 110.065 362.548 110.71 363.838 110.71C364.269 110.495 364.699 110.28 365.129 110.065Z" fill="#FF5353"/>
<path d="M493.731 82.108C493.731 83.3983 495.451 84.4736 497.817 84.4736C499.967 84.4736 501.903 83.3983 501.903 82.108C501.903 80.8177 500.182 79.7424 497.817 79.7424C495.451 79.7424 493.731 80.8177 493.731 82.108Z" fill="#FF5353" fill-opacity="0.8"/>
<path d="M480.828 89.4198C480.828 90.7101 482.548 91.7854 484.914 91.7854C487.279 91.7854 489 90.7101 489 89.4198C489 88.1295 487.279 87.0542 484.914 87.0542C482.763 87.0542 480.828 88.1295 480.828 89.4198Z" fill="#FF5353" fill-opacity="0.8"/>
<path d="M476.526 89.85L498.032 77.3768L485.129 55.8715L492.655 51.5704C493.301 51.1403 493.301 50.7102 492.655 50.2801C492.01 49.85 491.15 49.85 490.505 50.2801L481.473 55.4414L494.376 76.9467L474.161 88.5596C473.516 88.9897 473.516 89.4198 474.161 89.85C475.021 90.2801 476.096 90.2801 476.526 89.85Z" fill="#FF5353" fill-opacity="0.8"/>
<path d="M471.365 86.4087L490.935 75.0109C491.58 74.5807 491.58 74.1506 490.935 73.7205C490.29 73.2904 489.43 73.2904 488.785 73.7205L470.075 84.4732L455.666 79.0969L483.838 62.7528C484.483 62.3227 484.483 61.8926 483.838 61.4625C483.193 61.0324 482.333 61.0324 481.688 61.4625L452.01 78.4517C451.58 78.6668 451.58 78.8818 451.58 79.0969C451.58 79.3119 451.795 79.527 452.225 79.742L469.43 86.1936C469.86 86.8388 470.72 86.8388 471.365 86.4087Z" fill="#FF5353" fill-opacity="0.8"/>
<path d="M522.118 99.0969C546.419 85.1185 546.634 62.1077 522.333 48.1293C498.032 34.1508 458.677 34.1508 434.161 48.3443C409.86 62.3228 409.645 85.3335 433.946 99.312C458.247 113.29 497.817 113.29 522.118 99.0969ZM437.172 50.2798C459.968 37.1615 496.742 37.1615 519.322 50.0647C541.903 63.183 541.903 84.4733 519.107 97.5916C496.312 110.71 459.537 110.71 436.957 97.8066C414.376 84.6884 414.591 63.3981 437.172 50.2798Z" fill="#FF5353" fill-opacity="0.8"/>
<path opacity="0.4" d="M534.591 106.409C565.773 88.3448 565.988 59.0975 535.021 41.248C504.053 23.3986 453.3 23.3986 422.118 41.4631C390.935 59.5276 390.72 88.7749 421.688 106.624C452.655 124.474 503.193 124.474 534.591 106.409ZM426.419 43.8287C455.236 27.2695 501.903 27.0545 530.505 43.6136C559.107 60.1727 558.892 87.0544 530.075 103.829C501.257 120.388 454.591 120.603 425.989 104.044C397.387 87.4845 397.602 60.6028 426.419 43.8287Z" fill="#FF5353" fill-opacity="0.8"/>
<path opacity="0.1" d="M547.709 113.936C586.204 91.5702 586.419 55.4412 548.139 33.5058C509.86 11.3552 447.279 11.5703 408.569 33.7208C370.075 56.0864 369.86 92.2154 408.139 114.151C446.634 136.301 509.214 136.301 547.709 113.936ZM414.591 37.1617C449.86 16.7316 507.279 16.7316 542.333 36.9466C577.386 57.1616 577.171 90.2799 541.903 110.71C506.634 131.14 449.214 131.14 414.161 110.925C379.107 90.4949 379.322 57.3767 414.591 37.1617Z" fill="#FF5353" fill-opacity="0.8"/>
<path d="M484.053 380.387C484.698 380.387 485.128 379.957 485.128 379.312V376.731C485.128 376.086 484.698 375.656 484.053 375.656C483.408 375.656 482.977 376.086 482.977 376.731V379.312C482.977 379.957 483.408 380.387 484.053 380.387ZM484.053 373.505C484.698 373.505 485.128 373.075 485.128 372.43V368.129C485.128 367.484 484.698 367.054 484.053 367.054C483.408 367.054 482.977 367.484 482.977 368.129V372.43C482.977 373.075 483.408 373.505 484.053 373.505ZM484.053 364.903C484.698 364.903 485.128 364.473 485.128 363.828V359.527C485.128 358.882 484.698 358.451 484.053 358.451C483.408 358.451 482.977 358.882 482.977 359.527V363.828C482.977 364.473 483.408 364.903 484.053 364.903ZM484.053 356.301C484.698 356.301 485.128 355.871 485.128 355.226V350.925C485.128 350.279 484.698 349.849 484.053 349.849C483.408 349.849 482.977 350.279 482.977 350.925V355.226C482.977 355.871 483.408 356.301 484.053 356.301ZM484.053 347.699C484.698 347.699 485.128 347.269 485.128 346.623V342.322C485.128 341.677 484.698 341.247 484.053 341.247C483.408 341.247 482.977 341.677 482.977 342.322V346.623C482.977 347.269 483.408 347.699 484.053 347.699ZM484.053 339.097C484.698 339.097 485.128 338.667 485.128 338.021V333.72C485.128 333.075 484.698 332.645 484.053 332.645C483.408 332.645 482.977 333.075 482.977 333.72V338.021C482.977 338.667 483.408 339.097 484.053 339.097ZM484.053 330.494C484.698 330.494 485.128 330.064 485.128 329.419V325.118C485.128 324.473 484.698 324.043 484.053 324.043C483.408 324.043 482.977 324.473 482.977 325.118V329.419C482.977 330.064 483.408 330.494 484.053 330.494ZM484.053 321.892C484.698 321.892 485.128 321.462 485.128 320.817V316.516C485.128 315.871 484.698 315.441 484.053 315.441C483.408 315.441 482.977 315.871 482.977 316.516V320.817C482.977 321.462 483.408 321.892 484.053 321.892ZM484.053 313.29C484.698 313.29 485.128 312.86 485.128 312.215V307.914C485.128 307.269 484.698 306.839 484.053 306.839C483.408 306.839 482.977 307.269 482.977 307.914V312.215C482.977 312.86 483.408 313.29 484.053 313.29ZM484.053 304.688C484.698 304.688 485.128 304.258 485.128 303.613V299.312C485.128 298.667 484.698 298.236 484.053 298.236C483.408 298.236 482.977 298.667 482.977 299.312V303.613C482.977 304.258 483.408 304.688 484.053 304.688ZM484.053 296.086C484.698 296.086 485.128 295.656 485.128 295.011V290.71C485.128 290.064 484.698 289.634 484.053 289.634C483.408 289.634 482.977 290.064 482.977 290.71V295.011C482.977 295.656 483.408 296.086 484.053 296.086ZM484.053 287.484C484.698 287.484 485.128 287.054 485.128 286.409V282.107C485.128 281.462 484.698 281.032 484.053 281.032C483.408 281.032 482.977 281.462 482.977 282.107V286.409C482.977 287.054 483.408 287.484 484.053 287.484ZM484.053 278.882C484.698 278.882 485.128 278.452 485.128 277.806V273.505C485.128 272.86 484.698 272.43 484.053 272.43C483.408 272.43 482.977 272.86 482.977 273.505V277.806C482.977 278.452 483.408 278.882 484.053 278.882ZM484.053 270.279C484.698 270.279 485.128 269.849 485.128 269.204V264.903C485.128 264.258 484.698 263.828 484.053 263.828C483.408 263.828 482.977 264.258 482.977 264.903V269.204C482.977 269.849 483.408 270.279 484.053 270.279Z" fill="#FF5353"/>
<defs>
<linearGradient id="paint0_linear" x1="650.988" y1="356.025" x2="58.5724" y2="503.023" gradientUnits="userSpaceOnUse">
<stop stop-color="#FC2323"/>
<stop offset="0.1651" stop-color="#FC2323"/>
<stop offset="0.5" stop-color="#B10000"/>
<stop offset="0.84375" stop-color="#B90000"/>
<stop offset="0.984375" stop-color="#DA0000"/>
</linearGradient>
<linearGradient id="paint1_linear" x1="14.3197" y1="341.74" x2="646.186" y2="341.74" gradientUnits="userSpaceOnUse">
<stop stop-color="#FC2323"/>
<stop offset="1" stop-color="#FF5555"/>
</linearGradient>
<radialGradient id="paint2_radial" cx="0" cy="0" r="1" gradientUnits="userSpaceOnUse" gradientTransform="translate(372.547 411.628) rotate(180) scale(240.166)">
<stop stop-color="#DA0000"/>
<stop offset="1" stop-color="#920000"/>
</radialGradient>
<linearGradient id="paint3_linear" x1="20.6334" y1="341.74" x2="639.872" y2="341.74" gradientUnits="userSpaceOnUse">
<stop stop-color="#BF0000"/>
<stop offset="1" stop-color="#E30909"/>
</linearGradient>
<linearGradient id="paint4_linear" x1="626.973" y1="342.493" x2="79.4347" y2="479.456" gradientUnits="userSpaceOnUse">
<stop stop-color="#FC2323"/>
<stop offset="0.201383" stop-color="#B60000"/>
<stop offset="0.461804" stop-color="#FC2323"/>
<stop offset="0.60764" stop-color="#B10000"/>
<stop offset="0.84375" stop-color="#B90000"/>
<stop offset="0.984375" stop-color="#DA0000"/>
</linearGradient>
<linearGradient id="paint5_linear" x1="80.1865" y1="333.326" x2="99.0206" y2="326.802" gradientUnits="userSpaceOnUse">
<stop stop-color="#920000"/>
<stop offset="1" stop-color="#DA0000"/>
</linearGradient>
<linearGradient id="paint6_linear" x1="111.115" y1="351.182" x2="129.951" y2="344.658" gradientUnits="userSpaceOnUse">
<stop stop-color="#3D065F"/>
<stop offset="1" stop-color="#5F27BD"/>
</linearGradient>
<linearGradient id="paint7_linear" x1="509.382" y1="367.811" x2="385.188" y2="436.091" gradientUnits="userSpaceOnUse">
<stop stop-color="#BF0707"/>
<stop offset="0.1632" stop-color="#E61919"/>
<stop offset="0.4111" stop-color="#DF1616"/>
<stop offset="0.751" stop-color="#B80303"/>
<stop offset="0.9848" stop-color="#920000"/>
</linearGradient>
<radialGradient id="paint8_radial" cx="0" cy="0" r="1" gradientUnits="userSpaceOnUse" gradientTransform="translate(433.486 413.203) rotate(180) scale(49.3518)">
<stop stop-color="#FF0202"/>
<stop offset="1" stop-color="#920000"/>
</radialGradient>
<linearGradient id="paint9_linear" x1="314.155" y1="255.202" x2="237.998" y2="387.098" gradientUnits="userSpaceOnUse">
<stop stop-color="#920000"/>
<stop offset="1" stop-color="#DA0000"/>
</linearGradient>
<linearGradient id="paint10_linear" x1="181.502" y1="178.608" x2="80.9514" y2="352.751" gradientUnits="userSpaceOnUse">
<stop offset="0.0353535" stop-color="#F11919"/>
<stop offset="0.2438" stop-color="#FC2323"/>
<stop offset="0.6455" stop-color="#FC3F3F"/>
<stop offset="1" stop-color="#FF5353"/>
</linearGradient>
<linearGradient id="paint11_linear" x1="341.284" y1="369.878" x2="307.569" y2="428.339" gradientUnits="userSpaceOnUse">
<stop offset="0.0353535" stop-color="#F11919"/>
<stop offset="0.2438" stop-color="#FC2323"/>
<stop offset="0.6455" stop-color="#FC3F3F"/>
<stop offset="1" stop-color="#FF5353"/>
</linearGradient>
<linearGradient id="paint12_linear" x1="411.767" y1="329.156" x2="378.401" y2="387.127" gradientUnits="userSpaceOnUse">
<stop offset="0.0353535" stop-color="#F11919"/>
<stop offset="0.2438" stop-color="#FC2323"/>
<stop offset="0.6455" stop-color="#FC3F3F"/>
<stop offset="1" stop-color="#FF5353"/>
</linearGradient>
<radialGradient id="paint13_radial" cx="0" cy="0" r="1" gradientUnits="userSpaceOnUse" gradientTransform="translate(196.586 320.504) rotate(180) scale(171.817)">
<stop stop-color="#190000"/>
<stop offset="1" stop-color="#920000"/>
</radialGradient>
<linearGradient id="paint14_linear" x1="316.842" y1="207.017" x2="120.046" y2="315.244" gradientUnits="userSpaceOnUse">
<stop stop-color="#BF0707"/>
<stop offset="0.1632" stop-color="#E61919"/>
<stop offset="0.4111" stop-color="#DF1616"/>
<stop offset="0.751" stop-color="#B80303"/>
<stop offset="0.9848" stop-color="#920000"/>
</linearGradient>
</defs>
</svg>
