<svg width="673" height="603" viewBox="0 0 673 603" fill="none" xmlns="http://www.w3.org/2000/svg">
<path d="M337.588 527.991C329.154 527.991 321.111 526.225 315.227 522.891L53.5644 371.856C47.6799 368.522 44.5415 363.814 44.5415 358.714C44.5415 352.437 49.2491 346.357 57.2912 341.649L311.696 194.734C326.996 185.907 349.945 184.926 363.284 192.576L624.946 343.611C630.831 346.945 633.969 351.653 633.969 356.753C633.969 363.029 629.261 369.11 621.219 373.818L366.814 520.733C358.38 525.637 347.788 527.991 337.588 527.991ZM315.815 522.106C328.761 529.56 351.515 528.579 366.422 519.949L620.827 373.033C628.673 368.522 632.988 362.637 632.988 356.753C632.988 352.045 629.85 347.534 624.358 344.395L362.695 193.361C349.749 185.907 326.996 186.888 312.089 195.518L57.6834 342.434C49.8375 346.945 45.5222 352.83 45.5222 358.714C45.5222 363.422 48.6606 367.933 54.1528 371.072L315.815 522.106Z" fill="#F03030"/>
<path d="M280.116 216.506C280.116 219.644 277.566 222.194 274.428 222.194C271.289 222.194 268.739 219.644 268.739 216.506C268.739 213.368 271.289 210.818 274.428 210.818C277.566 211.014 280.116 213.368 280.116 216.506Z" fill="#F03030"/>
<path d="M80.8298 331.841C80.8298 334.98 78.2799 337.53 75.1415 337.53C72.0031 337.53 69.4531 334.98 69.4531 331.841C69.4531 328.703 72.0031 326.153 75.1415 326.153C78.2799 326.153 80.8298 328.703 80.8298 331.841Z" fill="#F03030"/>
<path d="M507.454 444.628C510.595 444.628 513.142 442.081 513.142 438.939C513.142 435.798 510.595 433.251 507.454 433.251C504.312 433.251 501.766 435.798 501.766 438.939C501.766 442.081 504.312 444.628 507.454 444.628Z" fill="#F03030"/>
<path d="M549.821 417.363C549.821 420.501 547.271 423.051 544.133 423.051C540.994 423.051 538.444 420.501 538.444 417.363C538.444 414.224 540.994 411.674 544.133 411.674C547.271 411.674 549.821 414.224 549.821 417.363Z" fill="#F03030"/>
<path d="M586.304 396.179C586.304 399.317 583.754 401.867 580.616 401.867C577.478 401.867 574.928 399.317 574.928 396.179C574.928 393.04 577.478 390.49 580.616 390.49C583.754 390.49 586.304 393.04 586.304 396.179Z" fill="#F03030"/>
<path opacity="0.3" d="M529.423 365.579L661.627 289.277C663.197 288.296 663 286.727 661.235 285.55L462.34 170.607C460.379 169.43 457.632 169.43 455.867 170.411L323.859 246.713C322.29 247.694 322.486 249.263 324.251 250.44L523.146 365.383C524.912 366.364 527.854 366.364 529.423 365.579Z" fill="#920000"/>
<path d="M322.682 201.598L328.174 202.579L455.867 128.827C457.436 127.846 460.378 128.042 462.34 129.023L652.996 239.259L662.804 241.024V244.162C662.804 244.751 662.411 245.339 661.627 245.732L529.422 322.034C527.853 323.014 524.911 322.818 522.95 321.837L324.055 206.894C323.074 206.306 322.485 205.521 322.485 204.737V201.598H322.682Z" fill="#920000"/>
<g opacity="0.8">
<path d="M322.682 201.598L328.174 202.579L455.867 128.827C457.436 127.846 460.378 128.042 462.34 129.023L652.996 239.259L662.804 241.024V244.162C662.804 244.751 662.411 245.339 661.627 245.732L529.422 322.034C527.853 323.014 524.911 322.818 522.95 321.837L324.055 206.894C323.074 206.306 322.485 205.521 322.485 204.737V201.598H322.682Z" fill="#FC2323"/>
<path d="M322.682 201.598L328.174 202.579L455.867 128.827C457.436 127.846 460.378 128.042 462.34 129.023L652.996 239.259L662.804 241.024V244.162C662.804 244.751 662.411 245.339 661.627 245.732L529.422 322.034C527.853 323.014 524.911 322.818 522.95 321.837L324.055 206.894C323.074 206.306 322.485 205.521 322.485 204.737V201.598H322.682Z" fill="#920000"/>
</g>
<path d="M324.251 204.933L523.146 319.876C525.107 321.053 527.853 321.053 529.619 320.072L661.823 243.771C662.608 243.378 663 242.79 663 242.201V242.986C663 243.574 662.608 244.163 661.823 244.555L529.619 320.857C528.05 321.838 525.107 321.642 523.146 320.661L324.251 205.718C323.27 205.129 322.682 204.345 322.682 203.56V202.775C322.682 203.56 323.27 204.345 324.251 204.933Z" fill="url(#paint0_radial)"/>
<path d="M324.251 204.933L523.146 319.876C525.107 321.053 527.853 321.053 529.619 320.072L661.823 243.771C662.608 243.378 663 242.79 663 242.201V242.986C663 243.574 662.608 244.163 661.823 244.555L529.619 320.857C528.05 321.838 525.107 321.642 523.146 320.661L324.251 205.718C323.27 205.129 322.682 204.345 322.682 203.56V202.775C322.682 203.56 323.27 204.345 324.251 204.933Z" fill="url(#paint1_radial)"/>
<path d="M324.251 204.933L523.146 319.876C525.107 321.053 527.853 321.053 529.619 320.072L661.823 243.771C662.608 243.378 663 242.79 663 242.201V242.986C663 243.574 662.608 244.163 661.823 244.555L529.619 320.857C528.05 321.838 525.107 321.642 523.146 320.661L324.251 205.718C323.27 205.129 322.682 204.345 322.682 203.56V202.775C322.682 203.56 323.27 204.345 324.251 204.933Z" fill="#920000"/>
<path d="M529.422 318.896L661.626 242.594C663.196 241.613 662.999 240.044 661.234 238.867L462.339 123.924C460.378 122.747 457.631 122.747 455.866 123.727L323.858 200.029C322.289 201.01 322.485 202.579 324.25 203.756L523.145 318.699C524.911 319.68 527.853 319.876 529.422 318.896Z" fill="#FC2323"/>
<path d="M529.422 318.896L661.626 242.594C663.196 241.613 662.999 240.044 661.234 238.867L462.339 123.924C460.378 122.747 457.631 122.747 455.866 123.727L323.858 200.029C322.289 201.01 322.485 202.579 324.25 203.756L523.145 318.699C524.911 319.68 527.853 319.876 529.422 318.896Z" fill="#920000"/>
<g opacity="0.7">
<path d="M529.422 318.896L661.626 242.594C663.196 241.613 662.999 240.044 661.234 238.867L462.339 123.924C460.378 122.747 457.631 122.747 455.866 123.727L323.858 200.029C322.289 201.01 322.485 202.579 324.25 203.756L523.145 318.699C524.911 319.68 527.853 319.876 529.422 318.896Z" fill="#FC2323"/>
<path d="M529.422 318.896L661.626 242.594C663.196 241.613 662.999 240.044 661.234 238.867L462.339 123.924C460.378 122.747 457.631 122.747 455.866 123.727L323.858 200.029C322.289 201.01 322.485 202.579 324.25 203.756L523.145 318.699C524.911 319.68 527.853 319.876 529.422 318.896Z" fill="#920000"/>
</g>
<g opacity="0.4">
<path opacity="0.5" d="M322.682 200.814L328.174 201.795L455.867 128.043C457.436 127.062 460.378 127.258 462.34 128.239L652.996 238.475L662.804 240.24V240.829C662.804 241.417 662.411 242.006 661.627 242.398L529.422 318.7C527.853 319.68 524.911 319.484 522.95 318.504L324.055 203.56C323.074 202.972 322.485 202.187 322.485 201.403V200.814H322.682Z" fill="url(#paint2_radial)"/>
<path opacity="0.7" d="M529.423 318.111L661.627 241.809C663.197 240.829 663 239.259 661.235 238.083L462.34 123.139C460.379 121.962 457.632 121.962 455.867 122.943L323.859 199.245C322.29 200.226 322.486 201.795 324.251 202.972L523.146 317.915C524.912 319.092 527.854 319.092 529.423 318.111Z" fill="url(#paint3_radial)"/>
<path opacity="0.4" d="M529.423 318.111L661.627 241.809C663.197 240.829 663 239.259 661.235 238.083L462.34 123.139C460.379 121.962 457.632 121.962 455.867 122.943L323.859 199.245C322.29 200.226 322.486 201.795 324.251 202.972L523.146 317.915C524.912 319.092 527.854 319.092 529.423 318.111Z" fill="#312A91"/>
</g>
<path opacity="0.5" d="M529.423 318.111L661.627 241.809C663.197 240.829 663 239.259 661.235 238.083L462.34 123.139C460.379 121.962 457.632 121.962 455.867 122.943L323.859 199.245C322.29 200.226 322.486 201.795 324.251 202.972L523.146 317.915C524.912 319.092 527.854 319.092 529.423 318.111Z" fill="black"/>
<path opacity="0.8" d="M529.423 318.111L661.627 241.809C663.197 240.829 663 239.259 661.235 238.083L462.34 123.139C460.379 121.962 457.632 121.962 455.867 122.943L323.859 199.245C322.29 200.226 322.486 201.795 324.251 202.972L523.146 317.915C524.912 319.092 527.854 319.092 529.423 318.111Z" fill="url(#paint4_radial)"/>
<path opacity="0.9" d="M528.637 318.111L660.842 241.809C662.607 240.828 662.999 239.651 660.449 238.082L461.555 123.139C460.77 122.55 459.593 122.354 458.612 122.354C459.985 122.354 461.162 122.55 462.339 123.335L661.234 238.082C663.196 239.259 663.392 240.828 661.626 241.809L529.422 318.111C528.441 318.699 527.264 318.895 525.891 318.699C527.068 318.699 528.049 318.503 528.637 318.111Z" fill="#920000"/>
<path d="M447.824 245.144L501.568 276.135C502.157 276.528 502.941 276.528 503.334 276.135L508.63 272.997C509.022 272.801 509.022 272.213 508.433 272.016L454.885 241.221C454.296 240.829 453.512 240.829 453.12 241.221L447.824 244.359C447.235 244.359 447.431 244.948 447.824 245.144Z" fill="#FC2323"/>
<path d="M408.201 222.195L413.301 225.137C413.889 225.529 414.674 225.529 415.066 225.137L420.362 221.998C420.755 221.802 420.755 221.214 420.166 221.018L415.066 218.075C414.478 217.683 413.693 217.683 413.301 218.075L408.005 221.214C407.613 221.41 407.613 221.802 408.201 222.195Z" fill="#FC2323"/>
<path d="M398.003 216.31L403.103 219.252C403.691 219.645 404.476 219.645 404.868 219.252L410.164 216.114C410.556 215.918 410.556 215.329 409.968 215.133L404.868 212.191C404.279 211.799 403.495 211.799 403.103 212.191L397.807 215.329C397.414 215.525 397.414 216.114 398.003 216.31Z" fill="#FC2323"/>
<path d="M407.024 211.21L412.124 214.152C412.713 214.545 413.497 214.545 413.889 214.152L419.186 211.014C419.578 210.818 419.578 210.229 418.989 210.033L413.889 207.091C413.301 206.699 412.516 206.699 412.124 207.091L406.828 210.229C406.436 210.426 406.436 210.818 407.024 211.21Z" fill="#FC2323"/>
<path d="M387.803 210.425L392.902 213.368C393.491 213.76 394.275 213.76 394.668 213.368L399.964 210.229C400.356 210.033 400.356 209.445 399.768 209.248L394.668 206.306C394.079 205.914 393.295 205.914 392.902 206.306L387.606 209.445C387.214 209.641 387.214 210.033 387.803 210.425Z" fill="#FC2323"/>
<path d="M521.383 287.512L531.19 293.2C531.779 293.592 532.563 293.592 532.955 293.2L538.251 290.062C538.644 289.866 538.644 289.277 538.055 289.081L528.248 283.393C527.659 283 526.875 283 526.483 283.393L521.186 286.531C520.794 286.727 520.794 287.316 521.383 287.512Z" fill="#FC2323"/>
<path d="M506.67 279.077L516.477 284.765C517.066 285.158 517.85 285.158 518.243 284.765L523.539 281.627C523.931 281.431 523.931 280.843 523.342 280.646L513.535 274.958C512.947 274.566 512.162 274.566 511.77 274.958L506.474 278.096C506.081 278.293 506.081 278.685 506.67 279.077Z" fill="#FC2323"/>
<path d="M432.722 236.317L442.53 242.005C443.118 242.398 443.903 242.398 444.295 242.005L449.591 238.867C449.984 238.671 449.984 238.082 449.395 237.886L439.588 232.198C438.999 231.805 438.215 231.805 437.822 232.198L432.526 235.336C432.134 235.728 432.134 236.121 432.722 236.317Z" fill="#FC2323"/>
<path d="M418.013 227.882L427.82 233.57C428.408 233.963 429.193 233.963 429.585 233.57L434.881 230.432C435.274 230.236 435.274 229.647 434.685 229.451L424.878 223.763C424.289 223.371 423.505 223.371 423.112 223.763L417.816 226.901C417.424 227.097 417.424 227.686 418.013 227.882Z" fill="#FC2323"/>
<path d="M415.854 194.145L559.043 276.92C559.632 277.312 560.416 277.312 560.808 276.92L566.104 273.781C566.497 273.585 566.497 272.997 565.908 272.801L422.72 190.026C422.131 189.633 421.347 189.633 420.954 190.026L415.658 193.164C415.266 193.36 415.266 193.949 415.854 194.145Z" fill="#FC2323"/>
<path d="M406.242 199.637L549.431 282.412C550.019 282.804 550.804 282.804 551.196 282.412L556.492 279.273C556.884 279.077 556.884 278.489 556.296 278.293L413.107 195.518C412.519 195.126 411.734 195.126 411.342 195.518L406.046 198.656C405.654 199.049 405.85 199.441 406.242 199.637Z" fill="#FC2323"/>
<path d="M417.031 217.094L540.017 288.1C540.605 288.492 541.389 288.492 541.782 288.1L547.078 284.962C547.47 284.766 547.47 284.177 546.882 283.981L423.896 212.975C423.308 212.583 422.523 212.583 422.131 212.975L416.835 216.113C416.443 216.31 416.639 216.702 417.031 217.094Z" fill="#FC2323"/>
<path d="M527.069 235.925L532.169 238.867C532.758 239.259 533.542 239.259 533.934 238.867L539.23 235.728C539.623 235.532 539.623 234.944 539.034 234.748L533.934 231.805C533.346 231.413 532.561 231.413 532.169 231.805L526.873 234.944C526.481 235.14 526.481 235.532 527.069 235.925Z" fill="#FC2323"/>
<path d="M505.101 223.175L510.201 226.117C510.79 226.51 511.574 226.51 511.967 226.117L517.263 222.979C517.655 222.783 517.655 222.194 517.066 221.998L511.967 219.056C511.378 218.664 510.594 218.664 510.201 219.056L504.905 222.194C504.513 222.39 504.513 222.979 505.101 223.175Z" fill="#FC2323"/>
<path d="M495.49 217.683L500.59 220.625C501.178 221.017 501.963 221.017 502.355 220.625L507.651 217.486C508.044 217.29 508.044 216.702 507.455 216.506L502.355 213.564C501.767 213.171 500.982 213.171 500.59 213.564L495.294 216.702C494.902 216.898 495.098 217.487 495.49 217.683Z" fill="#FC2323"/>
<path d="M485.879 212.191L490.979 215.133C491.567 215.525 492.352 215.525 492.744 215.133L498.04 211.995C498.432 211.798 498.432 211.21 497.844 211.014L492.744 208.072C492.155 207.679 491.371 207.679 490.979 208.072L485.683 211.21C485.486 211.406 485.486 211.995 485.879 212.191Z" fill="#FC2323"/>
<path d="M476.464 206.699L481.564 209.641C482.152 210.033 482.937 210.033 483.329 209.641L488.625 206.503C489.017 206.306 489.017 205.718 488.429 205.522L483.329 202.58C482.74 202.187 481.956 202.187 481.564 202.58L476.268 205.718C475.875 205.914 475.875 206.306 476.464 206.699Z" fill="#FC2323"/>
<path d="M454.495 193.949L459.595 196.891C460.183 197.283 460.968 197.283 461.36 196.891L466.656 193.753C467.048 193.556 467.048 192.968 466.46 192.772L461.36 189.83C460.772 189.437 459.987 189.437 459.595 189.83L454.299 192.968C453.906 193.164 453.907 193.753 454.495 193.949Z" fill="#FC2323"/>
<path d="M397.023 205.129L402.123 208.072C402.712 208.464 403.496 208.464 403.888 208.072L409.184 204.933C409.577 204.737 409.577 204.149 408.988 203.953L403.888 201.01C403.3 200.618 402.515 200.618 402.123 201.01L396.827 204.149C396.435 204.345 396.435 204.737 397.023 205.129Z" fill="#FC2323"/>
<path d="M444.884 188.457L449.983 191.399C450.572 191.791 451.357 191.791 451.749 191.399L457.045 188.261C457.437 188.065 457.437 187.476 456.849 187.28L451.749 184.338C451.16 183.945 450.376 183.945 449.983 184.338L444.687 187.476C444.295 187.672 444.491 188.261 444.884 188.457Z" fill="#FC2323"/>
<path d="M435.469 182.964L440.568 185.907C441.157 186.299 441.942 186.299 442.334 185.907L447.63 182.768C448.022 182.572 448.022 181.984 447.434 181.787L442.334 178.845C441.745 178.453 440.961 178.453 440.568 178.845L435.272 181.984C434.88 182.18 434.88 182.768 435.469 182.964Z" fill="#FC2323"/>
<path d="M516.279 242.006L548.251 260.051C548.84 260.444 549.624 260.444 550.017 260.051L555.313 256.913C555.705 256.717 555.705 256.128 555.117 255.932L523.144 237.887C522.556 237.494 521.771 237.494 521.379 237.887L516.083 241.025C515.691 241.221 515.887 241.613 516.279 242.006Z" fill="#FC2323"/>
<path d="M552.175 251.617L557.274 254.559C557.863 254.951 558.648 254.951 559.04 254.559L564.336 251.421C564.728 251.224 564.728 250.636 564.14 250.44L559.04 247.498C558.451 247.105 557.667 247.105 557.274 247.498L551.978 250.636C551.586 250.832 551.586 251.224 552.175 251.617Z" fill="#FC2323"/>
<path d="M526.48 236.906L547.664 249.067C548.253 249.459 549.037 249.459 549.43 249.067L554.726 245.928C555.118 245.732 555.118 245.144 554.53 244.948L533.345 232.786C532.757 232.394 531.973 232.394 531.58 232.786L526.284 235.925C525.892 236.121 525.892 236.513 526.48 236.906Z" fill="#FC2323"/>
<path d="M323.857 199.245L340.138 58.9986C340.138 58.6063 340.334 58.4101 340.334 58.214L338.961 57.6255L342.295 55.664C343.668 54.8794 345.434 54.6833 347.003 55.664L543.936 169.43C545.702 170.411 546.879 172.569 546.682 174.726L530.402 314.973C530.206 316.738 529.225 317.915 527.852 318.7L524.714 320.465L525.106 318.896C524.518 318.896 524.125 318.7 523.537 318.307L326.603 204.541C324.838 203.56 323.661 201.403 323.857 199.245Z" fill="#312A91"/>
<path opacity="0.9" d="M323.857 199.245L340.138 58.9986C340.138 58.6063 340.334 58.4101 340.334 58.214L338.961 57.6255L342.295 55.664C343.668 54.8794 345.434 54.6833 347.003 55.664L543.936 169.43C545.702 170.411 546.879 172.569 546.682 174.726L530.402 314.973C530.206 316.738 529.225 317.915 527.852 318.7L524.714 320.465L525.106 318.896C524.518 318.896 524.125 318.7 523.537 318.307L326.603 204.541C324.838 203.56 323.661 201.403 323.857 199.245Z" fill="url(#paint5_linear)"/>
<path d="M322.877 206.698L519.81 320.465C522.753 322.23 526.479 320.269 526.872 316.934L543.152 176.688C543.348 174.53 542.367 172.569 540.406 171.392L343.472 57.6252C340.53 55.8599 336.803 57.8214 336.411 61.1559L320.131 201.402C319.935 203.56 321.111 205.718 322.877 206.698Z" fill="url(#paint6_linear)"/>
<path opacity="0.8" d="M322.877 206.698L519.81 320.465C522.753 322.23 526.479 320.269 526.872 316.934L543.152 176.688C543.348 174.53 542.367 172.569 540.406 171.392L343.472 57.6252C340.53 55.8599 336.803 57.8214 336.411 61.1559L320.131 201.402C319.935 203.56 321.111 205.718 322.877 206.698Z" fill="url(#paint7_radial)"/>
<path d="M563.159 268.486L568.259 271.428C568.847 271.82 569.632 271.82 570.024 271.428L575.32 268.289C575.713 268.093 575.712 267.505 575.124 267.309L570.024 264.366C569.436 263.974 568.651 263.974 568.259 264.366L562.963 267.505C562.571 267.701 562.571 268.093 563.159 268.486Z" fill="#FC2323"/>
<path d="M572.181 263.19L577.281 266.132C577.87 266.524 578.654 266.524 579.047 266.132L584.343 262.994C584.735 262.797 584.735 262.209 584.147 262.013L579.047 259.071C578.458 258.678 577.674 258.678 577.281 259.071L571.985 262.209C571.593 262.405 571.593 262.994 572.181 263.19Z" fill="#FC2323"/>
<path d="M552.96 262.405L558.06 265.347C558.648 265.739 559.433 265.739 559.825 265.347L565.121 262.209C565.513 262.013 565.513 261.424 564.925 261.228L559.825 258.286C559.237 257.893 558.452 257.893 558.06 258.286L552.764 261.424C552.371 261.816 552.371 262.209 552.96 262.405Z" fill="#FC2323"/>
<path d="M562.178 257.109L567.277 260.051C567.866 260.443 568.65 260.443 569.043 260.051L574.339 256.913C574.731 256.717 574.731 256.128 574.143 255.932L569.043 252.99C568.454 252.597 567.67 252.597 567.277 252.99L561.981 256.128C561.589 256.324 561.589 256.913 562.178 257.109Z" fill="#FC2323"/>
<path opacity="0.3" d="M217.937 546.429L350.141 470.127C351.711 469.146 351.514 467.577 349.749 466.4L150.854 351.456C148.893 350.28 146.147 350.28 144.381 351.26L12.1768 427.562C10.6076 428.543 10.8037 430.112 12.5691 431.289L211.464 546.232C213.426 547.213 216.368 547.409 217.937 546.429Z" fill="#920000"/>
<path d="M11.1962 388.136L16.6883 389.117L144.381 315.365C145.95 314.384 148.893 314.58 150.854 315.561L341.511 425.797L351.318 427.562V430.701C351.318 431.289 350.926 431.877 350.141 432.27L217.937 508.768C216.368 509.749 213.426 509.552 211.464 508.572L12.5692 393.628C11.5884 393.04 11 392.255 11 391.471V388.136H11.1962Z" fill="#920000"/>
<g opacity="0.4">
<path opacity="0.7" d="M217.937 504.845L350.141 428.543C351.711 427.562 351.514 425.993 349.749 424.816L150.854 309.872C148.893 308.696 146.147 308.696 144.381 309.676L12.1768 385.978C10.6076 386.959 10.8037 388.528 12.5691 389.705L211.464 504.648C213.426 505.629 216.368 505.629 217.937 504.845Z" fill="#920000"/>
<path opacity="0.4" d="M217.937 504.845L350.141 428.543C351.711 427.562 351.514 425.993 349.749 424.816L150.854 309.872C148.893 308.696 146.147 308.696 144.381 309.676L12.1768 385.978C10.6076 386.959 10.8037 388.528 12.5691 389.705L211.464 504.648C213.426 505.629 216.368 505.629 217.937 504.845Z" fill="#992200"/>
</g>
<path opacity="0.5" d="M217.937 504.845L350.141 428.543C351.711 427.562 351.514 425.993 349.749 424.816L150.854 309.872C148.893 308.696 146.147 308.696 144.381 309.676L12.1768 385.978C10.6076 386.959 10.8037 388.528 12.5691 389.705L211.464 504.648C213.426 505.629 216.368 505.629 217.937 504.845Z" fill="black"/>
<path opacity="0.8" d="M217.937 504.845L350.141 428.543C351.711 427.562 351.514 425.993 349.749 424.816L150.854 309.872C148.893 308.696 146.147 308.696 144.381 309.676L12.1768 385.978C10.6076 386.959 10.8037 388.528 12.5691 389.705L211.464 504.648C213.426 505.629 216.368 505.629 217.937 504.845Z" fill="url(#paint8_radial)"/>
<path opacity="0.9" d="M217.152 504.649L349.357 428.347C351.122 427.366 351.514 426.189 348.964 424.62L150.069 309.677C149.285 309.088 148.108 308.892 147.127 308.892C148.5 308.892 149.677 309.088 150.854 309.873L349.749 424.816C351.71 425.993 351.906 427.562 350.141 428.543L217.937 504.845C216.956 505.433 215.779 505.629 214.406 505.433C215.583 505.433 216.368 505.237 217.152 504.649Z" fill="#920000"/>
<path d="M284.431 422.071L289.53 425.013C290.119 425.405 290.903 425.405 291.296 425.013L296.592 421.874C296.984 421.678 296.984 421.09 296.396 420.894L291.296 417.951C290.707 417.559 289.923 417.559 289.53 417.951L284.234 421.09C283.842 421.286 283.842 421.678 284.431 422.071Z" fill="#FF9393"/>
<path d="M159.092 404.613L212.837 435.604C213.425 435.997 214.21 435.997 214.602 435.604L219.898 432.466C220.291 432.27 220.291 431.681 219.702 431.485L165.957 400.494C165.369 400.101 164.584 400.101 164.192 400.494L158.896 403.632C158.504 403.828 158.7 404.417 159.092 404.613Z" fill="#FF9393"/>
<path d="M119.47 381.664L124.569 384.606C125.158 384.998 125.942 384.998 126.335 384.606L131.631 381.467C132.023 381.271 132.023 380.683 131.435 380.487L126.335 377.544C125.746 377.152 124.962 377.152 124.569 377.544L119.273 380.683C118.881 380.879 118.881 381.271 119.47 381.664Z" fill="#FF9393"/>
<path d="M109.27 375.779L114.37 378.722C114.959 379.114 115.743 379.114 116.136 378.722L121.432 375.583C121.824 375.387 121.824 374.799 121.235 374.602L116.136 371.66C115.547 371.268 114.763 371.268 114.37 371.66L109.074 374.799C108.682 374.995 108.682 375.583 109.27 375.779Z" fill="#FF9393"/>
<path d="M118.293 370.679L123.393 373.621C123.981 374.014 124.766 374.014 125.158 373.621L130.454 370.483C130.846 370.287 130.846 369.698 130.258 369.502L125.158 366.56C124.57 366.168 123.785 366.168 123.393 366.56L118.097 369.698C117.704 369.895 117.704 370.287 118.293 370.679Z" fill="#FF9393"/>
<path d="M99.0706 369.895L104.171 372.837C104.759 373.229 105.544 373.229 105.936 372.837L111.232 369.698C111.624 369.502 111.624 368.914 111.036 368.718L105.936 365.775C105.347 365.383 104.563 365.383 104.171 365.775L98.8745 368.914C98.4822 369.11 98.4822 369.698 99.0706 369.895Z" fill="#FF9393"/>
<path d="M232.649 446.981L242.457 452.669C243.045 453.062 243.83 453.062 244.222 452.669L249.518 449.531C249.91 449.335 249.91 448.746 249.322 448.55L239.514 442.862C238.926 442.47 238.141 442.47 237.749 442.862L232.453 446C232.061 446.196 232.061 446.785 232.649 446.981Z" fill="#FC2323"/>
<path d="M217.937 438.546L227.745 444.235C228.333 444.627 229.118 444.627 229.51 444.235L234.806 441.096C235.198 440.9 235.198 440.312 234.61 440.116L224.803 434.427C224.214 434.035 223.43 434.035 223.037 434.427L217.741 437.566C217.349 437.762 217.349 438.154 217.937 438.546Z" fill="#FC2323"/>
<path d="M143.99 395.786L153.797 401.474C154.386 401.867 155.171 401.867 155.563 401.474L160.859 398.336C161.251 398.14 161.251 397.552 160.663 397.355L150.855 391.667C150.267 391.275 149.482 391.275 149.09 391.667L143.794 394.805C143.402 395.198 143.402 395.59 143.99 395.786Z" fill="#FC2323"/>
<path d="M129.278 387.351L139.086 393.04C139.674 393.432 140.459 393.432 140.851 393.04L146.147 389.901C146.539 389.705 146.539 389.117 145.951 388.921L136.143 383.232C135.555 382.84 134.77 382.84 134.378 383.232L129.082 386.371C128.69 386.567 128.69 387.155 129.278 387.351Z" fill="#FC2323"/>
<path d="M266.975 411.87L272.075 414.812C272.664 415.205 273.448 415.205 273.841 414.812L279.137 411.674C279.529 411.478 279.529 410.889 278.941 410.693L273.841 407.751C273.252 407.359 272.468 407.359 272.075 407.751L266.779 410.889C266.387 411.086 266.387 411.674 266.975 411.87Z" fill="#FC2323"/>
<path d="M136.732 348.122L279.921 430.897C280.509 431.289 281.294 431.289 281.686 430.897L286.982 427.758C287.375 427.562 287.375 426.974 286.786 426.778L143.597 344.003C143.009 343.61 142.224 343.61 141.832 344.003L136.536 347.141C136.144 347.337 136.144 347.926 136.732 348.122Z" fill="#FC2323"/>
<path d="M127.121 353.614L270.31 436.389C270.898 436.781 271.683 436.781 272.075 436.389L277.371 433.25C277.763 433.054 277.763 432.466 277.175 432.27L133.986 349.495C133.398 349.103 132.613 349.103 132.221 349.495L126.925 352.633C126.532 352.829 126.532 353.418 127.121 353.614Z" fill="#FC2323"/>
<path d="M117.51 359.106L260.698 441.881C261.287 442.273 262.071 442.273 262.464 441.881L267.76 438.743C268.152 438.547 268.152 437.958 267.563 437.762L124.375 354.987C123.786 354.595 123.002 354.595 122.609 354.987L117.313 358.125C116.921 358.518 117.117 358.91 117.51 359.106Z" fill="#FC2323"/>
<path d="M128.298 376.564L251.283 447.569C251.872 447.962 252.656 447.962 253.048 447.569L258.344 444.431C258.737 444.235 258.737 443.646 258.148 443.45L135.163 372.444C134.574 372.052 133.79 372.052 133.398 372.444L128.102 375.583C127.709 375.779 127.905 376.171 128.298 376.564Z" fill="#FC2323"/>
<path d="M257.364 406.378L262.464 409.32C263.052 409.713 263.837 409.713 264.229 409.32L269.525 406.182C269.918 405.986 269.918 405.397 269.329 405.201L264.229 402.259C263.641 401.867 262.856 401.867 262.464 402.259L257.168 405.397C256.776 405.594 256.972 406.182 257.364 406.378Z" fill="#FC2323"/>
<path d="M247.949 400.886L253.049 403.828C253.637 404.221 254.422 404.221 254.814 403.828L260.11 400.69C260.503 400.494 260.503 399.906 259.914 399.709L254.814 396.767C254.226 396.375 253.441 396.375 253.049 396.767L247.753 399.905C247.361 400.102 247.361 400.69 247.949 400.886Z" fill="#FC2323"/>
<path d="M238.337 395.394L243.437 398.336C244.025 398.728 244.81 398.728 245.202 398.336L250.498 395.198C250.89 395.002 250.89 394.413 250.302 394.217L245.202 391.275C244.614 390.882 243.829 390.882 243.437 391.275L238.141 394.413C237.748 394.609 237.748 395.002 238.337 395.394Z" fill="#FC2323"/>
<path d="M216.368 382.644L221.468 385.587C222.056 385.979 222.841 385.979 223.233 385.587L228.529 382.448C228.921 382.252 228.921 381.664 228.333 381.467L223.233 378.525C222.645 378.133 221.86 378.133 221.468 378.525L216.172 381.664C215.78 381.86 215.78 382.448 216.368 382.644Z" fill="#FC2323"/>
<path d="M206.757 377.152L211.857 380.094C212.445 380.486 213.23 380.486 213.622 380.094L218.918 376.956C219.31 376.76 219.31 376.171 218.722 375.975L213.622 373.033C213.033 372.64 212.249 372.64 211.857 373.033L206.561 376.171C206.168 376.367 206.364 376.956 206.757 377.152Z" fill="#FC2323"/>
<path d="M197.342 371.66L202.442 374.602C203.03 374.994 203.815 374.994 204.207 374.602L209.503 371.464C209.895 371.267 209.895 370.679 209.307 370.483L204.207 367.541C203.618 367.148 202.834 367.148 202.442 367.541L197.145 370.679C196.753 370.875 196.753 371.464 197.342 371.66Z" fill="#FC2323"/>
<path d="M187.73 366.168L192.83 369.11C193.419 369.503 194.203 369.503 194.596 369.11L199.892 365.972C200.284 365.776 200.284 365.187 199.695 364.991L194.596 362.049C194.007 361.657 193.222 361.657 192.83 362.049L187.534 365.187C187.142 365.383 187.142 365.776 187.73 366.168Z" fill="#FC2323"/>
<path d="M165.762 353.418L170.862 356.36C171.45 356.753 172.235 356.753 172.627 356.36L177.923 353.222C178.316 353.026 178.316 352.437 177.727 352.241L172.627 349.299C172.039 348.907 171.254 348.907 170.862 349.299L165.566 352.437C165.174 352.633 165.174 353.222 165.762 353.418Z" fill="#FC2323"/>
<path d="M108.29 364.598L113.39 367.541C113.979 367.933 114.763 367.933 115.156 367.541L120.452 364.402C120.844 364.206 120.844 363.618 120.255 363.422L115.156 360.479C114.567 360.087 113.783 360.087 113.39 360.479L108.094 363.618C107.702 363.814 107.702 364.206 108.29 364.598Z" fill="#FC2323"/>
<path d="M156.151 347.926L161.251 350.868C161.839 351.261 162.624 351.261 163.016 350.868L168.312 347.73C168.704 347.534 168.704 346.945 168.116 346.749L163.016 343.807C162.427 343.415 161.643 343.415 161.251 343.807L155.955 346.945C155.562 347.141 155.758 347.73 156.151 347.926Z" fill="#FC2323"/>
<path d="M146.736 342.434L151.836 345.376C152.424 345.768 153.209 345.768 153.601 345.376L158.897 342.237C159.289 342.041 159.289 341.453 158.701 341.257L153.601 338.314C153.012 337.922 152.228 337.922 151.836 338.314L146.54 341.453C146.147 341.649 146.147 342.237 146.736 342.434Z" fill="#FC2323"/>
<g opacity="0.5">
<path d="M152.031 303.008L168.312 162.761C168.312 162.369 168.508 162.173 168.508 161.977L167.135 161.388L170.469 159.427C171.842 158.642 173.608 158.446 175.177 159.427L372.11 273.193C373.876 274.174 375.053 276.331 374.856 278.489L358.576 418.736C358.38 420.501 357.399 421.678 356.026 422.462L352.888 424.228L353.28 422.659C352.692 422.659 352.299 422.462 351.711 422.07L154.777 308.304C152.816 307.323 151.639 305.165 152.031 303.008Z" fill="#DA0000"/>
<path d="M152.031 303.008L168.312 162.761C168.312 162.369 168.508 162.173 168.508 161.977L167.135 161.388L170.469 159.427C171.842 158.642 173.608 158.446 175.177 159.427L372.11 273.193C373.876 274.174 375.053 276.331 374.856 278.489L358.576 418.736C358.38 420.501 357.399 421.678 356.026 422.462L352.888 424.228L353.28 422.659C352.692 422.659 352.299 422.462 351.711 422.07L154.777 308.304C152.816 307.323 151.639 305.165 152.031 303.008Z" fill="#2B2C35"/>
</g>
<path d="M152.031 303.008L168.312 162.761C168.312 162.369 168.508 162.173 168.508 161.977L167.135 161.388L170.469 159.427C171.842 158.642 173.608 158.446 175.177 159.427L372.11 273.193C373.876 274.174 375.053 276.331 374.856 278.489L358.576 418.736C358.38 420.501 357.399 421.678 356.026 422.462L352.888 424.228L353.28 422.659C352.692 422.659 352.299 422.462 351.711 422.07L154.777 308.304C152.816 307.323 151.639 305.165 152.031 303.008Z" fill="url(#paint9_linear)"/>
<path d="M150.854 310.461L347.787 424.228C350.73 425.993 354.456 424.032 354.849 420.697L371.129 280.451C371.325 278.293 370.344 276.331 368.383 275.155L171.449 161.388C168.507 159.623 164.78 161.584 164.388 164.919L148.108 305.165C147.912 307.323 149.088 309.481 150.854 310.461Z" fill="#76262F"/>
<path opacity="0.2" d="M212.838 493.076C211.661 493.861 211.661 494.842 212.838 495.626C214.015 496.411 215.976 496.411 217.153 495.626C218.33 494.842 218.33 493.861 217.153 493.076C215.976 492.292 214.015 492.292 212.838 493.076Z" fill="#FC6B6B"/>
<path opacity="0.6" d="M205.973 489.153C204.796 489.938 204.796 490.919 205.973 491.703C207.149 492.488 209.111 492.488 210.288 491.703C211.465 490.919 211.465 489.938 210.288 489.153C209.111 488.369 207.149 488.369 205.973 489.153Z" fill="#FC6B6B"/>
<path d="M199.107 485.23C197.93 486.015 197.93 486.996 199.107 487.78C200.284 488.565 202.246 488.565 203.423 487.78C204.599 486.996 204.599 486.015 203.423 485.23C202.246 484.446 200.284 484.446 199.107 485.23Z" fill="#FC6B6B"/>
<g opacity="0.2">
<path opacity="0.7" d="M296.201 277.9L334.45 300.065L327.978 355.968L289.729 333.999L296.201 277.9Z" fill="#F03030"/>
<g opacity="0.2">
<path opacity="0.2" d="M315.228 341.649L323.859 346.553L323.663 348.515L315.032 343.415L315.228 341.649Z" fill="#F03030"/>
<path opacity="0.2" d="M308.559 337.727L312.482 340.08L312.286 341.846L308.167 339.492L308.559 337.727Z" fill="#F03030"/>
<path opacity="0.2" d="M295.221 330.076L305.813 336.157L305.617 337.922L295.024 331.842L295.221 330.076Z" fill="#F03030"/>
<path opacity="0.2" d="M315.619 337.53L324.446 342.63L324.053 344.395L315.423 339.295L315.619 337.53Z" fill="#F03030"/>
<path opacity="0.2" d="M308.951 333.607L312.874 335.961L312.678 337.726L308.755 335.373L308.951 333.607Z" fill="#F03030"/>
<path opacity="0.2" d="M295.809 325.958L306.205 332.038L306.009 334L295.417 327.919L295.809 325.958Z" fill="#F03030"/>
<path opacity="0.2" d="M316.209 333.411L324.839 338.511L324.643 340.276L315.816 335.372L316.209 333.411Z" fill="#F03030"/>
<path opacity="0.2" d="M309.344 329.684L313.463 331.842L313.267 333.803L309.147 331.449L309.344 329.684Z" fill="#F03030"/>
<path opacity="0.2" d="M296.201 322.034L306.793 328.115L306.597 329.88L296.005 323.8L296.201 322.034Z" fill="#F03030"/>
<path opacity="0.2" d="M316.6 329.488L325.231 334.391L325.035 336.353L316.404 331.253L316.6 329.488Z" fill="#F03030"/>
<path opacity="0.2" d="M309.932 325.565L313.855 327.918L313.659 329.684L309.736 327.33L309.932 325.565Z" fill="#F03030"/>
<path opacity="0.2" d="M296.594 317.915L307.186 323.996L306.989 325.761L296.397 319.681L296.594 317.915Z" fill="#F03030"/>
<path opacity="0.2" d="M316.993 325.369L325.82 330.469L325.624 332.234L316.797 327.134L316.993 325.369Z" fill="#F03030"/>
<path opacity="0.2" d="M310.325 321.446L314.444 323.8L314.248 325.565L310.129 323.407L310.325 321.446Z" fill="#F03030"/>
<path opacity="0.2" d="M297.182 313.796L307.775 319.877L307.382 321.838L296.986 315.757L297.182 313.796Z" fill="#F03030"/>
<path opacity="0.2" d="M317.581 321.25L326.211 326.349L326.015 328.115L317.385 323.211L317.581 321.25Z" fill="#F03030"/>
<path opacity="0.2" d="M310.912 317.523L314.835 319.681L314.639 321.642L310.716 319.288L310.912 317.523Z" fill="#F03030"/>
<path opacity="0.2" d="M297.575 309.873L308.167 315.953L307.971 317.719L297.379 311.638L297.575 309.873Z" fill="#F03030"/>
<path opacity="0.2" d="M317.974 317.326L326.8 322.23L326.604 324.192L317.777 319.092L317.974 317.326Z" fill="#F03030"/>
<path opacity="0.2" d="M311.306 313.404L315.425 315.757L315.032 317.523L311.109 315.169L311.306 313.404Z" fill="#F03030"/>
<path opacity="0.2" d="M298.163 305.754L308.559 311.835L308.363 313.6L297.967 307.519L298.163 305.754Z" fill="#F03030"/>
<path opacity="0.2" d="M318.561 313.208L327.192 318.307L326.996 320.073L318.365 314.973L318.561 313.208Z" fill="#F03030"/>
<path opacity="0.2" d="M311.697 309.285L315.816 311.639L315.62 313.404L311.501 311.246L311.697 309.285Z" fill="#F03030"/>
<path opacity="0.2" d="M298.556 301.635L309.148 307.715L308.951 309.677L298.359 303.596L298.556 301.635Z" fill="#F03030"/>
<path opacity="0.2" d="M318.954 309.089L327.585 314.188L327.388 315.954L318.758 311.05L318.954 309.089Z" fill="#F03030"/>
<path opacity="0.2" d="M312.286 305.362L316.209 307.519L316.013 309.481L312.09 307.127L312.286 305.362Z" fill="#F03030"/>
<path opacity="0.2" d="M298.947 297.712L309.539 303.792L309.343 305.558L298.751 299.477L298.947 297.712Z" fill="#F03030"/>
<path opacity="0.2" d="M319.347 305.166L328.173 310.069L327.977 312.031L319.15 306.931L319.347 305.166Z" fill="#F03030"/>
<path opacity="0.2" d="M312.678 301.242L316.797 303.596L316.601 305.362L312.481 303.008L312.678 301.242Z" fill="#F03030"/>
<path opacity="0.2" d="M299.536 293.593L310.128 299.674L309.932 301.439L299.34 295.358L299.536 293.593Z" fill="#F03030"/>
<path opacity="0.2" d="M319.935 301.046L328.566 306.146L328.37 307.911L319.739 302.811L319.935 301.046Z" fill="#F03030"/>
<path opacity="0.2" d="M313.267 297.123L317.19 299.477L316.994 301.242L313.071 299.085L313.267 297.123Z" fill="#F03030"/>
<path opacity="0.2" d="M299.928 289.473L310.52 295.554L310.323 297.515L299.731 291.435L299.928 289.473Z" fill="#F03030"/>
<path opacity="0.2" d="M320.328 296.927L329.155 302.027L328.959 303.792L320.132 298.889L320.328 296.927Z" fill="#F03030"/>
<path opacity="0.2" d="M313.659 293.2L317.778 295.358L317.582 297.319L313.463 294.966L313.659 293.2Z" fill="#F03030"/>
<path opacity="0.2" d="M300.517 285.551L310.913 291.631L310.717 293.396L300.321 287.316L300.517 285.551Z" fill="#F03030"/>
</g>
</g>
<g opacity="0.2">
<path opacity="0.7" d="M243.438 247.301L281.687 269.466L275.018 325.565L236.769 303.4L243.438 247.301Z" fill="#F03030"/>
<g opacity="0.2">
<path opacity="0.2" d="M262.267 311.05L271.094 316.149L270.898 317.915L262.071 312.815L262.267 311.05Z" fill="#F03030"/>
<path opacity="0.2" d="M255.599 307.126L259.718 309.48L259.521 311.246L255.402 309.088L255.599 307.126Z" fill="#F03030"/>
<path opacity="0.2" d="M242.456 299.476L253.048 305.557L252.656 307.518L242.26 301.438L242.456 299.476Z" fill="#F03030"/>
<path opacity="0.2" d="M262.854 306.93L271.485 312.03L271.289 313.796L262.658 308.892L262.854 306.93Z" fill="#F03030"/>
<path opacity="0.2" d="M256.186 303.204L260.109 305.557L259.913 307.323L255.794 304.969L256.186 303.204Z" fill="#F03030"/>
<path opacity="0.2" d="M242.849 295.553L253.441 301.634L253.244 303.399L242.652 297.319L242.849 295.553Z" fill="#F03030"/>
<path opacity="0.2" d="M263.247 303.007L272.074 307.911L271.877 309.873L263.051 304.773L263.247 303.007Z" fill="#F03030"/>
<path opacity="0.2" d="M256.579 299.084L260.698 301.438L260.306 303.203L256.383 300.85L256.579 299.084Z" fill="#F03030"/>
<path opacity="0.2" d="M243.437 291.435L253.833 297.515L253.637 299.281L243.045 293.2L243.437 291.435Z" fill="#F03030"/>
<path opacity="0.2" d="M263.836 298.888L272.466 303.988L272.27 305.753L263.443 300.653L263.836 298.888Z" fill="#F03030"/>
<path opacity="0.2" d="M256.971 294.965L261.09 297.319L260.894 299.28L256.774 296.927L256.971 294.965Z" fill="#F03030"/>
<path opacity="0.2" d="M243.829 287.315L254.421 293.396L254.225 295.357L243.633 289.277L243.829 287.315Z" fill="#F03030"/>
<path opacity="0.2" d="M264.228 294.769L272.859 299.869L272.663 301.634L264.032 296.731L264.228 294.769Z" fill="#F03030"/>
<path opacity="0.2" d="M257.56 291.042L261.483 293.396L261.287 295.161L257.364 292.807L257.56 291.042Z" fill="#F03030"/>
<path opacity="0.2" d="M244.221 283.392L254.813 289.473L254.617 291.238L244.024 285.158L244.221 283.392Z" fill="#F03030"/>
<path opacity="0.2" d="M264.621 290.846L273.448 295.75L273.252 297.711L264.425 292.611L264.621 290.846Z" fill="#F03030"/>
<path opacity="0.2" d="M257.951 286.923L262.07 289.277L261.874 291.042L257.755 288.688L257.951 286.923Z" fill="#F03030"/>
<path opacity="0.2" d="M244.81 279.273L255.402 285.354L255.206 287.119L244.614 281.038L244.81 279.273Z" fill="#F03030"/>
<path opacity="0.2" d="M265.209 286.727L273.839 291.826L273.643 293.592L265.013 288.492L265.209 286.727Z" fill="#F03030"/>
<path opacity="0.2" d="M258.541 282.804L262.464 285.157L262.268 287.119L258.345 284.765L258.541 282.804Z" fill="#F03030"/>
<path opacity="0.2" d="M245.202 275.154L255.794 281.431L255.598 283.196L245.006 277.116L245.202 275.154Z" fill="#F03030"/>
<path opacity="0.2" d="M265.601 282.608L274.428 287.708L274.232 289.473L265.405 284.57L265.601 282.608Z" fill="#F03030"/>
<path opacity="0.2" d="M258.932 278.881L263.052 281.234L262.855 283L258.736 280.646L258.932 278.881Z" fill="#F03030"/>
<path opacity="0.2" d="M245.791 271.231L256.187 277.312L255.991 279.077L245.595 272.997L245.791 271.231Z" fill="#F03030"/>
<path opacity="0.2" d="M266.189 278.685L274.82 283.589L274.624 285.55L265.993 280.45L266.189 278.685Z" fill="#F03030"/>
<path opacity="0.2" d="M259.325 274.762L263.444 277.116L263.248 278.881L259.129 276.528L259.325 274.762Z" fill="#F03030"/>
<path opacity="0.2" d="M246.182 267.112L256.775 273.193L256.578 275.154L245.986 268.877L246.182 267.112Z" fill="#F03030"/>
<path opacity="0.2" d="M266.582 274.566L275.409 279.666L275.016 281.431L266.386 276.331L266.582 274.566Z" fill="#F03030"/>
<path opacity="0.2" d="M259.913 270.643L263.836 272.997L263.64 274.958L259.717 272.604L259.913 270.643Z" fill="#F03030"/>
<path opacity="0.2" d="M246.575 263.189L257.167 269.27L256.971 271.035L246.379 264.954L246.575 263.189Z" fill="#F03030"/>
<path opacity="0.2" d="M266.974 270.446L275.801 275.546L275.605 277.312L266.778 272.408L266.974 270.446Z" fill="#F03030"/>
<path opacity="0.2" d="M260.306 266.72L264.425 269.074L264.229 270.839L260.109 268.485L260.306 266.72Z" fill="#F03030"/>
<path opacity="0.2" d="M247.163 259.07L257.755 265.151L257.559 266.916L246.967 260.835L247.163 259.07Z" fill="#F03030"/>
<path opacity="0.2" d="M267.563 266.523L276.194 271.427L275.998 273.389L267.367 268.289L267.563 266.523Z" fill="#F03030"/>
<path opacity="0.2" d="M260.894 262.6L264.817 264.954L264.621 266.719L260.698 264.366L260.894 262.6Z" fill="#F03030"/>
<path opacity="0.2" d="M247.556 254.951L258.148 261.031L257.951 262.993L247.359 256.716L247.556 254.951Z" fill="#F03030"/>
</g>
</g>
<g opacity="0.2">
<path opacity="0.7" d="M190.477 216.898L228.726 239.063L222.253 294.966L184.004 272.997L190.477 216.898Z" fill="#F03030"/>
<g opacity="0.2">
<path opacity="0.2" d="M209.504 280.646L218.134 285.55L217.938 287.316L209.308 282.412L209.504 280.646Z" fill="#F03030"/>
<path opacity="0.2" d="M202.835 276.724L206.758 279.077L206.562 280.843L202.639 278.489L202.835 276.724Z" fill="#F03030"/>
<path opacity="0.2" d="M189.497 269.073L200.089 275.154L199.893 276.919L189.301 270.839L189.497 269.073Z" fill="#F03030"/>
<path opacity="0.2" d="M209.896 276.527L218.723 281.627L218.527 283.392L209.7 278.292L209.896 276.527Z" fill="#F03030"/>
<path opacity="0.2" d="M203.227 272.604L207.347 274.958L207.15 276.723L203.031 274.37L203.227 272.604Z" fill="#F03030"/>
<path opacity="0.2" d="M190.085 264.955L200.677 271.035L200.285 272.997L189.889 266.916L190.085 264.955Z" fill="#F03030"/>
<path opacity="0.2" d="M210.485 272.408L219.116 277.508L218.92 279.273L210.289 274.369L210.485 272.408Z" fill="#F03030"/>
<path opacity="0.2" d="M203.816 268.485L207.739 270.839L207.543 272.8L203.424 270.446L203.816 268.485Z" fill="#F03030"/>
<path opacity="0.2" d="M190.477 261.032L201.069 267.112L200.873 268.878L190.281 262.797L190.477 261.032Z" fill="#F03030"/>
<path opacity="0.2" d="M210.878 268.485L219.705 273.389L219.508 275.35L210.682 270.25L210.878 268.485Z" fill="#F03030"/>
<path opacity="0.2" d="M204.209 264.562L208.328 266.916L207.936 268.681L204.013 266.327L204.209 264.562Z" fill="#F03030"/>
<path opacity="0.2" d="M191.066 256.912L201.462 262.993L201.266 264.758L190.87 258.678L191.066 256.912Z" fill="#F03030"/>
<path opacity="0.2" d="M211.466 264.366L220.096 269.466L219.9 271.231L211.27 266.131L211.466 264.366Z" fill="#F03030"/>
<path opacity="0.2" d="M204.601 260.443L208.721 262.797L208.524 264.562L204.405 262.208L204.601 260.443Z" fill="#F03030"/>
<path opacity="0.2" d="M191.458 252.793L202.05 258.874L201.854 260.835L191.262 254.754L191.458 252.793Z" fill="#F03030"/>
<path opacity="0.2" d="M211.858 260.247L220.489 265.346L220.293 267.112L211.662 262.208L211.858 260.247Z" fill="#F03030"/>
<path opacity="0.2" d="M205.189 256.52L209.112 258.678L208.916 260.639L204.993 258.285L205.189 256.52Z" fill="#F03030"/>
<path opacity="0.2" d="M191.851 248.87L202.443 254.951L202.247 256.716L191.655 250.635L191.851 248.87Z" fill="#F03030"/>
<path opacity="0.2" d="M212.251 256.323L221.078 261.227L220.881 263.189L212.055 258.089L212.251 256.323Z" fill="#F03030"/>
<path opacity="0.2" d="M205.582 252.401L209.701 254.754L209.505 256.52L205.386 254.166L205.582 252.401Z" fill="#F03030"/>
<path opacity="0.2" d="M192.438 244.751L203.03 250.832L202.834 252.597L192.242 246.517L192.438 244.751Z" fill="#F03030"/>
<path opacity="0.2" d="M212.839 252.205L221.469 257.305L221.273 259.07L212.643 253.97L212.839 252.205Z" fill="#F03030"/>
<path opacity="0.2" d="M206.17 248.282L210.093 250.636L209.897 252.401L205.974 250.047L206.17 248.282Z" fill="#F03030"/>
<path opacity="0.2" d="M192.832 240.632L203.424 246.712L203.228 248.674L192.636 242.593L192.832 240.632Z" fill="#F03030"/>
<path opacity="0.2" d="M213.231 248.086L222.058 253.186L221.862 254.951L213.035 250.047L213.231 248.086Z" fill="#F03030"/>
<path opacity="0.2" d="M206.561 244.359L210.68 246.517L210.484 248.478L206.365 246.124L206.561 244.359Z" fill="#F03030"/>
<path opacity="0.2" d="M193.419 236.709L203.815 242.79L203.619 244.555L193.223 238.474L193.419 236.709Z" fill="#F03030"/>
<path opacity="0.2" d="M213.819 244.163L222.45 249.066L222.254 251.028L213.623 245.928L213.819 244.163Z" fill="#F03030"/>
<path opacity="0.2" d="M207.15 240.24L211.073 242.594L210.877 244.359L206.758 242.005L207.15 240.24Z" fill="#F03030"/>
<path opacity="0.2" d="M193.812 232.59L204.404 238.671L204.208 240.436L193.616 234.355L193.812 232.59Z" fill="#F03030"/>
<path opacity="0.2" d="M214.213 240.043L223.039 245.143L222.647 246.908L214.017 241.809L214.213 240.043Z" fill="#F03030"/>
<path opacity="0.2" d="M207.543 236.12L211.466 238.474L211.27 240.24L207.347 238.082L207.543 236.12Z" fill="#F03030"/>
<path opacity="0.2" d="M194.4 228.47L204.796 234.551L204.6 236.513L194.008 230.432L194.4 228.47Z" fill="#F03030"/>
<path opacity="0.2" d="M214.799 235.924L223.43 241.024L223.234 242.79L214.407 237.886L214.799 235.924Z" fill="#F03030"/>
<path opacity="0.2" d="M207.935 232.197L212.055 234.355L211.858 236.316L207.739 233.963L207.935 232.197Z" fill="#F03030"/>
<path opacity="0.2" d="M194.794 224.548L205.386 230.628L205.19 232.394L194.598 226.313L194.794 224.548Z" fill="#F03030"/>
</g>
</g>
<path opacity="0.5" d="M255.328 314.396L252.281 340.503L253.45 340.64L256.497 314.532L255.328 314.396Z" fill="#F03030"/>
<path d="M307.186 372.444L199.5 310.265L202.638 283.981H203.619L200.677 309.676L306.205 370.679L309.147 345.376L310.324 345.572L307.186 372.444Z" fill="#F03030"/>
<path d="M202.836 276.724L206.759 279.078L206.563 280.843L202.64 278.489L202.836 276.724Z" fill="#F03030"/>
<path opacity="0.5" d="M210.484 272.408L219.115 277.508L218.919 279.273L210.288 274.369L210.484 272.408Z" fill="#F03030"/>
<path opacity="0.5" d="M205.187 256.52L209.11 258.678L208.914 260.639L204.991 258.286L205.187 256.52Z" fill="#F03030"/>
<path d="M191.85 248.87L202.442 254.951L202.246 256.716L191.654 250.636L191.85 248.87Z" fill="#F03030"/>
<path d="M207.151 240.24L211.074 242.594L210.878 244.359L206.759 242.005L207.151 240.24Z" fill="#F03030"/>
<path d="M194.401 228.471L204.797 234.552L204.601 236.513L194.009 230.432L194.401 228.471Z" fill="#F03030"/>
<path d="M316.601 329.488L325.232 334.392L325.036 336.353L316.405 331.253L316.601 329.488Z" fill="#F03030"/>
<path opacity="0.5" d="M298.163 305.754L308.559 311.834L308.363 313.6L297.967 307.519L298.163 305.754Z" fill="#F03030"/>
<path d="M312.286 305.362L316.209 307.519L316.013 309.481L312.09 307.127L312.286 305.362Z" fill="#F03030"/>
<path opacity="0.5" d="M299.536 293.593L310.128 299.673L309.932 301.439L299.34 295.358L299.536 293.593Z" fill="#F03030"/>
<path d="M299.929 289.473L310.521 295.554L310.324 297.515L299.732 291.435L299.929 289.473Z" fill="#F03030"/>
<path opacity="0.5" d="M243.437 291.435L253.833 297.515L253.637 299.281L243.045 293.2L243.437 291.435Z" fill="#F03030"/>
<path d="M263.836 298.888L272.466 303.988L272.27 305.753L263.443 300.653L263.836 298.888Z" fill="#F03030"/>
<path d="M258.54 282.804L262.463 285.157L262.267 287.119L258.344 284.765L258.54 282.804Z" fill="#F03030"/>
<path d="M259.326 274.762L263.445 277.116L263.249 278.881L259.13 276.527L259.326 274.762Z" fill="#F03030"/>
<path opacity="0.5" d="M266.582 274.566L275.409 279.666L275.016 281.431L266.386 276.331L266.582 274.566Z" fill="#F03030"/>
<path d="M247.557 254.951L258.149 261.031L257.952 262.993L247.36 256.716L247.557 254.951Z" fill="#F03030"/>
<defs>
<radialGradient id="paint0_radial" cx="0" cy="0" r="1" gradientUnits="userSpaceOnUse" gradientTransform="translate(543.174 332.262) rotate(180) scale(474.134)">
<stop stop-color="#42E8E0"/>
<stop offset="0.1022" stop-color="#3CCACE"/>
<stop offset="0.3445" stop-color="#2F87A5"/>
<stop offset="0.564" stop-color="#255385"/>
<stop offset="0.7534" stop-color="#1E2D6E"/>
<stop offset="0.905" stop-color="#1A1660"/>
<stop offset="1" stop-color="#180D5B"/>
</radialGradient>
<radialGradient id="paint1_radial" cx="0" cy="0" r="1" gradientUnits="userSpaceOnUse" gradientTransform="translate(269.389 243.509) rotate(180) scale(908.443 267.621)">
<stop stop-color="#F61D1D"/>
<stop offset="0.274301" stop-color="#D80000"/>
<stop offset="0.456596" stop-color="#DA0000"/>
<stop offset="1" stop-color="#8F0000"/>
</radialGradient>
<radialGradient id="paint2_radial" cx="0" cy="0" r="1" gradientUnits="userSpaceOnUse" gradientTransform="translate(666.16 252.83) rotate(180) scale(137.086)">
<stop stop-color="#42E8E0"/>
<stop offset="0.1022" stop-color="#3CCACE"/>
<stop offset="0.3445" stop-color="#2F87A5"/>
<stop offset="0.564" stop-color="#255385"/>
<stop offset="0.7534" stop-color="#1E2D6E"/>
<stop offset="0.905" stop-color="#1A1660"/>
<stop offset="1" stop-color="#180D5B"/>
</radialGradient>
<radialGradient id="paint3_radial" cx="0" cy="0" r="1" gradientUnits="userSpaceOnUse" gradientTransform="translate(658.491 222.326) rotate(180) scale(282.57)">
<stop stop-color="#42E8E0"/>
<stop offset="0.1022" stop-color="#3CCACE"/>
<stop offset="0.3445" stop-color="#2F87A5"/>
<stop offset="0.564" stop-color="#255385"/>
<stop offset="0.7534" stop-color="#1E2D6E"/>
<stop offset="0.905" stop-color="#1A1660"/>
<stop offset="1" stop-color="#180D5B"/>
</radialGradient>
<radialGradient id="paint4_radial" cx="0" cy="0" r="1" gradientUnits="userSpaceOnUse" gradientTransform="translate(269.568 189.679) rotate(180) scale(907.316 443.141)">
<stop stop-color="#F61D1D"/>
<stop offset="0.274301" stop-color="#D80000"/>
<stop offset="0.456596" stop-color="#DA0000"/>
<stop offset="1" stop-color="#8F0000"/>
</radialGradient>
<linearGradient id="paint5_linear" x1="322.148" y1="188.294" x2="540.816" y2="214.6" gradientUnits="userSpaceOnUse">
<stop stop-color="#FC2323"/>
<stop offset="0.227425" stop-color="#B10000"/>
<stop offset="1" stop-color="#880000"/>
</linearGradient>
<linearGradient id="paint6_linear" x1="543.299" y1="189.007" x2="320.207" y2="189.007" gradientUnits="userSpaceOnUse">
<stop stop-color="#2B237C"/>
<stop offset="1" stop-color="#180D5B"/>
</linearGradient>
<radialGradient id="paint7_radial" cx="0" cy="0" r="1" gradientUnits="userSpaceOnUse" gradientTransform="translate(285.178 147.594) rotate(180) scale(595.453)">
<stop stop-color="#F61D1D"/>
<stop offset="0.274301" stop-color="#D80000"/>
<stop offset="0.456596" stop-color="#DA0000"/>
<stop offset="1" stop-color="#8F0000"/>
</radialGradient>
<radialGradient id="paint8_radial" cx="0" cy="0" r="1" gradientUnits="userSpaceOnUse" gradientTransform="translate(-42.1444 376.362) rotate(180) scale(907.84 442.811)">
<stop stop-color="#F61D1D"/>
<stop offset="0.274301" stop-color="#D80000"/>
<stop offset="0.456596" stop-color="#DA0000"/>
<stop offset="1" stop-color="#8F0000"/>
</radialGradient>
<linearGradient id="paint9_linear" x1="150.268" y1="292.057" x2="368.987" y2="318.375" gradientUnits="userSpaceOnUse">
<stop stop-color="#880000"/>
<stop offset="0.623265" stop-color="#950606"/>
<stop offset="1" stop-color="#DA0000"/>
</linearGradient>
</defs>
</svg>
