<svg width="148" height="48" viewBox="0 0 148 48" fill="none" xmlns="http://www.w3.org/2000/svg">
<path fill-rule="evenodd" clip-rule="evenodd" d="M34.9589 28.8041C31.5122 31.3891 26.8346 32.7431 20.6799 32.8662V47.2682H34.9589V28.8041Z" fill="#80807F"/>
<path fill-rule="evenodd" clip-rule="evenodd" d="M0 28.8041C3.44664 31.3891 8.12422 32.7431 14.2789 32.8662V47.2682H0V28.8041Z" fill="#80807F"/>
<path fill-rule="evenodd" clip-rule="evenodd" d="M0 11.817C0 11.817 0.86166 4.43135 0 0.123047C3.69283 0.123047 7.26256 1.47708 10.0937 4.30825C12.9249 7.13942 14.2789 10.7092 14.2789 14.402V27.3269C9.72445 27.0807 0 26.219 0 11.817Z" fill="#85BC5D"/>
<path fill-rule="evenodd" clip-rule="evenodd" d="M34.9589 11.817C34.9589 11.817 34.0972 4.43135 34.9589 0.123047C31.266 0.123047 27.6963 1.47708 24.8651 4.30825C22.034 7.13942 20.6799 10.7092 20.6799 14.402V27.3269C25.2344 27.0807 34.9589 26.219 34.9589 11.817Z" fill="#85BC5D"/>
<path fill-rule="evenodd" clip-rule="evenodd" d="M46.6527 0.738593C46.7758 0.984781 46.8989 1.47716 47.1451 2.09263C47.7606 3.69286 48.4991 5.78546 48.7453 6.27783C49.1146 7.13949 49.2377 7.26259 49.7301 7.38568C49.8532 7.38568 49.9763 7.50878 49.9763 7.50878C49.9763 7.63187 49.8532 7.63187 49.607 7.63187C49.2377 7.63187 48.6222 7.63187 48.253 7.63187C47.8837 7.63187 47.6375 7.63187 47.3913 7.63187C47.1451 7.63187 47.022 7.50878 47.022 7.50878C47.022 7.50878 47.1451 7.38568 47.2682 7.38568C47.7606 7.26259 47.7606 7.0164 47.7606 6.89331C47.6375 6.52402 47.3913 5.78546 47.1451 5.04689C47.1451 5.04689 47.022 4.9238 46.7758 4.9238C46.0373 4.9238 45.1756 4.9238 44.9294 4.9238L44.8063 5.04689C44.5601 5.66236 44.3139 6.52402 44.3139 6.77021C44.3139 6.89331 44.437 7.13949 44.8063 7.26259C45.0525 7.26259 45.0525 7.38568 45.0525 7.50878C45.0525 7.63187 44.9294 7.63187 44.6832 7.63187C44.5601 7.63187 44.1908 7.63187 43.8216 7.63187C43.4523 7.63187 42.8368 7.63187 42.7137 7.63187C42.4675 7.63187 42.4675 7.63187 42.4675 7.50878C42.4675 7.38568 42.5906 7.38568 42.7137 7.26259C43.2061 7.13949 43.4523 7.0164 43.6985 6.27783C43.9447 5.66236 45.1756 2.46191 45.668 1.35406C45.668 1.23097 45.7911 1.23097 45.7911 1.10788C45.7911 1.10788 45.7911 1.10788 45.7911 0.984781C45.9142 0.861687 46.0373 0.492404 46.1604 0.36931C46.2835 0.246216 46.2835 0.246216 46.4065 0.246216C46.5296 0.36931 46.5296 0.492404 46.6527 0.738593ZM46.8989 4.18523C46.7758 3.69286 46.1604 2.09263 46.0373 1.84644C46.0373 1.72335 45.9142 1.72335 45.9142 1.84644C45.668 2.33882 45.1756 3.81595 45.0525 4.18523C45.0525 4.18523 45.0525 4.30833 45.1756 4.30833C45.668 4.30833 46.5296 4.30833 46.8989 4.18523C46.8989 4.30833 46.8989 4.30833 46.8989 4.18523Z" fill="#85BC5D"/>
<path fill-rule="evenodd" clip-rule="evenodd" d="M55.7617 0.492371C55.8848 0.492371 55.8848 0.615465 55.7617 0.492371C55.8848 0.861653 55.8848 1.47712 55.8848 1.9695C55.8848 2.0926 55.7617 2.33878 55.7617 2.33878C55.6386 2.33878 55.5155 2.21569 55.5155 1.9695C55.3924 1.47712 55.2693 1.10784 54.9 1.10784C54.5307 1.10784 53.546 1.10784 53.2998 1.10784C53.1767 1.10784 53.0536 1.23094 53.0536 1.23094C53.0536 1.60022 53.0536 2.95426 53.0536 3.56973C53.0536 3.93901 53.0536 6.15471 53.0536 6.64708C53.0536 7.01637 53.1767 7.26255 53.7922 7.38565C53.9153 7.38565 54.0384 7.50874 54.0384 7.63184C54.0384 7.75493 53.9153 7.75493 53.6691 7.75493C53.4229 7.75493 52.9305 7.75493 52.5612 7.75493C52.192 7.75493 51.4534 7.87803 51.3303 7.87803C51.0841 7.87803 51.0841 7.75493 51.0841 7.75493C51.0841 7.63184 51.2072 7.63184 51.3303 7.50874C51.9458 7.38565 51.9458 7.13946 51.9458 7.01637C51.9458 6.64708 52.0689 5.90852 52.0689 3.81592C52.0689 2.83116 52.0689 2.0926 52.0689 1.84641C52.0689 1.47712 51.9458 1.35403 51.4534 1.23094C51.2072 1.23094 51.2072 1.10784 51.2072 0.984748C51.2072 0.861653 51.3303 0.861653 51.4534 0.861653C51.9458 0.861653 52.315 0.861653 52.6843 0.861653H54.0384C55.5155 0.615465 55.6386 0.615465 55.7617 0.492371Z" fill="#85BC5D"/>
<path fill-rule="evenodd" clip-rule="evenodd" d="M60.8086 0.615465C61.1779 0.615465 61.6703 0.615465 61.7934 0.615465L61.9164 0.738559C61.9164 1.23094 61.9164 1.60022 61.9164 1.84641C61.9164 1.9695 61.7934 2.0926 61.7934 2.0926C61.6703 2.0926 61.6703 1.9695 61.6703 1.84641C61.5472 1.23094 61.301 1.10784 60.9317 1.10784C60.6855 1.10784 59.9469 0.984748 59.3315 1.10784C59.3315 1.10784 59.2084 1.10784 59.2084 1.47712C59.2084 1.72331 59.2084 3.69282 59.2084 3.93901C59.2084 3.93901 59.2084 4.0621 59.3315 4.0621H60.07C61.0548 4.0621 61.0548 4.0621 61.301 3.56973C61.4241 3.44663 61.4241 3.32354 61.5472 3.32354C61.6703 3.32354 61.6703 3.44663 61.6703 3.56973C61.6703 3.81592 61.6703 4.0621 61.6703 4.30829C61.6703 4.55448 61.6703 4.80067 61.6703 5.04686C61.6703 5.29305 61.6703 5.29305 61.5472 5.29305C61.4241 5.29305 61.4241 5.16995 61.301 5.04686C61.1779 4.55448 61.0548 4.55448 60.4393 4.43139C60.07 4.43139 59.7008 4.43139 59.3315 4.43139L59.2084 4.55448C59.2084 4.80067 59.2084 5.78542 59.2084 6.2778C59.2084 6.52399 59.2084 7.01637 59.3315 7.13946C59.3315 7.26255 59.4546 7.38565 59.5777 7.38565C59.8238 7.38565 60.1931 7.50874 60.5624 7.50874C60.6855 7.50874 61.301 7.50874 61.5472 7.38565C61.9164 7.26255 62.1626 7.13946 62.4088 6.52399C62.5319 6.2778 62.655 6.15471 62.655 6.15471C62.7781 6.15471 62.7781 6.40089 62.7781 6.40089C62.7781 6.52399 62.4088 7.50874 62.4088 7.63184C62.4088 7.63184 62.2857 7.75493 62.1626 7.75493C62.0395 7.75493 60.1931 7.63184 58.5929 7.63184C57.9774 7.63184 57.7312 7.63184 57.362 7.63184C57.1158 7.63184 56.9927 7.63184 56.9927 7.50874C56.9927 7.38565 57.1158 7.38565 57.2389 7.26256C57.8543 7.13946 57.9774 7.01637 57.9774 6.40089C57.9774 5.90852 58.1005 4.80067 58.1005 3.44663C58.1005 2.0926 58.1005 1.84641 58.1005 1.60022C58.1005 1.10784 57.9774 0.984748 57.4851 0.861653C57.2389 0.861653 57.1158 0.738559 57.1158 0.615465C57.1158 0.492371 57.2389 0.492371 57.4851 0.492371C57.9774 0.492371 58.4698 0.492371 59.2084 0.492371H60.8086V0.615465Z" fill="#85BC5D"/>
<path fill-rule="evenodd" clip-rule="evenodd" d="M65.8554 3.81592C66.4709 3.81592 67.948 3.81592 69.7944 3.81592C69.9175 3.81592 69.9175 3.69282 69.9175 3.56973C69.9175 3.44663 69.9175 2.0926 69.9175 1.60022C69.9175 1.23094 69.7944 1.10784 69.302 0.984748C69.1789 0.984748 69.0558 0.861653 69.0558 0.738559C69.0558 0.615465 69.1789 0.615465 69.4251 0.615465C69.5482 0.615465 70.2868 0.615465 70.533 0.615465C70.9023 0.615465 71.3946 0.615465 71.5177 0.615465C71.7639 0.615465 71.887 0.615465 71.887 0.738559C71.887 0.861653 71.7639 0.861653 71.5177 0.984748C71.0254 1.10784 71.0254 1.23094 71.0254 1.60022C71.0254 2.21569 70.9023 3.32354 70.9023 5.04686C70.9023 5.66233 70.9023 6.52399 70.9023 6.77018C70.9023 7.13946 71.0254 7.26255 71.5177 7.38565C71.6408 7.38565 71.7639 7.50874 71.7639 7.63184C71.7639 7.75493 71.6408 7.75493 71.5177 7.75493C71.3946 7.75493 70.9023 7.75493 70.533 7.75493C70.2868 7.75493 69.4251 7.87803 69.302 7.87803C68.9327 7.63184 68.9328 7.63184 68.9328 7.50874C68.9328 7.38565 69.0558 7.38565 69.1789 7.26256C69.7944 7.13946 69.7944 7.01637 69.7944 6.15471C69.7944 5.66233 69.7944 4.92376 69.7944 4.43139C69.7944 4.1852 69.7944 4.1852 69.6713 4.1852C68.1942 4.1852 65.9785 4.1852 65.7323 4.1852C65.7323 4.1852 65.6092 4.30829 65.6092 4.43139C65.6092 4.67758 65.6092 6.03161 65.6092 6.40089C65.6092 6.89327 65.7323 7.13946 66.2247 7.26256C66.4709 7.38565 66.594 7.38565 66.594 7.50874C66.594 7.63184 66.3478 7.63184 66.2247 7.63184C66.1016 7.63184 65.4861 7.63184 64.9937 7.63184C64.7475 7.63184 64.2552 7.63184 63.8859 7.63184C63.6397 7.63184 63.5166 7.63184 63.5166 7.50874C63.5166 7.38565 63.6397 7.38565 63.7628 7.26256C64.2552 7.13946 64.3783 7.01637 64.3783 6.52399C64.3783 6.03161 64.5014 4.80067 64.5014 3.07735C64.5014 2.83116 64.5014 1.9695 64.5014 1.47712C64.5014 1.10784 64.3783 0.984748 64.009 0.861653C63.7628 0.861653 63.6397 0.738559 63.6397 0.615465C63.6397 0.492371 63.7628 0.492371 63.8859 0.492371C64.1321 0.492371 64.6245 0.492371 64.8706 0.492371C65.363 0.492371 65.7323 0.492371 65.9785 0.492371C66.2247 0.492371 66.3478 0.492371 66.3478 0.615465C66.3478 0.738559 66.2247 0.738559 65.9785 0.861653C65.4861 0.984748 65.4861 1.10784 65.363 1.60022C65.363 1.9695 65.363 3.32354 65.363 3.56973C65.7323 3.81592 65.7323 3.81592 65.8554 3.81592Z" fill="#85BC5D"/>
<path fill-rule="evenodd" clip-rule="evenodd" d="M78.7803 0.615499C79.1496 0.615499 79.3958 0.492404 79.5189 0.36931C79.642 0.36931 79.642 0.246216 79.642 0.246216C79.642 0.246216 79.7651 0.36931 79.642 0.492404C79.5189 0.861687 79.5189 1.23097 79.3958 1.72335C79.3958 1.84644 79.2727 1.96954 79.1496 1.96954C79.0265 1.96954 79.0265 1.84644 79.0265 1.60025C78.9034 0.984781 78.7803 0.984781 78.1649 0.984781C77.9187 0.984781 76.8108 0.984781 76.6877 0.984781L76.5646 1.10788C76.5646 1.60025 76.5646 2.7081 76.5646 3.69286C76.5646 4.9238 76.5646 6.03165 76.5646 6.40093C76.5646 6.89331 76.6877 7.0164 77.3032 7.13949C77.4263 7.13949 77.5494 7.26259 77.5494 7.38568C77.5494 7.50878 77.3032 7.50878 77.3032 7.50878C77.1801 7.50878 76.4415 7.50878 75.9492 7.50878C75.4568 7.50878 74.8413 7.63187 74.7182 7.63187C74.472 7.63187 74.3489 7.50878 74.3489 7.50878C74.3489 7.38568 74.472 7.38568 74.5951 7.26259C75.3337 7.13949 75.3337 6.89331 75.4568 6.15474C75.4568 5.53927 75.5799 3.32357 75.5799 2.46191V1.23097C75.5799 1.10788 75.4568 1.10788 75.4568 1.10788C75.2106 1.10788 74.3489 1.10788 74.1027 1.10788C73.7335 1.10788 73.4873 1.23097 73.3642 1.35406C73.3642 1.35406 73.2411 1.60025 72.9949 1.96954C72.8718 2.21572 72.8718 2.21572 72.7487 2.21572C72.6256 2.21572 72.6256 2.09263 72.6256 1.96954C72.6256 1.72335 72.8718 1.10788 72.8718 0.492404C72.8718 0.36931 72.9949 0.246216 72.9949 0.246216L73.118 0.36931C73.118 0.36931 73.3642 0.615499 73.4873 0.615499C73.7335 0.615499 74.7182 0.738593 75.9492 0.738593C76.9339 0.615499 78.411 0.615499 78.7803 0.615499Z" fill="#85BC5D"/>
<path fill-rule="evenodd" clip-rule="evenodd" d="M86.0428 0.615427C86.289 0.615427 86.6583 0.738521 86.9045 0.861615C86.9045 0.861615 87.0276 0.98471 87.0276 1.2309C87.0276 1.47709 87.0276 1.96946 87.1507 2.21565C87.1507 2.46184 87.0276 2.58493 87.0276 2.58493C87.0276 2.58493 86.9045 2.46184 86.9045 2.33875C86.7814 1.96946 86.6583 1.60018 86.4121 1.60018C85.7966 1.1078 85.3042 0.98471 84.6888 0.98471C82.9655 0.98471 81.8576 2.46184 81.8576 4.06207C81.8576 4.80063 81.9807 5.4161 82.2269 5.90848C82.8424 7.13942 84.0733 7.6318 84.935 7.6318C85.1812 7.6318 85.6735 7.6318 86.0428 7.38561C86.5352 7.13942 86.7814 6.77014 87.0276 6.40086C87.1507 6.15467 87.1507 6.15467 87.2738 6.15467C87.3968 5.78539 87.3968 6.03157 87.3968 6.15467C87.3968 6.40086 87.1507 7.01633 87.0276 7.26252C87.0276 7.38561 86.7814 7.50871 86.6583 7.50871C86.5352 7.6318 85.6735 7.75489 84.6888 7.75489C83.0886 7.75489 81.9807 7.01633 81.6114 6.52395C81.2421 6.03157 80.7498 5.29301 80.7498 4.06207C80.7498 2.83112 81.4883 1.84637 81.9807 1.47709C82.9655 0.738521 83.9502 0.492333 84.935 0.492333C85.1812 0.369238 85.6735 0.492333 86.0428 0.615427Z" fill="#85BC5D"/>
<path fill-rule="evenodd" clip-rule="evenodd" d="M94.4133 0.615424C94.7826 0.615424 95.0288 0.49233 95.1519 0.369235C95.2749 0.369235 95.2749 0.246141 95.2749 0.246141C95.2749 0.246141 95.398 0.369235 95.2749 0.49233C95.1519 0.861612 95.1518 1.2309 95.0288 1.72327C95.0288 1.84637 94.9057 1.96946 94.7826 1.96946C94.6595 1.96946 94.6595 1.84637 94.6595 1.60018C94.5364 0.984707 94.4133 0.984707 93.7978 0.984707C93.5516 0.984707 92.4438 0.984707 92.3207 0.984707L92.1976 1.1078C92.1976 1.60018 92.1976 2.70803 92.1976 3.69278C92.1976 4.92372 92.1976 6.03157 92.1976 6.40085C92.1976 6.89323 92.3207 7.01633 92.9362 7.13942C93.0592 7.13942 93.1823 7.26251 93.1823 7.38561C93.1823 7.5087 92.9362 7.5087 92.9362 7.5087C92.8131 7.5087 92.0745 7.5087 91.5821 7.5087C91.0897 7.5087 90.4743 7.6318 90.3512 7.6318C90.105 7.6318 89.9819 7.5087 89.9819 7.5087C89.9819 7.38561 90.105 7.38561 90.2281 7.26251C90.9666 7.13942 90.9666 6.89323 91.0897 6.15467C91.0897 5.53919 91.2128 3.3235 91.2128 2.46184V1.2309C91.2128 1.1078 91.0897 1.1078 91.0897 1.1078C90.8435 1.1078 89.9819 1.1078 89.7357 1.1078C89.3664 1.1078 89.1202 1.2309 88.9971 1.35399C88.9971 1.35399 88.874 1.60018 88.6279 1.96946C88.7509 2.09256 88.6279 2.09256 88.6279 2.09256C88.5048 2.09256 88.5048 1.96946 88.5048 1.84637C88.5048 1.60018 88.7509 0.984707 88.7509 0.369235C88.7509 0.246141 88.874 0.123047 88.874 0.123047L88.9971 0.246141C88.9971 0.246141 89.2433 0.49233 89.3664 0.49233C89.6126 0.49233 90.5974 0.615424 91.8283 0.615424C92.5669 0.615424 93.9209 0.615424 94.4133 0.615424Z" fill="#85BC5D"/>
<path fill-rule="evenodd" clip-rule="evenodd" d="M100.691 3.69277C101.307 3.93896 102.168 4.43134 102.168 5.53919C102.168 6.27775 101.799 6.77013 101.307 7.13941C100.814 7.5087 99.8294 7.63179 99.3371 7.63179C99.0909 7.63179 97.983 7.63179 97.4907 7.63179C97.2445 7.63179 96.9983 7.63179 96.7521 7.63179C96.629 7.63179 96.3828 7.63179 96.3828 7.5087C96.3828 7.3856 96.5059 7.3856 96.629 7.3856C97.3676 7.26251 97.3676 7.13941 97.4907 6.77013C97.4907 6.52394 97.6138 5.41609 97.6138 3.2004C97.6138 2.21564 97.6137 1.60017 97.4907 1.47708C97.4907 1.23089 97.3676 1.10779 96.8752 1.10779C96.7521 1.10779 96.629 0.9847 96.629 0.861606C96.629 0.738512 96.7521 0.738512 96.8752 0.738512H97.6138C97.983 0.738512 98.9678 0.615417 99.4602 0.615417C100.076 0.615417 100.691 0.738512 101.06 0.9847C101.553 1.35398 101.799 1.84636 101.799 2.33874C101.676 3.0773 101.06 3.44659 100.691 3.69277ZM100.076 4.18515C99.8295 4.06206 99.3371 3.93896 98.9678 3.93896C98.7216 3.93896 98.5985 4.06206 98.4754 4.06206C98.4754 4.06206 98.3523 4.18515 98.3523 4.43134C98.3523 4.80062 98.3523 6.15466 98.3523 6.52394C98.3523 6.64704 98.4754 6.77013 98.4754 6.89322C98.7216 7.13941 99.0909 7.26251 99.214 7.26251C100.076 7.26251 100.814 6.64704 100.814 5.53919C100.937 4.92372 100.568 4.43134 100.076 4.18515ZM99.0909 0.861606C98.9678 0.861606 98.7216 0.861606 98.5985 0.9847L98.4754 1.10779C98.4754 1.23089 98.4754 1.72327 98.4754 3.44659C98.4754 3.44659 98.4754 3.56968 98.5985 3.56968C99.0909 3.56968 99.8295 3.44658 100.076 3.32349C100.445 3.0773 100.691 2.70802 100.691 2.21564C100.691 1.47708 100.076 0.861606 99.0909 0.861606Z" fill="#85BC5D"/>
<path fill-rule="evenodd" clip-rule="evenodd" d="M110.908 3.939C110.908 5.41613 110.169 6.52398 109.431 7.01635C108.815 7.50873 107.831 7.63182 107.215 7.63182C106.107 7.63182 104.999 7.13945 104.384 6.40088C103.768 5.9085 103.399 5.04684 103.399 4.06209C103.399 2.70805 104.015 1.84639 104.876 1.10783C105.369 0.738545 106.353 0.369263 107.092 0.369263C109.308 0.369263 110.908 1.96949 110.908 3.939ZM105.369 1.35402C104.876 1.84639 104.63 2.58496 104.63 3.939C104.63 5.53922 105.738 7.38564 107.461 7.38564C108.323 7.38564 108.692 7.01635 108.815 6.89326C109.308 6.52398 109.677 5.53922 109.677 4.30828C109.677 3.20043 109.185 1.96949 108.446 1.35402C108.077 0.984734 107.338 0.738545 106.846 0.738545C106.353 0.738545 105.738 0.984734 105.369 1.35402Z" fill="#85BC5D"/>
<path fill-rule="evenodd" clip-rule="evenodd" d="M114.108 1.47708C114.108 0.49233 115.216 0.123047 115.339 0.123047C115.462 0.123047 115.586 0.123047 115.586 0.246141C115.586 0.369235 115.462 0.369235 115.462 0.49233C115.093 0.738518 114.847 0.984707 114.847 1.2309C114.847 1.60018 114.97 1.60018 115.339 1.72327C115.462 1.72327 115.586 1.84637 115.586 2.09256C115.586 2.33874 115.339 2.58493 115.093 2.58493C114.478 2.46184 114.108 2.09256 114.108 1.47708ZM115.832 1.47708C115.832 0.49233 116.94 0.123047 117.063 0.123047C117.186 0.123047 117.309 0.123047 117.309 0.246141C117.309 0.369235 117.186 0.369235 117.186 0.49233C116.816 0.738518 116.57 0.984707 116.57 1.2309C116.57 1.60018 116.816 1.60018 117.063 1.72327C117.186 1.72327 117.309 1.84637 117.309 2.09256C117.309 2.33874 117.063 2.58493 116.816 2.58493C116.201 2.46184 115.832 2.09256 115.832 1.47708Z" fill="#85BC5D"/>
<path fill-rule="evenodd" clip-rule="evenodd" d="M118.786 0.615417C119.525 0.615417 119.648 0.615417 120.263 0.615417L120.386 0.738512C120.509 1.10779 120.632 1.23089 120.755 1.72327C121.371 2.95421 122.602 5.53919 122.725 5.66228C122.725 5.66228 122.848 5.78538 122.848 5.66228C122.971 5.41609 124.818 1.84636 125.064 1.35398C125.064 1.23089 125.31 0.861606 125.31 0.738512L125.433 0.615417C125.925 0.615417 126.787 0.615417 126.91 0.615417C127.033 0.615417 127.156 0.615417 127.156 0.738512C127.156 0.861606 127.033 0.861606 126.91 0.9847C126.787 0.9847 126.541 1.10779 126.418 1.10779C126.295 1.23089 126.049 1.35398 126.049 1.96945C126.049 4.80062 126.172 6.27775 126.172 6.64704C126.295 7.13941 126.295 7.26251 126.91 7.3856C127.156 7.3856 127.156 7.5087 127.156 7.63179C127.156 7.75488 127.033 7.75488 126.787 7.75488C126.664 7.75488 125.802 7.75488 125.433 7.75488C125.187 7.75488 124.818 7.75488 124.571 7.75488C124.448 7.75488 124.325 7.75488 124.325 7.63179C124.325 7.5087 124.448 7.5087 124.571 7.3856C125.064 7.26251 125.064 7.01632 125.064 6.64704C125.064 6.15466 125.064 3.0773 125.064 2.46183C125.064 2.33874 125.064 2.33874 124.941 2.33874C124.694 2.70802 123.587 4.92372 123.217 5.78538C123.094 6.27775 122.848 6.89322 122.725 7.26251C122.602 7.63179 122.479 7.63179 122.479 7.63179C122.356 7.63179 122.356 7.5087 122.233 7.3856C122.233 7.13941 122.11 6.77013 121.863 6.27775C121.248 4.80062 120.386 3.0773 120.017 2.21564C120.017 2.09255 119.894 2.09255 119.894 2.21564C119.771 2.70802 119.648 5.293 119.771 6.40085C119.771 7.01632 119.894 7.13941 120.386 7.26251C120.632 7.3856 120.755 7.3856 120.755 7.5087C120.755 7.63179 120.632 7.63179 120.509 7.63179C120.14 7.63179 119.771 7.63179 119.401 7.63179C119.155 7.63179 118.786 7.63179 118.54 7.63179C118.417 7.63179 118.294 7.63179 118.294 7.5087C118.294 7.5087 118.417 7.3856 118.54 7.3856C119.155 7.13941 119.278 7.01632 119.401 6.40085C119.525 5.66228 119.771 2.58493 119.771 1.72327C119.771 1.60017 119.771 1.23089 119.278 1.10779C119.032 1.10779 118.909 0.9847 118.786 0.9847C118.663 0.9847 118.54 0.861606 118.54 0.738512C118.54 0.615417 118.54 0.615417 118.786 0.615417Z" fill="#85BC5D"/>
<path fill-rule="evenodd" clip-rule="evenodd" d="M133.803 0.615531C134.05 0.615531 134.419 0.738625 134.665 0.861719C134.665 0.861719 134.788 0.984814 134.788 1.231C134.788 1.47719 134.788 1.96957 134.911 2.21576C134.911 2.46195 134.788 2.58504 134.788 2.58504C134.788 2.58504 134.665 2.46194 134.665 2.33885C134.542 1.96957 134.419 1.60029 134.173 1.60029C133.557 1.10791 133.065 0.984814 132.449 0.984814C130.726 0.984814 129.618 2.46194 129.618 4.06217C129.618 4.80074 129.741 5.41621 129.988 5.90858C130.603 7.13953 131.834 7.6319 132.696 7.6319C132.942 7.6319 133.434 7.6319 133.803 7.38572C134.296 7.13953 134.542 6.77024 134.788 6.40096C134.911 6.15477 135.034 6.15477 135.034 6.15477C135.157 6.15477 135.157 6.40096 135.157 6.52406C135.157 6.77024 134.911 7.38572 134.788 7.6319C134.788 7.755 134.542 7.87809 134.419 7.87809C134.296 8.00119 133.434 8.12428 132.449 8.12428C130.849 8.12428 129.741 7.38572 129.372 6.89334C129.003 6.40096 128.51 5.6624 128.51 4.43145C128.51 3.20051 129.249 2.21576 129.741 1.84647C130.726 1.10791 131.711 0.861719 132.696 0.861719C132.819 0.369342 133.311 0.492437 133.803 0.615531Z" fill="#85BC5D"/>
<path fill-rule="evenodd" clip-rule="evenodd" d="M142.174 0.615499C142.543 0.615499 142.789 0.492404 142.912 0.36931C143.036 0.36931 143.036 0.246216 143.036 0.246216C143.036 0.246216 143.159 0.36931 143.036 0.492404C142.912 0.861687 142.912 1.23097 142.789 1.72335C142.789 1.84644 142.666 1.96954 142.543 1.96954C142.42 1.96954 142.42 1.84644 142.42 1.60025C142.297 0.984781 142.174 0.984781 141.558 0.984781C141.312 0.984781 140.204 0.984781 140.081 0.984781L139.958 1.10788C139.958 1.60025 139.958 2.7081 139.958 3.69286C139.958 4.9238 139.958 6.03165 139.958 6.40093C139.958 6.89331 140.081 7.0164 140.697 7.13949C140.82 7.13949 140.943 7.26259 140.943 7.38568C140.943 7.50878 140.697 7.50878 140.697 7.50878C140.574 7.50878 139.835 7.50878 139.343 7.50878C138.85 7.50878 138.235 7.63187 138.112 7.63187C137.866 7.63187 137.742 7.50878 137.742 7.50878C137.742 7.38568 137.866 7.38568 137.989 7.26259C138.727 7.13949 138.727 6.89331 138.85 6.15474C138.85 5.53927 138.973 3.32357 138.973 2.46191V1.23097C138.973 1.10788 138.85 1.10788 138.85 1.10788C138.604 1.10788 137.742 1.10788 137.496 1.10788C137.127 1.10788 136.881 1.23097 136.758 1.35406C136.758 1.35406 136.635 1.60025 136.388 1.96954C136.265 2.21572 136.265 2.21572 136.142 2.21572C136.019 2.21572 136.019 2.09263 136.019 1.96954C136.019 1.72335 136.265 1.10788 136.265 0.492404C136.265 0.36931 136.388 0.246216 136.388 0.246216L136.512 0.36931C136.512 0.36931 136.758 0.615499 136.881 0.615499C137.127 0.615499 138.112 0.738593 139.343 0.738593C140.204 0.615499 141.682 0.615499 142.174 0.615499Z" fill="#85BC5D"/>
<path fill-rule="evenodd" clip-rule="evenodd" d="M145.743 1.10785C145.743 2.0926 144.636 2.46189 144.513 2.46189C144.389 2.46189 144.266 2.46189 144.266 2.33879C144.266 2.2157 144.389 2.2157 144.389 2.0926C144.759 1.84641 145.005 1.60023 145.005 1.35404C145.005 0.984754 144.882 0.984754 144.513 0.86166C144.389 0.86166 144.266 0.738566 144.266 0.492377C144.266 0.246189 144.513 0 144.759 0C145.374 0.123094 145.743 0.615471 145.743 1.10785ZM147.344 1.10785C147.344 2.0926 146.236 2.46189 146.113 2.46189C145.99 2.46189 145.867 2.46189 145.867 2.33879C145.867 2.2157 145.99 2.2157 146.113 2.0926C146.482 1.84641 146.728 1.60023 146.728 1.35404C146.728 0.984754 146.605 0.984754 146.236 0.86166C146.113 0.86166 145.99 0.738566 145.99 0.492377C145.99 0.246189 146.236 0 146.482 0C147.098 0.123094 147.344 0.615471 147.344 1.10785Z" fill="#85BC5D"/>
<path fill-rule="evenodd" clip-rule="evenodd" d="M45.0526 14.1558C44.9295 14.1558 44.8064 14.1558 44.6833 14.2789C44.6833 14.2789 44.5602 14.402 44.5602 14.6482C44.5602 14.8944 44.5602 16.2484 44.5602 17.4793C44.5602 18.4641 44.5602 19.3258 44.5602 19.5719C44.5602 20.3105 44.6833 20.4336 45.1756 20.5567C45.4218 20.5567 45.4218 20.6798 45.4218 20.8029C45.4218 20.926 45.1756 20.926 45.0526 20.926C44.8064 20.926 44.314 20.926 43.8216 20.926C43.4523 20.926 43.083 20.926 42.7138 20.926C42.4676 20.926 42.3445 20.926 42.3445 20.8029C42.3445 20.6798 42.4676 20.6798 42.5907 20.6798C43.2061 20.5567 43.3292 20.3105 43.3292 19.9412C43.3292 19.4488 43.3292 18.5872 43.3292 17.9717C43.3292 17.6024 43.3292 15.2636 43.3292 14.8944C43.3292 14.5251 43.3292 14.402 42.7138 14.2789C42.4676 14.2789 42.3445 14.1558 42.3445 14.1558C42.3445 14.0327 42.4676 14.0327 42.5907 14.0327C42.7138 14.0327 42.8369 14.0327 42.96 14.0327C43.4523 14.0327 44.314 13.9096 44.8064 13.9096C45.7911 13.9096 46.5297 14.1558 46.899 14.5251C47.3913 15.0175 47.5144 15.6329 47.5144 16.0022C47.5144 16.987 47.1452 17.3562 46.7759 17.7255C46.5297 17.9717 45.9142 18.2179 45.5449 18.2179C45.4218 18.2179 45.1756 18.2179 44.9295 18.0948C44.8064 18.0948 44.6833 17.9717 44.6833 17.8486C44.6833 17.8486 44.6833 17.7255 44.8064 17.7255H45.0526C45.668 17.7255 46.4066 17.2332 46.4066 16.0022C46.7759 15.0175 46.1604 14.1558 45.0526 14.1558Z" fill="#85BC5D"/>
<path fill-rule="evenodd" clip-rule="evenodd" d="M52.4381 13.9097C52.8074 13.9097 53.2998 13.9097 53.4229 13.9097L53.546 14.0327C53.546 14.5251 53.546 14.8944 53.546 15.1406C53.546 15.2637 53.4229 15.3868 53.4229 15.3868C53.2998 15.3868 53.2998 15.2637 53.2998 15.1406C53.1767 14.5251 52.9305 14.402 52.5612 14.402C52.315 14.402 51.5765 14.2789 50.961 14.402C50.961 14.402 50.8379 14.402 50.8379 14.7713C50.8379 15.0175 50.8379 16.987 50.8379 17.2332C50.8379 17.2332 50.8379 17.3563 50.961 17.3563H51.6995C52.6843 17.3563 52.6843 17.3563 52.9305 16.8639C53.0536 16.7408 53.0536 16.6177 53.1767 16.6177C53.2998 16.6177 53.2998 16.7408 53.2998 16.8639C53.2998 17.1101 53.2998 17.3563 53.2998 17.6025C53.2998 17.8487 53.2998 18.0949 53.2998 18.341C53.2998 18.5872 53.2998 18.5872 53.1767 18.5872C53.0536 18.5872 53.0536 18.4641 52.9305 18.341C52.8074 17.8487 52.6843 17.8487 52.0688 17.7256C51.6995 17.7256 51.3303 17.7256 50.961 17.7256L50.8379 17.8487C50.8379 18.0949 50.8379 19.0796 50.8379 19.572C50.8379 19.8182 50.8379 20.3106 50.961 20.4336C50.961 20.5567 51.0841 20.6798 51.2072 20.6798C51.4534 20.6798 51.8226 20.8029 52.1919 20.8029C52.315 20.8029 52.9305 20.8029 53.1767 20.6798C53.546 20.5567 53.7922 20.4336 54.0383 19.8182C54.1614 19.572 54.2845 19.4489 54.2845 19.4489C54.4076 19.4489 54.4076 19.6951 54.4076 19.6951C54.4076 19.8182 54.0383 20.8029 54.0383 20.926C54.0383 20.926 53.9152 21.0491 53.7922 21.0491C53.6691 21.0491 51.8226 20.926 50.2224 20.926C49.6069 20.926 49.3608 20.926 48.9915 20.926C48.7453 20.926 48.6222 20.926 48.6222 20.8029C48.6222 20.6798 48.7453 20.6798 48.8684 20.5567C49.4839 20.4337 49.6069 20.3106 49.6069 19.6951C49.6069 19.2027 49.73 18.0949 49.73 16.7408C49.73 15.3868 49.73 15.1406 49.73 14.8944C49.73 14.402 49.6069 14.2789 49.1146 14.1558C48.8684 14.1558 48.7453 14.0327 48.7453 13.9097C48.7453 13.7866 48.8684 13.7866 49.1146 13.7866C49.6069 13.7866 50.0993 13.7866 50.8379 13.7866H52.4381V13.9097Z" fill="#85BC5D"/>
<path fill-rule="evenodd" clip-rule="evenodd" d="M55.6387 20.926C55.3925 20.926 55.2694 20.926 55.2694 20.8029C55.2694 20.6798 55.2694 20.6798 55.5156 20.5567C56.008 20.4336 56.1311 20.3106 56.1311 19.9413C56.1311 19.4489 56.2542 18.5872 56.2542 16.8639C56.2542 15.7561 56.2542 15.0175 56.2542 14.7713C56.2542 14.402 56.008 14.2789 55.6387 14.1558C55.3925 14.1558 55.3925 14.0327 55.3925 14.0327C55.3925 13.9097 55.5156 13.9097 55.7618 13.9097C56.008 13.9097 56.5004 13.9097 56.8696 13.9097C57.1158 13.9097 57.7313 13.9097 57.9775 13.9097C58.2237 13.9097 58.2237 13.9097 58.2237 14.0327C58.2237 14.1558 58.1006 14.1558 57.9775 14.2789C57.4851 14.402 57.362 14.5251 57.362 15.2637C57.362 15.5099 57.362 16.1253 57.362 17.2332C57.362 18.4641 57.362 20.1875 57.362 20.3106C57.362 20.4336 57.4851 20.5567 57.6082 20.5567C57.8544 20.5567 59.5777 20.5567 59.8239 20.5567C59.8239 20.5567 59.947 20.4336 59.947 20.3106C59.947 19.9413 59.947 18.0949 59.947 17.4794C59.947 16.3715 59.947 15.5099 59.947 15.1406C59.947 14.5251 59.947 14.402 59.4546 14.2789C59.2084 14.2789 59.0853 14.1558 59.0853 14.0327C59.0853 13.9097 59.2084 13.9097 59.4546 13.9097C59.5777 13.9097 60.0701 13.9097 60.4394 13.9097C60.8086 13.9097 61.0548 13.9097 61.4241 13.9097C61.6703 13.9097 61.7934 13.9097 61.7934 14.0327C61.7934 14.1558 61.6703 14.1558 61.5472 14.1558C61.0548 14.2789 60.9317 14.402 60.9317 14.8944C60.9317 15.2637 60.9317 15.633 60.9317 16.987C60.9317 18.218 60.9317 19.8182 60.9317 20.1875C60.9317 20.3106 61.0548 20.4336 61.1779 20.4336C61.7934 20.4336 63.1474 20.4336 63.3936 20.4336C63.5167 20.4336 63.6398 20.4337 63.6398 20.0644C63.6398 19.6951 63.6398 18.341 63.6398 17.3563C63.6398 16.4946 63.6398 15.2637 63.6398 14.8944C63.6398 14.402 63.5167 14.2789 63.1474 14.1558C62.9012 14.1558 62.7782 14.0327 62.7782 13.9097C62.7782 13.7866 62.9012 13.7866 63.1474 13.7866C63.2705 13.7866 63.886 13.7866 64.2553 13.7866C64.5015 13.7866 64.9939 13.7866 65.24 13.7866C65.4862 13.7866 65.6093 13.7866 65.6093 13.9097C65.6093 14.0327 65.4862 14.0327 65.24 14.1558C64.7477 14.2789 64.7477 14.402 64.7477 14.8944C64.7477 15.3868 64.7477 15.8792 64.7477 16.7408C64.7477 17.9718 64.7477 19.572 64.7477 19.9413C64.7477 20.3106 64.8708 20.3106 65.24 20.4336C65.4862 20.5567 65.6093 20.5567 65.6093 20.6798C65.6093 20.8029 65.4862 20.8029 65.24 20.8029C64.9939 20.8029 64.1322 20.8029 64.1322 20.8029H56.7465C56.5003 20.926 55.8849 20.926 55.6387 20.926Z" fill="#85BC5D"/>
<path fill-rule="evenodd" clip-rule="evenodd" d="M70.7793 13.9097C71.1486 13.9097 71.641 13.9097 71.7641 13.9097L71.8871 14.0327C71.8871 14.5251 71.8871 14.8944 71.8871 15.1406C71.8871 15.2637 71.7641 15.3868 71.7641 15.3868C71.641 15.3868 71.641 15.2637 71.641 15.1406C71.5179 14.5251 71.2717 14.402 70.9024 14.402C70.6562 14.402 69.9176 14.2789 69.3022 14.402C69.3022 14.402 69.1791 14.402 69.1791 14.7713C69.1791 15.0175 69.1791 16.987 69.1791 17.2332C69.1791 17.2332 69.1791 17.3563 69.3022 17.3563H70.0407C71.0255 17.3563 71.0255 17.3563 71.2717 16.8639C71.3948 16.7408 71.3948 16.6177 71.5179 16.6177C71.641 16.6177 71.641 16.7408 71.641 16.8639C71.641 17.1101 71.641 17.3563 71.641 17.6025C71.641 17.8487 71.641 18.0949 71.641 18.341C71.641 18.5872 71.641 18.5872 71.5179 18.5872C71.3948 18.5872 71.3948 18.4641 71.2717 18.341C71.1486 17.8487 71.0255 17.8487 70.41 17.7256C70.0407 17.7256 69.6714 17.7256 69.3022 17.7256L69.1791 17.8487C69.1791 18.0949 69.1791 19.0796 69.1791 19.572C69.1791 19.8182 69.1791 20.3106 69.3022 20.4336C69.3022 20.5567 69.4253 20.6798 69.5484 20.6798C69.7945 20.6798 70.1638 20.8029 70.5331 20.8029C70.6562 20.8029 71.2717 20.8029 71.5179 20.6798C71.8871 20.5567 72.1333 20.4336 72.3795 19.8182C72.5026 19.572 72.6257 19.4489 72.6257 19.4489C72.7488 19.4489 72.7488 19.6951 72.7488 19.6951C72.7488 19.8182 72.3795 20.8029 72.3795 20.926C72.3795 20.926 72.2564 21.0491 72.1333 21.0491C72.0102 21.0491 70.1638 20.926 68.5636 20.926C67.9481 20.926 67.7019 20.926 67.3327 20.926C67.0865 20.926 66.9634 20.926 66.9634 20.8029C66.9634 20.6798 67.0865 20.6798 67.2096 20.5567C67.825 20.4337 67.9481 20.3106 67.9481 19.6951C67.9481 19.2027 68.0712 18.0949 68.0712 16.7408C68.0712 15.3868 68.0712 15.1406 68.0712 14.8944C68.0712 14.402 67.9481 14.2789 67.4558 14.1558C67.2096 14.1558 67.0865 14.0327 67.0865 13.9097C67.0865 13.7866 67.2096 13.7866 67.4558 13.7866C67.9481 13.7866 68.4405 13.7866 69.1791 13.7866H70.7793V13.9097Z" fill="#85BC5D"/>
<path fill-rule="evenodd" clip-rule="evenodd" d="M75.826 17.1101C76.4415 17.1101 77.9187 17.1101 79.7651 17.1101C79.8882 17.1101 79.8882 16.987 79.8882 16.8639C79.8882 16.7408 79.8882 15.3867 79.8882 14.8944C79.8882 14.5251 79.7651 14.402 79.2727 14.2789C79.1496 14.2789 79.0265 14.1558 79.0265 14.0327C79.0265 13.9096 79.1496 13.9096 79.3958 13.9096C79.5189 13.9096 80.2574 13.9096 80.5036 13.9096C80.8729 13.9096 81.3653 13.9096 81.4884 13.9096C81.7346 13.9096 81.8577 13.9096 81.8577 14.0327C81.8577 14.1558 81.7346 14.1558 81.4884 14.2789C80.996 14.402 80.996 14.5251 80.996 14.8944C80.996 15.3867 80.8729 16.6177 80.8729 18.341C80.8729 18.9565 80.8729 19.8181 80.8729 20.0643C80.8729 20.4336 80.996 20.5567 81.4884 20.6798C81.6115 20.6798 81.7346 20.8029 81.7346 20.926C81.7346 21.0491 81.6115 21.0491 81.4884 21.0491C81.3653 21.0491 80.8729 21.0491 80.5036 21.0491C80.2574 21.0491 79.3958 21.1722 79.2727 21.1722C79.0265 21.1722 79.0265 21.1722 79.0265 21.0491C79.0265 20.926 79.1496 20.926 79.2727 20.8029C79.8882 20.6798 79.8882 20.5567 79.8882 19.695C79.8882 19.2027 79.8882 18.4641 79.8882 17.9717C79.8882 17.7255 79.8882 17.7255 79.7651 17.7255C78.2879 17.7255 76.0722 17.7255 75.826 17.7255C75.826 17.7255 75.703 17.8486 75.703 17.9717C75.703 18.2179 75.703 19.5719 75.703 19.9412C75.703 20.4336 75.826 20.6798 76.3184 20.8029C76.5646 20.926 76.6877 20.926 76.6877 21.0491C76.6877 21.1722 76.4415 21.1722 76.3184 21.1722C76.1953 21.1722 75.5799 21.1722 75.0875 21.1722C74.8413 21.1722 74.3489 21.1722 73.9796 21.1722C73.7334 21.1722 73.6104 21.1722 73.6104 21.0491C73.6104 20.926 73.7334 20.926 73.8565 20.8029C74.3489 20.6798 74.472 20.5567 74.472 20.0643C74.472 19.5719 74.5951 18.341 74.5951 16.6177C74.5951 16.3715 74.5951 15.5098 74.5951 15.0175C74.5951 14.6482 74.472 14.5251 74.1027 14.402C73.8565 14.402 73.7334 14.2789 73.7334 14.1558C73.7334 14.0327 73.8565 14.0327 73.9796 14.0327C74.2258 14.0327 74.7182 14.0327 74.9644 14.0327C75.4568 14.0327 75.826 14.0327 76.0722 14.0327C76.3184 14.0327 76.4415 14.0327 76.4415 14.1558C76.4415 14.2789 76.3184 14.2789 76.0722 14.402C75.5799 14.5251 75.5799 14.6482 75.4568 15.1405C75.4568 15.5098 75.4568 16.8639 75.4568 17.1101C75.703 17.1101 75.703 17.1101 75.826 17.1101Z" fill="#85BC5D"/>
<path fill-rule="evenodd" clip-rule="evenodd" d="M83.4579 13.9096C83.704 13.9096 84.1964 13.9096 84.4426 13.9096C84.935 13.9096 85.4274 13.9096 85.6735 13.9096C85.9197 13.9096 85.9197 14.0327 85.9197 14.0327C85.9197 14.1558 85.7966 14.1558 85.5505 14.2789C85.0581 14.402 85.0581 14.5251 84.935 15.0175C84.935 15.756 84.935 18.8334 84.935 19.0796C84.935 19.2027 84.935 19.2027 85.0581 19.2027C85.0581 19.2027 88.5047 15.6329 88.874 15.2636C88.874 15.2636 88.9971 15.1406 88.9971 15.0175V14.7713C88.9971 14.6482 88.874 14.402 88.5047 14.2789C88.3816 14.2789 88.2585 14.1558 88.2585 14.0327C88.2585 13.9096 88.3816 13.9096 88.5047 13.9096C88.6278 13.9096 89.3664 13.9096 89.6126 13.9096C89.9819 13.9096 90.4742 13.9096 90.5973 13.9096C90.8435 13.9096 90.8435 13.9096 90.8435 14.0327C90.8435 14.1558 90.8435 14.1558 90.5973 14.2789C90.1049 14.402 89.9818 14.5251 89.9818 14.8944C89.9818 15.2636 89.9818 17.1101 89.9818 18.2179C89.9818 18.8334 89.9818 19.695 89.9818 19.8181C89.9818 20.4336 90.1049 20.5567 90.5973 20.6798C90.7204 20.6798 90.8435 20.8029 90.8435 20.926C90.8435 21.0491 90.7204 21.0491 90.4742 21.0491C90.228 21.0491 89.7357 21.0491 89.3664 21.0491C89.1202 21.0491 88.3816 21.1722 88.2585 21.1722C88.0123 21.1722 88.0123 21.1722 88.0123 21.0491C88.0123 20.926 88.1354 20.926 88.2585 20.8029C88.874 20.6798 88.874 20.5567 88.874 19.8181C88.874 18.7103 88.9971 16.1253 88.874 16.0022C88.874 15.8791 88.874 15.8791 88.7509 15.8791C86.9045 17.8486 85.6736 19.0796 84.8119 19.9412C84.8119 19.9412 84.6888 20.0643 84.6888 20.1874C84.6888 20.3105 84.6888 20.3105 84.6888 20.4336C84.6888 20.5567 84.8119 20.6798 85.1812 20.8029C85.4274 20.8029 85.5505 20.926 85.5505 21.0491C85.5505 21.1722 85.4274 21.1722 85.1812 21.1722C85.0581 21.1722 84.4426 21.1722 84.0733 21.1722C83.8271 21.1722 83.3348 21.1722 82.9655 21.1722C82.7193 21.1722 82.5962 21.1722 82.5962 21.0491C82.5962 20.926 82.7193 20.926 82.8424 20.8029C83.3348 20.6798 83.4579 20.5567 83.5809 20.0643C83.5809 19.695 83.5809 18.7103 83.5809 17.2332C83.5809 16.2484 83.5809 15.5098 83.5809 15.0175C83.5809 14.6482 83.4579 14.5251 83.0886 14.5251C82.8424 14.402 82.7193 14.402 82.7193 14.2789C83.0886 13.9096 83.2117 13.9096 83.4579 13.9096Z" fill="#85BC5D"/>
<path fill-rule="evenodd" clip-rule="evenodd" d="M98.3522 20.926C98.2291 20.926 97.7367 20.926 97.2444 20.926C96.8751 20.926 96.2596 20.926 96.0134 20.926C95.8903 20.926 95.7672 20.926 95.7672 20.8029C95.7672 20.6798 95.8903 20.6798 96.0134 20.5567C96.5058 20.4336 96.6289 20.3105 96.6289 19.8182C96.6289 19.2027 96.6289 18.0948 96.6289 17.6025V17.4794C96.1365 17.4794 95.7672 17.7256 95.2748 18.4641C94.6594 19.3258 94.2901 19.8182 94.0439 20.1874C93.6746 20.5567 93.1822 20.8029 92.5668 20.8029C92.0744 20.8029 91.9513 20.8029 91.9513 20.5567C91.9513 20.5567 92.0744 20.4336 92.1975 20.4336C92.6899 20.3105 93.1822 19.8182 94.0439 18.7103C94.6594 17.9718 94.7825 17.7256 95.1518 17.4794V17.3563C94.5363 17.2332 93.5515 16.7408 93.5515 15.5099C93.5515 14.8944 93.7977 14.5251 94.167 14.1558C94.5363 13.7865 95.1517 13.6635 96.2596 13.6635C96.752 13.6635 97.1213 13.6635 97.4905 13.6635H98.3522C98.4753 13.6635 98.5984 13.6635 98.5984 13.7865C98.5984 13.9096 98.4753 13.9096 98.3522 14.0327C97.7367 14.1558 97.7367 14.2789 97.7367 14.402C97.7367 14.6482 97.7367 14.8944 97.7367 16.6177C97.7367 18.341 97.7367 19.0796 97.7367 19.6951C97.7367 20.0644 97.8598 20.1874 98.3522 20.4336C98.4753 20.4336 98.5984 20.5567 98.5984 20.6798C98.5984 20.926 98.4753 20.926 98.3522 20.926ZM96.752 14.6482C96.752 14.402 96.752 14.402 96.6289 14.402C96.5058 14.2789 96.2596 14.2789 96.1365 14.2789C95.0287 14.2789 94.5363 15.0175 94.5363 15.633C94.5363 16.2484 94.7825 16.4946 95.0287 16.8639C95.3979 17.2332 96.0134 17.3563 96.5058 17.3563C96.5058 17.3563 96.6289 17.3563 96.6289 17.2332C96.752 16.6177 96.752 15.0175 96.752 14.6482Z" fill="#85BC5D"/>
<path fill-rule="evenodd" clip-rule="evenodd" d="M43.4522 33.4817C43.206 33.7279 43.206 34.0971 43.083 34.8357C43.083 35.0819 42.9599 35.205 42.9599 35.205C42.8368 35.205 42.8368 35.0819 42.7137 34.8357C42.7137 34.3433 42.5906 33.4817 42.5906 33.1124C42.5906 32.9893 42.5906 32.8662 42.7137 32.8662H43.3291C43.4522 32.8662 43.4522 32.7431 43.5753 32.62C43.8215 32.1276 45.1756 28.4348 45.6679 27.0808C45.6679 26.9577 45.6679 26.9577 45.6679 26.8346V26.7115C45.791 26.5884 46.0372 26.3422 46.0372 26.2191C46.1603 26.096 46.1603 26.096 46.1603 26.096C46.2834 26.096 46.2834 26.3422 46.5296 26.9577C47.1451 28.681 48.2529 32.0045 48.4991 32.7431L48.6222 32.8662H49.3608C49.3608 32.8662 49.3608 32.8662 49.3608 32.9893C49.2377 33.3586 49.1146 34.2202 48.9915 34.7126C48.9915 34.9588 48.8684 35.0819 48.7453 35.0819C48.6222 35.0819 48.6222 34.9588 48.6222 34.7126C48.6222 34.5895 48.6222 34.3433 48.6222 34.2202C48.6222 33.6048 48.376 33.2355 48.0067 33.2355H43.5753C43.6984 33.2355 43.5753 33.3586 43.4522 33.4817ZM47.5143 32.4969C47.3913 32.1276 46.2834 28.681 45.9141 27.6962C45.9141 27.6962 45.9141 27.5731 45.791 27.6962C45.5448 28.4348 44.3139 31.6353 44.0677 32.2507C44.0677 32.4969 43.9446 32.62 43.9446 32.62C43.9446 32.62 44.0677 32.7431 44.1908 32.7431C44.5601 32.7431 46.8989 32.8662 47.2682 32.7431C47.3913 32.7431 47.3913 32.7431 47.3913 32.62C47.5143 32.7431 47.5143 32.62 47.5143 32.4969Z" fill="#85BC5D"/>
<path fill-rule="evenodd" clip-rule="evenodd" d="M54.6538 26.3422C54.7769 26.5884 54.9 27.0808 55.1462 27.6962C55.7616 29.2965 56.5002 31.3891 56.7464 31.8814C57.1157 32.7431 57.2388 32.8662 57.7311 32.9893C57.8542 32.9893 57.9773 33.1124 57.9773 33.2355C57.9773 33.3586 57.8542 33.3586 57.608 33.3586C57.2388 33.3586 56.6233 33.2355 56.254 33.2355C55.8847 33.2355 55.6385 33.2355 55.3924 33.2355C55.1462 33.2355 55.0231 33.1124 55.0231 33.1124C55.0231 33.1124 55.1462 32.9893 55.2693 32.9893C55.7616 32.8662 55.7616 32.62 55.7616 32.4969C55.6385 32.1276 54.2845 27.9424 54.0383 27.6962C54.0383 27.5731 53.9152 27.5731 53.9152 27.6962C53.669 28.3117 52.315 32.1276 52.315 32.4969C52.315 32.62 52.315 32.8662 52.8074 32.9893C53.0536 32.9893 53.0536 33.1124 53.0536 33.2355C53.0536 33.3586 52.9305 33.3586 52.8074 33.3586C52.5612 33.3586 52.315 33.3586 51.9457 33.3586C51.5764 33.3586 50.961 33.4817 50.8379 33.4817C50.5917 33.4817 50.5917 33.4817 50.5917 33.3586C50.5917 33.2355 50.7148 33.2355 50.8379 33.1124C51.3302 32.9893 51.5764 32.8662 51.8226 32.1276C52.0688 31.5122 53.2998 28.3117 53.7921 27.2039C53.7921 27.0808 53.7921 27.0808 53.7921 26.9577V26.8346C53.9152 26.7115 54.0383 26.3422 54.1614 26.2191C54.2845 26.096 54.2845 26.096 54.4076 26.096C54.5307 26.096 54.5307 26.096 54.6538 26.3422Z" fill="#85BC5D"/>
<path fill-rule="evenodd" clip-rule="evenodd" d="M65.1168 33.3586C64.9938 33.3586 64.5014 33.3586 64.009 33.3586C63.6397 33.3586 63.0242 33.3586 62.7781 33.3586C62.655 33.3586 62.5319 33.3586 62.5319 33.2355C62.5319 33.1124 62.655 33.1124 62.7781 32.9893C63.2704 32.8662 63.3935 32.7431 63.3935 32.2507C63.3935 31.6353 63.3935 30.5274 63.3935 30.035V29.9119C62.9011 29.9119 62.5319 30.1581 62.0395 30.8967C61.424 31.7583 61.0547 32.2507 60.8085 32.62C60.4393 32.9893 59.9469 33.2355 59.3314 33.2355C58.839 33.2355 58.7159 33.2355 58.7159 32.9893C58.7159 32.9893 58.839 32.8662 58.9621 32.8662C59.4545 32.7431 59.9469 32.2507 60.8085 31.1429C61.424 30.4043 61.5471 30.1581 61.9164 29.9119V29.7888C61.3009 29.6657 60.3162 29.1734 60.3162 27.9424C60.3162 27.327 60.5624 26.9577 60.9316 26.5884C61.3009 26.2191 61.9164 26.096 63.0242 26.096C63.5166 26.096 63.8859 26.096 64.2552 26.096H65.1168C65.2399 26.096 65.363 26.096 65.363 26.2191C65.363 26.3422 65.2399 26.3422 65.1168 26.4653C64.5014 26.5884 64.5014 26.7115 64.5014 26.8346C64.5014 27.0808 64.5014 27.327 64.5014 29.0503C64.5014 30.7736 64.5014 31.5122 64.5014 32.1276C64.5014 32.4969 64.6245 32.62 65.1168 32.8662C65.2399 32.8662 65.363 32.9893 65.363 33.1124C65.4861 33.2355 65.2399 33.3586 65.1168 33.3586ZM63.5166 26.9577C63.5166 26.7115 63.5166 26.7115 63.3935 26.7115C63.2704 26.5884 63.0242 26.5884 62.9011 26.5884C61.7933 26.5884 61.3009 27.327 61.3009 27.9424C61.3009 28.5579 61.5471 28.8041 61.7933 29.1734C62.1626 29.5426 62.7781 29.6657 63.2704 29.6657C63.2704 29.6657 63.3935 29.6657 63.3935 29.5426C63.5166 28.9272 63.5166 27.45 63.5166 26.9577Z" fill="#85BC5D"/>
<path fill-rule="evenodd" clip-rule="evenodd" d="M70.9023 26.5884C70.7792 26.5884 70.6561 26.5884 70.533 26.7114C70.533 26.7114 70.4099 26.8345 70.4099 27.0807C70.4099 27.3269 70.4099 28.681 70.4099 29.9119C70.4099 30.8967 70.4099 31.7583 70.4099 32.0045C70.4099 32.7431 70.533 32.8662 71.0254 32.9893C71.2716 32.9893 71.2716 33.1123 71.2716 33.2354C71.2716 33.3585 71.0254 33.3585 70.9023 33.3585C70.6561 33.3585 70.1637 33.3585 69.6713 33.3585C69.3021 33.3585 68.9328 33.3585 68.5635 33.3585C68.3173 33.3585 68.1942 33.3585 68.1942 33.2354C68.1942 33.1123 68.3173 33.1123 68.4404 33.1123C69.0559 32.9893 69.179 32.7431 69.179 32.3738C69.179 31.8814 69.179 31.0197 69.179 30.4043C69.179 30.035 69.179 27.6962 69.179 27.3269C69.179 26.9576 69.179 26.7114 68.5635 26.7114C68.3173 26.7114 68.1942 26.5884 68.1942 26.5884C68.1942 26.4653 68.3173 26.4653 68.4404 26.4653C68.5635 26.4653 68.6866 26.4653 68.8097 26.4653C69.3021 26.4653 70.1637 26.3422 70.6561 26.3422C71.6409 26.3422 72.3794 26.5884 72.7487 26.9576C73.2411 27.45 73.3642 28.0655 73.3642 28.4348C73.3642 29.4195 72.9949 29.7888 72.6256 30.1581C72.3794 30.4043 71.7639 30.6505 71.3947 30.6505C71.2716 30.6505 71.0254 30.6505 70.7792 30.5274C70.6561 30.5274 70.533 30.4043 70.533 30.2812C70.533 30.2812 70.533 30.1581 70.6561 30.1581H70.9023C71.5178 30.1581 72.2563 29.6657 72.2563 28.4348C72.6256 27.45 71.887 26.5884 70.9023 26.5884Z" fill="#85BC5D"/>
<path fill-rule="evenodd" clip-rule="evenodd" d="M77.7956 26.3421C77.9187 26.5883 78.0417 27.0807 78.2879 27.6962C78.9034 29.2964 79.642 31.389 79.8882 31.8814C80.2574 32.743 80.3805 32.8661 80.8729 32.9892C80.996 32.9892 81.1191 33.1123 81.1191 33.1123C81.1191 33.2354 80.996 33.2354 80.7498 33.2354C80.3805 33.2354 79.7651 33.2354 79.3958 33.2354C79.0265 33.2354 78.9034 33.2354 78.5341 33.2354C78.2879 33.2354 78.1648 33.1123 78.1648 33.1123C78.1648 33.1123 78.2879 32.9892 78.411 32.9892C78.9034 32.8661 78.9034 32.6199 78.9034 32.4968C78.7803 32.1276 78.5341 31.389 78.2879 30.6504C78.2879 30.6504 78.1648 30.5273 77.9187 30.5273C77.1801 30.5273 76.3184 30.5273 76.0722 30.5273L75.9491 30.6504C75.703 31.389 75.4568 32.2506 75.4568 32.4968C75.4568 32.6199 75.5799 32.8661 75.9491 32.9892C76.1953 32.9892 76.1953 33.1123 76.1953 33.2354C76.1953 33.3585 76.0722 33.3585 75.826 33.3585C75.5799 33.3585 75.3337 33.3585 74.9644 33.3585C74.5951 33.3585 73.9796 33.3585 73.8565 33.3585C73.6104 33.3585 73.6104 33.3585 73.6104 33.2354C73.6104 33.1123 73.7334 33.1123 73.8565 32.9892C74.3489 32.8661 74.5951 32.743 74.8413 32.0045C75.0875 31.389 76.3184 28.1885 76.8108 27.0807C76.8108 26.9576 76.9339 26.9576 76.9339 26.8345C76.9339 26.8345 76.9339 26.8345 76.9339 26.7114C77.057 26.5883 77.1801 26.219 77.3032 26.0959C77.4263 25.9728 77.4263 25.9728 77.5494 25.9728C77.6725 26.0959 77.6725 26.0959 77.7956 26.3421ZM78.0417 29.9119C77.9187 29.4195 77.3032 27.8193 77.1801 27.5731C77.1801 27.45 77.057 27.45 77.057 27.5731C76.9339 28.1885 76.3184 29.6657 76.3184 30.0349C76.3184 30.0349 76.3184 30.158 76.4415 30.158C76.8108 30.0349 77.6725 30.035 78.0417 29.9119C78.0417 30.035 78.0417 30.035 78.0417 29.9119Z" fill="#85BC5D"/>
<path fill-rule="evenodd" clip-rule="evenodd" d="M85.4273 29.4195C85.4273 29.4195 85.4273 29.5426 85.4273 29.4195C86.1659 29.7888 86.9044 30.4042 86.9044 31.2659C86.9044 32.743 85.4273 33.4816 84.0733 33.4816C83.3347 33.4816 82.9654 33.3585 82.5961 33.1123C82.35 32.9892 82.2269 32.8661 82.2269 32.6199C82.2269 32.4968 82.1038 31.8814 82.1038 31.7583C82.1038 31.6352 82.1038 31.389 82.2269 31.389C82.2269 31.389 82.35 31.389 82.473 31.6352C82.8423 32.6199 83.5809 32.9892 84.3195 32.9892C84.6887 32.9892 85.1811 32.743 85.4273 32.3737C85.6735 32.1276 85.7966 31.6352 85.7966 31.1428C85.7966 30.035 85.058 29.6657 84.4426 29.6657C84.3195 29.6657 83.9502 29.7888 83.8271 29.7888C83.5809 29.7888 83.3347 29.6657 83.3347 29.5426C83.3347 29.4195 83.4578 29.1733 83.8271 29.1733C84.0733 29.1733 84.4426 29.2964 84.5656 29.2964C85.058 29.2964 85.5504 28.9271 85.5504 27.9423C85.5504 27.2038 85.058 26.3421 84.3195 26.3421C83.8271 26.3421 83.4578 26.5883 83.2116 26.8345C82.9654 27.0807 82.8423 27.3269 82.7192 27.6962C82.7192 27.8193 82.5961 27.9423 82.473 27.9423C82.35 27.9423 82.35 27.8193 82.35 27.5731L82.473 26.7114C82.473 26.5883 82.5961 26.3421 82.5961 26.3421C82.8423 26.3421 82.9654 26.219 83.2116 26.219C83.704 25.9728 84.0733 25.9728 84.4426 25.9728C85.7966 25.9728 86.5352 26.7114 86.5352 27.6962C86.5352 28.6809 85.9197 29.1733 85.4273 29.4195Z" fill="#85BC5D"/>
<path fill-rule="evenodd" clip-rule="evenodd" d="M92.1976 29.2964C92.1976 29.2964 92.1976 29.4195 92.1976 29.2964C92.8131 29.6657 93.5517 30.1581 93.5517 31.1428C93.5517 31.8814 93.1824 32.3738 92.69 32.7431C92.1976 33.1123 91.2129 33.2354 90.7205 33.2354C90.4743 33.2354 89.3665 33.2354 88.8741 33.2354C88.6279 33.2354 88.3817 33.2354 88.1355 33.2354C88.0124 33.2354 87.7662 33.2354 87.7662 33.1123C87.7662 32.9892 87.8893 32.9892 88.0124 32.9892C88.751 32.8661 88.751 32.7431 88.8741 32.3738C88.8741 32.1276 88.9972 31.0197 88.9972 28.804C88.9972 27.8193 88.9972 27.2038 88.8741 27.0807C88.8741 26.8345 88.751 26.7114 88.2586 26.7114C88.1355 26.7114 88.0124 26.5883 88.0124 26.4652C88.0124 26.3421 88.1355 26.3421 88.2586 26.3421H88.9972C89.3665 26.3421 90.3512 26.2191 90.8436 26.2191C91.4591 26.2191 92.0745 26.3421 92.4438 26.5883C92.9362 26.9576 93.1824 27.45 93.1824 27.9424C93.0593 28.804 92.5669 29.1733 92.1976 29.2964ZM91.5822 29.9119C91.336 29.7888 90.8436 29.6657 90.4743 29.6657C90.2281 29.6657 90.105 29.7888 89.9819 29.7888C89.9819 29.7888 89.8588 29.9119 89.8588 30.1581C89.8588 30.5274 89.8588 31.8814 89.8588 32.2507C89.8588 32.3738 89.9819 32.4969 89.9819 32.62C90.2281 32.8661 90.5974 32.9892 90.7205 32.9892C91.5821 32.9892 92.3207 32.3738 92.3207 31.2659C92.4438 30.6504 92.0745 30.1581 91.5822 29.9119ZM90.4743 26.5883C90.3512 26.5883 90.105 26.5883 89.9819 26.7114L89.8588 26.8345C89.8588 26.9576 89.8588 27.45 89.8588 29.1733C89.8588 29.1733 89.8588 29.2964 89.9819 29.2964C90.4743 29.2964 91.2129 29.1733 91.4591 29.0502C91.8283 28.804 92.0745 28.4348 92.0745 27.9424C92.0745 27.0807 91.4591 26.5883 90.4743 26.5883Z" fill="#85BC5D"/>
<path fill-rule="evenodd" clip-rule="evenodd" d="M94.9057 26.2191C95.1519 26.2191 95.6443 26.2191 95.8905 26.2191C96.3829 26.2191 96.8752 26.2191 97.1214 26.2191C97.3676 26.2191 97.3676 26.3421 97.3676 26.3421C97.3676 26.4652 97.2445 26.4652 96.9983 26.5883C96.506 26.7114 96.506 26.8345 96.3829 27.3269C96.3829 28.0655 96.3829 31.1428 96.3829 31.389C96.3829 31.5121 96.3829 31.5121 96.506 31.5121C96.506 31.5121 99.9526 27.9424 100.322 27.5731C100.322 27.5731 100.445 27.45 100.445 27.3269V27.0807C100.445 26.9576 100.322 26.7114 99.9526 26.5883C99.8295 26.5883 99.7064 26.4652 99.7064 26.3421C99.7064 26.2191 99.8295 26.2191 99.9526 26.2191C100.076 26.2191 100.814 26.2191 101.06 26.2191C101.43 26.2191 101.922 26.2191 102.045 26.2191C102.291 26.2191 102.291 26.2191 102.291 26.3421C102.291 26.4652 102.291 26.4652 102.045 26.5883C101.553 26.7114 101.43 26.8345 101.43 27.2038C101.43 27.5731 101.43 29.4195 101.43 30.5274C101.43 31.1428 101.43 32.0045 101.43 32.1276C101.43 32.7431 101.553 32.8661 102.045 32.9892C102.168 32.9892 102.291 33.1123 102.291 33.2354C102.291 33.3585 102.168 33.3585 101.922 33.3585C101.676 33.3585 101.184 33.3585 100.814 33.3585C100.568 33.3585 99.8295 33.4816 99.7064 33.4816C99.4602 33.4816 99.4602 33.4816 99.4602 33.3585C99.4602 33.2354 99.5833 33.2354 99.7064 33.1123C100.322 32.9892 100.322 32.8661 100.322 32.1276C100.322 31.0197 100.445 28.4348 100.322 28.3117C100.322 28.1886 100.322 28.1886 100.199 28.1886C98.3524 30.1581 97.1214 31.389 96.2598 32.2507C96.2598 32.2507 96.1367 32.3738 96.1367 32.4969C96.1367 32.62 96.1367 32.62 96.1367 32.7431C96.1367 32.8661 96.2598 32.9892 96.629 33.1123C96.8752 33.1123 96.9983 33.2354 96.9983 33.3585C96.9983 33.4816 96.8752 33.4816 96.629 33.4816C96.506 33.4816 95.8905 33.4816 95.5212 33.4816C95.275 33.4816 94.7826 33.4816 94.4133 33.4816C94.1672 33.4816 94.0441 33.4816 94.0441 33.3585C94.0441 33.2354 94.1672 33.2354 94.2903 33.1123C94.7826 32.9892 94.9057 32.8661 95.0288 32.3738C95.0288 32.0045 95.0288 31.0197 95.0288 29.5426C95.0288 28.5578 95.0288 27.8193 95.0288 27.3269C95.0288 26.9576 94.9057 26.8345 94.5364 26.8345C94.2903 26.7114 94.1672 26.7114 94.1672 26.5883C94.6595 26.3421 94.7826 26.2191 94.9057 26.2191Z" fill="#85BC5D"/>
<path fill-rule="evenodd" clip-rule="evenodd" d="M109.431 26.3422C109.8 26.3422 110.046 26.2191 110.169 26.096C110.292 26.096 110.292 25.9729 110.292 25.9729C110.292 25.9729 110.416 26.096 110.292 26.2191C110.169 26.5884 110.169 26.9576 110.046 27.45C110.046 27.5731 109.923 27.6962 109.8 27.6962C109.677 27.6962 109.677 27.5731 109.677 27.3269C109.554 26.7115 109.431 26.7115 108.815 26.7115C108.569 26.7115 107.461 26.7115 107.338 26.7115L107.215 26.8345C107.215 27.3269 107.215 28.4348 107.215 29.4195C107.215 30.6505 107.215 31.7583 107.215 32.1276C107.215 32.62 107.338 32.7431 107.954 32.8662C108.077 32.8662 108.2 32.9893 108.2 33.1124C108.2 33.2354 107.954 33.2354 107.954 33.2354C107.831 33.2354 107.092 33.2354 106.6 33.2354C106.107 33.2354 105.492 33.3585 105.369 33.3585C105.123 33.3585 104.999 33.2354 104.999 33.2354C104.999 33.1124 105.123 33.1124 105.246 32.9893C105.984 32.8662 105.984 32.62 106.107 31.8814C106.107 31.2659 106.23 29.0502 106.23 28.1886V26.8345C106.23 26.7115 106.107 26.7115 106.107 26.7115C105.861 26.7115 104.999 26.7115 104.753 26.7115C104.384 26.7115 104.138 26.8345 104.015 26.9576C104.015 26.9576 103.892 27.2038 103.645 27.5731C103.522 27.8193 103.522 27.8193 103.399 27.8193C103.276 27.8193 103.276 27.6962 103.276 27.5731C103.276 27.3269 103.522 26.7115 103.522 26.096C103.522 25.9729 103.645 25.8498 103.645 25.8498L103.769 25.9729C103.769 25.9729 104.015 26.2191 104.138 26.2191C104.384 26.2191 105.369 26.3422 106.6 26.3422C107.584 26.3422 109.062 26.3422 109.431 26.3422Z" fill="#85BC5D"/>
<path fill-rule="evenodd" clip-rule="evenodd" d="M111.893 26.2191C112.139 26.2191 112.631 26.2191 112.877 26.2191C113.37 26.2191 113.862 26.2191 114.108 26.2191C114.354 26.2191 114.354 26.3421 114.354 26.3421C114.354 26.4652 114.231 26.4652 113.985 26.5883C113.493 26.7114 113.493 26.8345 113.37 27.3269C113.37 28.0655 113.37 31.1428 113.37 31.389C113.37 31.5121 113.37 31.5121 113.493 31.5121C113.493 31.5121 116.939 27.9424 117.309 27.5731C117.309 27.5731 117.432 27.45 117.432 27.3269V27.0807C117.432 26.9576 117.309 26.7114 116.939 26.5883C116.816 26.5883 116.693 26.4652 116.693 26.3421C116.693 26.2191 116.816 26.2191 116.939 26.2191C117.063 26.2191 117.801 26.2191 118.047 26.2191C118.417 26.2191 118.909 26.2191 119.032 26.2191C119.278 26.2191 119.278 26.2191 119.278 26.3421C119.278 26.4652 119.278 26.4652 119.032 26.5883C118.54 26.7114 118.417 26.8345 118.417 27.2038C118.417 27.5731 118.417 29.4195 118.417 30.5274C118.417 31.1428 118.417 32.0045 118.417 32.1276C118.417 32.7431 118.54 32.8661 119.032 32.9892C119.155 32.9892 119.278 33.1123 119.278 33.2354C119.278 33.3585 119.155 33.3585 118.909 33.3585C118.663 33.3585 118.17 33.3585 117.801 33.3585C117.555 33.3585 116.816 33.4816 116.693 33.4816C116.447 33.4816 116.447 33.4816 116.447 33.3585C116.447 33.2354 116.57 33.2354 116.693 33.1123C117.309 32.9892 117.309 32.8661 117.309 32.1276C117.309 31.0197 117.432 28.4348 117.309 28.3117C117.309 28.1886 117.309 28.1886 117.186 28.1886C115.339 30.1581 114.108 31.389 113.247 32.2507C113.247 32.2507 113.123 32.3738 113.123 32.4969C113.123 32.62 113.123 32.62 113.123 32.7431C113.123 32.8661 113.247 32.9892 113.616 33.1123C113.862 33.1123 113.985 33.2354 113.985 33.3585C113.985 33.4816 113.862 33.4816 113.616 33.4816C113.493 33.4816 112.877 33.4816 112.508 33.4816C112.262 33.4816 111.769 33.4816 111.4 33.4816C111.154 33.4816 111.031 33.4816 111.031 33.3585C111.031 33.2354 111.154 33.2354 111.277 33.1123C111.769 32.9892 111.893 32.8661 112.016 32.3738C112.016 32.0045 112.016 31.0197 112.016 29.5426C112.016 28.5578 112.016 27.8193 112.016 27.3269C112.016 26.9576 111.893 26.8345 111.523 26.8345C111.277 26.7114 111.154 26.7114 111.154 26.5883C111.646 26.3421 111.769 26.2191 111.893 26.2191Z" fill="#85BC5D"/>
<path fill-rule="evenodd" clip-rule="evenodd" d="M126.91 33.3586C126.787 33.3586 126.295 33.3586 125.802 33.3586C125.433 33.3586 124.818 33.3586 124.571 33.3586C124.448 33.3586 124.325 33.3586 124.325 33.2355C124.325 33.1124 124.448 33.1124 124.571 32.9893C125.064 32.8662 125.187 32.7431 125.187 32.2507C125.187 31.6353 125.187 30.5274 125.187 30.035V29.9119C124.694 29.9119 124.325 30.1581 123.833 30.8967C123.217 31.7583 122.848 32.2507 122.602 32.62C122.233 32.9893 121.74 33.2355 121.125 33.2355C120.632 33.2355 120.509 33.2355 120.509 32.9893C120.509 32.9893 120.632 32.8662 120.755 32.8662C121.248 32.7431 121.74 32.2507 122.602 31.1429C123.217 30.4043 123.34 30.1581 123.71 29.9119V29.7888C123.094 29.6657 122.109 29.1734 122.109 27.9424C122.109 27.327 122.356 26.9577 122.725 26.5884C123.094 26.2191 123.71 26.096 124.818 26.096C125.31 26.096 125.679 26.096 126.049 26.096H126.91C127.033 26.096 127.156 26.096 127.156 26.2191C127.156 26.3422 127.033 26.3422 126.91 26.4653C126.295 26.5884 126.295 26.7115 126.295 26.8346C126.295 27.0808 126.295 27.327 126.295 29.0503C126.295 30.7736 126.295 31.5122 126.295 32.1276C126.295 32.4969 126.418 32.62 126.91 32.8662C127.033 32.8662 127.156 32.9893 127.156 33.1124C127.156 33.2355 127.033 33.3586 126.91 33.3586ZM125.187 26.9577C125.187 26.7115 125.187 26.7115 125.064 26.7115C124.941 26.5884 124.694 26.5884 124.571 26.5884C123.464 26.5884 122.971 27.327 122.971 27.9424C122.971 28.5579 123.217 28.8041 123.464 29.1734C123.833 29.5426 124.448 29.6657 124.941 29.6657C124.941 29.6657 125.064 29.6657 125.064 29.5426C125.31 28.9272 125.187 27.45 125.187 26.9577Z" fill="#85BC5D"/>
<path fill-rule="evenodd" clip-rule="evenodd" d="M44.6831 42.7137C44.6831 42.8368 44.6831 42.9599 44.8062 42.9599C45.0524 42.9599 45.5448 42.8368 45.9141 42.8368C47.3912 42.8368 48.376 43.5754 48.376 44.8063C48.376 45.668 47.8836 46.1604 47.3912 46.5296C46.8988 46.8989 45.9141 47.022 45.5448 47.022C45.2986 47.022 44.4369 47.022 43.9446 47.022C43.4522 47.022 43.206 47.022 43.0829 47.022C42.9598 47.022 42.7136 47.022 42.7136 46.8989C42.7136 46.7758 42.8367 46.7758 42.9598 46.6527C43.5753 46.5296 43.6984 46.4065 43.6984 46.0373C43.6984 45.7911 43.8215 44.6832 43.8215 42.5906C43.8215 41.6059 43.8215 40.8673 43.8215 40.7442C43.8215 40.498 43.5753 40.3749 43.0829 40.2518C42.9598 40.2518 42.8367 40.1287 42.8367 40.0056C42.8367 39.8826 42.9598 39.8826 43.0829 39.8826H44.3138H46.4065C47.0219 39.8826 47.145 39.8826 47.3912 39.7595C47.5143 39.7595 47.5143 39.7595 47.6374 39.7595C47.6374 39.7595 47.7605 39.7595 47.7605 40.0056C47.7605 40.0056 47.7605 40.8673 47.7605 41.1135C47.7605 41.2366 47.6374 41.3597 47.6374 41.3597C47.5143 41.3597 47.5143 41.2366 47.3912 40.9904C47.2681 40.6211 47.145 40.2518 46.6526 40.2518C46.4065 40.2518 45.2986 40.2518 45.0524 40.2518C44.9293 40.2518 44.9293 40.3749 44.9293 40.498C44.6831 40.9904 44.6831 42.4675 44.6831 42.7137ZM45.4217 43.2061C45.0524 43.2061 44.9293 43.2061 44.8062 43.3292C44.8062 43.3292 44.6831 43.4523 44.6831 43.5754C44.6831 43.8216 44.6831 45.5449 44.6831 45.7911C44.6831 46.2835 45.1755 46.6527 45.5448 46.6527C46.0372 46.6527 46.4065 46.5296 46.6526 46.1604C46.8988 45.9142 47.145 45.4218 47.145 44.9294C47.145 44.0678 46.6526 43.2061 45.4217 43.2061Z" fill="#85BC5D"/>
<path fill-rule="evenodd" clip-rule="evenodd" d="M49.607 39.8826C49.8532 39.8826 50.3456 39.8826 50.5918 39.8826C51.0842 39.8826 51.5765 39.8826 51.8227 39.8826C52.0689 39.8826 52.0689 40.0057 52.0689 40.0057C52.0689 40.1288 51.9458 40.1288 51.6996 40.2519C51.2072 40.3749 51.2072 40.498 51.0842 40.9904C51.0842 41.729 51.0842 44.8063 51.0842 45.0525C51.0842 45.1756 51.0842 45.1756 51.2072 45.1756C51.2072 45.1756 54.6539 41.6059 55.0232 41.2366C55.0232 41.2366 55.1463 41.1135 55.1463 40.9904V40.7442C55.1463 40.6211 55.0232 40.3749 54.6539 40.2519C54.5308 40.2519 54.4077 40.1288 54.4077 40.0057C54.4077 39.8826 54.5308 39.8826 54.6539 39.8826C54.777 39.8826 55.5155 39.8826 55.7617 39.8826C56.131 39.8826 56.6234 39.8826 56.7465 39.8826C56.9927 39.8826 56.9927 39.8826 56.9927 40.0057C56.9927 40.1288 56.9927 40.1288 56.7465 40.2519C56.2541 40.3749 56.131 40.498 56.131 40.7442C56.131 41.1135 56.131 42.9599 56.131 44.0678C56.131 44.6832 56.131 45.5449 56.131 45.668C56.131 46.2835 56.2541 46.4066 56.7465 46.5297C56.8696 46.5297 56.9927 46.6528 56.9927 46.7758C56.9927 46.8989 56.8696 46.8989 56.6234 46.8989C56.3772 46.8989 55.8848 46.8989 55.5155 46.8989C55.2694 46.8989 54.5308 47.022 54.4077 47.022C54.1615 47.022 54.1615 47.022 54.1615 46.8989C54.1615 46.7758 54.2846 46.7758 54.4077 46.6528C55.0232 46.5297 55.0232 46.4066 55.0232 45.668C55.0232 44.5602 55.1463 41.9752 55.0232 41.8521C55.0232 41.729 55.0232 41.729 54.9001 41.729C53.0537 43.6985 51.8227 44.9294 50.9611 45.7911C50.9611 45.7911 50.838 45.9142 50.838 46.0373C50.838 46.1604 50.838 46.1604 50.838 46.2835C50.838 46.4066 50.9611 46.5297 51.3303 46.6528C51.5765 46.6528 51.6996 46.7758 51.6996 46.8989C51.6996 47.022 51.5765 47.022 51.3303 47.022C51.2072 47.022 50.5918 47.022 50.2225 47.022C49.9763 47.022 49.4839 47.022 49.1146 47.022C48.8685 47.022 48.7454 47.022 48.7454 46.8989C48.7454 46.7758 48.8685 46.7758 48.9916 46.6528C49.4839 46.5297 49.607 46.4066 49.7301 45.9142C49.7301 45.5449 49.7301 44.5602 49.7301 43.083C49.7301 42.0983 49.7301 41.3597 49.7301 40.8673C49.7301 40.498 49.607 40.3749 49.2377 40.3749C48.9916 40.2519 48.8685 40.2519 48.8685 40.1288C49.3608 40.0057 49.4839 39.8826 49.607 39.8826Z" fill="#85BC5D"/>
<path fill-rule="evenodd" clip-rule="evenodd" d="M61.7934 43.083C61.7934 43.083 61.7934 43.2061 61.7934 43.083C62.532 43.4523 63.2705 44.0677 63.2705 44.9294C63.2705 46.4065 61.7934 47.1451 60.4394 47.1451C59.7008 47.1451 59.3315 47.022 58.9622 46.7758C58.716 46.6527 58.5929 46.5296 58.5929 46.2834C58.5929 46.1603 58.4698 45.5449 58.4698 45.4218C58.4698 45.1756 58.4698 45.0525 58.5929 45.0525C58.5929 45.0525 58.716 45.0525 58.8391 45.2987C59.2084 46.2834 59.947 46.6527 60.6855 46.6527C61.0548 46.6527 61.5472 46.4065 61.7934 46.0372C62.0396 45.7911 62.1627 45.2987 62.1627 44.8063C62.1627 43.6984 61.4241 43.3292 60.8086 43.3292C60.6855 43.3292 60.3163 43.4523 60.1932 43.4523C59.947 43.4523 59.7008 43.3292 59.7008 43.2061C59.7008 43.083 59.8239 42.8368 60.1932 42.8368C60.4394 42.8368 60.8086 42.9599 60.9317 42.9599C61.4241 42.9599 61.9165 42.5906 61.9165 41.6058C61.9165 40.8673 61.4241 40.0056 60.6855 40.0056C60.1932 40.0056 59.8239 40.2518 59.5777 40.498C59.4546 40.7442 59.2084 40.9904 59.0853 41.3597C59.0853 41.4828 58.9622 41.6058 58.8391 41.6058C58.716 41.6058 58.716 41.4828 58.716 41.2366L58.8391 40.3749C58.8391 40.2518 58.9622 40.0056 58.9622 40.0056C59.2084 40.0056 59.3315 39.8825 59.5777 39.7594C60.0701 39.5132 60.4394 39.5132 60.8086 39.5132C62.1627 39.5132 62.9012 40.2518 62.9012 41.2366C62.9012 42.3444 62.2858 42.8368 61.7934 43.083Z" fill="#85BC5D"/>
<path fill-rule="evenodd" clip-rule="evenodd" d="M66.3478 43.2061C66.9633 43.2061 68.4404 43.2061 70.2868 43.2061C70.4099 43.2061 70.4099 43.083 70.4099 42.9599C70.4099 42.8368 70.4099 41.4827 70.4099 40.9904C70.4099 40.6211 70.2868 40.498 69.7944 40.3749C69.6713 40.3749 69.5482 40.2518 69.5482 40.1287C69.5482 40.0056 69.6713 40.0056 69.9175 40.0056C70.0406 40.0056 70.7792 40.0056 71.0254 40.0056C71.3946 40.0056 71.887 40.0056 72.0101 40.0056C72.2563 40.0056 72.3794 40.0056 72.3794 40.1287C72.3794 40.2518 72.2563 40.2518 72.0101 40.3749C71.5177 40.498 71.5177 40.6211 71.5177 40.9904C71.5177 41.4827 71.3946 42.7137 71.3946 44.437C71.3946 45.0525 71.3946 45.9141 71.3946 46.1603C71.3946 46.5296 71.5177 46.6527 72.0101 46.7758C72.1332 46.7758 72.2563 46.8989 72.2563 47.022C72.2563 47.1451 72.1332 47.1451 72.0101 47.1451C71.887 47.1451 71.3946 47.1451 71.0254 47.1451C70.7792 47.1451 69.9175 47.2682 69.7944 47.2682C69.5482 47.2682 69.5482 47.2682 69.5482 47.1451C69.5482 47.022 69.6713 47.022 69.7944 46.8989C70.4099 46.7758 70.4099 46.6527 70.4099 45.791C70.4099 45.2987 70.4099 44.5601 70.4099 44.0677C70.4099 43.8215 70.4099 43.8215 70.2868 43.8215C68.8097 43.8215 66.594 43.8215 66.3478 43.8215C66.3478 43.8215 66.2247 43.9446 66.2247 44.0677C66.2247 44.3139 66.2247 45.6679 66.2247 46.0372C66.2247 46.5296 66.3478 46.7758 66.8402 46.8989C67.0863 47.022 67.2094 47.022 67.2094 47.1451C67.2094 47.2682 66.9632 47.2682 66.8402 47.2682C66.7171 47.2682 66.1016 47.2682 65.6092 47.2682C65.363 47.2682 64.8706 47.2682 64.5014 47.2682C64.2552 47.2682 64.1321 47.2682 64.1321 47.1451C64.1321 47.022 64.2552 47.022 64.3783 46.8989C64.8706 46.7758 64.9937 46.6527 64.9937 46.1603C64.9937 45.668 65.1168 44.437 65.1168 42.7137C65.1168 42.4675 65.1168 41.6058 65.1168 41.1135C65.1168 40.7442 64.9937 40.6211 64.6245 40.498C64.3783 40.498 64.2552 40.3749 64.2552 40.2518C64.2552 40.1287 64.3783 40.1287 64.5014 40.1287C64.7476 40.1287 65.2399 40.1287 65.4861 40.1287C65.9785 40.1287 66.3478 40.1287 66.594 40.1287C66.8402 40.1287 66.9633 40.1287 66.9633 40.2518C66.9633 40.3749 66.8402 40.3749 66.594 40.498C66.1016 40.6211 66.1016 40.7442 65.9785 41.2366C65.9785 41.6058 65.9785 42.9599 65.9785 43.2061C66.2247 43.083 66.2247 43.2061 66.3478 43.2061Z" fill="#85BC5D"/>
<path fill-rule="evenodd" clip-rule="evenodd" d="M77.3032 40.0057C77.6725 40.0057 78.1649 40.0057 78.288 40.0057L78.4111 40.1288C78.4111 40.6211 78.4111 40.9904 78.4111 41.2366C78.4111 41.3597 78.288 41.4828 78.288 41.4828C78.1649 41.4828 78.1649 41.3597 78.1649 41.2366C78.0418 40.6211 77.7956 40.498 77.4263 40.498C77.1801 40.498 76.4416 40.3749 75.8261 40.498C75.8261 40.498 75.703 40.498 75.703 40.8673C75.703 41.1135 75.703 43.083 75.703 43.3292C75.703 43.3292 75.703 43.4523 75.8261 43.4523H76.5647C77.5494 43.4523 77.5494 43.4523 77.7956 42.9599C77.9187 42.8368 77.9187 42.7137 78.0418 42.7137C78.1649 42.7137 78.1649 42.8368 78.1649 42.9599C78.1649 43.2061 78.1649 43.4523 78.1649 43.6985C78.1649 43.9447 78.1649 44.1909 78.1649 44.4371C78.1649 44.6832 78.1649 44.6832 78.0418 44.6832C77.9187 44.6832 77.9187 44.5602 77.7956 44.4371C77.6725 43.9447 77.5494 43.9447 76.9339 43.8216C76.5647 43.8216 76.1954 43.8216 75.8261 43.8216L75.703 43.9447C75.703 44.1909 75.703 45.1756 75.703 45.668C75.703 45.9142 75.703 46.4066 75.8261 46.5297C75.8261 46.6528 75.9492 46.7758 76.0723 46.7758C76.3185 46.7758 76.6878 46.8989 77.057 46.8989C77.1801 46.8989 77.7956 46.8989 78.0418 46.7758C78.4111 46.6528 78.6573 46.5297 78.9034 45.9142C79.0265 45.668 79.1496 45.5449 79.1496 45.5449C79.2727 45.5449 79.2727 45.7911 79.2727 45.7911C79.2727 45.9142 78.9034 46.8989 78.9034 47.022C78.9034 47.022 78.7804 47.1451 78.6573 47.1451C78.5342 47.1451 76.6878 47.022 75.0875 47.022C74.4721 47.022 74.2259 47.022 73.8566 47.022C73.6104 47.022 73.4873 47.022 73.4873 46.8989C73.4873 46.7758 73.6104 46.7758 73.7335 46.6528C74.349 46.5297 74.4721 46.4066 74.4721 45.7911C74.4721 45.2987 74.5952 44.1909 74.5952 42.8368C74.5952 41.4828 74.5952 41.2366 74.5952 40.9904C74.5952 40.498 74.4721 40.3749 73.9797 40.2519C73.7335 40.2519 73.6104 40.1288 73.6104 40.0057C73.6104 39.8826 73.7335 39.8826 73.9797 39.8826C74.4721 39.8826 74.9644 39.8826 75.703 39.8826H77.3032V40.0057Z" fill="#85BC5D"/>
<path fill-rule="evenodd" clip-rule="evenodd" d="M85.6737 39.8825C85.9199 39.8825 86.2891 40.0056 86.5353 40.1287C86.5353 40.1287 86.6584 40.2518 86.6584 40.498C86.6584 40.7441 86.6584 41.2365 86.7815 41.4827C86.7815 41.7289 86.6584 41.852 86.6584 41.852C86.6584 41.852 86.5353 41.7289 86.5353 41.6058C86.4122 41.2365 86.2891 40.8672 86.0429 40.8672C85.4275 40.3749 84.9351 40.2518 84.3196 40.2518C82.5963 40.2518 81.4885 41.7289 81.4885 43.3291C81.4885 44.0677 81.6116 44.6832 81.8577 45.1755C82.4732 46.4065 83.7042 46.8989 84.5658 46.8989C84.812 46.8989 85.3044 46.8989 85.6737 46.6527C86.166 46.4065 86.4122 46.0372 86.6584 45.6679C86.7815 45.4217 86.7815 45.4217 86.9046 45.4217C87.0277 45.4217 87.0277 45.6679 87.0277 45.791C87.0277 46.0372 86.7815 46.6527 86.6584 46.8989C86.6584 47.022 86.4122 47.1451 86.2891 47.1451C86.166 47.2681 85.3044 47.3912 84.3196 47.3912C82.7194 47.3912 81.6116 46.6527 81.2423 46.1603C80.873 45.6679 80.3806 44.9294 80.3806 43.6984C80.3806 42.4675 81.1192 41.4827 81.6116 41.1134C82.5963 40.3749 83.5811 40.1287 84.5658 40.1287C84.6889 39.7594 85.1813 39.8825 85.6737 39.8825Z" fill="#85BC5D"/>
<path fill-rule="evenodd" clip-rule="evenodd" d="M91.8283 40.0056C91.9514 40.2518 92.0745 40.7442 92.3207 41.3597C92.9361 42.9599 93.6747 45.0525 93.9209 45.5449C94.2902 46.4066 94.4133 46.5296 94.9056 46.6527C95.0287 46.6527 95.1518 46.7758 95.1518 46.7758C95.1518 46.8989 95.0287 46.8989 94.7825 46.8989C94.4133 46.8989 93.7978 46.8989 93.4285 46.8989C93.0592 46.8989 92.813 46.8989 92.5668 46.8989C92.3206 46.8989 92.1976 46.7758 92.1976 46.7758C92.1976 46.7758 92.3207 46.6527 92.4437 46.6527C92.9361 46.5296 92.9361 46.2835 92.9361 46.1604C92.813 45.7911 92.5668 45.0525 92.3207 44.3139C92.3207 44.3139 92.1976 44.1909 91.9514 44.1909C91.2128 44.1909 90.3511 44.1909 90.105 44.1909L89.9819 44.3139C89.7357 45.0525 89.4895 45.9142 89.4895 46.1604C89.4895 46.2835 89.6126 46.5296 89.9819 46.6527C90.228 46.6527 90.2281 46.7758 90.2281 46.8989C90.2281 47.022 90.105 47.022 89.8588 47.022C89.6126 47.022 89.3664 47.022 88.9971 47.022C88.6278 47.022 88.0124 47.022 87.8893 47.022C87.6431 47.022 87.6431 47.022 87.6431 46.8989C87.6431 46.7758 87.7662 46.7758 87.8893 46.6527C88.3816 46.5296 88.6278 46.4065 88.874 45.668C89.1202 45.0525 90.3511 41.8521 90.8435 40.7442C90.8435 40.6211 90.9666 40.6211 90.9666 40.498C90.9666 40.498 90.9666 40.498 90.9666 40.3749C91.0897 40.2518 91.2128 39.8826 91.3359 39.8826C91.459 39.7595 91.459 39.7595 91.5821 39.7595C91.7052 39.7595 91.7052 39.7595 91.8283 40.0056ZM92.0745 43.5754C91.9514 43.083 91.3359 41.4828 91.2128 41.2366C91.2128 41.1135 91.0897 41.1135 91.0897 41.2366C90.8435 41.729 90.3511 43.2061 90.2281 43.5754C90.2281 43.5754 90.2281 43.6985 90.3511 43.6985C90.8435 43.6985 91.7052 43.6985 92.0745 43.5754C92.0745 43.6985 92.0745 43.5754 92.0745 43.5754Z" fill="#85BC5D"/>
</svg>
