<svg width="150" height="32" viewBox="0 0 150 32" fill="none" xmlns="http://www.w3.org/2000/svg">
<path fill-rule="evenodd" clip-rule="evenodd" d="M11.5209 26.9963C11.5209 25.5092 12.4335 24.7085 13.4601 24.7085C14.6008 24.7085 15.1711 25.5092 15.1711 26.7675C15.1711 26.8819 15.1711 27.1107 15.1711 27.2251H12.2053C12.2053 28.1402 12.7757 28.7122 13.6882 28.7122C14.1445 28.7122 14.4867 28.5978 14.8289 28.369L15.057 28.8266C14.7148 29.0554 14.1445 29.2841 13.5742 29.2841C12.4335 29.2841 11.5209 28.369 11.5209 26.9963ZM14.6008 26.5388C14.6008 25.6236 14.1445 25.1661 13.4601 25.1661C12.8897 25.1661 12.3194 25.6236 12.2053 26.5388H14.6008Z" fill="#91918E"/>
<path fill-rule="evenodd" clip-rule="evenodd" d="M17.3384 24.7085H17.9088L18.0228 25.3948C18.4791 24.9373 18.9354 24.5941 19.5057 24.5941C20.4183 24.5941 20.8745 25.166 20.8745 26.31V29.0553H20.1901V26.31C20.1901 25.5092 19.962 25.166 19.3916 25.166C18.9354 25.166 18.5932 25.3948 18.1369 25.8524V29.0553H17.4525V24.7085H17.3384Z" fill="#91918E"/>
<path fill-rule="evenodd" clip-rule="evenodd" d="M23.27 27.797V25.3948H22.5855V24.8229H23.27L23.384 23.5646H23.9544V24.8229H25.095V25.3948H23.9544V27.9114C23.9544 28.4834 24.0684 28.7122 24.6388 28.7122C24.7528 28.7122 24.981 28.7122 25.095 28.5978L25.2091 29.1697C24.981 29.2841 24.6388 29.2841 24.4106 29.2841C23.6122 29.2841 23.27 28.7122 23.27 27.797Z" fill="#91918E"/>
<path fill-rule="evenodd" clip-rule="evenodd" d="M26.692 26.9963C26.692 25.5092 27.6046 24.7085 28.6312 24.7085C29.7719 24.7085 30.3422 25.5092 30.3422 26.7675C30.3422 26.8819 30.3422 27.1107 30.3422 27.2251H27.3764C27.3764 28.1402 27.9468 28.7122 28.8593 28.7122C29.3156 28.7122 29.6578 28.5978 30 28.369L30.2281 28.8266C29.8859 29.0554 29.3156 29.2841 28.7453 29.2841C27.6046 29.2841 26.692 28.369 26.692 26.9963ZM29.7719 26.5388C29.7719 25.6236 29.3156 25.1661 28.6312 25.1661C28.0608 25.1661 27.4905 25.6236 27.3764 26.5388H29.7719Z" fill="#91918E"/>
<path fill-rule="evenodd" clip-rule="evenodd" d="M32.3954 24.7085H33.0799L33.1939 25.5092C33.5361 24.9373 33.9924 24.5941 34.4487 24.5941C34.6768 24.5941 34.7909 24.5941 34.905 24.7085L34.7909 25.3948C34.6768 25.3948 34.5627 25.2804 34.3346 25.2804C33.9924 25.2804 33.5361 25.5092 33.1939 26.31V29.1697H32.5095V24.7085H32.3954Z" fill="#91918E"/>
<path fill-rule="evenodd" clip-rule="evenodd" d="M36.616 24.7085H37.1863L37.3004 25.166C37.6426 24.8229 38.2129 24.5941 38.6692 24.5941C39.8099 24.5941 40.3802 25.5092 40.3802 26.8819C40.3802 28.369 39.4677 29.2841 38.4411 29.2841C38.0989 29.2841 37.6426 29.0553 37.1863 28.8266V29.6273V31.1144H36.5019V24.7085H36.616ZM39.6958 26.8819C39.6958 25.8524 39.3536 25.2804 38.5551 25.2804C38.2129 25.2804 37.7566 25.5092 37.4144 25.8524V28.1402C37.7566 28.4834 38.2129 28.5978 38.4411 28.5978C39.1255 28.5978 39.6958 28.0258 39.6958 26.8819Z" fill="#91918E"/>
<path fill-rule="evenodd" clip-rule="evenodd" d="M42.5475 24.7085H43.1179L43.2319 25.5092C43.5741 24.9373 44.0304 24.5941 44.4867 24.5941C44.7148 24.5941 44.8289 24.5941 44.943 24.7085L44.8289 25.3948C44.7148 25.3948 44.6007 25.2804 44.3726 25.2804C44.0304 25.2804 43.5741 25.5092 43.2319 26.31V29.1697H42.5475V24.7085Z" fill="#91918E"/>
<path fill-rule="evenodd" clip-rule="evenodd" d="M46.5399 23.3358C46.5399 22.9926 46.7681 22.8782 46.9962 22.8782C47.3384 22.8782 47.4525 23.107 47.4525 23.3358C47.4525 23.5646 47.2243 23.7934 46.9962 23.7934C46.7681 23.7934 46.5399 23.5646 46.5399 23.3358ZM46.654 24.7085H47.3384V29.1697H46.654V24.7085Z" fill="#91918E"/>
<path fill-rule="evenodd" clip-rule="evenodd" d="M49.2776 28.5978L49.6198 28.1402C49.962 28.4834 50.4182 28.7122 50.8745 28.7122C51.4449 28.7122 51.7871 28.369 51.7871 28.0258C51.7871 27.5683 51.2167 27.3395 50.7604 27.2251C50.1901 26.9963 49.3916 26.6531 49.3916 25.9668C49.3916 25.2805 49.962 24.7085 50.8745 24.7085C51.4449 24.7085 51.9011 24.9373 52.2433 25.1661L51.9011 25.6236C51.5589 25.3948 51.3308 25.2805 50.8745 25.2805C50.3042 25.2805 50.076 25.6236 50.076 25.9668C50.076 26.4244 50.5323 26.5388 51.1027 26.7675C51.7871 26.9963 52.4715 27.2251 52.4715 28.1402C52.4715 28.8266 51.9011 29.3985 50.8745 29.3985C50.3042 29.2841 49.7338 28.941 49.2776 28.5978Z" fill="#91918E"/>
<path fill-rule="evenodd" clip-rule="evenodd" d="M54.1825 26.9963C54.1825 25.5092 55.095 24.7085 56.1217 24.7085C57.2623 24.7085 57.8327 25.5092 57.8327 26.7675C57.8327 26.8819 57.8327 27.1107 57.8327 27.2251H54.8669C54.8669 28.1402 55.4372 28.7122 56.3498 28.7122C56.8061 28.7122 57.1483 28.5978 57.4905 28.369L57.7186 28.8266C57.3764 29.0554 56.8061 29.2841 56.2357 29.2841C55.2091 29.2841 54.1825 28.369 54.1825 26.9963ZM57.2623 26.5388C57.2623 25.6236 56.8061 25.1661 56.1217 25.1661C55.5513 25.1661 54.981 25.6236 54.8669 26.5388H57.2623Z" fill="#91918E"/>
<path fill-rule="evenodd" clip-rule="evenodd" d="M62.3954 25.6236C62.3954 25.2804 62.6236 25.0517 62.9658 25.0517C63.308 25.0517 63.5361 25.2804 63.5361 25.6236C63.5361 25.9668 63.308 26.1956 62.9658 26.1956C62.6236 26.1956 62.3954 25.9668 62.3954 25.6236Z" fill="#91918E"/>
<path fill-rule="evenodd" clip-rule="evenodd" d="M68.0989 23.3358C68.0989 22.9926 68.327 22.8782 68.5552 22.8782C68.8974 22.8782 69.0114 23.107 69.0114 23.3358C69.0114 23.5646 68.7833 23.7934 68.5552 23.7934C68.2129 23.7934 68.0989 23.5646 68.0989 23.3358ZM68.2129 24.7085H68.8974V29.1697H68.2129V24.7085Z" fill="#91918E"/>
<path fill-rule="evenodd" clip-rule="evenodd" d="M70.9506 26.9963C70.9506 25.5092 71.8631 24.7085 73.0038 24.7085C74.0304 24.7085 75.057 25.5092 75.057 26.9963C75.057 28.4834 74.1445 29.2841 73.0038 29.2841C71.9772 29.2841 70.9506 28.369 70.9506 26.9963ZM74.2585 26.9963C74.2585 25.9668 73.6882 25.2805 73.0038 25.2805C72.2053 25.2805 71.749 25.9668 71.749 26.9963C71.749 28.0258 72.2053 28.7122 73.0038 28.7122C73.8023 28.5978 74.2585 27.9114 74.2585 26.9963Z" fill="#91918E"/>
<path fill-rule="evenodd" clip-rule="evenodd" d="M77.2243 27.797V25.3948H76.5399V24.8229H77.2243L77.3384 23.5646H77.9087V24.8229H79.0494V25.3948H77.9087V27.9114C77.9087 28.4834 78.0228 28.7122 78.5932 28.7122C78.7072 28.7122 78.9354 28.7122 79.0494 28.5978L79.1635 29.1697C78.9354 29.2841 78.5932 29.2841 78.365 29.2841C77.4525 29.2841 77.2243 28.7122 77.2243 27.797Z" fill="#91918E"/>
<path fill-rule="evenodd" clip-rule="evenodd" d="M83.384 25.6236C83.384 25.2804 83.6122 25.0517 83.9544 25.0517C84.2966 25.0517 84.5247 25.2804 84.5247 25.6236C84.5247 25.9668 84.2966 26.1956 83.9544 26.1956C83.6122 26.1956 83.384 25.9668 83.384 25.6236Z" fill="#91918E"/>
<path fill-rule="evenodd" clip-rule="evenodd" d="M89.886 28.7122L89.7719 29.1697H89.2015V22.6494H89.886V24.3653V25.1661C90.2282 24.8229 90.7985 24.5941 91.2548 24.5941C92.3954 24.5941 92.9658 25.5092 92.9658 26.8819C92.9658 28.369 92.0532 29.2841 91.0266 29.2841C90.7985 29.2841 90.3422 29.0554 89.886 28.7122ZM92.2814 26.8819C92.2814 25.8524 91.9392 25.2804 91.1407 25.2804C90.7985 25.2804 90.3422 25.5092 90 25.8524V28.1402C90.3422 28.4834 90.7985 28.5978 91.0266 28.5978C91.8251 28.5978 92.2814 28.0258 92.2814 26.8819Z" fill="#91918E"/>
<path fill-rule="evenodd" clip-rule="evenodd" d="M95.1331 28.2546V22.6494H95.8175V28.2546C95.8175 28.4834 95.9316 28.5978 96.0456 28.5978H96.1597L96.2738 29.1697C96.1597 29.1697 96.0456 29.2841 95.8175 29.2841C95.3612 29.2841 95.1331 28.941 95.1331 28.2546Z" fill="#91918E"/>
<path fill-rule="evenodd" clip-rule="evenodd" d="M97.9848 26.9963C97.9848 25.5092 98.8973 24.7085 100.038 24.7085C101.065 24.7085 102.091 25.5092 102.091 26.9963C102.091 28.4834 101.179 29.2841 100.038 29.2841C99.0114 29.2841 97.9848 28.369 97.9848 26.9963ZM101.293 26.9963C101.293 25.9668 100.722 25.2805 100.038 25.2805C99.2395 25.2805 98.7833 25.9668 98.7833 26.9963C98.7833 28.0258 99.2395 28.7122 100.038 28.7122C100.837 28.5978 101.293 27.9114 101.293 26.9963Z" fill="#91918E"/>
<path fill-rule="evenodd" clip-rule="evenodd" d="M103.916 26.9963C103.916 25.5092 104.943 24.7085 106.084 24.7085C106.654 24.7085 107.11 24.9373 107.338 25.2805L106.996 25.738C106.768 25.5092 106.426 25.3948 106.084 25.3948C105.285 25.3948 104.715 26.0812 104.715 27.1107C104.715 28.1402 105.285 28.8266 106.084 28.8266C106.54 28.8266 106.882 28.5978 107.11 28.369L107.452 28.8266C107.11 29.1698 106.54 29.3985 106.084 29.3985C104.829 29.2841 103.916 28.369 103.916 26.9963Z" fill="#91918E"/>
<path fill-rule="evenodd" clip-rule="evenodd" d="M109.278 22.6494H109.962V27.1107L111.901 24.7085H112.7L111.217 26.5387L112.928 29.1697H112.129L110.76 26.9963L109.962 28.0258V29.1697H109.278V22.6494Z" fill="#91918E"/>
<path fill-rule="evenodd" clip-rule="evenodd" d="M114.182 26.9963C114.182 25.5092 115.209 24.7085 116.35 24.7085C116.92 24.7085 117.376 24.9373 117.605 25.2805L117.262 25.738C117.034 25.5092 116.692 25.3948 116.35 25.3948C115.551 25.3948 114.981 26.0812 114.981 27.1107C114.981 28.1402 115.551 28.8266 116.35 28.8266C116.806 28.8266 117.148 28.5978 117.376 28.369L117.719 28.8266C117.376 29.1698 116.806 29.3985 116.35 29.3985C115.095 29.2841 114.182 28.369 114.182 26.9963Z" fill="#91918E"/>
<path fill-rule="evenodd" clip-rule="evenodd" d="M119.544 22.6494H120.228V24.3653V25.2804C120.684 24.8229 121.141 24.5941 121.711 24.5941C122.624 24.5941 123.08 25.1661 123.08 26.31V29.0553H122.395V26.31C122.395 25.5092 122.167 25.1661 121.597 25.1661C121.141 25.1661 120.798 25.3948 120.342 25.8524V29.0553H119.658V22.6494H119.544Z" fill="#91918E"/>
<path fill-rule="evenodd" clip-rule="evenodd" d="M125.019 28.0258C125.019 27.1107 125.817 26.5388 127.757 26.4244C127.757 25.8524 127.529 25.2805 126.844 25.2805C126.388 25.2805 125.817 25.5092 125.475 25.738L125.133 25.2805C125.589 25.0517 126.16 24.7085 126.844 24.7085C127.871 24.7085 128.327 25.3948 128.327 26.5388V29.2841H127.757V28.5978C127.3 28.941 126.844 29.2841 126.274 29.2841C125.589 29.2841 125.019 28.8266 125.019 28.0258ZM127.757 28.0258V26.7675C126.274 26.9963 125.817 27.3395 125.817 27.9114C125.817 28.369 126.16 28.5978 126.616 28.5978C126.958 28.5978 127.3 28.4834 127.757 28.0258Z" fill="#91918E"/>
<path fill-rule="evenodd" clip-rule="evenodd" d="M130.608 23.3358C130.608 22.9926 130.837 22.8782 131.065 22.8782C131.407 22.8782 131.521 23.107 131.521 23.3358C131.521 23.5646 131.293 23.7934 131.065 23.7934C130.837 23.7934 130.608 23.5646 130.608 23.3358ZM130.722 24.7085H131.407V29.1697H130.722V24.7085Z" fill="#91918E"/>
<path fill-rule="evenodd" clip-rule="evenodd" d="M133.802 24.7085H134.373L134.487 25.3948C134.943 24.9373 135.399 24.5941 135.97 24.5941C136.882 24.5941 137.338 25.166 137.338 26.31V29.0553H136.654V26.31C136.654 25.5092 136.426 25.166 135.856 25.166C135.399 25.166 135.057 25.3948 134.601 25.8524V29.0553H133.916V24.7085H133.802Z" fill="#91918E"/>
<path fill-rule="evenodd" clip-rule="evenodd" d="M49.6198 13.4982C48.8213 16.3579 49.8479 16.9299 53.27 16.9299H56.3498L57.1483 14.0701H56.0076C55.0951 14.0701 54.7529 13.8413 54.981 13.0406L56.578 6.74908H58.8593L59.6578 3.8893H57.3764L58.289 0H53.0418L52.0152 3.8893H49.7338L49.0494 6.74908H51.3308L49.6198 13.4982Z" fill="#4D5CA4"/>
<path fill-rule="evenodd" clip-rule="evenodd" d="M70.9506 16.9299L73.4601 7.43544C74.1445 4.57566 71.7491 3.88931 70.038 3.88931H60.9126L60.1141 6.74909H67.0723C67.9848 6.74909 68.2129 7.20666 67.9848 8.35057L66.5019 14.0701H64.7909C63.8783 14.0701 63.6502 13.6126 63.8783 12.4686L65.019 8.00739L59.2015 10.2952L58.4031 13.3838C57.7186 16.2436 59.3156 16.9299 61.711 16.9299H70.9506Z" fill="#4D5CA4"/>
<path fill-rule="evenodd" clip-rule="evenodd" d="M44.6008 3.88931H35.3612L34.5627 6.74909H39.4677L33.9924 8.92252L31.8251 16.9299H37.0723L39.6958 6.74909H41.4069C42.3194 6.74909 42.5475 7.20666 42.3194 8.35057L40.038 16.9299H45.2852L47.9088 7.32105C48.5932 4.57566 46.9962 3.88931 44.6008 3.88931Z" fill="#4D5CA4"/>
<path fill-rule="evenodd" clip-rule="evenodd" d="M19.2776 6.74909H24.1825L18.7072 8.92252L17.5665 13.3838C16.7681 16.2436 18.5932 16.9299 20.9886 16.9299H30.2281L31.0266 14.0701H23.9544C23.1559 14.0701 22.8137 13.6126 23.0418 12.4686L23.1559 11.8967H31.3688L32.5095 7.43544C33.1939 4.69005 31.597 3.88931 29.2015 3.88931H22.4715C21.2167 3.88931 19.8479 4.34688 19.2776 6.74909ZM26.2357 6.74909C27.1483 6.74909 27.3764 7.20666 27.1483 8.35057L27.0342 8.92252H23.9544L24.5247 6.74909H26.2357Z" fill="#4D5CA4"/>
<path fill-rule="evenodd" clip-rule="evenodd" d="M2.05323 0L1.25475 2.85978H8.89734L3.07985 5.1476L0 16.9299H5.58935L7.07224 11.2103H7.18631H11.635C14.2586 11.2103 16.5399 10.4096 17.4525 7.20664L18.365 3.8893C19.1635 0.800738 16.8821 0 14.7148 0H2.05323ZM11.9772 6.29151C11.635 7.43542 11.0646 8.00738 10.038 8.00738H7.98479L9.35361 2.97417H11.4068C12.4335 2.97417 12.7757 3.43173 12.4335 4.69004L11.9772 6.29151Z" fill="#4D5CA4"/>
<path fill-rule="evenodd" clip-rule="evenodd" d="M77.4525 7.43543C78.4791 4.0037 79.7338 3.66052 82.9278 3.66052C85.4373 3.66052 87.2624 3.77491 86.0076 7.32104H84.6388C85.2091 5.03322 85.0951 4.91883 82.3574 4.91883C79.7338 4.91883 79.2776 5.37639 78.8213 7.09226C78.1369 9.60886 79.1635 9.38008 81.3308 9.38008C84.0685 9.49447 85.4373 9.60886 84.4107 13.155C83.27 16.8155 81.7871 16.9299 78.8213 16.9299C75.8555 16.9299 74.3726 16.5867 75.7415 12.8118H77.1103C76.1977 15.6716 76.7681 15.6716 79.1635 15.6716C81.673 15.6716 82.3574 15.6716 83.0418 13.155C83.7263 10.6384 82.6996 10.9816 80.6464 10.7528C78.5932 10.6384 76.4259 10.8672 77.4525 7.43543Z" fill="#91918E"/>
<path fill-rule="evenodd" clip-rule="evenodd" d="M87.9468 9.49448H93.9924L93.6502 10.7528H87.6046L86.3498 15.5572H92.5095L92.1673 16.9299H84.6388L88.1749 3.88931H95.5894L95.2472 5.14762H89.0875L87.9468 9.49448Z" fill="#91918E"/>
<path fill-rule="evenodd" clip-rule="evenodd" d="M116.578 3.88931L114.068 13.3838C113.156 17.0443 111.217 17.1587 108.479 17.1587C105.97 17.1587 103.916 17.0443 104.829 13.3838L107.338 3.88931H108.707L106.198 13.3838C105.627 15.4428 105.97 15.786 108.821 15.786C111.217 15.786 112.243 15.4428 112.814 13.3838L115.323 3.88931H116.578Z" fill="#91918E"/>
<path fill-rule="evenodd" clip-rule="evenodd" d="M126.502 16.9299H125.133L128.555 3.88931H129.924L126.502 16.9299Z" fill="#91918E"/>
<path fill-rule="evenodd" clip-rule="evenodd" d="M132.776 16.9299H131.521L134.601 5.14762H130.836L131.179 3.88931H140.076L139.734 5.14762H135.855L132.776 16.9299Z" fill="#91918E"/>
<path fill-rule="evenodd" clip-rule="evenodd" d="M143.726 11.4391L142.243 16.9299H140.989L142.471 11.4391L139.962 3.88931H141.559L143.498 9.83765L148.403 3.88931H150L143.726 11.4391Z" fill="#91918E"/>
<path fill-rule="evenodd" clip-rule="evenodd" d="M101.977 13.4982C101.521 15.3284 100.837 15.6716 98.6692 15.6716H97.3004C95.1331 15.6716 95.3612 14.1845 96.0456 11.2103L96.9582 7.66421C97.5285 5.262 98.5551 4.91883 101.293 4.91883H102.091C103.802 4.91883 103.916 5.60517 103.574 7.32104H104.943C105.513 4.91883 104.715 4.11809 103.574 3.77491C103.004 3.66052 101.521 3.66052 101.521 3.66052C98.6692 3.66052 96.5019 4.11809 95.7034 7.7786L94.3346 12.9262C93.7643 15.5572 94.5627 17.0443 96.73 17.0443H98.4411C100.722 17.0443 102.548 16.7011 103.232 13.7269L103.46 12.8118H102.091L101.977 13.4982Z" fill="#91918E"/>
<path fill-rule="evenodd" clip-rule="evenodd" d="M123.536 3.7749H118.175L114.753 16.8155H116.008L117.376 11.5535H121.597C123.194 11.5535 123.308 12.3542 122.966 13.9557L122.167 16.8155H123.536L124.449 13.2694C124.791 11.8967 124.449 10.9815 123.194 10.9815C125.133 10.7528 125.589 9.38007 126.16 7.6642V7.54981V7.43542C126.844 4.57564 125.932 3.7749 123.536 3.7749ZM121.825 10.2952H117.719L119.087 5.1476H123.194C124.335 5.1476 124.905 5.37638 125.019 5.71955C125.133 6.06273 125.019 6.63468 124.905 7.43542C124.335 9.49446 123.878 10.2952 121.825 10.2952Z" fill="#91918E"/>
</svg>
