<svg width="135" height="23" viewBox="0 0 135 23" fill="none" xmlns="http://www.w3.org/2000/svg">
<path fill-rule="evenodd" clip-rule="evenodd" d="M41.7 4.6C41.3 2.6 39.7 1.6 37.7 1.6C34.3 1.6 32.9 4.4 32.9 7.3C32.9 10.5 34.3 13.2 37.7 13.2C40.2 13.2 41.6 11.4 41.8 9.1H43.7C43.3 12.6 41.1 14.8 37.6 14.8C33.2 14.8 31 11.5 31 7.4C31 3.4 33.3 0 37.7 0C40.7 0 43.1 1.6 43.5 4.6H41.7ZM133 2.3H133.2C133.4 2.3 133.6 2.2 133.6 2C133.6 1.9 133.5 1.7 133.2 1.7C133.1 1.7 133.1 1.7 133 1.7V2.3ZM133 3.1H132.8V1.7C132.9 1.7 133 1.7 133.2 1.7C133.4 1.7 133.6 1.7 133.7 1.8C133.8 1.9 133.8 2 133.8 2.1C133.8 2.3 133.7 2.4 133.5 2.5C133.6 2.5 133.7 2.6 133.7 2.9C133.7 3.1 133.8 3.2 133.8 3.3H133.6C133.6 3.3 133.5 3.1 133.5 2.9C133.5 2.7 133.4 2.6 133.2 2.6H133V3.1ZM133.3 1.3C133.9 1.3 134.4 1.8 134.4 2.4C134.4 3 133.9 3.5 133.3 3.5C132.7 3.5 132.2 3 132.2 2.4C132.2 1.8 132.7 1.3 133.3 1.3ZM133.3 1.1C134 1.1 134.6 1.7 134.6 2.4C134.6 3.1 134 3.7 133.3 3.7C132.6 3.7 132 3.1 132 2.4C132 1.6 132.5 1.1 133.3 1.1ZM130.6 4.3V1.2H128.9V4.3H127.2V5.8H128.9V12.3C128.9 14.2 129.6 14.5 131.3 14.5H132.6V13H131.8C130.7 13 130.5 12.9 130.5 12.1V5.8H132.5V4.3H130.6ZM117.7 4.3H119.3V5.9C120 4.6 121.2 4 122.6 4C125.3 4 126.1 5.6 126.1 7.8V14.6H124.4V7.6C124.4 6.4 123.6 5.5 122.3 5.5C120.3 5.5 119.3 6.9 119.3 8.7V14.5H117.6V4.3H117.7ZM113.9 4.3H115.6V14.6H113.9V4.3ZM115.6 2.4H113.9V0.3H115.6V2.4ZM107.3 13.3C109.1 13.3 110.5 11.9 110.5 9.4C110.5 6.9 109.1 5.5 107.3 5.5C105.5 5.5 104.1 6.9 104.1 9.4C104.1 11.9 105.5 13.3 107.3 13.3ZM107.3 4C110.6 4 112.3 6.4 112.3 9.4C112.3 12.4 110.6 14.8 107.3 14.8C104 14.8 102.3 12.4 102.3 9.4C102.3 6.4 104 4 107.3 4ZM93.3 7.1H97C99.1 7.1 100.1 6.2 100.1 4.5C100.1 2.8 99.1 1.9 97 1.9H93.3V7.1ZM91.4 0.3H97.6C100.4 0.3 102 1.9 102 4.5C102 7.1 100.5 8.7 97.6 8.7H93.3V14.5H91.4V0.3ZM76.4 0.3H78.1V8.7L82.8 4.2H85.1L81 8L85.4 14.5H83.3L79.8 9.1L78.2 10.6V14.5H76.5V0.3H76.4ZM73.1 7.6C72.8 6.3 71.9 5.6 70.6 5.6C68.2 5.6 67.4 7.5 67.4 9.6C67.4 11.5 68.3 13.4 70.4 13.4C72 13.4 73 12.4 73.2 10.9H74.9C74.5 13.4 73 14.9 70.4 14.9C67.3 14.9 65.6 12.7 65.6 9.7C65.6 6.6 67.2 4.2 70.5 4.2C72.8 4.2 74.7 5.3 74.9 7.7H73.1V7.6ZM62.6 8.4C62.5 6.8 61.3 5.5 59.6 5.5C57.8 5.5 56.8 6.8 56.7 8.4H62.6ZM64.3 11.3C63.8 13.6 62.2 14.8 59.9 14.8C56.6 14.8 55.1 12.5 55 9.4C55 6.3 57 4.1 59.8 4.1C63.4 4.1 64.6 7.5 64.5 10H56.8C56.7 11.8 57.8 13.4 60 13.4C61.4 13.4 62.4 12.7 62.7 11.4H64.3V11.3ZM45.3 0.3H47V5.7C47.5 4.5 49 4 50.2 4C52.9 4 53.7 5.6 53.7 7.8V14.6H52V7.6C52 6.4 51.2 5.5 49.9 5.5C47.9 5.5 46.9 6.9 46.9 8.7V14.5H45.2V0.3H45.3Z" fill="black"/>
<path fill-rule="evenodd" clip-rule="evenodd" d="M34.4 19.2C34.3 18.6 33.9 18.3 33.3 18.3C32.8 18.3 32.3 18.5 32.3 19.1C32.3 19.7 33 19.7 33.7 19.9C34.4 20.1 35.1 20.3 35.1 21.2C35.1 22.2 34.2 22.5 33.4 22.5C32.4 22.5 31.6 22 31.6 20.9H32.2C32.2 21.7 32.8 22 33.5 22C34 22 34.6 21.8 34.6 21.2C34.6 20.6 33.9 20.5 33.2 20.3C32.5 20.1 31.8 19.9 31.8 19.1C31.8 18.2 32.6 17.8 33.4 17.8C34.3 17.8 35 18.2 35 19.2H34.4ZM133.4 22.4H134.1V21.7H133.4V22.4ZM129.8 21.9H130.8C131.2 21.9 132.3 21.8 132.3 20.1C132.3 19 131.9 18.4 130.8 18.4H129.8V21.9ZM129.2 17.9H130.7C132.1 17.9 132.8 18.6 132.8 20C132.8 21.5 132.1 22.3 130.7 22.3H129.2V17.9ZM126.4 18.4H124.9V17.9H128.5V18.4H127V22.4H126.4V18.4ZM122.2 17.9V22.4H125.2V21.9H122.8V17.9H122.2ZM118.7 19.2C118.6 18.6 118.2 18.3 117.6 18.3C117.1 18.3 116.6 18.5 116.6 19.1C116.6 19.7 117.3 19.7 118 19.9C118.7 20.1 119.4 20.3 119.4 21.2C119.4 22.2 118.5 22.5 117.7 22.5C116.7 22.5 115.9 22 115.9 20.9H116.5C116.5 21.7 117.1 22 117.8 22C118.3 22 118.9 21.8 118.9 21.2C118.9 20.6 118.2 20.5 117.5 20.3C116.8 20.1 116.1 19.9 116.1 19.1C116.1 18.2 116.9 17.8 117.7 17.8C118.6 17.8 119.3 18.2 119.3 19.2H118.7ZM112.1 17.9H115.2V18.4H112.7V19.8H115V20.3H112.7V21.8H115.2V22.3H112.1V17.9ZM110.2 17.9H110.8V22.4H110.2V17.9ZM108.5 21.8C108.2 22.3 107.6 22.5 107.1 22.5C105.8 22.5 105 21.4 105 20.2C105 18.9 105.7 17.8 107.1 17.8C108.1 17.8 108.9 18.2 109 19.3H108.4C108.3 18.6 107.7 18.3 107.1 18.3C106 18.3 105.6 19.2 105.6 20.2C105.6 21.1 106.1 22 107.1 22C108 22 108.6 21.4 108.5 20.5H107.1V20H109.1V22.4H108.7L108.5 21.8ZM102.1 22C103.2 22 103.6 21.1 103.6 20.2C103.6 19.3 103.1 18.4 102.1 18.4C101 18.4 100.6 19.3 100.6 20.2C100.6 21 101 22 102.1 22ZM102.1 17.8C103.5 17.8 104.2 18.9 104.2 20.1C104.2 21.3 103.5 22.4 102.1 22.4C100.7 22.4 100 21.3 100 20.1C100 18.9 100.7 17.8 102.1 17.8ZM96.6 17.9H97.2V21.9H99.6V22.4H96.6V17.9ZM93.6 22C94.7 22 95.1 21.1 95.1 20.2C95.1 19.3 94.6 18.4 93.6 18.4C92.5 18.4 92.1 19.3 92.1 20.2C92 21 92.5 22 93.6 22ZM93.6 17.8C95 17.8 95.7 18.9 95.7 20.1C95.7 21.3 95 22.4 93.6 22.4C92.2 22.4 91.5 21.3 91.5 20.1C91.4 18.9 92.1 17.8 93.6 17.8ZM86.9 17.9H87.5L89.9 21.5V17.9H90.5V22.4H89.8L87.5 18.8V22.4H86.9V17.9ZM82.2 17.9H82.8V19.8H85.2V17.9H85.8V22.4H85.2V20.4H82.8V22.4H82.2V17.9ZM80.5 19.2C80.4 18.6 79.9 18.2 79.2 18.2C78.1 18.2 77.7 19.1 77.7 20C77.7 21 78.2 21.9 79.2 21.9C80 21.9 80.4 21.3 80.5 20.6H81.1C81 21.7 80.3 22.4 79.2 22.4C77.8 22.4 77.1 21.4 77.1 20.1C77.1 18.8 77.8 17.7 79.2 17.7C80.1 17.7 80.9 18.2 81 19.2H80.5ZM73.3 17.9H76.4V18.4H73.9V19.8H76.2V20.3H73.9V21.8H76.4V22.3H73.3V17.9ZM70.5 18.4H69V17.9H72.6V18.4H71.1V22.4H70.5V18.4ZM63.5 17.9H66.6V18.4H64.1V19.8H66.4V20.3H64.1V21.8H66.6V22.3H63.5V17.9ZM60.8 20C61.4 20 61.8 19.9 61.8 19.2C61.8 18.8 61.6 18.4 61 18.4H59.5V20H60.8ZM58.9 17.9H61C61.8 17.9 62.4 18.4 62.4 19.1C62.4 19.6 62.2 20.1 61.6 20.2C62.1 20.3 62.2 20.7 62.3 21.1C62.3 21.5 62.3 22 62.6 22.3H61.9C61.7 22.1 61.8 21.6 61.7 21.2C61.6 20.8 61.5 20.4 61 20.4H59.5V22.3H58.9V17.9ZM55.4 20.5H56.9L56.2 18.4L55.4 20.5ZM55.9 17.9H56.6L58.3 22.4H57.6L57.1 21H55.2L54.7 22.3H54.1L55.9 17.9ZM53 22.4L54.2 17.9H53.6L52.7 21.6L51.7 17.9H51.1L50.1 21.6L49.2 17.9H48.6L49.7 22.4H50.3L51.3 18.6L52.3 22.4H53ZM46 18.4H44.5V17.9H48V18.4H46.5V22.4H46V18.4ZM41.1 17.9H44V18.4H41.7V19.8H43.8V20.3H41.7V22.3H41.1V17.9ZM38 22C39.1 22 39.5 21.1 39.5 20.2C39.5 19.3 39 18.4 38 18.4C36.9 18.4 36.5 19.3 36.5 20.2C36.4 21 36.9 22 38 22ZM38 17.8C39.4 17.8 40.1 18.9 40.1 20.1C40.1 21.3 39.4 22.4 38 22.4C36.6 22.4 35.9 21.3 35.9 20.1C35.8 18.9 36.5 17.8 38 17.8Z" fill="black"/>
<path d="M25.6 0H0V22.5H25.6V0Z" fill="#E69097"/>
<path fill-rule="evenodd" clip-rule="evenodd" d="M16.6 13.8C16.1 13.9 15 14 14.5 14C14 14 13.6 14.1 13 14.1C12.5 14.1 12.1 14.1 11.6 14.1C11.1 14.1 10.6 14.1 10.1 14C9.1 13.9 8.9 13.7 8.6 13.7C8 13.6 7.6 13.5 7.2 13.4C6.8 13.3 6.4 13.2 6.2 13.2L6.1 13C5.8 12.4 5.9 12.5 5.6 11.6C5.5 11.2 5.3 10.3 5.2 9.69998C5.2 9.39997 5.1 9.29998 5.1 9.19998C5 8.69998 5 8.49998 5 7.99998C5 7.49998 5 6.39998 5 5.89998C5 5.09998 5 4.99998 5.1 4.49998C5.2 3.99998 5.4 3.49998 5.6 3.09998C5.8 2.69998 5.9 2.39998 6.1 2.09998C6.4 1.69998 6.5 1.49998 6.6 1.39998H6.7C7.1 1.29998 7.4 1.19998 7.6 1.19998C7.6 1.19998 7.8 1.19998 7.9 1.19998C8 1.19998 8.5 1.19998 9.3 1.19998C9.7 1.19998 10.2 1.19998 10.7 1.29998C11.2 1.29998 11.7 1.29998 12.2 1.29998C12.7 1.29998 13.2 1.29998 13.6 1.29998C14 1.29998 14.5 1.29998 14.9 1.29998C15.4 1.29998 15.8 1.29998 16.2 1.29998C16.7 1.29998 17.1 1.29998 17.5 1.29998C18.1 1.29998 18.5 1.29998 18.8 1.19998C19.3 1.09998 19.6 1.09998 19.9 1.09998C20 1.09998 20 1.19998 20.1 1.19998C20.4 1.29998 20.7 1.59998 20.7 1.59998C20.7 1.79998 20.6 2.89998 20.7 3.59998C20.8 3.99998 20.9 4.49998 21 4.99998C21.1 5.49998 21.1 5.89998 21.2 6.29998C21.3 6.79998 21.4 7.39998 21.5 7.79998C21.6 8.49998 21.6 8.09998 21.7 8.69998C21.8 9.39998 21.8 9.39997 21.8 10.2C21.8 10.7 21.8 11.7 21.7 12.2C21.6 12.7 21.4 13.1 21.3 13.1C21 13.2 19.9 13.4 20.1 13.4C19.6 13.5 19.6 13.4 19.3 13.5C18.4 13.7 18.3 13.6 17.7 13.7C17.2 13.8 17.6 13.8 16.9 13.9C16.8 13.8 16.7 13.8 16.6 13.8Z" fill="#3F3A85"/>
<path fill-rule="evenodd" clip-rule="evenodd" d="M7.6 2.19999C7.8 1.79999 8 1.79999 8.4 1.79999C8.6 1.79999 8.9 1.79999 9.3 1.89999C9.6 1.89999 9.6 1.89999 9.9 1.99999C10.1 1.99999 10.2 1.99999 10.6 2.09999C10.9 2.09999 11.8 2.29999 12.2 2.39999C12.5 2.39999 12.9 2.59999 13.2 2.59999C13.5 2.59999 13.9 2.69999 14.2 2.69999C14.5 2.69999 14.9 2.69999 15.2 2.69999C15.5 2.69999 15.9 2.59999 16.2 2.59999C16.5 2.59999 16.9 2.49999 17.1 2.49999C17.5 2.49999 17.8 2.39999 18 2.39999C18.4 2.29999 18.7 2.29999 19 2.29999C19.4 2.39999 19.6 2.49999 19.7 2.79999C19.8 2.99999 19.7 3.29999 19.8 3.69999C19.8 3.89999 19.7 4.29999 19.7 4.69999C19.7 4.99999 19.7 5.29999 19.7 5.69999C19.7 5.99999 19.8 6.39999 19.8 6.69999C19.8 6.99999 19.8 7.39999 19.8 7.69999C19.8 7.99999 19.8 8.39999 19.8 8.69999C19.8 9.09999 19.8 9.39999 19.8 9.69999C19.8 10.3 19.9 10.1 19.9 10.7C19.9 11.2 20 11.3 19.5 11.6C19.3 11.7 19 11.9 18.6 12C18.5 12 18.2 12.1 17.7 12.2C17.4 12.3 17.1 12.3 16.8 12.4C16.5 12.5 16.2 12.5 15.9 12.6C15.6 12.7 15.3 12.7 15 12.7C14.7 12.7 14.4 12.8 14.1 12.8C13.8 12.8 13.5 12.8 13.2 12.8C12.9 12.8 12.6 12.9 12.3 12.9C12.1 12.9 12.3 13 12.2 13C11.9 13.1 11.8 13.1 11.3 13.1C11 13.1 10.7 13.1 10.4 13.1C10.1 13.1 9.8 13.1 9.5 13C9.2 13 8.9 12.9 8.6 12.8C8.3 12.7 7.9 12.7 7.7 12.6C7.4 12.5 7.1 12.3 7 12.1C6.9 11.9 6.9 11.5 6.8 11.1C6.8 10.8 6.8 10.5 6.8 10.2C6.8 9.89999 6.7 9.59999 6.8 9.29999C6.8 8.99999 6.8 8.69999 6.8 8.39999C6.8 8.09999 6.8 7.79999 6.9 7.49999C6.9 7.19999 7 6.89999 7 6.59999C7 6.29999 7.1 5.99999 7.1 5.69999C7.1 5.39999 7.1 5.09999 7.2 4.79999C7.2 4.49999 7.3 4.19999 7.4 3.89999C7.4 3.59999 7.4 3.19999 7.5 2.99999C7.4 2.49999 7.6 2.29999 7.6 2.19999Z" fill="white"/>
<path fill-rule="evenodd" clip-rule="evenodd" d="M23.3 19.7C23.1 19.8 22.4 19.9 21.8 19.9C21.5 19.9 21 19.9 20.4 20C20 20 19.5 19.9 19 20C18.6 20 18.1 20 17.7 20C17.2 20 16.7 20.1 16.2 20.1C15.7 20.1 15.5 20.1 15 20.1C14.5 20.1 14.1 20 13.7 20C13.3 20 12.5 20.1 12 20.1C11.5 20.1 11 20.3 10.6 20.4C10.1 20.5 9.8 20.4 9.3 20.5C8.8 20.6 8.3 20.7 7.9 20.8C7.5 20.9 7 21 6.6 21C6.2 21.1 5.7 21.1 5.4 21.2C5.1 21.3 4.8 21.4 4.5 21.5C3.9 21.7 3.3 21.8 3 21.9C2.2 22 1.8 21.8 1.5 21.5C1.3 21.2 1.2 20.7 1.2 20.3C1.1 19.8 1.2 20 1.1 19.6C1 18.9 0.9 18.5 1.3 18C1.5 17.8 1.9 17.5 2.3 17.3C2.9 17 2.7 17 3.6 16.6C4 16.5 4.4 16.3 4.9 16.1C5.3 16 5.8 15.9 6.3 15.7C6.7 15.6 7.2 15.5 7.7 15.4C8 15.3 8.5 15.2 9 15.1C9.4 15 9.9 14.9 10.4 14.9C10.9 14.8 11.4 14.8 11.9 14.7C12.4 14.6 12.8 14.6 13.3 14.5C13.7 14.5 14.2 14.4 14.7 14.3C15.2 14.3 15.8 14.3 16.3 14.3C16.7 14.3 17 14.2 17.5 14.2C17.9 14.2 18.4 14.2 18.9 14.2C19.4 14.2 19.8 14.2 20.3 14.2C20.7 14.2 21.1 14.2 21.5 14.2C22.2 14.2 22.8 14.2 23.2 14.5C23.7 14.8 23.7 15 23.7 15.7C23.7 16.4 23.7 16.1 23.8 16.8C23.9 17.6 23.9 18.2 24 18.9C23.9 19 23.7 19.3 23.3 19.7Z" fill="#3F3A85"/>
<path fill-rule="evenodd" clip-rule="evenodd" d="M17.8 4.40002V3.60002H17V4.40002H17.3H17.4H17.8ZM10.4 5.70002L13.8 6.20002L16.9 5.20002L17.4 4.90002V4.80002V4.50002H17H16.9V4.40002V3.40002H17H18V3.50002V4.50002V4.60002H17.9H17.5V5.00002L18.9 6.70002L19 6.90002H18.8L16.8 7.30002V7.10002L18.6 6.80002L17.4 5.30002L16.9 6.80002L16.7 6.70002L17.1 5.20002L16.8 5.30002L14 7.00002C14.1 7.40002 14.3 7.80002 14.4 8.10002L16.7 7.00002L16.8 7.20002L14.4 8.40002H14.3V8.30002L14.2 8.10002L12.6 8.00002V7.80002L13.9 7.90002L13.1 7.50002L12.5 7.90002L8.8 9.10002L8.6 9.20002L8.7 9.00002L10 6.00002L10.2 6.10002L9 8.90002L12.5 7.70002L13 7.40002L10.2 5.90002V5.80002V5.30002H9.8H9.7V5.20002V4.20002H9.8H10.8H10.9V4.30002V5.20002V5.30002V5.40002H10.8H10.4V5.70002ZM19.2 8.70002V8.00002H18.4V8.80002H19.2V8.70002ZM19.4 7.90002L18.9 7.80002V7.50002H18.7V7.80002H18.4H18.3V7.90002V8.90002V9.00002H18.4H19.4H19.5V8.80002V8.70002V7.90002H19.4ZM14.9 9.70002V9.00002H14.1V9.80002H14.9V9.70002ZM15.1 8.90002L14.6 8.80002V8.60002H14.4V8.80002H14V8.90002V9.90002V10H15H15.1V9.80002V9.70002V8.90002ZM12.8 9.50002V8.70002H12V9.50002H12.8ZM13 8.60002L12.5 8.50002V8.30002H12.3V8.50002H11.9H11.8V8.60002V9.60002V9.70002H11.9H12.9H13V9.60002V9.50002V8.60002ZM8.5 10.7L8.8 10L8.2 9.70002L7.9 10.4L8.5 10.7ZM9 10L8.6 10.8V11H8.5L7.6 10.6H7.5V10.5L8 9.50002V9.40002H8.1L8.4 9.60002L8.5 9.40002L8.7 9.50002L8.6 9.70002L9 9.90002V10ZM10.7 5.10002V4.40002H9.9V5.20002H10.7V5.10002ZM16 5.70002L13.8 6.40002L10.8 6.00002L13.2 7.30002L13.8 6.90002L13.7 6.70002L13.9 6.60002V6.70002L16 5.70002ZM13.3 7.40002L14.1 7.80002L13.9 7.10002L13.3 7.40002Z" fill="#3F3A85"/>
<path fill-rule="evenodd" clip-rule="evenodd" d="M17.4 5.70001C17.6 5.70001 17.8 5.50001 17.8 5.30001C17.8 5.10001 17.6 4.90001 17.4 4.90001C17.2 4.80001 17 5.00001 17 5.20001C17 5.50001 17.2 5.70001 17.4 5.70001Z" fill="#DF3F54"/>
<path fill-rule="evenodd" clip-rule="evenodd" d="M12.4 8.40002C12.7 8.40002 12.9 8.20002 12.9 7.90002C12.9 7.60002 12.7 7.40002 12.4 7.40002C12.1 7.40002 11.9 7.60002 11.9 7.90002C12 8.20002 12.2 8.40002 12.4 8.40002Z" fill="#DF3F54"/>
<path fill-rule="evenodd" clip-rule="evenodd" d="M13.8 6.89998C14 6.89998 14.2 6.69998 14.2 6.49998C14.2 6.29998 14 6.09998 13.8 6.09998C13.6 6.09998 13.4 6.29998 13.4 6.49998C13.4 6.69998 13.6 6.89998 13.8 6.89998Z" fill="#DF3F54"/>
<path fill-rule="evenodd" clip-rule="evenodd" d="M8.9 9.59999C9.1 9.59999 9.3 9.39999 9.3 9.19999C9.3 8.99999 9.1 8.79999 8.9 8.79999C8.7 8.79999 8.5 8.99999 8.5 9.19999C8.4 9.39999 8.6 9.59999 8.9 9.59999Z" fill="#E4879C"/>
<path fill-rule="evenodd" clip-rule="evenodd" d="M16.8 7.59999C17 7.59999 17.2 7.39999 17.2 7.19999C17.2 6.99999 17 6.79999 16.8 6.79999C16.6 6.79999 16.4 6.99999 16.4 7.19999C16.4 7.39999 16.6 7.59999 16.8 7.59999Z" fill="#E6879C"/>
<path fill-rule="evenodd" clip-rule="evenodd" d="M10.2 6.39998C10.4 6.39998 10.6 6.19998 10.6 5.99998C10.6 5.79998 10.4 5.59998 10.2 5.59998C10 5.59998 9.8 5.79998 9.8 5.99998C9.8 6.19998 10 6.39998 10.2 6.39998Z" fill="#EFE424"/>
<path fill-rule="evenodd" clip-rule="evenodd" d="M18.7 7.50001C18.9 7.50001 19.1 7.30001 19.1 7.10001C19.1 6.90001 18.9 6.70001 18.7 6.70001C18.5 6.70001 18.3 6.90001 18.3 7.10001C18.3 7.30001 18.5 7.50001 18.7 7.50001Z" fill="#EFE424"/>
<path fill-rule="evenodd" clip-rule="evenodd" d="M14.5 8.59999C14.7 8.59999 14.9 8.39999 14.9 8.19999C14.9 7.99999 14.7 7.79999 14.5 7.79999C14.3 7.79999 14.1 7.99999 14.1 8.19999C14.1 8.39999 14.3 8.59999 14.5 8.59999Z" fill="#EFE424"/>
<path fill-rule="evenodd" clip-rule="evenodd" d="M4.7 18.5C4.9 18.5 5.1 18.3 5.1 18C5.1 17.7 4.9 17.5 4.7 17.5C4.5 17.5 4.3 17.7 4.3 18C4.3 18.3 4.5 18.5 4.7 18.5Z" fill="white"/>
<path fill-rule="evenodd" clip-rule="evenodd" d="M7.3 19.8C7.5 19.8 7.7 19.6 7.7 19.3C7.7 19.1 7.5 18.9 7.3 18.9C7.1 18.9 6.9 19.1 6.9 19.3C6.9 20 7.2 19.8 7.3 19.8Z" fill="white"/>
<path fill-rule="evenodd" clip-rule="evenodd" d="M5.9 20.1C6.1 20.1 6.4 19.9 6.4 19.6C6.4 19.4 6.2 19.2 5.9 19.2C5.7 19.2 5.5 19.4 5.5 19.6C5.5 19.9 5.6 20.1 5.9 20.1Z" fill="white"/>
<path fill-rule="evenodd" clip-rule="evenodd" d="M11.6 18.3C11.8 18.3 12.1 18.1 12.1 17.8C12.1 17.6 11.9 17.4 11.6 17.4C11.4 17.4 11.1 17.5 11.2 17.8C11.3 18.1 11.4 18.3 11.6 18.3Z" fill="white"/>
<path fill-rule="evenodd" clip-rule="evenodd" d="M9.1 18.8C9.3 18.8 9.5 18.6 9.5 18.4C9.5 18.2 9.3 18 9.1 18C8.9 18 8.7 18.2 8.7 18.4C8.8 18.6 8.9 18.8 9.1 18.8Z" fill="white"/>
<path fill-rule="evenodd" clip-rule="evenodd" d="M8 18.5C8.2 18.6 8.4 18.3 8.4 18.1C8.4 17.9 8.2 17.7 8 17.7C7.8 17.7 7.6 17.9 7.6 18.1C7.5 18.3 7.5 18.4 8 18.5Z" fill="white"/>
<path fill-rule="evenodd" clip-rule="evenodd" d="M10.6 16.9C10.8 16.9 11 16.8 11 16.6C11 16.4 10.8 16.2 10.5 16.2C10.3 16.2 10 16.4 10 16.6C10.1 16.8 10.3 16.9 10.6 16.9Z" fill="white"/>
<path fill-rule="evenodd" clip-rule="evenodd" d="M11.8 16.3C12 16.3 12.3 16.1 12.3 15.9C12.3 15.7 12.1 15.5 11.8 15.5C11.6 15.5 11.3 15.7 11.3 15.9C11.3 16.1 11.5 16.3 11.8 16.3Z" fill="white"/>
<path fill-rule="evenodd" clip-rule="evenodd" d="M4.4 20.2C4.6 20.2 4.7 20.1 4.7 19.9C4.7 19.7 4.6 19.5 4.4 19.5C4.2 19.5 4.1 19.7 4.1 19.9C4.1 20 4.2 20.2 4.4 20.2Z" fill="#EFE424"/>
<path fill-rule="evenodd" clip-rule="evenodd" d="M8.1 16.7C8.3 16.7 8.4 16.5 8.4 16.4C8.4 16.2 8.2 16.1 8.1 16.1C7.9 16.1 7.8 16.2 7.8 16.4C7.8 16.5 8 16.7 8.1 16.7Z" fill="#EFE424"/>
<path fill-rule="evenodd" clip-rule="evenodd" d="M6.6 18.2C6.8 18.2 6.9 18.2 6.9 18C6.9 17.8 6.7 17.7 6.6 17.7C6.4 17.7 6.3 17.8 6.3 18C6.3 18.2 6.5 18.2 6.6 18.2Z" fill="#EFE424"/>
<path fill-rule="evenodd" clip-rule="evenodd" d="M10.5 19C10.7 19 10.8 18.9 10.8 18.7C10.8 18.5 10.6 18.4 10.5 18.4C10.4 18.4 10.2 18.5 10.2 18.7C10.2 18.8 10.3 19 10.5 19Z" fill="#EFE424"/>
<path fill-rule="evenodd" clip-rule="evenodd" d="M16.7 19.1C17 19.1 17.3 18.8 17.3 18.5C17.3 18.2 17 17.9 16.7 17.9C16.4 17.9 16.1 18.2 16.1 18.5C16.2 18.8 16.4 19.1 16.7 19.1Z" fill="#EFE424"/>
<path fill-rule="evenodd" clip-rule="evenodd" d="M16 17C16.3 17 16.6 16.7 16.6 16.4C16.6 16.1 16.3 15.8 16 15.8C15.7 15.8 15.4 16.1 15.4 16.4C15.4 16.7 15.7 17 16 17Z" fill="#EFE424"/>
<path fill-rule="evenodd" clip-rule="evenodd" d="M19.6 17.2C19.9 17.2 20.2 17 20.2 16.6C20.2 16.3 19.9 16 19.6 16C19.3 16 19 16.2 19 16.6C19.1 17 19.3 17.2 19.6 17.2Z" fill="#EFE424"/>
<path fill-rule="evenodd" clip-rule="evenodd" d="M18.3 18.4C18.6 18.4 18.9 18.1 18.9 17.7C18.9 17.4 18.6 17.1 18.3 17.1C18 17.1 17.6 17.3 17.6 17.7C17.7 18.1 18 18.4 18.3 18.4Z" fill="#EFE424"/>
</svg>
