<svg width="149" height="24" viewBox="0 0 149 24" fill="none" xmlns="http://www.w3.org/2000/svg">
<path fill-rule="evenodd" clip-rule="evenodd" d="M42 0C42 0 27.2 14.7 27 15C26.6 15.4 25.6 15.8 25 15.2C24.6 14.8 24.5 14.7 24.2 14.4C23.6 13.8 23.8 13.1 24.2 12.6C25 11.8 25.7 11.1 26.4 10.4C26.7 10.1 27 9.8 27.2 9.4C31.1 4.4 26.4 0.1 26.4 0.1C26.4 0.1 11.5 15 11.4 15.1C11 15.5 10 15.9 9.39999 15.3C9 14.9 8.9 14.8 8.6 14.5C8 13.7 8.3 13 8.8 12.4C8.9 12.3 9.29999 11.9 10.9 10.3C16.3 4.9 10.9 0 10.9 0C10.9 0 4.3 6.6 2 9C-0.400005 11.4 -0.800005 15.2 2 17.9L6 21.9C7.3 23.2 8.89999 23.8 10.4 23.8C12.1 23.8 13.6 23.1 14.8 22.1C14.8 22.1 16.2 20.7 18.3 18.6L21.6 21.9C22.9 23.2 24.5 23.8 26 23.8C27.7 23.8 29.2 23.1 30.4 22.1C30.4 22.1 37.1 15.4 42.2 10.3C47.1 5.2 42 0 42 0Z" fill="#D31148"/>
<path fill-rule="evenodd" clip-rule="evenodd" d="M55.7 1.60001H48.9C48.8 1.60001 48.7 1.70001 48.7 1.80001V3.30001C48.7 3.40001 48.8 3.50001 48.9 3.50001H51.4V9.20001C51.4 9.30001 51.5 9.40001 51.6 9.40001H53C53.1 9.40001 53.2 9.30001 53.2 9.20001V3.40001H55.7C55.8 3.40001 55.9 3.30001 55.9 3.20001V1.80001C55.9 1.70001 55.8 1.60001 55.7 1.60001Z" fill="#6D6E71"/>
<path fill-rule="evenodd" clip-rule="evenodd" d="M65.9 9.00001L63.6 6.90001C63.9 6.90001 64.1 6.90001 64.3 6.80001C64.6 6.70001 64.9 6.60001 65.2 6.40001C65.4 6.20001 65.6 6.00001 65.7 5.60001C65.8 5.30001 65.8 4.90001 65.8 4.40001V4.10001C65.8 3.70001 65.8 3.30001 65.7 3.00001C65.6 2.70001 65.5 2.40001 65.3 2.20001C65 2.00001 64.8 1.80001 64.5 1.70001C64.2 1.60001 63.9 1.60001 63.5 1.60001H57.5C57.4 1.60001 57.3 1.70001 57.3 1.80001V9.20001C57.3 9.30001 57.4 9.40001 57.5 9.40001H59C59.1 9.40001 59.2 9.30001 59.2 9.20001V6.90001H61.3L63.8 9.30001L63.9 9.40001H65.9C66 9.40001 66.1 9.30001 66.1 9.20001C66 9.10001 65.9 9.00001 65.9 9.00001ZM59.1 5.30001V3.40001H63.4C63.6 3.40001 63.8 3.50001 63.8 3.60001C63.8 3.70001 63.9 3.90001 63.9 4.30001V4.70001C63.9 5.10001 63.8 5.20001 63.8 5.30001C63.7 5.40001 63.6 5.40001 63.4 5.40001H59.1V5.30001Z" fill="#6D6E71"/>
<path fill-rule="evenodd" clip-rule="evenodd" d="M76.5 9.30001C76.6 9.30001 76.7 9.20001 76.7 9.10001C76.7 9.00001 76.7 9.00001 76.6 9.00001L72.6 1.70001C72.6 1.60001 72.5 1.60001 72.4 1.60001H71C70.9 1.60001 70.9 1.60001 70.8 1.70001L66.8 9.10001C66.8 9.20001 66.8 9.20001 66.8 9.30001C66.8 9.40001 66.9 9.40001 67 9.40001H68.6C68.7 9.40001 68.7 9.40001 68.8 9.30001L69.7 7.70001H73.9L74.8 9.30001C74.8 9.40001 74.9 9.40001 75 9.40001H76.5V9.30001ZM70.4 6.10001L71.7 3.60001L73 6.10001H70.4Z" fill="#6D6E71"/>
<path fill-rule="evenodd" clip-rule="evenodd" d="M86.2 9.10001V1.80001C86.2 1.70001 86.1 1.60001 86 1.60001H84.6C84.5 1.60001 84.4 1.70001 84.4 1.80001V6.70001L79.7 1.70001L79.6 1.60001H78C77.9 1.60001 77.8 1.70001 77.8 1.80001V9.20001C77.8 9.30001 77.9 9.40001 78 9.40001H79.4C79.5 9.40001 79.6 9.30001 79.6 9.20001V4.20001L84.5 9.30001L84.6 9.40001H86C86.2 9.30001 86.2 9.20001 86.2 9.10001Z" fill="#6D6E71"/>
<path fill-rule="evenodd" clip-rule="evenodd" d="M95.3 8.80001C95.5 8.60001 95.7 8.40001 95.8 8.10001C95.9 7.80001 95.9 7.50001 95.9 7.00001V6.80001C95.9 6.50001 95.9 6.20001 95.8 5.90001C95.7 5.60001 95.5 5.40001 95.3 5.20001C95.1 5.00001 94.8 4.90001 94.5 4.80001C94.2 4.70001 93.8 4.70001 93.3 4.70001H90.4C90 4.70001 89.9 4.60001 89.8 4.60001C89.7 4.50001 89.7 4.30001 89.7 4.10001C89.7 3.90001 89.7 3.70001 89.8 3.60001C89.8 3.60001 90 3.50001 90.4 3.50001H95.4C95.5 3.50001 95.6 3.40001 95.6 3.30001C95.6 3.00001 95.7 2.80001 95.7 2.60001L95.8 1.90001C95.8 1.80001 95.8 1.80001 95.8 1.80001L95.7 1.70001H90.5C90 1.70001 89.6 1.70001 89.3 1.80001C89 1.90001 88.7 2.00001 88.5 2.20001C88.3 2.40001 88.1 2.60001 88 2.90001C87.9 3.20001 87.9 3.50001 87.9 3.90001V4.10001C87.9 4.50001 87.9 4.80001 88 5.00001C88.1 5.30001 88.2 5.50001 88.4 5.70001C88.6 5.90001 88.9 6.00001 89.2 6.10001C89.5 6.20001 89.9 6.20001 90.4 6.20001H93.4C93.8 6.20001 94 6.30001 94 6.30001C94 6.50001 94 6.60001 94 6.90001C94 7.00001 94 7.10001 94 7.20001C94 7.30001 93.9 7.30001 93.9 7.40001C93.9 7.40001 93.8 7.50001 93.7 7.50001C93.6 7.50001 93.4 7.50001 93.2 7.50001H88.2C88.1 7.50001 88 7.60001 88 7.70001L87.9 9.20001C87.9 9.30001 87.9 9.30001 88 9.30001L88.1 9.40001H93.3C93.7 9.40001 94.1 9.40001 94.5 9.30001C94.8 9.10001 95.1 9.00001 95.3 8.80001Z" fill="#6D6E71"/>
<path fill-rule="evenodd" clip-rule="evenodd" d="M96.8 9.30001H98.4C98.5 9.30001 98.5 9.30001 98.6 9.20001L99.5 7.60001H103.7L104.6 9.20001C104.6 9.30001 104.7 9.30001 104.8 9.30001H106.4C106.5 9.30001 106.6 9.20001 106.6 9.10001C106.6 9.00001 106.6 9.00001 106.5 9.00001L102.5 1.70001C102.5 1.60001 102.4 1.60001 102.3 1.60001H100.8C100.7 1.60001 100.7 1.60001 100.6 1.70001L96.6 9.10001C96.6 9.20001 96.6 9.20001 96.6 9.30001C96.7 9.30001 96.8 9.30001 96.8 9.30001ZM101.6 3.60001L102.9 6.10001H100.2L101.6 3.60001Z" fill="#6D6E71"/>
<path fill-rule="evenodd" clip-rule="evenodd" d="M107.9 8.80001C108.1 9.00001 108.4 9.20001 108.7 9.20001C109 9.30001 109.4 9.30001 109.9 9.30001H114.1C114.4 9.30001 114.7 9.30001 114.9 9.20001C115.1 9.10001 115.3 9.00001 115.5 8.90001C115.7 8.80001 115.8 8.60001 115.9 8.50001C116 8.40001 116.1 8.20001 116.1 8.10001C116.1 8.00001 116.1 7.90001 116.1 7.90001L115 7.00001C115 7.00001 114.9 6.90001 114.8 6.90001C114.7 6.90001 114.7 7.00001 114.7 7.00001C114.6 7.10001 114.6 7.20001 114.4 7.30001C114.3 7.40001 114.1 7.40001 113.9 7.40001H109.8C109.6 7.40001 109.5 7.40001 109.4 7.40001C109.3 7.40001 109.3 7.30001 109.2 7.30001C109.2 7.20001 109.1 7.20001 109.1 7.10001C109.1 7.00001 109.1 6.90001 109.1 6.70001V4.20001C109.1 3.80001 109.2 3.70001 109.2 3.60001C109.3 3.50001 109.5 3.50001 109.7 3.50001H113.7C113.9 3.50001 114.1 3.50001 114.2 3.60001C114.3 3.70001 114.4 3.80001 114.5 3.90001C114.5 4.00001 114.6 4.00001 114.6 4.00001C114.7 4.00001 114.7 4.00001 114.8 3.90001L115.7 3.00001C115.8 2.90001 115.8 2.90001 115.7 2.80001C115.7 2.70001 115.6 2.60001 115.5 2.40001C115.4 2.30001 115.3 2.10001 115.1 2.00001C114.9 1.90001 114.7 1.80001 114.5 1.70001C114.3 1.60001 114 1.60001 113.7 1.60001H109.6C109.1 1.60001 108.8 1.60001 108.5 1.70001C108.2 1.80001 107.9 1.90001 107.7 2.10001C107.5 2.30001 107.4 2.60001 107.3 2.90001C107.2 3.20001 107.2 3.60001 107.2 4.10001V6.70001C107.2 7.20001 107.2 7.60001 107.3 7.90001C107.6 8.30001 107.7 8.60001 107.9 8.80001Z" fill="#6D6E71"/>
<path fill-rule="evenodd" clip-rule="evenodd" d="M124.3 3.20001V1.80001C124.3 1.70001 124.2 1.60001 124.1 1.60001H117.3C117.2 1.60001 117.1 1.70001 117.1 1.80001V3.30001C117.1 3.40001 117.2 3.50001 117.3 3.50001H119.8V9.20001C119.8 9.30001 119.9 9.40001 120 9.40001H121.4C121.5 9.40001 121.6 9.30001 121.6 9.20001V3.40001H124.1C124.2 3.40001 124.3 3.30001 124.3 3.20001Z" fill="#6D6E71"/>
<path fill-rule="evenodd" clip-rule="evenodd" d="M125.8 9.30001H127.2C127.3 9.30001 127.4 9.20001 127.4 9.10001V1.80001C127.4 1.70001 127.3 1.60001 127.2 1.60001H125.8C125.7 1.60001 125.6 1.70001 125.6 1.80001V9.20001C125.6 9.20001 125.7 9.30001 125.8 9.30001Z" fill="#6D6E71"/>
<path fill-rule="evenodd" clip-rule="evenodd" d="M137.5 2.20001C137.3 2.00001 137 1.80001 136.7 1.80001C136.4 1.70001 136 1.70001 135.6 1.70001H131.7C131.2 1.70001 130.8 1.70001 130.5 1.80001C130.2 1.90001 129.9 2.00001 129.7 2.20001C129.5 2.40001 129.4 2.70001 129.3 3.00001C129.2 3.30001 129.2 3.70001 129.2 4.20001V6.80001C129.2 7.30001 129.2 7.70001 129.3 8.00001C129.4 8.30001 129.5 8.60001 129.7 8.80001C129.9 9.00001 130.2 9.20001 130.5 9.20001C130.8 9.30001 131.2 9.30001 131.7 9.30001H135.6C136 9.30001 136.4 9.30001 136.7 9.20001C137 9.10001 137.3 9.00001 137.5 8.80001C137.7 8.60001 137.8 8.30001 137.9 8.00001C138 7.70001 138 7.30001 138 6.80001V4.20001C138 3.70001 138 3.30001 137.9 3.00001C137.8 2.60001 137.7 2.40001 137.5 2.20001ZM136.2 6.80001C136.2 7.20001 136.1 7.40001 136.1 7.40001C136 7.50001 135.9 7.50001 135.6 7.50001H131.7C131.4 7.50001 131.2 7.40001 131.2 7.40001C131.2 7.30001 131.1 7.20001 131.1 6.80001V4.20001C131.1 3.80001 131.2 3.60001 131.2 3.60001C131.3 3.50001 131.5 3.50001 131.7 3.50001H135.6C135.9 3.50001 136 3.50001 136.1 3.60001C136.2 3.70001 136.2 3.80001 136.2 4.20001V6.80001Z" fill="#6D6E71"/>
<path fill-rule="evenodd" clip-rule="evenodd" d="M147.9 1.60001H146.5C146.4 1.60001 146.3 1.70001 146.3 1.80001V6.70001L141.6 1.70001L141.5 1.60001H139.9C139.8 1.60001 139.7 1.70001 139.7 1.80001V9.20001C139.7 9.30001 139.8 9.40001 139.9 9.40001H141.3C141.4 9.40001 141.5 9.30001 141.5 9.20001V4.20001L146.4 9.30001L146.5 9.40001H147.9C148 9.40001 148.1 9.30001 148.1 9.20001V1.80001C148.1 1.70001 148 1.60001 147.9 1.60001Z" fill="#6D6E71"/>
<path fill-rule="evenodd" clip-rule="evenodd" d="M74 18C73.8 17.8 73.5 17.7 73.2 17.6C72.9 17.5 72.5 17.5 72 17.5H69C68.6 17.5 68.5 17.4 68.4 17.4C68.3 17.3 68.3 17.1 68.3 16.9C68.3 16.7 68.3 16.5 68.4 16.4C68.4 16.4 68.6 16.3 69 16.3H74C74.1 16.3 74.2 16.2 74.2 16.1C74.2 15.8 74.3 15.6 74.3 15.4L74.4 14.7C74.4 14.6 74.4 14.6 74.4 14.6L74.3 14.5H69C68.5 14.5 68.1 14.5 67.8 14.6C67.5 14.7 67.2 14.8 67 15C66.8 15.2 66.6 15.4 66.5 15.7C66.4 16 66.4 16.3 66.4 16.7V16.9C66.4 17.3 66.4 17.6 66.5 17.8C66.6 18.1 66.7 18.3 66.9 18.5C67.1 18.7 67.4 18.8 67.7 18.9C68 19 68.4 19 68.9 19H71.9C72.3 19 72.5 19.1 72.5 19.1C72.6 19.2 72.6 19.3 72.6 19.6C72.6 19.7 72.6 19.8 72.6 19.9C72.6 20 72.5 20 72.5 20.1C72.5 20.1 72.4 20.2 72.3 20.2C72.2 20.2 72 20.2 71.8 20.2H66.8C66.7 20.2 66.6 20.3 66.6 20.4V22C66.6 22.1 66.6 22.1 66.7 22.1L66.8 22.2H72C72.4 22.2 72.8 22.2 73.2 22.1C73.5 22 73.8 21.9 74 21.7C74.2 21.5 74.4 21.3 74.5 21C74.6 20.7 74.6 20.4 74.6 19.9V19.6C74.6 19.3 74.6 19 74.5 18.7C74.4 18.4 74.2 18.2 74 18Z" fill="#6D6E71"/>
<path fill-rule="evenodd" clip-rule="evenodd" d="M84.1 14.4H82.4C82.3 14.4 82.3 14.4 82.2 14.5L79.8 17.7L77.4 14.5C77.4 14.5 77.3 14.4 77.2 14.4H75.5C75.4 14.4 75.4 14.4 75.3 14.5C75.3 14.6 75.3 14.6 75.3 14.7L78.7 19.3V22C78.7 22.1 78.8 22.2 78.9 22.2H80.3C80.4 22.2 80.5 22.1 80.5 22V19.4L84 14.8C84 14.7 84.1 14.7 84 14.6C84.2 14.5 84.2 14.4 84.1 14.4Z" fill="#6D6E71"/>
<path fill-rule="evenodd" clip-rule="evenodd" d="M92.5 18C92.3 17.8 92 17.7 91.7 17.6C91.4 17.5 91 17.5 90.5 17.5H87.6C87.2 17.5 87.1 17.4 87 17.4C86.9 17.3 86.9 17.1 86.9 16.9C86.9 16.7 86.9 16.5 87 16.4C87 16.4 87.2 16.3 87.6 16.3H92.6C92.7 16.3 92.8 16.2 92.8 16.1C92.8 15.8 92.9 15.6 92.9 15.4L93 14.7C93 14.6 93 14.6 93 14.6L92.9 14.5H87.7C87.2 14.5 86.8 14.5 86.5 14.6C86.2 14.7 85.9 14.8 85.7 15C85.5 15.2 85.3 15.4 85.2 15.7C85.1 16 85.1 16.3 85.1 16.7V16.9C85.1 17.3 85.1 17.6 85.2 17.8C85.3 18.1 85.4 18.3 85.6 18.5C85.8 18.7 86.1 18.8 86.4 18.9C86.7 19 87.1 19 87.6 19H90.6C91 19 91.2 19.1 91.2 19.1C91.3 19.2 91.3 19.3 91.3 19.6C91.3 19.7 91.3 19.8 91.3 19.9C91.3 20 91.2 20 91.2 20.1C91.2 20.1 91.1 20.2 91 20.2C90.9 20.2 90.7 20.2 90.5 20.2H85.5C85.4 20.2 85.3 20.3 85.3 20.4L85.1 22C85.1 22.1 85.1 22.1 85.2 22.1L85.3 22.2H90.5C90.9 22.2 91.3 22.2 91.7 22.1C92 22 92.3 21.9 92.5 21.7C92.7 21.5 92.9 21.3 93 21C93.1 20.7 93.1 20.4 93.1 19.9V19.6C93.1 19.3 93.1 19 93 18.7C92.9 18.4 92.7 18.2 92.5 18Z" fill="#6D6E71"/>
<path fill-rule="evenodd" clip-rule="evenodd" d="M101.2 14.4H94.4C94.3 14.4 94.2 14.5 94.2 14.6V16.1C94.2 16.2 94.3 16.3 94.4 16.3H96.9V22C96.9 22.1 97 22.2 97.1 22.2H98.5C98.6 22.2 98.7 22.1 98.7 22V16.3H101.2C101.3 16.3 101.4 16.2 101.4 16.1V14.6C101.4 14.5 101.3 14.4 101.2 14.4Z" fill="#6D6E71"/>
<path fill-rule="evenodd" clip-rule="evenodd" d="M110 14.4H102.9C102.8 14.4 102.7 14.5 102.7 14.6V22C102.7 22.1 102.8 22.2 102.9 22.2H110C110.1 22.2 110.2 22.1 110.2 22V20.5C110.2 20.4 110.1 20.3 110 20.3H104.6V19H109.9C110 19 110.1 18.9 110.1 18.8V17.6C110.1 17.5 110 17.4 109.9 17.4H104.6V16.2H110C110.1 16.2 110.2 16.1 110.2 16V14.5C110.1 14.5 110.1 14.4 110 14.4Z" fill="#6D6E71"/>
<path fill-rule="evenodd" clip-rule="evenodd" d="M120.6 14.4H119C118.9 14.4 118.9 14.4 118.8 14.5L116.2 20L113.6 14.5C113.6 14.4 113.5 14.4 113.4 14.4H111.8C111.7 14.4 111.6 14.5 111.6 14.6V22C111.6 22.1 111.7 22.2 111.8 22.2H113.1C113.2 22.2 113.3 22.1 113.3 22V18L115.3 22.1C115.3 22.2 115.4 22.2 115.5 22.2H116.8C116.9 22.2 116.9 22.2 117 22.1L119 18V22C119 22.1 119.1 22.2 119.2 22.2H120.5C120.6 22.2 120.7 22.1 120.7 22V14.6C120.7 14.5 120.7 14.4 120.6 14.4Z" fill="#6D6E71"/>
<path fill-rule="evenodd" clip-rule="evenodd" d="M129.8 18C129.6 17.8 129.3 17.7 129 17.6C128.7 17.5 128.3 17.5 127.8 17.5H124.9C124.5 17.5 124.4 17.4 124.3 17.4C124.2 17.3 124.2 17.1 124.2 16.9C124.2 16.7 124.2 16.5 124.3 16.4C124.3 16.4 124.5 16.3 124.9 16.3H129.9C130 16.3 130.1 16.2 130.1 16.1C130.1 15.8 130.2 15.6 130.2 15.4L130.3 14.7C130.3 14.6 130.3 14.6 130.3 14.6L130.2 14.5H125C124.5 14.5 124.1 14.5 123.8 14.6C123.5 14.7 123.2 14.8 123 15C122.8 15.2 122.6 15.4 122.5 15.7C122.4 16 122.4 16.3 122.4 16.7V16.9C122.4 17.3 122.4 17.6 122.5 17.8C122.6 18.1 122.7 18.3 122.9 18.5C123.1 18.7 123.4 18.8 123.7 18.9C124 19 124.4 19 124.9 19H127.9C128.3 19 128.5 19.1 128.5 19.1C128.6 19.2 128.6 19.3 128.6 19.6C128.6 19.7 128.6 19.8 128.6 19.9C128.6 20 128.5 20 128.5 20.1C128.5 20.1 128.4 20.2 128.3 20.2C128.2 20.2 128 20.2 127.8 20.2H122.8C122.7 20.2 122.6 20.3 122.6 20.4L122.5 21.9C122.5 22 122.5 22 122.6 22L122.7 22.1H127.9C128.3 22.1 128.7 22.1 129.1 22C129.4 21.9 129.7 21.8 129.9 21.6C130.1 21.4 130.3 21.2 130.4 20.9C130.5 20.6 130.5 20.3 130.5 19.8V19.5C130.5 19.2 130.5 18.9 130.4 18.6C130.2 18.4 130 18.2 129.8 18Z" fill="#6D6E71"/>
</svg>
