<svg width="121" height="50" viewBox="0 0 121 50" fill="none" xmlns="http://www.w3.org/2000/svg">
<path fill-rule="evenodd" clip-rule="evenodd" d="M0 0V11.7512H41.4591V0H0ZM38.7806 9.21659H2.56208V2.53456H38.7806V9.21659Z" fill="#00B387"/>
<path fill-rule="evenodd" clip-rule="evenodd" d="M2.56208 31.2212H0V19.4701H2.56208V24.0784H7.2204V19.4701H9.78248V31.2212H7.2204V26.3825H2.56208V31.2212ZM15.7218 31.4516C13.0433 31.4516 11.2964 29.8387 11.2964 27.0738C11.2964 24.424 13.0433 22.6959 15.3725 22.6959C17.9346 22.6959 19.2156 24.424 19.2156 26.8433V27.765H13.8585C14.2079 29.0323 15.1396 29.3779 16.1877 29.3779C17.1193 29.3779 17.7016 29.1475 18.5168 28.6867H18.6333V30.6452C17.8181 31.106 16.8864 31.4516 15.7218 31.4516ZM13.7421 26.0369H16.77C16.77 25.1152 16.3041 24.5392 15.3725 24.5392C14.5573 24.5392 13.975 24.8848 13.7421 26.0369ZM25.8537 26.2673L24.5727 31.2212H22.36L19.7979 22.9263V22.8111H22.127L23.5245 27.765L24.8056 22.8111H26.7854L28.1829 27.765L29.5804 22.8111H31.9095V22.9263L29.3475 31.2212H27.1347L25.8537 26.2673ZM36.3349 31.4516C34.2387 31.4516 33.4235 30.6452 33.4235 28.6867V19.4701H35.9856V28.5714C35.9856 29.1475 36.2185 29.3779 36.6843 29.3779C36.8008 29.3779 37.1501 29.3779 37.2666 29.2627V31.3364C37.0337 31.3364 36.6843 31.4516 36.3349 31.4516ZM42.3908 31.4516C39.7122 31.4516 37.9653 29.8387 37.9653 27.0738C37.9653 24.424 39.7122 22.6959 42.0414 22.6959C44.6035 22.6959 45.8845 24.424 45.8845 26.8433V27.765H40.5274C40.8768 29.0323 41.8085 29.3779 42.8566 29.3779C43.7883 29.3779 44.3705 29.1475 45.1858 28.6867H45.3022V30.6452C44.487 31.106 43.5553 31.4516 42.3908 31.4516ZM40.411 26.0369H43.4389C43.4389 25.1152 42.973 24.5392 42.0414 24.5392C41.3426 24.5392 40.6439 24.8848 40.411 26.0369ZM56.1328 22.8111H57.9961V24.7696H56.1328V28.2258C56.1328 28.9171 56.3657 29.2627 57.1809 29.2627C57.4139 29.2627 57.6468 29.2627 57.9961 29.1475V31.106C57.6468 31.2212 57.1809 31.3364 56.4822 31.3364C54.5024 31.3364 53.6872 30.4148 53.6872 28.341V24.7696H50.4264V28.2258C50.4264 28.9171 50.6593 29.2627 51.4745 29.2627C51.7074 29.2627 51.9403 29.2627 52.2897 29.1475V31.106C51.9403 31.2212 51.4745 31.3364 50.7757 31.3364C48.796 31.3364 47.9808 30.4148 47.9808 28.341V24.7696H46.5833V22.8111H47.8643V20.5069H50.4264V22.8111H53.5707V20.5069H56.1328V22.8111ZM71.0395 23.3871C71.0395 25.9217 69.2926 27.3042 66.7305 27.3042H64.8672V31.106H62.3051V19.4701H66.7305C69.2926 19.4701 71.0395 20.8526 71.0395 23.3871ZM66.4976 25.2304C67.7786 25.2304 68.4774 24.5392 68.4774 23.3871C68.4774 22.3503 67.8951 21.5438 66.4976 21.5438H64.8672V25.1152H66.4976V25.2304ZM76.6295 30.4148C76.0472 31.106 75.232 31.3364 74.4167 31.3364C72.7863 31.3364 71.3888 30.2996 71.3888 28.5714C71.3888 26.9585 72.7863 25.8065 74.6497 25.8065C75.2319 25.8065 75.9307 25.9217 76.513 26.0369V25.9217C76.513 25 76.0472 24.6544 74.6497 24.6544C73.8344 24.6544 73.0192 24.8848 72.3205 25.3456H72.204V23.3871C72.9028 23.0415 73.9509 22.6959 75.1155 22.6959C77.6776 22.6959 79.0751 23.8479 79.0751 26.0369V31.3364H76.6295V30.4148ZM76.513 28.5714V27.8802C76.1636 27.6498 75.5813 27.6498 75.1155 27.6498C74.3003 27.6498 73.8345 27.9954 73.8345 28.5714C73.8345 29.2627 74.3003 29.6083 75.1155 29.6083C75.8142 29.6083 76.2801 29.1475 76.513 28.5714ZM80.3561 27.0738C80.3561 24.424 82.3359 22.6959 84.7815 22.6959C85.7132 22.6959 86.5284 22.9263 87.1107 23.3871V25.4609H86.9942C86.4119 25 85.8296 24.7696 85.0144 24.7696C83.7334 24.7696 82.8017 25.5761 82.8017 27.0738C82.8017 28.4562 83.7334 29.3779 85.0144 29.3779C85.7132 29.3779 86.4119 29.1475 86.9942 28.6867H87.1107V30.7604C86.5284 31.2212 85.5967 31.4516 84.7815 31.4516C82.2194 31.4516 80.3561 29.7235 80.3561 27.0738ZM91.1867 27.4194V31.2212H88.6246V19.4701H91.1867V26.1521L93.7488 22.8111H96.6602V22.9263L93.6323 26.7281L96.6602 31.106V31.2212H93.7488L91.1867 27.4194ZM102.25 30.4148C101.668 31.106 100.853 31.3364 100.038 31.3364C98.4071 31.3364 97.0096 30.2996 97.0096 28.5714C97.0096 26.9585 98.4071 25.8065 100.27 25.8065C100.853 25.8065 101.551 25.9217 102.134 26.0369V25.9217C102.134 25 101.668 24.6544 100.27 24.6544C99.4552 24.6544 98.64 24.8848 97.9413 25.3456H97.8248V23.3871C98.5236 23.0415 99.5717 22.6959 100.736 22.6959C103.298 22.6959 104.696 23.8479 104.696 26.0369V31.3364H102.25V30.4148ZM102.25 28.5714V27.8802C101.901 27.6498 101.319 27.6498 100.853 27.6498C100.038 27.6498 99.5717 27.9954 99.5717 28.5714C99.5717 29.2627 100.038 29.6083 100.853 29.6083C101.435 29.6083 102.017 29.1475 102.25 28.5714ZM109.005 24.1936C109.471 23.2719 110.169 22.6959 111.101 22.6959C111.45 22.6959 111.8 22.8111 111.916 22.8111V25.2304H111.8C111.567 25.1152 111.218 25 110.752 25C109.936 25 109.354 25.4608 109.121 26.2673V31.106H106.559V22.6959H109.005V24.1936ZM118.554 30.2996C117.972 30.9908 117.157 31.3364 115.992 31.3364C113.78 31.3364 112.382 29.3779 112.382 26.9585C112.382 24.5392 113.78 22.5807 115.992 22.5807C117.04 22.5807 117.856 22.9263 118.438 23.5023V19.3549H121V31.106H118.554V30.2996ZM118.438 28.341V25.6913C117.972 25.1152 117.506 24.7696 116.808 24.7696C115.759 24.7696 114.944 25.5761 114.944 26.9585C114.944 28.341 115.643 29.1475 116.808 29.1475C117.506 29.2627 118.089 28.9171 118.438 28.341ZM0 35.0231H7.33686V36.4056H1.63041V39.977H6.75457V41.4747H1.63041V45.3917H7.33686V46.7742H0V35.0231ZM13.3927 38.3641C15.256 38.3641 16.3041 39.6314 16.3041 41.5899V46.7742H14.6737V41.5899C14.6737 40.553 14.0914 39.7466 12.9269 39.7466C11.9952 39.7466 11.0635 40.3226 10.8306 41.2443V46.7742H9.31665V38.4793H10.9471V39.6314C11.4129 38.9401 12.2281 38.3641 13.3927 38.3641ZM20.6131 38.4793H22.7093V39.8618H20.6131V44.3549C20.6131 45.2765 21.0789 45.6221 22.0106 45.6221C22.2435 45.6221 22.4764 45.6221 22.7093 45.5069V46.8894C22.4764 47.0046 22.127 47.0046 21.7777 47.0046C19.7979 47.0046 18.9827 46.083 18.9827 44.4701V39.8618H17.5852V38.4793H18.9827V36.2903H20.6131V38.4793ZM27.8335 47.0046C25.3879 47.0046 23.7575 45.3917 23.7575 42.742C23.7575 40.0922 25.2714 38.3641 27.6006 38.3641C29.9297 38.3641 31.0943 39.977 31.0943 42.3963V43.0876H25.3879C25.5043 44.8157 26.6689 45.6221 28.1829 45.6221C29.1145 45.6221 29.8133 45.3917 30.512 44.8157V46.1982C29.8133 46.7742 28.8816 47.0046 27.8335 47.0046ZM25.3879 41.8203H29.5804C29.5804 40.553 28.8816 39.6314 27.6006 39.6314C26.436 39.7466 25.6208 40.553 25.3879 41.8203ZM34.4716 39.8618C34.821 38.9401 35.6362 38.4793 36.5679 38.4793C36.9172 38.4793 37.2666 38.4793 37.3831 38.5945V40.0922C37.1501 39.977 36.8008 39.977 36.4514 39.977C35.6362 39.977 34.821 40.553 34.5881 41.4747V46.8894H32.9576V38.5945H34.5881V39.8618H34.4716ZM42.7401 38.3641C45.1858 38.3641 46.5833 40.3226 46.5833 42.6267C46.5833 44.9309 45.3022 46.8894 42.7401 46.8894C41.692 46.8894 40.8768 46.3134 40.411 45.8526V50H38.7806V38.4793H40.411V39.4009C40.8768 38.9401 41.8085 38.3641 42.7401 38.3641ZM42.5072 45.6221C44.0212 45.6221 44.9528 44.3549 44.9528 42.742C44.9528 41.1291 44.0212 39.8618 42.5072 39.8618C41.692 39.8618 40.8768 40.3226 40.411 41.1291V44.3549C40.8768 45.0461 41.692 45.6221 42.5072 45.6221ZM50.077 39.8618C50.4264 38.9401 51.2416 38.4793 52.1732 38.4793C52.5226 38.4793 52.872 38.4793 52.9884 38.5945V40.0922C52.7555 39.977 52.4062 39.977 52.0568 39.977C51.2416 39.977 50.4264 40.553 50.1935 41.4747V46.8894H48.563V38.5945H50.077V39.8618ZM55.2012 35.1383C55.7834 35.1383 56.2493 35.5991 56.2493 36.0599C56.2493 36.636 55.7834 36.9816 55.2012 36.9816C54.6189 36.9816 54.153 36.5208 54.153 36.0599C54.2695 35.5991 54.7353 35.1383 55.2012 35.1383ZM54.3859 38.4793H56.0164V46.7742H54.3859V38.4793ZM61.6064 41.9355C62.7709 42.2811 64.1684 42.8572 64.1684 44.3549C64.1684 46.083 62.7709 46.8894 60.9076 46.8894C59.8595 46.8894 58.6949 46.659 58.1126 46.083V44.5853H58.2291C58.9278 45.2765 59.9759 45.5069 61.0241 45.5069C61.9557 45.5069 62.7709 45.1613 62.7709 44.4701C62.7709 43.7788 62.0722 43.5484 60.7911 43.0876C59.6266 42.742 58.3455 42.2811 58.3455 40.6682C58.3455 39.0553 59.6266 38.1337 61.3734 38.1337C62.3051 38.1337 63.2368 38.3641 63.9355 38.8249V40.3226C63.2368 39.7466 62.4216 39.4009 61.4899 39.4009C60.4418 39.4009 59.9759 39.8618 59.9759 40.4378C59.743 41.3595 60.3253 41.5899 61.6064 41.9355ZM69.642 47.0046C67.1963 47.0046 65.5659 45.3917 65.5659 42.742C65.5659 40.0922 67.0799 38.3641 69.409 38.3641C71.7382 38.3641 72.9028 39.977 72.9028 42.3963V43.0876H67.1963C67.3128 44.8157 68.4774 45.6221 69.9913 45.6221C70.923 45.6221 71.6217 45.3917 72.3205 44.8157V46.1982C71.6217 46.7742 70.6901 47.0046 69.642 47.0046ZM67.1963 41.8203H71.3888C71.3888 40.553 70.6901 39.6314 69.409 39.6314C68.2445 39.7466 67.4293 40.553 67.1963 41.8203Z" fill="black"/>
</svg>
