<svg width="142" height="46" viewBox="0 0 142 46" fill="none" xmlns="http://www.w3.org/2000/svg">
<path fill-rule="evenodd" clip-rule="evenodd" d="M104.73 8.5207C105.131 8.65384 106.199 9.45266 106.6 9.71893C106.734 9.71893 106.734 9.85207 106.867 9.9852L107.135 10.2515C107.535 10.3846 109.539 12.2485 109.673 12.5148L109.94 12.6479C110.608 13.4467 111.409 14.7781 111.676 15.8432C111.944 16.3757 112.077 18.3728 112.077 19.1716C112.077 21.3018 111.409 23.1657 110.207 24.8964C109.94 25.2959 109.673 25.6953 109.405 25.9615C109.272 26.0947 108.738 26.8935 108.604 26.8935C108.47 27.1598 107.535 28.0917 107.268 28.2248C107.135 28.358 106.6 28.8905 106.333 29.0237C106.066 29.2899 105.799 29.4231 105.532 29.6893C105.264 29.8225 104.864 30.2219 104.596 30.355C104.596 30.4882 104.73 30.355 104.463 30.4882C104.329 30.6213 104.463 30.4882 104.329 30.4882C104.196 30.7544 103.661 31.0207 103.528 31.1538C103.261 31.287 102.993 31.5532 102.593 31.6864C102.459 31.9527 101.123 32.6183 100.856 32.7515L99.5202 33.5503C99.3866 33.5503 99.3866 33.6834 99.2531 33.6834C98.9859 33.8166 99.2531 33.6834 98.9859 33.8166C98.8523 34.0828 97.9172 34.4822 97.65 34.6154C97.65 34.7485 97.3829 34.7485 97.2493 34.8816C96.9821 35.0148 96.9821 35.0148 96.715 35.1479C96.4478 35.2811 95.9135 35.6805 95.6463 35.6805C95.5127 35.8136 95.2455 35.9467 95.1119 36.0799L96.3142 35.6805C96.4478 35.5473 99.6538 34.3491 100.188 34.216C101.39 33.6834 102.726 33.1509 103.929 32.6183C104.864 32.2189 105.665 31.8195 106.6 31.4201C107.001 31.1538 107.535 31.0207 107.936 30.7544C108.203 30.6213 108.871 30.2219 109.272 30.0888C109.405 29.9556 111.409 28.7574 111.543 28.7574C111.676 28.6243 111.676 28.6243 111.944 28.4911L114.615 26.7603C114.615 26.6272 114.615 26.7603 114.749 26.6272L115.417 26.0947L115.684 25.9615L116.753 25.0296C117.153 24.6302 117.421 24.497 117.688 24.0976L119.558 21.9674C119.558 21.8343 119.558 21.8343 119.691 21.8343C119.691 21.7012 120.226 20.9024 120.359 20.7692C120.359 20.3698 121.829 18.639 121.962 15.0444C122.096 9.71893 115.55 6.12425 110.875 4.39348C104.196 1.8639 96.4478 0.931946 89.2342 0.399402C88.5663 0.399402 86.1618 0.399402 85.7611 0.266266H76.8109L68.7959 0.665674C67.1929 0.79881 62.5174 1.06508 61.1816 1.33135C62.1167 1.33135 63.3189 1.19822 64.254 1.19822C71.2004 1.06508 78.4139 1.33135 85.3603 2.52958C90.1693 3.3284 96.1806 4.79289 100.589 6.6568C101.123 6.78993 104.329 8.1213 104.73 8.5207Z" fill="#D8271A"/>
<path fill-rule="evenodd" clip-rule="evenodd" d="M14.6943 13.713C14.6943 13.8462 14.6943 13.8462 14.6943 13.713L14.1599 13.9793C13.3584 14.3787 11.0875 15.7101 10.8203 15.8432C10.8203 15.9763 9.48448 16.7751 9.35089 16.9083L9.08372 17.1746C8.68297 17.3077 8.28222 17.7071 8.01505 17.7071L5.47695 19.7041C5.34337 19.8373 5.47695 19.7041 5.34337 19.8373C5.34337 19.8373 5.34337 19.8373 5.34337 19.9704L3.47319 21.9675L3.3396 22.1006L3.20602 22.2337C3.20602 22.2337 2.13735 23.6982 2.13735 23.8314L1.46943 25.1627C1.33584 25.2959 1.46943 25.2959 1.33584 25.2959C1.33584 25.5621 1.06867 26.0947 0.935089 26.4941C0.801505 26.8935 0.667921 27.2929 0.534337 27.8254C0.133584 28.4911 0 29.8225 0 30.7544C0.267168 34.6154 3.74036 37.145 6.27846 38.7426C9.21731 40.4734 12.8241 41.6716 16.5644 42.7367C20.1712 43.6686 24.8467 44.3343 28.7206 44.7337C33.396 45.1331 37.9379 45.2663 42.6134 45.1331C45.5522 45 48.3575 45 51.2963 44.7337C52.2314 44.7337 58.777 44.2012 59.7121 44.068C58.6435 44.068 57.4412 44.2012 56.3725 44.2012C55.3039 44.2012 54.2352 44.2012 53.0329 44.2012C50.8956 44.2012 48.6246 44.2012 46.4873 43.9349C37.0028 43.2692 27.6519 41.6716 18.969 37.8106C18.5682 37.6775 14.9614 35.6805 14.8278 35.2811C14.4271 35.1479 12.9577 33.8166 12.5569 33.5503C12.1562 33.1509 11.0875 31.9527 10.8203 31.287C10.4196 31.0207 9.88523 29.4231 9.75165 28.7574C9.21731 27.2929 9.48448 25.1627 9.75165 23.6982C9.88523 23.2988 10.0188 22.8994 10.1524 22.5C10.286 22.1006 10.4196 21.7012 10.6867 21.4349V21.3018C10.8203 20.7692 11.2211 20.2367 11.4882 19.8373C11.6218 19.571 11.7554 19.4379 12.0226 19.1716C12.1562 18.9053 12.2897 18.7722 12.5569 18.6391C12.5569 18.3728 13.492 17.4408 13.7592 17.3077L13.8928 17.1746C14.0263 16.9083 14.0263 16.9083 14.2935 16.7751C14.5607 16.642 14.4271 16.5089 14.6943 16.5089C14.6943 16.3757 14.6943 16.5089 14.6943 16.3757C14.8278 16.2426 14.6943 16.3757 14.8278 16.3757C14.9614 16.2426 14.9614 16.2426 15.095 16.1095L15.6293 15.7101C15.7629 15.5769 15.7629 15.5769 15.8965 15.5769C16.0301 15.3106 18.5682 13.5799 18.8354 13.4467C18.969 13.1805 19.904 12.6479 20.3048 12.5148C20.7055 12.2485 21.5071 11.716 21.7742 11.716C21.9078 11.5828 24.8467 9.85207 24.9802 9.85207C25.2474 9.5858 26.0489 9.31953 26.3161 9.05325C25.7817 9.18639 20.9727 11.1834 20.4384 11.3166L14.6943 13.713Z" fill="#D8271A"/>
<path fill-rule="evenodd" clip-rule="evenodd" d="M30.858 13.4467L30.0565 16.9083L26.8504 31.1538H31.5259L32.8617 25.429L33.7968 21.7012C33.7968 21.4349 33.7968 21.1686 33.9304 20.9024L34.4647 18.2396C34.5983 18.5059 34.9991 20.3698 34.9991 20.9024C35.1327 21.568 35.8006 24.8964 36.0677 26.0947C36.2013 26.4941 36.0677 26.7603 36.3349 26.7603H39.6745C39.8081 26.4941 40.8768 24.8964 41.0104 24.7633C41.2775 24.2308 44.35 19.7041 44.8843 18.7722C44.8843 19.1716 44.6171 20.1035 44.4835 20.6361C44.35 21.3018 44.2164 21.8343 44.0828 22.5C44.0828 22.7663 43.4149 25.9615 43.1477 26.0947C43.1477 26.6272 42.2126 30.4882 41.9454 31.287H46.8881L51.0292 11.9822H45.2851L44.8843 12.5148C44.7507 12.7811 44.2164 13.5799 44.0828 13.713C44.0828 13.8461 44.2164 13.8461 44.0828 13.8461C43.9492 14.1124 43.2813 15.1775 43.1477 15.3106C43.1477 15.4438 43.2813 15.4438 43.1477 15.4438C43.0141 15.7101 42.3462 16.7751 42.2126 16.9083C42.2126 17.1745 41.8119 17.574 41.6783 17.8402C41.4111 18.1065 41.2775 18.3728 41.1439 18.639C41.0104 18.9053 40.2088 20.2367 39.9417 20.2367C39.8081 20.5029 39.6745 20.6361 39.5409 20.9024C39.4073 21.1686 39.2738 21.4349 39.0066 21.568L38.7394 20.1035L36.7357 11.9822H31.2587C31.1251 12.1154 30.9915 12.5148 30.9915 12.7811C30.9915 12.9142 30.858 13.3136 30.858 13.4467Z" fill="#D8271A"/>
<path fill-rule="evenodd" clip-rule="evenodd" d="M55.4374 30.7544C55.9718 30.7544 57.0405 31.5532 60.3801 31.5532C62.1167 31.5532 63.8532 31.287 65.1891 30.6213C66.5249 29.9556 67.46 29.0237 68.2615 27.9586C69.4638 26.0947 69.3302 25.1627 69.8645 23.9645C69.8645 23.5651 69.9981 23.1657 70.1317 22.6331C70.2653 22.3669 70.2653 21.7012 70.3989 21.568C70.3989 21.3018 70.5325 20.6361 70.666 20.5029C70.7996 19.7041 71.2004 17.8402 71.4675 16.9083L71.6011 16.5089C71.6011 16.2426 71.8683 15.0444 72.0019 14.7781L72.5362 12.1154H67.5936C66.9257 15.1775 66.2578 18.1065 65.4563 21.1686C65.1891 22.5 64.7883 24.497 64.254 25.5621C63.7197 26.8935 62.7846 27.8254 61.048 27.9586C56.1054 28.358 57.7084 24.3639 58.3763 21.1686C58.777 19.7041 59.0442 18.1065 59.445 16.642C59.7121 15.1775 60.1129 13.5799 60.5136 12.1154H55.571C54.9031 15.4438 54.1016 18.7722 53.3001 22.1006C52.8993 23.8313 52.365 25.5621 52.7658 27.426C53.3001 29.8225 55.1703 30.355 55.4374 30.7544Z" fill="#D8271A"/>
<path fill-rule="evenodd" clip-rule="evenodd" d="M76.8109 12.7811C76.8109 12.9142 76.8109 13.1805 76.6773 13.3136C76.5437 13.8461 76.0094 16.9083 75.7422 17.1745C75.7422 17.4408 74.8071 21.9674 74.54 22.3669L73.7385 25.8284L73.4713 26.7603C73.3377 27.426 73.2041 28.2248 73.0706 28.7574L72.8034 30.6213C72.8034 30.7544 72.8034 30.6213 72.6698 30.7544V31.1538H77.4788C77.6124 31.1538 77.6124 31.1538 77.746 30.7544C77.8796 30.2219 78.4139 27.6923 78.5475 27.426C78.5475 27.2929 78.5475 27.0266 78.6811 26.8935C78.8147 26.4941 78.8147 26.0947 78.9483 25.6953C79.0818 24.8964 79.0818 25.1627 79.4826 24.7633C79.7498 24.497 80.8184 23.5651 81.0856 23.4319C81.3528 23.8314 81.7535 24.497 81.8871 24.8964C82.0207 25.0296 82.2879 25.429 82.4214 25.6953C82.555 25.9615 82.6886 26.2278 82.9558 26.6272C83.2229 27.1598 83.7573 27.9586 83.8909 28.4911C84.0245 28.4911 84.158 28.8905 84.158 29.0237C84.4252 29.1568 84.826 30.2219 84.9595 30.4882L85.4939 31.287H90.8372V31.0207C90.5701 30.8876 90.1693 29.9556 90.0357 29.6893L89.635 29.2899C89.3678 29.1568 88.5663 27.5592 88.5663 27.426C88.2992 27.1598 87.4976 25.429 87.2305 25.1627C87.0969 24.7633 86.6961 24.3639 86.5626 23.8314L86.2954 23.5651L85.761 22.5C85.6275 22.3669 85.3603 21.9674 85.3603 21.7012C85.2267 21.4349 84.9595 21.1686 84.9595 20.7692C85.2267 20.6361 85.761 20.1035 86.0282 19.8373C86.1618 19.7041 86.429 19.571 86.5626 19.3047C86.6961 19.1716 86.8297 19.0385 87.0969 18.9053L88.9671 17.1745C89.1006 17.0414 88.9671 17.1745 89.1006 17.1745C89.2342 16.9083 89.5014 16.7751 89.7686 16.5089L91.1044 15.1775C91.6387 14.7781 94.1768 12.2485 94.444 12.1154C94.444 11.8491 94.444 12.1154 94.444 11.9822H88.8335C88.2991 12.2485 82.2879 18.5059 81.7535 18.9053C81.6199 19.0385 81.7535 18.9053 81.6199 18.9053C81.4864 19.1716 80.2841 20.2367 80.1505 20.3698C80.1505 20.1035 80.2841 19.7041 80.4177 19.4379L80.6849 18.5059C80.6849 18.1065 81.2192 15.8432 81.3528 15.3106C81.6199 14.2456 81.8871 13.0473 82.0207 12.1154H77.0781C76.9445 12.2485 76.9445 12.6479 76.8109 12.7811Z" fill="#D8271A"/>
<path fill-rule="evenodd" clip-rule="evenodd" d="M119.291 41.5385C119.291 41.2722 119.825 39.2751 119.825 39.142C120.092 38.7426 121.428 38.21 121.829 39.0089C122.23 39.6745 121.695 40.8728 121.428 41.2722C120.76 41.9379 120.092 41.8047 119.291 41.5385ZM118.623 40.6065C118.623 41.0059 118.356 41.8047 118.356 42.2041C119.291 42.2041 118.756 42.071 119.157 42.071C119.825 42.6035 121.027 42.4704 121.829 41.5385C122.897 40.3402 122.497 39.142 122.497 38.6095C122.363 38.4763 122.23 38.21 121.962 38.0769C121.161 37.6775 120.359 38.21 119.959 38.4763L120.359 36.4793H119.691C119.424 37.0118 118.89 40.3402 118.623 40.6065Z" fill="#1F1A17"/>
<path fill-rule="evenodd" clip-rule="evenodd" d="M102.459 38.7426C102.459 39.0089 101.925 41.0059 101.925 41.139C101.791 41.4053 100.322 42.071 99.921 41.4053C99.5202 40.7396 100.055 39.5414 100.322 39.142C100.99 38.3432 101.658 38.4763 102.459 38.7426ZM103.795 36.3461H103.127L102.726 38.21C102.192 38.0769 102.058 37.9438 101.524 37.9438C100.455 37.9438 99.6538 38.8757 99.3866 40.0739C99.1195 41.0059 99.2531 41.8047 99.921 42.2041C100.722 42.7367 101.524 42.071 102.058 41.8047V42.2041H102.726L103.795 36.3461Z" fill="#1F1A17"/>
<path fill-rule="evenodd" clip-rule="evenodd" d="M60.7808 41.0059C60.5136 41.139 60.1129 41.4053 59.7121 41.6716C56.5061 42.7367 56.5061 38.3432 58.777 37.4112C60.1129 36.8787 61.048 37.8106 61.4487 37.9438L61.5823 37.145C60.1129 36.0799 56.9069 36.6124 56.5061 39.6745C56.1054 42.3373 58.2427 42.8698 59.9793 42.2041C60.5136 41.8047 60.6472 41.9379 60.7808 41.0059Z" fill="#1F1A17"/>
<path fill-rule="evenodd" clip-rule="evenodd" d="M66.5249 40.074C66.5249 40.3402 66.3913 40.6065 66.3913 40.8728C66.2578 41.2722 66.2578 41.2722 65.9906 41.4053C65.5898 41.6716 64.7883 41.9379 64.3876 41.5385C63.9868 41.139 64.3876 40.4734 64.7883 40.3402C65.1891 40.074 65.9906 40.074 66.5249 40.074ZM64.3876 38.8757C64.7883 38.7426 65.3227 38.6095 65.857 38.6095C66.5249 38.6095 66.7921 38.8757 66.6585 39.5414C65.857 39.6745 65.4563 39.6745 64.6548 39.8077C64.1204 40.074 63.8532 40.2071 63.5861 40.4734C63.3189 40.8728 63.3189 41.4053 63.4525 41.8047C64.1204 42.8698 65.7234 41.9379 65.9906 41.8047L65.857 42.2041H66.5249C66.6585 41.5385 67.1929 39.4083 67.1929 38.8757C67.0593 37.4112 64.3876 38.0769 64.254 38.0769C64.5212 38.0769 64.254 38.7426 64.3876 38.8757Z" fill="#1F1A17"/>
<path fill-rule="evenodd" clip-rule="evenodd" d="M136.389 40.2071C135.989 42.2042 133.451 42.3373 133.985 39.9408C134.119 39.142 134.519 38.4763 135.321 38.4763C136.523 38.4763 136.657 39.4083 136.389 40.2071ZM133.317 41.5385C133.584 41.8047 133.584 41.9379 133.851 42.2042C134.119 42.3373 134.386 42.4704 134.786 42.4704C136.79 42.4704 137.458 40.3402 137.191 39.0089C137.191 38.8757 137.057 38.7426 137.057 38.6095L136.924 38.3432C136.389 38.2101 136.122 37.9438 135.454 38.0769C134.92 38.2101 134.519 38.4763 134.252 38.7426C133.451 39.2752 133.183 40.3402 133.317 41.5385Z" fill="#1F1A17"/>
<path fill-rule="evenodd" clip-rule="evenodd" d="M90.9708 38.6095C92.9746 37.9438 92.5738 41.4053 91.1044 41.8047C89.2342 42.2041 89.5014 39.0089 90.9708 38.6095ZM92.5738 41.2722C92.7074 40.7396 93.3753 39.4083 92.7074 38.4763C92.5738 38.2101 92.4403 38.2101 92.1731 38.0769L91.9059 37.9438C91.3716 37.9438 90.4365 37.6775 89.635 38.6095C88.6999 39.6745 88.2991 42.3373 90.4365 42.3373C91.9059 42.3373 92.3067 41.4053 92.5738 41.2722Z" fill="#1F1A17"/>
<path fill-rule="evenodd" clip-rule="evenodd" d="M138.527 38.6094C138.527 39.142 137.859 41.4053 137.725 42.2041H138.393C138.66 41.6716 138.928 39.2751 139.195 39.0088C139.328 38.8757 139.863 38.6094 140.13 38.6094C142 38.0769 140.798 40.6065 140.531 42.2041H141.198L141.866 39.4083V38.6094L141.733 38.4763C141.733 38.3432 141.733 38.3432 141.599 38.3432C140.798 37.5444 139.328 38.4763 139.195 38.6094L139.328 38.21H138.66L138.527 38.6094C138.66 38.4763 138.66 38.6094 138.527 38.6094Z" fill="#1F1A17"/>
<path fill-rule="evenodd" clip-rule="evenodd" d="M123.699 39.4083C123.565 40.2071 123.031 41.5385 123.565 42.071C124.367 42.8698 125.703 41.9379 125.836 41.8047L125.703 42.2041H126.371L127.306 38.0769C127.172 37.9438 127.306 38.0769 127.172 37.9438H126.638C126.504 38.7426 126.371 39.4083 126.103 40.074C125.97 40.3402 125.97 40.8728 125.836 41.1391C125.703 41.2722 125.168 41.5385 124.901 41.5385C123.165 41.9379 124.1 39.8077 124.5 37.9438H123.833L123.699 39.4083Z" fill="#1F1A17"/>
<path fill-rule="evenodd" clip-rule="evenodd" d="M70.1317 42.2041C70.9332 42.071 71.8683 41.2722 71.4675 40.4734C71.0668 39.6746 69.8645 40.074 69.3302 39.4083C69.1966 38.7426 69.5974 38.4763 70.2653 38.4763C70.9332 38.4763 71.334 38.7426 71.7347 39.0089L71.8683 38.2101L71.0668 37.9438C69.9981 37.6775 68.7959 38.2101 68.6623 39.142C68.3951 40.6065 70.5324 40.074 70.7996 40.7396C71.0668 41.4053 70.3989 41.6716 69.7309 41.6716C68.3951 41.6716 68.2615 40.4734 68.1279 41.9379C68.5287 42.2041 69.3302 42.6036 70.1317 42.2041Z" fill="#1F1A17"/>
<path fill-rule="evenodd" clip-rule="evenodd" d="M82.1543 42.071C82.555 42.071 82.9558 42.4704 84.0245 42.3373C85.6275 42.071 86.0282 40.4734 84.9595 40.074C84.4252 39.8077 83.7573 39.9408 83.3565 39.5414C83.223 38.8758 83.6237 38.6095 84.2916 38.6095C85.0931 38.6095 85.2267 38.8758 85.761 39.0089L85.8946 38.3432C85.3603 38.2101 84.6924 37.9438 84.0245 38.0769C82.6886 38.3432 81.8871 40.074 83.6237 40.4734C83.8909 40.4734 84.0245 40.6065 84.2916 40.6065C85.3603 40.8728 84.826 41.8047 83.8909 41.8047C83.0894 41.8047 82.8222 41.5385 82.2879 41.2722L82.1543 42.071Z" fill="#1F1A17"/>
<path fill-rule="evenodd" clip-rule="evenodd" d="M75.2079 40.2071C75.0743 40.2071 74.8071 40.074 74.6736 39.9408C74.0056 39.8077 73.0706 39.8077 73.3377 39.0089C73.4713 38.6095 74.0056 38.4763 74.54 38.4763C75.2079 38.4763 75.3415 38.7426 75.7422 38.8757C75.8758 38.7426 75.8758 38.3432 75.8758 38.2101C75.0743 37.8107 74.8071 37.9438 74.0056 37.9438C74.0056 37.9438 72.2691 38.6095 72.6698 39.8077C72.937 40.6065 74.2728 40.3402 74.8071 40.8728C74.9407 41.6716 74.2728 41.8047 73.7385 41.8047C73.0706 41.8047 72.8034 41.5385 72.269 41.2722L72.1355 42.071C72.937 42.3373 73.7385 42.6036 74.6736 42.2041C75.2079 41.8047 75.7422 41.1391 75.2079 40.2071Z" fill="#1F1A17"/>
<path fill-rule="evenodd" clip-rule="evenodd" d="M106.467 39.9408C106.6 39.9408 106.6 39.9408 106.734 40.074C106.867 40.074 106.867 40.2071 107.001 40.2071C107.535 40.3402 108.337 40.4734 108.604 40.7397C108.738 41.4053 108.203 41.6716 107.535 41.6716C106.867 41.6716 106.467 41.4053 106.066 41.1391L105.932 41.8047L106.199 42.071C106.467 42.071 106.867 42.2042 107.268 42.2042C107.669 42.2042 108.07 42.071 108.47 42.071C108.604 41.9379 109.539 41.5385 109.539 40.7397C109.539 39.9408 108.871 39.9408 108.07 39.6746C106.734 39.4083 107.402 38.6095 107.802 38.4763C108.604 38.0769 109.138 38.6095 109.673 38.8758L109.539 38.6095L109.673 38.2101C108.871 37.9438 108.203 37.6775 107.268 38.0769C106.467 38.4763 106.066 39.0089 106.467 39.9408Z" fill="#1F1A17"/>
<path fill-rule="evenodd" clip-rule="evenodd" d="M94.9784 37.0118C94.9784 37.145 94.9784 37.0118 94.8448 37.2781C94.8448 37.4112 94.8448 37.4112 94.7112 37.4112C94.7112 37.5444 94.5776 37.6775 94.5776 37.6775V37.9438H94.1769L94.0433 38.6095H94.444C94.444 39.0089 93.9097 41.4053 93.7761 41.5385C93.7761 41.8047 93.7761 41.9379 93.6425 42.2041H94.3104L95.1119 38.6095H96.3142L96.4478 38.0769H95.2455C95.3791 37.145 95.9135 36.7455 96.9821 37.145L97.1157 36.4793C96.715 36.4793 96.1806 36.3461 95.7799 36.4793C95.2455 36.6124 95.2455 36.8787 94.9784 37.0118Z" fill="#1F1A17"/>
<path fill-rule="evenodd" clip-rule="evenodd" d="M128.508 38.0769L128.374 38.4763H128.508C128.508 38.4763 128.642 38.4763 128.775 38.4763C128.642 39.8077 127.306 42.071 129.176 42.2041C130.378 42.3373 130.245 41.8047 130.245 41.6716V41.5385C129.176 41.8047 128.775 41.6716 129.042 40.6065C129.176 40.2071 129.443 38.7426 129.577 38.6095H131.046L131.18 38.0769H129.71L129.977 36.8787H129.31L129.042 38.0769H128.508Z" fill="#1F1A17"/>
<path fill-rule="evenodd" clip-rule="evenodd" d="M80.952 42.2041C81.4864 41.8047 81.3528 42.3373 81.6199 41.2722C81.3528 41.4053 80.6849 41.9379 79.8833 41.8047C79.2154 41.6716 79.0818 41.0059 79.2154 40.2071C79.4826 38.8757 80.5513 38.0769 82.0207 39.142C82.1543 39.0089 82.1543 38.6095 82.1543 38.3432C81.4864 38.0769 81.3528 37.9438 80.5513 38.0769C79.2154 38.3432 78.5475 39.142 78.4139 40.6065C78.4139 41.4053 78.5475 41.9379 79.0818 42.2041C79.7498 42.6035 80.6849 42.2041 80.952 42.2041Z" fill="#1F1A17"/>
<path fill-rule="evenodd" clip-rule="evenodd" d="M110.474 38.2101L110.341 38.6095H110.741C110.741 39.0089 110.474 39.8077 110.341 40.3402C110.073 41.4053 110.073 41.4053 110.474 42.071C110.741 42.071 110.875 42.2041 111.142 42.2041C111.409 42.2041 111.676 42.071 111.944 42.2041C112.077 42.071 112.077 41.8047 112.077 41.5385C111.008 41.6716 110.608 41.8047 110.875 40.6065C111.008 39.9408 111.142 39.142 111.409 38.6095H112.879L113.012 38.0769H111.543L111.81 36.8787H111.142L110.875 38.0769C110.341 38.0769 110.474 38.0769 110.474 38.2101Z" fill="#1F1A17"/>
<path fill-rule="evenodd" clip-rule="evenodd" d="M113.814 41.6716C113.814 41.4053 114.214 39.6746 114.214 39.4083C114.348 39.142 114.749 38.8757 115.016 38.8757C115.417 38.7426 115.684 38.7426 115.951 38.8757C116.085 38.8757 115.951 38.8757 116.085 38.8757L116.352 38.2101L116.218 38.0769C115.15 37.9438 115.15 38.3432 114.348 38.6095L114.482 38.0769H113.814L112.879 42.3373H113.547L113.68 41.9379C113.814 41.6716 113.814 41.6716 113.814 41.6716Z" fill="#1F1A17"/>
<path fill-rule="evenodd" clip-rule="evenodd" d="M63.4525 36.3461H62.7846L61.4487 42.2041H62.1167L63.4525 36.3461Z" fill="#1F1A17"/>
<path fill-rule="evenodd" clip-rule="evenodd" d="M104.864 40.7396L105.532 38.0769H105.131H104.73L103.795 42.2041H104.463L104.864 40.7396Z" fill="#1F1A17"/>
<path fill-rule="evenodd" clip-rule="evenodd" d="M117.688 39.2751L117.955 38.0769H117.153L116.218 42.2041H116.886L117.688 39.2751Z" fill="#1F1A17"/>
<path fill-rule="evenodd" clip-rule="evenodd" d="M131.046 42.3373L131.714 42.2041L132.649 38.0769H131.981L131.046 42.3373Z" fill="#1F1A17"/>
<path fill-rule="evenodd" clip-rule="evenodd" d="M77.746 38.0769H77.0781L76.143 42.2041H76.8109L77.746 38.0769Z" fill="#1F1A17"/>
<path fill-rule="evenodd" clip-rule="evenodd" d="M105.532 37.2781H105.665L105.799 36.6124H104.997L104.864 37.2781H105.532Z" fill="#1E1C17"/>
<path fill-rule="evenodd" clip-rule="evenodd" d="M117.287 37.2781H118.088L118.222 36.6124H117.421L117.287 37.2781Z" fill="#201B18"/>
<path fill-rule="evenodd" clip-rule="evenodd" d="M132.115 37.2781H132.916L133.05 36.6124H132.382C132.248 36.7456 132.248 36.6124 132.248 36.8787C132.115 37.145 132.115 37.145 132.115 37.2781Z" fill="#1E1C17"/>
<path fill-rule="evenodd" clip-rule="evenodd" d="M78.1468 36.6124H77.3453C77.2117 36.7456 77.2117 37.145 77.2117 37.2781H78.0132L78.1468 36.6124Z" fill="#201B18"/>
</svg>
