<svg width="164" height="44" viewBox="0 0 164 44" fill="none" xmlns="http://www.w3.org/2000/svg">
<path fill-rule="evenodd" clip-rule="evenodd" d="M47.7311 35.0999C43.9923 35.0999 41.6245 33.7259 40.5029 32.8515L40.3782 32.7266L40.5029 32.6017L42.123 30.1035L42.2476 29.9786H42.3722C43.3692 30.7281 45.2386 31.7273 47.8557 31.7273C50.0989 31.7273 51.3452 30.728 51.3452 29.1042C51.3452 27.2306 49.8497 26.7309 47.1079 25.7316L46.8587 25.6067C44.117 24.6074 41.4998 23.2334 41.4998 19.4861C41.4998 16.1135 44.117 13.99 48.1049 13.99C50.4728 13.99 52.3422 14.4897 53.8376 15.364L53.9623 15.4889L53.8376 15.6139L52.5914 18.237L52.4668 18.3619H52.3422C50.9713 17.6124 49.4758 17.3626 47.9803 17.3626C46.6094 17.3626 44.8647 17.7373 44.8647 19.611C44.8647 21.3597 46.2356 21.8594 48.8527 22.7338C51.719 23.7331 54.8346 25.1071 54.8346 29.2291C54.9593 32.8515 52.2175 35.0999 47.7311 35.0999Z" fill="#231F20"/>
<path fill-rule="evenodd" clip-rule="evenodd" d="M57.701 40.0963C56.9533 40.0963 56.3302 39.9714 55.5824 39.8465H55.4578V39.7216L55.8317 37.3483V37.2234H56.0809H56.3302C56.704 37.3483 57.0779 37.3483 57.4518 37.3483C58.8226 37.3483 59.695 36.8487 60.3181 35.5996L55.0839 20.1106L54.9593 19.8608H55.2085H58.8226H58.9473V19.9857L61.9382 30.9779L64.68 19.9857V19.8608H64.8046H68.1695H68.4187L68.2941 20.1106L63.5584 35.3497C62.686 38.7223 60.8166 40.0963 57.701 40.0963Z" fill="#231F20"/>
<path fill-rule="evenodd" clip-rule="evenodd" d="M89.7294 34.8501H89.6048H86.1153H85.9907V34.7252V24.8572C85.9907 23.6081 85.7414 22.7338 84.4952 22.7338C83.6228 22.7338 82.6258 23.2334 81.6288 24.2327V34.7252V34.8501H81.5042H78.0147H77.8901V34.7252V24.8572C77.8901 23.6081 77.6409 22.7338 76.3946 22.7338C75.3976 22.7338 74.4006 23.2334 73.5283 24.3576V34.7252V34.8501H73.4036H69.7895H69.6649V34.7252V19.9857V19.8608H69.7895H71.9082H72.0328V19.9857L72.6559 21.9843C74.276 20.3605 75.7715 19.4861 77.5162 19.4861C79.6348 19.4861 80.5072 20.6103 81.0057 21.7345C82.0027 20.6103 83.6228 19.4861 85.7414 19.4861C89.1063 19.4861 89.854 22.359 89.854 24.8572V34.7252L89.7294 34.8501Z" fill="#231F20"/>
<path fill-rule="evenodd" clip-rule="evenodd" d="M96.2098 35.0999C93.4681 35.0999 91.4741 33.3512 91.4741 30.853C91.4741 29.2291 91.9726 27.98 93.2189 27.2305C94.4651 26.3562 96.4591 25.7316 99.6993 25.232V24.8572C99.6993 23.2334 99.0762 22.6089 97.4561 22.6089C96.0852 22.6089 94.7143 23.1085 93.3435 23.733L93.2189 23.858L93.0942 23.733L91.9726 21.4847V21.2348L92.0972 21.1099C93.9666 19.9857 95.7113 19.3612 97.8299 19.3612C101.444 19.3612 103.438 21.2348 103.438 24.8572V34.4754V34.7252H103.313H101.195H101.07L100.946 34.6003L100.322 33.1013C99.5747 34.1006 98.0792 35.0999 96.2098 35.0999ZM99.6993 27.7302C97.3315 28.2298 96.0852 28.7295 95.5867 29.354C95.3375 29.7288 95.2128 29.9786 95.2128 30.6031C95.2128 31.7273 95.836 32.3519 96.9576 32.3519C97.9546 32.3519 98.9516 31.9771 99.8239 31.2277V27.7302H99.6993Z" fill="#231F20"/>
<path fill-rule="evenodd" clip-rule="evenodd" d="M118.891 34.8501H118.767H115.277H115.153V34.7252V24.8572C115.153 23.3583 114.654 22.7338 113.408 22.7338C112.411 22.7338 111.165 23.3583 110.417 24.3576V34.7252V34.8501H110.292H106.803H106.678V34.7252V19.9857V19.8608H106.803H108.922H109.046V19.9857L109.669 21.9843C111.289 20.3605 112.909 19.4861 114.654 19.4861C117.521 19.4861 118.891 21.2348 118.891 24.8572V34.7252V34.8501Z" fill="#231F20"/>
<path fill-rule="evenodd" clip-rule="evenodd" d="M126.743 35.0999C123.752 35.0999 122.381 33.601 122.381 30.6031V22.6089H120.387H120.262V22.4839V19.9857V19.8608H120.387H122.506L123.253 15.7388V15.6139H123.378H126.12H126.244V15.7388V19.8608H129.235H129.36V19.9857V22.359V22.4839H129.235H126.244V30.3533C126.244 31.6024 126.494 32.1021 127.74 32.1021C128.114 32.1021 128.737 31.9772 129.36 31.8522L129.485 31.7273V31.8522L129.983 34.2255V34.3505L129.858 34.4754C129.235 34.7252 128.238 35.0999 126.743 35.0999Z" fill="#231F20"/>
<path fill-rule="evenodd" clip-rule="evenodd" d="M137.087 35.0999C132.849 35.0999 130.357 32.1021 130.357 27.4804C130.357 22.7338 132.974 19.611 136.962 19.611C140.95 19.611 143.318 22.4839 143.318 27.4804V28.3547V28.4796H143.193H134.345C134.594 30.8529 135.467 31.9771 137.461 31.9771C139.081 31.9771 140.078 31.3526 141.324 30.6031L141.448 30.4782L141.573 30.6031L142.944 32.8515L143.069 32.9764L142.944 33.1013C141.324 34.2255 139.953 35.0999 137.087 35.0999ZM134.22 25.9814H139.33C139.205 23.4832 138.458 22.359 136.837 22.359C135.342 22.359 134.47 23.6081 134.22 25.9814Z" fill="#231F20"/>
<path fill-rule="evenodd" clip-rule="evenodd" d="M151.418 35.0999C146.433 35.0999 144.689 31.1028 144.689 27.4804C144.689 23.858 146.433 19.611 151.418 19.611C153.412 19.611 154.908 20.1106 156.279 21.2348L156.403 21.3597L156.279 21.4847L154.659 23.733L154.534 23.858L154.409 23.733C153.537 23.1085 152.789 22.7338 151.418 22.7338C149.424 22.7338 148.552 24.3576 148.552 27.4804C148.552 30.4782 149.549 32.1021 151.543 32.1021C152.914 32.1021 153.786 31.6024 154.534 30.853L154.659 30.728L154.783 30.853L156.403 32.9764L156.528 33.1013L156.403 33.2263C155.157 34.4754 153.537 35.0999 151.418 35.0999Z" fill="#231F20"/>
<path fill-rule="evenodd" clip-rule="evenodd" d="M18.569 43.0942C8.34982 43.0942 0 34.7252 0 24.4825C0 14.2398 8.34982 5.74588 18.569 5.74588C28.9128 5.74588 37.138 14.1149 37.138 24.3576C37.138 34.6002 28.7882 43.0942 18.569 43.0942ZM18.569 11.6167C15.0795 11.6167 11.9639 12.9907 9.59606 15.364C7.2282 17.7373 5.85734 20.985 5.85734 24.4825C5.85734 27.98 7.2282 31.1027 9.59606 33.601C11.9639 35.9743 15.2041 37.3483 18.569 37.3483C22.0585 37.3483 25.1741 35.9743 27.6666 33.601C30.0344 31.2277 31.4053 27.98 31.4053 24.4825C31.4053 20.985 30.0344 17.8622 27.6666 15.364C25.1741 12.9907 21.9339 11.6167 18.569 11.6167Z" fill="#FFB71B"/>
<path fill-rule="evenodd" clip-rule="evenodd" d="M159.27 32.7266H158.771V32.3519H160.391V32.7266H159.893V34.6003H159.394L159.27 32.7266ZM160.765 32.3519H161.513L162.011 33.9757L162.385 32.3519H163.133V34.6003H162.635V32.8515L162.136 34.6003H161.762L161.264 32.8515V34.6003H160.765V32.3519Z" fill="#231F20"/>
<path d="M40.3782 2.87294H38.8828V4.37187H40.3782V2.87294Z" fill="#FFB71B"/>
<path d="M40.3782 0H38.8828V1.49893H40.3782V0Z" fill="#FFB71B"/>
<path d="M36.141 4.24695H34.7701V5.62097H36.141V4.24695Z" fill="#FFB71B"/>
<path d="M33.5239 7.1199H32.153V8.49392H33.5239V7.1199Z" fill="#231F20"/>
<path d="M37.7612 5.74588H36.1411V7.1199H37.7612V5.74588Z" fill="#231F20"/>
<path d="M32.153 5.74588H30.7822V7.1199H32.153V5.74588Z" fill="#231F20"/>
<path d="M36.141 7.1199H34.7701V8.49392H36.141V7.1199Z" fill="#231F20"/>
<path d="M38.7581 1.37402H37.3873V2.74804H38.7581V1.37402Z" fill="#231F20"/>
<path d="M37.3872 2.87294H34.7701V4.37187H37.3872V2.87294Z" fill="#231F20"/>
<path d="M34.8948 4.24695H33.5239V7.11989H34.8948V4.24695Z" fill="#231F20"/>
<path fill-rule="evenodd" clip-rule="evenodd" d="M33.5239 8.4939V9.86791H32.153V8.4939H29.9098V9.49318H28.6636V10.7423H30.0344V12.1163H28.6636V10.7423H27.2927V12.8658H25.9218V14.2398H24.9248V15.6138H23.9278C22.8062 17.2376 20.0645 22.4839 19.1921 24.6074C16.2011 20.3604 13.7087 18.6117 11.8393 17.9871C10.8423 17.7373 9.59605 18.7366 11.3408 20.4853C15.2041 24.7323 16.4504 28.2298 17.572 30.9778C18.1951 32.4767 20.9369 32.7266 21.56 31.2276C22.6816 27.98 24.4263 24.4825 26.4203 21.4846V19.9857H27.4173V18.6117H28.5389V16.9878H29.9098V15.364H28.5389V13.99H29.9098V15.364H31.2807V13.99H32.4023V12.491H33.6485V11.3668H34.7701V8.4939H33.5239Z" fill="#231F20"/>
</svg>
