<svg width="139" height="19" viewBox="0 0 139 19" fill="none" xmlns="http://www.w3.org/2000/svg">
<path fill-rule="evenodd" clip-rule="evenodd" d="M19.4892 0.224365H8.71887C4.103 0.224365 0 4.45558 0 8.55858C0 11.5076 0.512875 13.4309 2.56437 15.4824C3.97478 16.8928 6.1545 18.0468 8.33422 18.0468H20.0021C24.1051 18.0468 28.3363 14.072 28.3363 9.07146C28.3363 4.32736 24.2333 0.224365 19.4892 0.224365ZM18.3353 15.7388H9.87284C8.33422 15.7388 6.66737 14.8413 5.64162 13.8155C4.23122 12.2769 3.84656 10.8665 3.84656 8.6868C3.84656 5.73777 6.79559 2.66052 10.2575 2.66052H17.9506C21.4125 2.66052 24.3616 5.60955 24.3616 9.07146C24.4898 12.7898 21.4125 15.7388 18.3353 15.7388Z" fill="#FF0000"/>
<path fill-rule="evenodd" clip-rule="evenodd" d="M30.0032 0.609021V18.0468H33.5933V3.42983H44.4919C48.082 3.42983 48.5949 7.40461 46.2869 8.6868C45.5176 9.32789 44.2355 9.07146 42.825 9.07146C40.2607 9.07146 37.6963 9.07146 35.1319 9.07146C35.2601 9.58433 35.3884 9.32789 35.773 9.84077L43.8508 16.8928C44.2355 17.1492 44.3637 17.2775 44.6201 17.6621C44.8765 18.0468 45.2612 18.175 45.5176 18.175H47.1845C48.2102 18.175 49.236 18.175 50.2617 18.175C50.0053 17.7903 49.8771 17.7903 49.4924 17.4057C49.1078 17.1492 48.9795 17.021 48.7231 16.7646C48.2102 16.3799 44.1072 13.0462 43.8508 12.5334C46.2869 12.5334 47.6974 12.1487 48.9795 10.9947C53.7236 6.76352 50.1335 0.224365 45.3894 0.224365H30.3878C30.1314 0.224365 30.0032 0.352584 30.0032 0.609021Z" fill="#FF0000"/>
<path fill-rule="evenodd" clip-rule="evenodd" d="M117.064 9.07147C117.064 11.5076 118.089 13.6873 119.5 15.3542C120.782 16.8928 123.346 18.175 125.526 18.175H136.425C136.809 18.175 136.809 17.9186 137.066 17.5339C137.322 17.1493 137.45 17.021 137.579 16.6364C137.835 16.1235 138.476 15.226 138.604 14.8413C135.014 14.8413 131.296 14.8413 127.706 14.8413C125.526 14.8413 124.5 14.8413 123.09 13.9438C122.064 13.1745 121.038 12.1487 120.782 10.7383H135.527C135.912 9.969 137.322 8.17394 137.45 7.53285H120.782C121.295 6.37888 121.423 5.60957 122.705 4.58382C123.603 3.81451 124.757 3.30163 126.424 3.30163C129.757 3.30163 133.091 3.30163 136.425 3.30163C136.938 2.4041 138.22 0.609039 138.348 0.096164C134.886 0.096164 126.039 -0.288492 123.603 0.48082C119.884 1.63479 117.064 5.35313 117.064 9.07147Z" fill="#FF0000"/>
<path fill-rule="evenodd" clip-rule="evenodd" d="M51.2875 18.175H55.2623C57.8266 14.3285 60.391 9.96903 62.9554 5.99425L64.1093 4.07097C64.7504 4.45563 68.2123 10.6101 68.9817 11.7641H60.0063C60.1346 12.5334 61.4168 13.9438 61.9296 15.0978H71.4178C71.546 15.8671 72.8282 17.4057 73.0847 18.175H77.1877C76.2901 16.6364 67.5713 3.04522 66.6737 1.63482C65.7762 0.352629 65.3915 0.0961914 63.8529 0.0961914C62.6989 0.0961914 62.1861 1.12194 61.8014 1.76303L54.3647 13.4309C53.7236 14.2002 51.4157 17.6622 51.2875 18.175Z" fill="#FF0000"/>
<path fill-rule="evenodd" clip-rule="evenodd" d="M75.3926 9.19972C75.3926 12.6616 77.4441 15.6107 80.2649 17.1493C81.0342 17.5339 82.5728 18.175 83.5986 18.175H94.8818C95.2665 18.175 95.5229 17.5339 96.0358 16.7646C96.4205 16.1235 96.8051 15.6107 97.0616 15.0978C93.0868 15.0978 89.112 15.0978 85.1372 15.0978C77.4441 15.0978 76.6748 4.96851 83.9832 3.68632C85.1372 3.42988 93.0868 3.5581 94.8818 3.5581C95.0101 3.17345 96.4205 1.25016 96.8051 0.352634C93.3432 0.352634 84.4961 -0.0320224 82.06 0.73729C78.4698 1.5066 75.3926 4.84029 75.3926 9.19972Z" fill="#FF0000"/>
<path fill-rule="evenodd" clip-rule="evenodd" d="M98.472 16.6364C98.472 17.4057 99.2413 18.175 100.011 18.175H115.653C116.166 18.175 117.833 15.226 117.833 14.9695H101.934V0.224365H98.472V16.6364Z" fill="#FF0000"/>
</svg>
