<svg width="157" height="28" viewBox="0 0 157 28" fill="none" xmlns="http://www.w3.org/2000/svg">
<path fill-rule="evenodd" clip-rule="evenodd" d="M106.285 20.6789H120.337V17.4679H111.011C112.289 12.3303 120.081 11.1743 120.081 5.3945C120.081 2.31193 117.91 0 113.566 0C110.756 0 108.456 0.770642 106.796 1.66972L107.818 4.49541C109.351 3.72477 111.011 3.08257 113.055 3.08257C114.716 3.08257 116.249 3.85321 116.249 5.65138C116.249 10.1468 107.051 10.5321 106.285 20.6789ZM120.72 15.7982H129.79V20.8073H133.367V15.7982H136.433V12.7156H133.367V0.256881H130.684L120.72 13.3578V15.7982ZM124.808 12.844L129.918 5.90826C129.918 6.55046 129.79 8.22018 129.79 9.88991V12.844H127.363C126.724 12.7156 125.319 12.844 124.808 12.844Z" fill="#0066A0"/>
<path fill-rule="evenodd" clip-rule="evenodd" d="M3.70464 17.7248V11.3027H5.23759C6.6428 11.3027 7.66477 11.4312 8.55899 11.9449C9.45321 12.4587 9.83645 13.2294 9.83645 14.5138C9.83645 16.6972 8.55899 17.7248 5.49308 17.7248H3.70464ZM0 20.6789H5.36534C11.3694 20.6789 13.5411 17.9816 13.5411 14.3853C13.5411 11.9449 12.5191 10.2752 10.7307 9.2477C9.32547 8.47706 7.40928 8.22018 5.23759 8.22018H3.70464V3.33944H11.8804L12.7746 0.385315H0V20.6789ZM16.096 20.6789H19.6729L24.2718 14.1284C25.166 12.844 25.8047 11.6881 26.188 11.0459C26.188 11.9449 26.0602 12.9725 26.0602 14.2569V20.8073H29.6371V6.16513H26.0602L21.4614 12.7156C20.6949 14 19.9284 15.156 19.5452 15.7982C19.5452 14.8991 19.6729 13.8716 19.6729 12.5871V6.16513H16.096V20.6789ZM35.7689 20.6789H39.4736V9.11926H43.8169L44.7112 6.16513H31.4256V9.2477H35.7689V20.6789ZM45.9886 28H49.6933V20.6789C50.4597 20.9358 51.2262 21.0642 51.9927 21.0642C56.5915 21.0642 59.5297 17.8532 59.5297 13.3578C59.5297 8.73394 56.847 5.77981 51.6094 5.77981C49.5655 5.77981 47.6493 6.16513 46.1164 6.67889V28H45.9886ZM49.6933 17.5963V8.99082C50.2042 8.86238 50.7152 8.73394 51.354 8.73394C53.9089 8.73394 55.6973 10.2752 55.6973 13.3578C55.6973 16.1835 54.2921 17.9816 51.6094 17.9816C50.843 17.9816 50.332 17.8532 49.6933 17.5963ZM61.7014 20.6789H65.2783L69.8771 14.1284C70.7714 12.844 71.4101 11.6881 71.7933 11.0459C71.7933 11.9449 71.6656 12.9725 71.6656 14.2569V20.8073H75.2425V6.16513H71.6656L67.0667 12.7156C66.1725 14 65.5338 15.156 65.1505 15.7982C65.1505 14.8991 65.2783 13.8716 65.2783 12.5871V6.16513H61.7014V20.6789ZM78.0529 20.6789H81.7575V14.6422H83.9292C84.3124 14.6422 84.8234 15.0275 85.2067 16.055L86.9951 20.6789H90.9552L88.2726 15.0275C87.7616 14.1284 87.3784 13.4862 86.6119 13.2294C87.8894 12.4587 88.0171 10.4037 88.6558 9.37614C89.0391 9.11926 89.4223 8.99082 89.8055 8.99082C90.061 8.99082 90.4443 8.99082 90.572 9.11926V5.90825C90.1888 5.77981 89.4223 5.65137 89.0391 5.65137C87.7616 5.65137 86.9951 6.16513 86.3564 6.93577C85.2067 8.73394 85.2067 11.8165 83.4182 11.8165H81.7575V6.16513H78.0529V20.6789ZM99.2588 21.0642C101.303 21.0642 103.091 20.422 104.241 19.6514L103.219 17.0826C102.197 17.5963 101.175 18.1101 99.8975 18.1101C97.4703 18.1101 95.8096 16.4404 95.8096 13.4862C95.8096 10.789 97.4703 8.73394 100.153 8.73394C101.558 8.73394 102.708 9.11926 103.73 9.8899V6.67889C102.963 6.16513 101.686 5.65137 99.7697 5.65137C95.4264 5.65137 92.105 8.86238 92.105 13.4862C91.8495 17.7248 94.5321 21.0642 99.2588 21.0642Z" fill="#2EC5F5"/>
<path fill-rule="evenodd" clip-rule="evenodd" d="M148.441 15.6697C152.401 15.6697 155.595 12.4587 155.595 8.47705C155.595 4.4954 152.401 1.28439 148.441 1.28439C144.481 1.28439 141.287 4.4954 141.287 8.47705C141.415 12.4587 144.609 15.6697 148.441 15.6697Z" stroke="#0066A0" stroke-width="2.1498"/>
<path fill-rule="evenodd" clip-rule="evenodd" d="M152.912 8.47705H149.08V4.62384H147.93V9.63302H152.912V8.47705Z" fill="#0066A0"/>
</svg>
