<svg width="120" height="42" viewBox="0 0 120 42" fill="none" xmlns="http://www.w3.org/2000/svg">
<path d="M4.14718 9.66135H0.267578V26.8371H4.14718V9.66135Z" fill="#505359"/>
<path d="M77.0569 0.670929H8.96323V3.75719H77.0569V0.670929Z" fill="#505359"/>
<path fill-rule="evenodd" clip-rule="evenodd" d="M37.592 13.016C36.9231 13.016 36.2542 12.8818 35.0502 12.8818C31.8395 12.8818 30.5017 15.2971 30.5017 18.3834C30.5017 22.4089 32.107 23.885 34.6488 23.885C35.8528 23.885 36.7893 23.3482 37.4582 23.0799V13.016H37.592ZM33.9799 33.9489C31.5719 33.9489 29.2977 33.4121 27.9599 33.0096L28.495 29.7891C29.9666 30.1917 32.107 30.4601 33.311 30.4601C35.8528 30.4601 37.592 30.0575 37.592 26.9713C37.592 26.9713 37.592 26.1661 37.592 26.032C36.7893 26.7029 35.7191 27.1054 34.5151 27.1054C30.903 27.1054 26.7559 26.032 26.7559 18.3834C26.7559 12.4792 30.5017 9.39297 35.0502 9.39297C36.9231 9.39297 38.796 9.66135 41.3378 10.0639V27.3738C41.3378 32.2045 37.3244 33.9489 33.9799 33.9489Z" fill="#505359"/>
<path fill-rule="evenodd" clip-rule="evenodd" d="M52.3077 12.3451C50.7023 12.3451 48.9632 13.5527 48.8294 16.3706H55.2508C55.2508 13.8211 53.913 12.3451 52.3077 12.3451ZM48.6956 19.3227C48.6956 23.0799 50.8361 23.6166 53.7793 23.6166C54.8495 23.6166 56.8562 23.4824 58.0602 23.2141L58.5953 26.4345C57.3913 26.8371 54.9833 27.1054 52.9766 27.1054C48.0267 27.1054 44.816 25.2268 44.816 18.5176C44.816 11.5399 48.0267 9.25879 52.5752 9.25879C57.1237 9.25879 58.9966 12.4792 58.9966 17.8466V19.3227H48.6956Z" fill="#505359"/>
<path d="M85.6187 9.66135H81.7391V26.8371H85.6187V9.66135Z" fill="#505359"/>
<path fill-rule="evenodd" clip-rule="evenodd" d="M101.137 13.2843C100.067 12.8818 99.1304 12.4792 97.5251 12.4792C95.1171 12.4792 93.2442 13.9553 93.2442 17.9808C93.2442 21.8722 94.1806 23.6166 98.4615 23.6166C99.7993 23.6166 100.602 23.3482 101.672 23.2141L102.207 26.4345C101.003 26.7029 99.9331 26.9712 98.194 26.9712C91.7726 26.9712 89.3646 24.4217 89.3646 17.9808C89.3646 12.4792 92.5753 9.1246 97.6589 9.1246C99.9331 9.1246 101.405 9.66134 102.475 10.1981L101.137 13.2843Z" fill="#505359"/>
<path fill-rule="evenodd" clip-rule="evenodd" d="M112.107 12.4792C109.03 12.4792 108.094 15.2971 108.094 18.2492C108.094 21.4697 109.03 23.885 112.107 23.885C115.184 23.885 115.987 21.3355 115.987 18.2492C116.12 15.2971 115.318 12.4792 112.107 12.4792ZM111.973 27.2396C107.023 27.2396 104.348 23.885 104.348 18.3834C104.348 12.6134 107.559 9.25879 112.241 9.25879C117.592 9.25879 120 12.6134 120 18.2492C120 24.1534 116.522 27.2396 111.973 27.2396Z" fill="#505359"/>
<path fill-rule="evenodd" clip-rule="evenodd" d="M4.41472 2.14696C4.41472 3.35463 3.47826 4.29393 2.27425 4.29393C0.936455 4.42811 0 3.48882 0 2.14696C0 0.805112 0.936455 0 2.14047 0C3.47826 0 4.41472 0.939297 4.41472 2.14696Z" fill="#505359"/>
<path fill-rule="evenodd" clip-rule="evenodd" d="M85.8863 2.14697C85.8863 3.35463 84.9498 4.29393 83.7458 4.29393C82.5418 4.29393 81.6053 3.35463 81.6053 2.14697C81.6053 0.939297 82.408 0 83.7458 0C84.9498 0 85.8863 0.939297 85.8863 2.14697Z" fill="#505359"/>
<path fill-rule="evenodd" clip-rule="evenodd" d="M18.0602 9.1246C15.6522 9.1246 13.7793 10.6006 12.709 11.4058L12.5753 11.5399C12.1739 10.1981 11.2375 9.79553 10.301 9.66134H8.96323V26.8371H12.8428V14.2236C13.6455 13.8211 15.3846 12.7476 16.99 12.7476C19.1305 12.7476 19.5318 13.8211 19.5318 16.3706V26.8371H23.4114V15.9681C23.2776 12.345 23.0101 9.1246 18.0602 9.1246Z" fill="#505359"/>
<path fill-rule="evenodd" clip-rule="evenodd" d="M71.8395 9.1246C69.4314 9.1246 67.5585 10.6006 66.4883 11.4058L66.3545 11.5399C65.9532 10.1981 65.0167 9.79553 64.0803 9.66134H62.6087V26.8371H66.4883V14.2236C67.291 13.8211 69.0301 12.7476 70.6355 12.7476C72.7759 12.7476 73.1773 13.8211 73.1773 16.3706V26.8371H77.0569V15.9681C76.9231 12.345 76.6555 9.1246 71.8395 9.1246Z" fill="#505359"/>
<path fill-rule="evenodd" clip-rule="evenodd" d="M83.612 41.3291C82.9431 41.7316 81.8729 41.8658 80.8027 41.8658C77.7258 41.8658 76.388 40.2556 76.388 36.7668C76.388 33.1438 77.7258 31.6677 80.8027 31.6677C81.7391 31.6677 82.6756 31.8019 83.3445 32.2045L83.2107 33.4121C82.5418 33.1438 81.7391 33.0096 80.8027 33.0096C78.6622 33.0096 77.7258 33.9489 77.7258 36.901C77.7258 39.853 78.5284 40.7923 80.6689 40.7923C81.3378 40.7923 81.8729 40.6581 82.408 40.524V36.6326H83.612V41.3291Z" fill="#E31E24"/>
<path fill-rule="evenodd" clip-rule="evenodd" d="M88.9632 33.0096H86.9565V36.4984H88.8294C90.0334 36.4984 90.5685 35.9617 90.5685 34.754C90.8361 33.5463 90.301 33.0096 88.9632 33.0096ZM90.301 37.3035L92.8428 41.7316H91.2374L88.9632 37.5719H86.9565V41.7316H85.6187V31.8019H88.8294C90.9699 31.8019 91.9063 32.7412 91.9063 34.6198C92.1739 36.23 91.505 37.1693 90.301 37.3035Z" fill="#E31E24"/>
<path fill-rule="evenodd" clip-rule="evenodd" d="M97.7926 33.0096C95.9197 33.0096 95.1171 33.8147 95.1171 36.901C95.1171 39.9872 95.786 40.7923 97.7926 40.7923C99.6656 40.7923 100.468 39.9872 100.468 36.901C100.334 33.8147 99.6656 33.0096 97.7926 33.0096ZM97.7926 42C94.9833 42 93.7793 40.524 93.7793 36.901C93.7793 33.2779 94.8495 31.8019 97.7926 31.8019C100.736 31.8019 101.806 33.2779 101.806 36.901C101.806 40.3898 100.602 42 97.7926 42Z" fill="#E31E24"/>
<path fill-rule="evenodd" clip-rule="evenodd" d="M111.037 38.2428C111.037 40.7923 109.699 42 107.425 42C105.017 42 103.679 40.7923 103.679 38.2428V31.9361H105.017V38.2428C105.017 39.9872 105.819 40.7923 107.425 40.7923C109.03 40.7923 109.833 39.9872 109.833 38.2428V31.9361H111.171V38.2428H111.037Z" fill="#E31E24"/>
<path fill-rule="evenodd" clip-rule="evenodd" d="M116.656 33.0096H114.783V36.901H116.656C117.993 36.901 118.662 36.4984 118.662 34.8882C118.662 33.5463 117.993 33.0096 116.656 33.0096ZM116.656 38.1086H114.783V41.8658H113.445V31.9361H116.656C119.064 31.9361 120 32.8754 120 35.0224C120 37.0351 119.064 38.1086 116.656 38.1086Z" fill="#E31E24"/>
</svg>
