<svg width="173" height="20" viewBox="0 0 173 20" fill="none" xmlns="http://www.w3.org/2000/svg">
<path d="M0 19.8033V0.252769H21.4366V4.6067H4.74508V7.92131H19.1199V12.1348H4.74508V19.8033H0ZM71.7344 19.8033V13.146C71.7344 12.5561 71.232 12.3033 71.232 12.3033C71.0087 12.1629 70.3388 12.1348 69.334 12.1348H69.5573H59.5647V19.8314H54.8196V0.252769H69.6131C72.181 0.252769 73.9395 0.646028 75.1397 1.8258C76.34 3.06176 76.4795 4.66288 76.5074 6.32019V7.72468C76.5353 9.12917 75.7817 10.4213 74.8885 11.1797L75.056 11.264C75.4188 11.4325 75.6142 11.6854 75.6142 11.6854C76.2841 12.5561 76.2841 13.2865 76.2841 14.2134V19.8033H71.7344ZM69.1665 7.92131C70.3388 7.92131 71.0087 7.92131 71.2878 7.75277C71.2878 7.75277 71.7623 7.47187 71.7903 6.91007V5.61794C71.7903 5.02805 71.2878 4.77524 71.2878 4.77524C70.925 4.57861 70.283 4.6067 68.8036 4.6067H59.5647V7.92131H69.3619H69.1665ZM83.4576 19.8033V4.6067H78.9916V0.252769H96.7996V4.6067H88.2026V19.8033H83.4576ZM84.6857 3.37075V2.72468V3.37075ZM158.43 19.8033V4.6067H153.964V0.252769H171.772V4.6067H163.175V19.8033H158.43ZM159.63 3.37075V2.72468V3.37075ZM99.1442 19.8033V0.252769H103.889V19.8033H99.1442ZM132.471 19.8033V0.252769H151.591V4.6067H137.217V7.92131H147.209V12.1348H137.217V15.4494H151.703V19.8033H132.471ZM112.207 19.8033H107.434V0.252769H122.758C122.758 0.252769 125.577 0.14041 127.336 1.91007C127.336 1.91007 129.15 3.45502 129.15 7.19097V19.8033H124.405V6.88198C124.405 6.88198 124.461 5.56176 124.014 5.11232C124.014 5.11232 123.623 4.6067 122.87 4.6067H112.207V19.8033ZM170.655 19.7752C169.344 19.7752 168.311 18.7078 168.311 17.4157C168.311 16.1236 169.371 15.0561 170.655 15.0561C171.939 15.0561 173 16.1236 173 17.4157C173 18.7359 171.967 19.7752 170.655 19.7752ZM170.655 15.337C169.511 15.337 168.59 16.264 168.59 17.4438C168.59 18.5955 169.511 19.5224 170.655 19.5224C171.8 19.5224 172.721 18.5955 172.721 17.4438C172.749 16.264 171.8 15.337 170.655 15.337ZM169.79 16.0393H170.934C171.325 16.0393 171.716 16.1236 171.772 16.7134C171.772 17.0505 171.688 17.1629 171.437 17.3595C171.716 17.5281 171.716 17.5842 171.744 18.0337C171.772 18.3707 171.716 18.4269 171.856 18.6516H171.465L171.409 18.3146C171.353 18.0056 171.493 17.5281 170.962 17.5281H170.125V18.6516H169.79V16.0393ZM170.125 16.3483V17.2472H170.962C171.186 17.2472 171.409 17.191 171.437 16.8539C171.493 16.4045 171.158 16.3483 170.962 16.3483H170.125Z" fill="#231F20"/>
<path d="M23.53 7.41573H31.4013V12.6124H23.53V7.41573ZM33.5784 0.0280899H41.3101V5.22472H33.5784V0.0280899ZM33.5784 14.7753H41.3101V19.9719H33.5784V14.7753ZM43.4594 7.41573H51.3585V12.6124H43.4594V7.41573ZM26.7678 0.0280899C25.121 0.449438 23.8371 2.30337 23.53 4.66292V5.25281H31.4013V0.0280899H26.7678ZM23.53 14.7753V15.4213C23.8092 17.6685 25.0094 19.4663 26.5725 19.9719H31.4292V14.7753H23.53ZM51.3585 5.22472V4.63483C51.0515 2.30337 49.7675 0.449438 48.1207 0H43.4594V5.19663H51.3585V5.22472ZM48.3161 20C49.8513 19.4663 51.0515 17.6966 51.3585 15.4494V14.8034H43.4594V20H48.3161Z" fill="#EE3124"/>
</svg>
